<svg width="93" height="152" viewBox="0 0 93 152" fill="none" xmlns="http://www.w3.org/2000/svg">
<path d="M24.7812 145.283C13.6474 145.283 4.62354 136.257 4.62354 125.125V80.4028C15.7573 80.4028 24.7812 89.4289 24.7812 100.56V145.283Z" fill="#6D41A2"/>
<path d="M92.9937 142.708C73.3124 150.565 70.9077 142.814 66.3102 132.676L47.8389 91.9463C57.9787 87.3478 69.9249 91.841 74.5224 101.979L92.9937 142.708Z" fill="#6D41A2"/>
<path d="M86.1056 42.8077C86.1056 66.4497 66.94 85.6154 43.2979 85.6154C19.6559 85.6154 0.490234 66.4497 0.490234 42.8077C0.490234 19.1657 19.6559 0 43.2979 0C66.94 0 86.1056 19.1657 86.1056 42.8077ZM20.1293 42.8077C20.1293 55.6034 30.5023 65.9763 43.2979 65.9763C56.0936 65.9763 66.4666 55.6034 66.4666 42.8077C66.4666 30.012 56.0936 19.6391 43.2979 19.6391C30.5023 19.6391 20.1293 30.012 20.1293 42.8077Z" fill="#6D41A2"/>
<path fill-rule="evenodd" clip-rule="evenodd" d="M42.2496 57.5266C39.0503 53.6177 31.9808 44.4096 31.9808 39.3634C31.9808 32.8414 37.2679 27.5544 43.7899 27.5544C50.3118 27.5544 55.5989 32.8414 55.5989 39.3634C55.5989 44.4096 48.5294 53.6178 45.3301 57.5266C44.534 58.4993 43.0457 58.4993 42.2496 57.5266ZM37.2036 39.3634C37.2036 43.0008 40.1523 45.9495 43.7897 45.9495C47.4271 45.9495 50.3757 43.0008 50.3757 39.3634C50.3757 35.726 47.4271 32.7773 43.7897 32.7773C40.1523 32.7773 37.2036 35.726 37.2036 39.3634Z" fill="#6D41A2"/>
</svg>
