<svg width="24" height="24" viewBox="0 0 24 24" fill="none" xmlns="http://www.w3.org/2000/svg">
<path d="M0.750125 9.17252C0.747024 9.36254 0.801757 9.54902 0.907065 9.70723C1.01237 9.86544 1.16328 9.98791 1.33979 10.0584L10.3403 13.6591L13.9411 22.6604C14.0107 22.8345 14.1308 22.9837 14.2861 23.0888C14.4413 23.1939 14.6245 23.2501 14.812 23.25H14.827C15.0169 23.247 15.2014 23.1864 15.3561 23.0763C15.5107 22.9661 15.6283 22.8116 15.6932 22.6332L23.1929 2.00956C23.2543 1.84179 23.2665 1.65996 23.228 1.4855C23.1895 1.31104 23.102 1.15121 22.9757 1.02483C22.8494 0.89845 22.6896 0.810788 22.5152 0.772166C22.3408 0.733545 22.1589 0.745573 21.9911 0.806833L1.36697 8.30633C1.18845 8.37141 1.03389 8.48916 0.923745 8.644C0.8136 8.79883 0.753056 8.98346 0.750125 9.17345V9.17252Z" fill="#6D41A2"/>
</svg>
