<svg width="80" height="80" viewBox="0 0 80 80" fill="none" xmlns="http://www.w3.org/2000/svg">
<g clip-path="url(#clip0_1879_82426)">
<path d="M22.3909 24.0198L24.4442 25.0105V29.9737C24.4442 38.2517 31.421 44.9836 40.0001 44.9836C48.5791 44.9836 55.5559 38.2517 55.5559 29.9737V25.0105L57.6119 24.0198C59.5305 23.0942 60.7412 21.203 60.7412 19.1316C60.7412 16.69 59.0612 14.5436 56.6267 13.8757L44.4024 10.5235C41.5116 9.82551 38.4886 9.82551 35.5978 10.5235L23.3735 13.8757C20.939 14.5436 19.259 16.69 19.259 19.1316C19.259 21.2005 20.4697 23.0942 22.3883 24.0198H22.3909ZM50.3707 29.9737C50.3707 35.4924 45.7195 39.9803 40.0001 39.9803C34.2807 39.9803 29.6295 35.4924 29.6295 29.9737V29.0356C32.1651 29.556 35.5822 30.0138 40.0001 30.0138C44.418 30.0138 47.8351 29.556 50.3707 29.0356V29.9737ZM33.5185 18.7163C34.2548 17.5331 35.8467 17.1478 37.0756 17.8583L40.0001 19.5519L42.9246 17.8583C44.1535 17.1478 45.7454 17.5306 46.4817 18.7163C47.218 19.9021 46.8213 21.4381 45.5924 22.1486L41.3327 24.6127C40.5108 25.088 39.4867 25.088 38.6649 24.6127L34.4052 22.1486C33.1763 21.4381 32.7796 19.8996 33.5159 18.7163H33.5185ZM63.3131 67.1882C63.4894 68.5591 62.4835 69.8099 61.0627 69.98C60.9538 69.9925 60.8449 70 60.7386 70C59.4501 70 58.3327 69.0744 58.1693 67.8086C57.1712 60.106 51.8459 54.5449 44.4283 52.9613L41.299 57.4918L44.9209 66.983C45.6391 68.3689 44.5943 70 42.9868 70H37.016C35.4085 70 34.3637 68.3689 35.0819 66.983L38.7038 57.4918L35.5745 52.9613C28.1569 54.5449 22.829 60.106 21.8309 67.8086C21.6546 69.1795 20.3738 70.1476 18.9375 69.98C17.5167 69.8099 16.5082 68.5591 16.6871 67.1882C18.1882 55.5855 27.7758 47.4852 40.0001 47.4852C52.2244 47.4852 61.812 55.5855 63.3131 67.1882Z" fill="#9E9FA4"/>
</g>
<defs>
<clipPath id="clip0_1879_82426">
<rect width="80" height="80" fill="white"/>
</clipPath>
</defs>
</svg>
