<svg width="136" height="66" viewBox="0 0 136 66" fill="none" xmlns="http://www.w3.org/2000/svg">
<path d="M0.5 33C0.5 14.7746 15.2746 0 33.5 0H102.5C120.725 0 135.5 14.7746 135.5 33C135.5 51.2254 120.725 66 102.5 66H33.5C15.2746 66 0.5 51.2254 0.5 33Z" fill="#EBEBEB"/>
<g clip-path="url(#clip0_3625_29941)">
<path d="M40.54 33.8166H40.5443C40.5443 33.8166 38.9286 36.2444 37.57 38.0488C36.3957 39.6073 36.0529 40.942 35.9543 41.5873C35.9157 41.8244 35.7271 42 35.5 42C35.2729 42 35.0843 41.8244 35.0457 41.5873C34.9471 40.942 34.6043 39.6073 33.43 38.0488C33.25 37.8073 33.0657 37.5571 32.8814 37.3024L37.3171 31.9024L40.8871 27.5649C41.2814 28.4122 41.5 29.3605 41.5 30.3659C41.5 31.639 41.1443 32.82 40.54 33.8166Z" fill="#48B564"/>
<path d="M37.3171 31.9024L32.8814 37.3024C31.6729 35.6429 30.4557 33.8166 30.4557 33.8166H30.46C30.3314 33.6059 30.2157 33.3907 30.1171 33.1668L33.6829 28.8293C33.3443 29.2463 33.1429 29.782 33.1429 30.3659C33.1429 31.7005 34.1971 32.7805 35.5 32.7805C36.2329 32.7805 36.8886 32.438 37.3171 31.9024Z" fill="#FCC60E"/>
<path d="M37.3857 24.3249L33.7129 28.7941L30.9014 26.2829C31.9986 24.8868 33.6529 24 35.5 24C36.16 24 36.7943 24.1141 37.3857 24.3249Z" fill="#2C85EB"/>
<path d="M33.7129 28.7941L33.6829 28.8293L30.1171 33.1668C29.7229 32.3195 29.5 31.3712 29.5 30.3659C29.5 28.8117 30.0271 27.3849 30.9014 26.2829L33.7129 28.7941Z" fill="#ED5748"/>
<path d="M37.3171 31.9024C37.6557 31.4854 37.8571 30.9498 37.8571 30.3659C37.8571 29.0312 36.8029 27.9512 35.5 27.9512C34.7671 27.9512 34.1114 28.2937 33.6829 28.8293L37.3857 24.3249C38.9243 24.8605 40.1843 26.0415 40.8871 27.5649L37.3171 31.9024Z" fill="#5695F6"/>
</g>
<path d="M74.0592 24.38C74.4699 24.38 74.7999 24.512 75.0492 24.776C75.2986 25.0253 75.4232 25.3627 75.4232 25.788V38.812C75.4232 39.2227 75.3059 39.5453 75.0712 39.78C74.8366 40.0147 74.5286 40.132 74.1472 40.132C73.7659 40.132 73.4652 40.0147 73.2452 39.78C73.0252 39.5453 72.9152 39.2227 72.9152 38.812V29.748L69.1752 36.832C68.9992 37.1547 68.8086 37.3967 68.6032 37.558C68.3979 37.7047 68.1559 37.778 67.8772 37.778C67.5986 37.778 67.3566 37.7047 67.1512 37.558C66.9459 37.4113 66.7552 37.1693 66.5792 36.832L62.8172 29.858V38.812C62.8172 39.208 62.6999 39.5307 62.4652 39.78C62.2452 40.0147 61.9446 40.132 61.5632 40.132C61.1819 40.132 60.8812 40.0147 60.6612 39.78C60.4412 39.5453 60.3312 39.2227 60.3312 38.812V25.788C60.3312 25.3627 60.4486 25.0253 60.6832 24.776C60.9326 24.512 61.2626 24.38 61.6732 24.38C62.2452 24.38 62.6926 24.6953 63.0152 25.326L67.8992 34.632L72.7612 25.326C73.0839 24.6953 73.5166 24.38 74.0592 24.38ZM82.7073 28.978C84.2033 28.978 85.3106 29.352 86.0293 30.1C86.7626 30.8333 87.1293 31.9553 87.1293 33.466V38.834C87.1293 39.23 87.0119 39.5453 86.7773 39.78C86.5426 40 86.2199 40.11 85.8093 40.11C85.4279 40.11 85.1126 39.9927 84.8633 39.758C84.6286 39.5233 84.5113 39.2153 84.5113 38.834V38.35C84.2619 38.922 83.8659 39.3693 83.3233 39.692C82.7953 40.0147 82.1793 40.176 81.4753 40.176C80.7566 40.176 80.1039 40.0293 79.5173 39.736C78.9306 39.4427 78.4686 39.0393 78.1313 38.526C77.7939 38.0127 77.6253 37.4407 77.6253 36.81C77.6253 36.018 77.8233 35.3947 78.2193 34.94C78.6299 34.4853 79.2899 34.1553 80.1993 33.95C81.1086 33.7447 82.3626 33.642 83.9613 33.642H84.5113V33.136C84.5113 32.4173 84.3573 31.8967 84.0493 31.574C83.7413 31.2367 83.2426 31.068 82.5533 31.068C82.1279 31.068 81.6953 31.134 81.2553 31.266C80.8153 31.3833 80.2946 31.5593 79.6933 31.794C79.3119 31.9847 79.0333 32.08 78.8573 32.08C78.5933 32.08 78.3733 31.9847 78.1973 31.794C78.0359 31.6033 77.9553 31.354 77.9553 31.046C77.9553 30.7967 78.0139 30.584 78.1313 30.408C78.2633 30.2173 78.4759 30.0413 78.7693 29.88C79.2826 29.6013 79.8913 29.3813 80.5953 29.22C81.3139 29.0587 82.0179 28.978 82.7073 28.978ZM82.0253 38.196C82.7586 38.196 83.3526 37.954 83.8073 37.47C84.2766 36.9713 84.5113 36.3333 84.5113 35.556V35.094H84.1153C83.1326 35.094 82.3699 35.138 81.8273 35.226C81.2846 35.314 80.8959 35.468 80.6613 35.688C80.4266 35.908 80.3093 36.2087 80.3093 36.59C80.3093 37.0593 80.4706 37.448 80.7933 37.756C81.1306 38.0493 81.5413 38.196 82.0253 38.196ZM95.6061 28.978C96.5301 28.978 97.3515 29.2127 98.0701 29.682C98.8035 30.1513 99.3681 30.8187 99.7641 31.684C100.175 32.5347 100.38 33.5173 100.38 34.632C100.38 35.7467 100.175 36.722 99.7641 37.558C99.3681 38.394 98.8108 39.0393 98.0921 39.494C97.3735 39.9487 96.5448 40.176 95.6061 40.176C94.8435 40.176 94.1615 40.0147 93.5601 39.692C92.9588 39.3693 92.4968 38.922 92.1741 38.35V42.838C92.1741 43.2193 92.0495 43.52 91.8001 43.74C91.5508 43.96 91.2208 44.07 90.8101 44.07C90.3995 44.07 90.0621 43.9527 89.7981 43.718C89.5488 43.4833 89.4241 43.1753 89.4241 42.794V30.32C89.4241 29.924 89.5415 29.6087 89.7761 29.374C90.0255 29.1393 90.3555 29.022 90.7661 29.022C91.1768 29.022 91.5068 29.1393 91.7561 29.374C92.0055 29.6087 92.1301 29.924 92.1301 30.32V30.87C92.4528 30.2687 92.9148 29.8067 93.5161 29.484C94.1321 29.1467 94.8288 28.978 95.6061 28.978ZM94.8801 38.042C95.7455 38.042 96.4201 37.7487 96.9041 37.162C97.3881 36.5607 97.6301 35.7173 97.6301 34.632C97.6301 33.5173 97.3881 32.652 96.9041 32.036C96.4201 31.42 95.7455 31.112 94.8801 31.112C94.0001 31.112 93.3181 31.4127 92.8341 32.014C92.3648 32.6153 92.1301 33.4733 92.1301 34.588C92.1301 35.688 92.3648 36.5387 92.8341 37.14C93.3181 37.7413 94.0001 38.042 94.8801 38.042ZM106.031 40.176C104.432 40.176 103.142 39.8607 102.159 39.23C101.69 38.9513 101.455 38.5553 101.455 38.042C101.455 37.7487 101.536 37.514 101.697 37.338C101.858 37.1473 102.056 37.052 102.291 37.052C102.54 37.052 102.885 37.1693 103.325 37.404C103.794 37.624 104.22 37.7927 104.601 37.91C104.997 38.0273 105.496 38.086 106.097 38.086C106.713 38.086 107.19 37.9833 107.527 37.778C107.879 37.5727 108.055 37.2867 108.055 36.92C108.055 36.6707 107.982 36.4727 107.835 36.326C107.703 36.1793 107.454 36.0473 107.087 35.93C106.735 35.798 106.192 35.6513 105.459 35.49C104.154 35.226 103.215 34.852 102.643 34.368C102.086 33.884 101.807 33.2167 101.807 32.366C101.807 31.7207 101.998 31.1413 102.379 30.628C102.76 30.1 103.281 29.6967 103.941 29.418C104.616 29.1247 105.378 28.978 106.229 28.978C106.845 28.978 107.439 29.0587 108.011 29.22C108.583 29.3667 109.096 29.5867 109.551 29.88C110.02 30.1733 110.255 30.562 110.255 31.046C110.255 31.3393 110.174 31.5887 110.013 31.794C109.852 31.9847 109.654 32.08 109.419 32.08C109.258 32.08 109.096 32.0507 108.935 31.992C108.788 31.9187 108.598 31.816 108.363 31.684C107.938 31.464 107.571 31.3027 107.263 31.2C106.955 31.0827 106.574 31.024 106.119 31.024C105.576 31.024 105.144 31.134 104.821 31.354C104.513 31.574 104.359 31.8747 104.359 32.256C104.359 32.6227 104.52 32.9013 104.843 33.092C105.166 33.2827 105.789 33.4733 106.713 33.664C107.696 33.8693 108.466 34.104 109.023 34.368C109.58 34.632 109.976 34.962 110.211 35.358C110.46 35.754 110.585 36.26 110.585 36.876C110.585 37.8733 110.167 38.6727 109.331 39.274C108.51 39.8753 107.41 40.176 106.031 40.176Z" fill="#6D41A2"/>
<defs>
<clipPath id="clip0_3625_29941">
<rect width="22" height="22" fill="white" transform="translate(24.5 22)"/>
</clipPath>
</defs>
</svg>
