<svg width="26" height="26" viewBox="0 0 26 26" fill="none" xmlns="http://www.w3.org/2000/svg">
<g clip-path="url(#clip0_2574_112427)">
<path fill-rule="evenodd" clip-rule="evenodd" d="M17.4476 14.719C18.2296 13.715 18.696 12.4441 18.696 11.0557C18.696 7.81783 16.146 5.19299 13.0003 5.19299C9.85467 5.19299 7.30462 7.81783 7.30462 11.0557C7.30462 12.444 7.77101 13.7147 8.55284 14.7188L8.55846 14.726C8.72399 14.9383 8.87724 15.1617 9.03645 15.379C9.31297 15.7564 9.70292 16.2863 10.156 16.8958C11.0003 18.0316 12.0549 19.4317 13.001 20.6337C13.95 19.4291 15.0071 18.0268 15.8531 16.8896C16.3069 16.2794 16.6975 15.749 16.9744 15.3713C17.1328 15.1552 17.2831 14.9302 17.4476 14.719ZM18.9232 15.9366C18.9232 15.9366 18.9215 15.9388 18.9204 15.9404C18.8721 16.0069 18.4282 16.6173 17.7851 17.4866C16.831 18.7763 15.4383 20.636 14.2476 22.1351C13.5962 22.9552 12.4047 22.9549 11.7537 22.1345C9.71853 19.5696 7.08637 15.9422 7.08637 15.9422L7.08023 15.9343C6.03951 14.598 5.41699 12.9017 5.41699 11.0557C5.41699 6.74475 8.81217 3.25 13.0003 3.25C17.1885 3.25 20.5837 6.74475 20.5837 11.0557C20.5837 12.2043 20.3427 13.2949 19.9099 14.2769C19.6481 14.871 19.3161 15.4253 18.9248 15.9287L18.9204 15.9343H18.9248L18.9232 15.9366Z" fill="#6D41A2"/>
<path fill-rule="evenodd" clip-rule="evenodd" d="M13.0004 11.9934C13.5216 11.9934 13.9442 11.5585 13.9442 11.0219C13.9442 10.4854 13.5216 10.0504 13.0004 10.0504C12.4791 10.0504 12.0565 10.4854 12.0565 11.0219C12.0565 11.5585 12.4791 11.9934 13.0004 11.9934ZM15.8318 11.0219C15.8318 12.6316 14.5641 13.9364 13.0004 13.9364C11.4366 13.9364 10.1689 12.6316 10.1689 11.0219C10.1689 9.41232 11.4366 8.10746 13.0004 8.10746C14.5641 8.10746 15.8318 9.41232 15.8318 11.0219Z" fill="#6D41A2"/>
</g>
<defs>
<clipPath id="clip0_2574_112427">
<rect width="26" height="26" fill="white"/>
</clipPath>
</defs>
</svg>
