<svg width="22" height="22" viewBox="0 0 22 22" fill="none" xmlns="http://www.w3.org/2000/svg">
<g clip-path="url(#clip0_2574_112420)">
<circle cx="11" cy="11" r="8.25" fill="#06A3FE"/>
</g>
<path d="M7.87247 14.953C7.64514 14.953 7.45447 14.9017 7.30047 14.799C7.14647 14.689 7.05114 14.5423 7.01447 14.359C6.97781 14.1683 7.01081 13.9557 7.11347 13.721L9.85247 7.825C9.98447 7.539 10.1458 7.33 10.3365 7.198C10.5345 7.066 10.7581 7 11.0075 7C11.2568 7 11.4731 7.066 11.6565 7.198C11.8471 7.33 12.0121 7.539 12.1515 7.825L14.8905 13.721C15.0078 13.9557 15.0481 14.1683 15.0115 14.359C14.9821 14.5497 14.8905 14.6963 14.7365 14.799C14.5898 14.9017 14.4065 14.953 14.1865 14.953C13.8931 14.953 13.6658 14.887 13.5045 14.755C13.3505 14.623 13.2111 14.4103 13.0865 14.117L12.4925 12.72L13.2625 13.281H8.73047L9.51147 12.72L8.91747 14.117C8.78547 14.4103 8.64981 14.623 8.51047 14.755C8.37114 14.887 8.15847 14.953 7.87247 14.953ZM10.9855 9.211L9.70947 12.258L9.40147 11.73H12.6025L12.2945 12.258L11.0075 9.211H10.9855Z" fill="#FAF8FC"/>
<defs>
<clipPath id="clip0_2574_112420">
<rect width="22" height="22" fill="white"/>
</clipPath>
</defs>
</svg>
