<svg width="22" height="22" viewBox="0 0 22 22" fill="none" xmlns="http://www.w3.org/2000/svg">
<g clip-path="url(#clip0_2574_113372)">
<circle cx="11" cy="11" r="8.25" fill="#6D41A2"/>
</g>
<path d="M9.056 14.755C8.71133 14.755 8.44733 14.667 8.264 14.491C8.088 14.3077 8 14.0473 8 13.71V8.045C8 7.70767 8.088 7.451 8.264 7.275C8.44733 7.09167 8.71133 7 9.056 7H11.74C12.2973 7 12.7703 7.08433 13.159 7.253C13.555 7.41433 13.8557 7.64533 14.061 7.946C14.2663 8.24667 14.369 8.59867 14.369 9.002C14.369 9.45667 14.237 9.84533 13.973 10.168C13.7163 10.4907 13.3643 10.7107 12.917 10.828V10.652C13.445 10.7473 13.852 10.96 14.138 11.29C14.4313 11.62 14.578 12.0417 14.578 12.555C14.578 13.237 14.3323 13.776 13.841 14.172C13.357 14.5607 12.6933 14.755 11.85 14.755H9.056ZM9.936 13.27H11.575C11.949 13.27 12.2203 13.2003 12.389 13.061C12.565 12.9143 12.653 12.698 12.653 12.412C12.653 12.126 12.565 11.9133 12.389 11.774C12.2203 11.6347 11.949 11.565 11.575 11.565H9.936V13.27ZM9.936 10.08H11.377C11.7437 10.08 12.0113 10.014 12.18 9.882C12.356 9.75 12.444 9.54833 12.444 9.277C12.444 9.00567 12.356 8.80767 12.18 8.683C12.0113 8.551 11.7437 8.485 11.377 8.485H9.936V10.08Z" fill="#FAF8FC"/>
<defs>
<clipPath id="clip0_2574_113372">
<rect width="22" height="22" fill="white"/>
</clipPath>
</defs>
</svg>
