<svg width="151" height="150" viewBox="0 0 151 150" fill="none" xmlns="http://www.w3.org/2000/svg">
<g clip-path="url(#clip0_2873_69992)">
<path fill-rule="evenodd" clip-rule="evenodd" d="M93.9252 10.5446C95.1477 11.2421 96.9252 12.2395 98.4851 12.0445C98.6778 12.0109 98.8601 11.9335 99.018 11.8181C99.1759 11.7028 99.3051 11.5527 99.3958 11.3794C99.4864 11.2062 99.5359 11.0144 99.5406 10.8189C99.5453 10.6234 99.5049 10.4295 99.4226 10.2521C98.9879 9.33881 98.3334 8.54769 97.5177 7.94964V7.76214C99.0176 7.28966 101.065 6.49468 100.39 5.07721C100.211 4.67222 99.8949 4.34307 99.4976 4.14724C97.8476 3.34476 95.5977 3.93724 93.9477 4.37223C92.5228 4.75472 91.1878 4.94972 90.7303 6.10469C89.8528 8.19713 91.7728 9.3146 93.9252 10.5446ZM99.6551 4.84472C100.93 6.02219 98.7851 6.80217 97.9826 7.09466C97.8555 7.13771 97.7251 7.17032 97.5927 7.19216C97.6207 6.69199 97.4976 6.19497 97.2395 5.76564C96.9814 5.33632 96.6001 4.99455 96.1452 4.78472C95.7213 4.70322 95.2931 4.64563 94.8627 4.61222C96.1602 4.34973 98.6801 3.93724 99.6551 4.84472ZM95.1177 10.1921C95.6294 10.1976 96.1284 10.0326 96.5359 9.72289C96.9433 9.41324 97.236 8.97666 97.3677 8.48213C98.0234 8.97327 98.5593 9.60661 98.9351 10.3346C99.1376 10.7396 99.0476 11.542 98.4626 11.5645C96.8431 11.4982 95.2786 10.9585 93.9627 10.0121C94.3422 10.1032 94.7285 10.1634 95.1177 10.1921ZM79.7131 38.6464C80.2363 38.7996 80.7397 39.0135 81.2131 39.2838C81.2269 39.2966 81.243 39.3066 81.2607 39.3132C81.2783 39.3197 81.2971 39.3227 81.3159 39.322C81.3347 39.3213 81.3532 39.3169 81.3703 39.3091C81.3874 39.3013 81.4028 39.2901 81.4156 39.2763C81.4284 39.2626 81.4383 39.2464 81.4449 39.2287C81.4514 39.2111 81.4544 39.1923 81.4538 39.1735C81.4531 39.1547 81.4487 39.1363 81.4408 39.1192C81.433 39.102 81.4219 39.0867 81.4081 39.0738C81.1107 38.6172 80.6818 38.2616 80.1781 38.0539C79.7514 37.8665 79.2904 37.7698 78.8244 37.7698C78.3583 37.7698 77.8974 37.8665 77.4707 38.0539L77.2757 38.1664C76.6232 38.6764 78.3481 38.2489 79.7131 38.6464ZM62.8685 59.9383C63.3602 59.5995 63.7016 59.0834 63.821 58.4984C63.8261 58.3894 63.795 58.2817 63.7326 58.1922C63.6703 58.1027 63.58 58.0363 63.476 58.0034C63.0185 57.9059 62.366 58.4609 62.1785 59.1583C62.0586 59.6308 62.2985 60.3283 62.8685 59.9383ZM57.9637 67.5956C58.4949 67.3208 58.8983 66.8502 59.0886 66.2832C59.1071 66.1763 59.09 66.0662 59.0398 65.97C58.9897 65.8738 58.9094 65.7968 58.8111 65.7507C58.3686 65.5932 57.6487 66.0582 57.3787 66.7332C57.1912 67.1906 57.3412 67.9181 57.9637 67.5956ZM93.4153 62.6382C93.3397 62.5796 93.2439 62.5533 93.1489 62.5653C93.054 62.5772 92.9677 62.6264 92.909 62.702C92.8503 62.7776 92.8241 62.8734 92.8361 62.9683C92.848 63.0633 92.8972 63.1496 92.9728 63.2082C93.1836 63.3796 93.4154 63.5233 93.6628 63.6357C93.7066 63.6535 93.7535 63.6624 93.8008 63.662C93.848 63.6616 93.8948 63.6519 93.9383 63.6334C93.9818 63.615 94.0213 63.5881 94.0544 63.5544C94.0876 63.5207 94.1138 63.4808 94.1315 63.437C94.1492 63.3932 94.1581 63.3463 94.1578 63.299C94.1574 63.2517 94.1477 63.205 94.1292 63.1614C94.1107 63.1179 94.0839 63.0785 94.0502 63.0453C94.0165 63.0122 93.9766 62.986 93.9327 62.9682C93.7471 62.8804 93.5732 62.7695 93.4153 62.6382ZM90.8803 59.7883C90.838 59.809 90.8003 59.838 90.7694 59.8735C90.7384 59.909 90.715 59.9503 90.7003 59.9951C90.6856 60.0398 90.68 60.0871 90.6839 60.134C90.6878 60.1809 90.701 60.2266 90.7228 60.2683C90.8353 60.5008 90.9553 60.7108 91.0678 60.9133C91.1198 60.9848 91.1963 61.0347 91.2827 61.0534C91.3691 61.0722 91.4594 61.0584 91.5364 61.0149C91.6133 60.9713 91.6715 60.9009 91.6999 60.8172C91.7283 60.7334 91.7249 60.6422 91.6903 60.5608C91.5778 60.3658 91.4653 60.1633 91.3603 59.9458C91.317 59.8618 91.2424 59.7982 91.1526 59.7687C91.0628 59.7393 90.965 59.7463 90.8803 59.7883ZM89.6879 57.5309C89.7208 57.6127 89.7826 57.6795 89.8615 57.7187C89.9405 57.758 90.0311 57.7669 90.1162 57.7437C90.2012 57.7206 90.2749 57.6671 90.3231 57.5933C90.3713 57.5195 90.3908 57.4306 90.3778 57.3434C90.3103 57.1184 90.2503 56.8934 90.1978 56.6609C90.1891 56.6125 90.1705 56.5663 90.1433 56.5253C90.116 56.4844 90.0807 56.4494 90.0394 56.4226C89.998 56.3959 89.9517 56.3778 89.9031 56.3697C89.8546 56.3615 89.8049 56.3634 89.7571 56.3753C89.7093 56.3871 89.6645 56.4086 89.6253 56.4384C89.5862 56.4682 89.5536 56.5058 89.5295 56.5487C89.5055 56.5917 89.4904 56.6391 89.4854 56.688C89.4804 56.737 89.4855 56.7865 89.5004 56.8334C89.5604 57.0734 89.6204 57.3059 89.6879 57.5309ZM88.5254 52.866C88.4311 52.8755 88.3444 52.9218 88.284 52.9948C88.2237 53.0678 88.1945 53.1616 88.2029 53.256C88.2029 53.4285 88.2629 53.8035 88.2854 54.006C88.29 54.0531 88.3041 54.0988 88.3267 54.1403C88.3494 54.1819 88.3802 54.2184 88.4173 54.2478C88.4544 54.2772 88.497 54.2989 88.5426 54.3114C88.5883 54.324 88.636 54.3272 88.6829 54.321C88.7758 54.3079 88.86 54.259 88.9175 54.1848C88.9749 54.1105 89.0011 54.0167 88.9904 53.9235C88.9904 53.7435 88.9304 53.406 88.9154 53.226C88.9145 53.1764 88.9035 53.1275 88.8832 53.0823C88.8629 53.0371 88.8336 52.9964 88.7972 52.9628C88.7608 52.9291 88.7179 52.9032 88.6712 52.8866C88.6245 52.87 88.5749 52.863 88.5254 52.866ZM88.8554 50.5486C88.9229 50.3311 88.9904 50.1286 89.0654 49.9186C89.0822 49.8768 89.0906 49.832 89.0898 49.787C89.0891 49.7419 89.0794 49.6974 89.0612 49.6562C89.0431 49.6149 89.0168 49.5778 88.984 49.5468C88.9512 49.5159 88.9126 49.4918 88.8704 49.4761C88.7858 49.4441 88.692 49.4466 88.6093 49.4831C88.5265 49.5196 88.4614 49.5871 88.4279 49.6711C88.3379 49.8961 88.2629 50.1211 88.1954 50.3536C88.1768 50.4387 88.1911 50.5278 88.2355 50.6029C88.2799 50.6779 88.3511 50.7334 88.4347 50.7581C88.5183 50.7828 88.6082 50.7749 88.6862 50.736C88.7643 50.6972 88.8247 50.6302 88.8554 50.5486ZM82.698 42.7488C82.7816 42.7839 82.8757 42.7848 82.96 42.7511C83.0442 42.7174 83.1117 42.6519 83.148 42.5688C83.238 42.3663 83.328 42.1638 83.433 41.9688C83.4755 41.8882 83.4843 41.794 83.4576 41.7069C83.4309 41.6198 83.3709 41.5468 83.2905 41.5038C83.2095 41.4633 83.1161 41.4555 83.0295 41.482C82.9429 41.5085 82.8699 41.5674 82.8255 41.6463C82.713 41.8638 82.608 42.0738 82.518 42.2988C82.4829 42.3824 82.482 42.4765 82.5157 42.5607C82.5494 42.6449 82.6149 42.7125 82.698 42.7488ZM78.6856 40.7463C78.7699 40.5414 78.8651 40.3411 78.9706 40.1463C78.9962 40.1062 79.0133 40.0612 79.0206 40.0141C79.028 39.967 79.0256 39.919 79.0134 39.8729C79.0013 39.8269 78.9798 39.7838 78.9502 39.7465C78.9206 39.7092 78.8836 39.6784 78.8416 39.656C78.7995 39.6337 78.7533 39.6203 78.7058 39.6167C78.6583 39.6131 78.6106 39.6194 78.5656 39.6352C78.5207 39.651 78.4795 39.6759 78.4446 39.7083C78.4098 39.7408 78.382 39.7801 78.3631 39.8238C78.2506 40.0413 78.1456 40.2513 78.0556 40.4688C78.0337 40.5107 78.0206 40.5566 78.0171 40.6038C78.0137 40.6509 78.02 40.6983 78.0356 40.7429C78.0512 40.7875 78.0758 40.8285 78.1079 40.8632C78.14 40.8979 78.1789 40.9257 78.2221 40.9447C78.2654 40.9638 78.3121 40.9737 78.3594 40.974C78.4067 40.9742 78.4535 40.9648 78.497 40.9462C78.5404 40.9275 78.5796 40.9002 78.6121 40.8658C78.6445 40.8314 78.6696 40.7908 78.6856 40.7463ZM91.8103 46.3787C91.7741 46.3485 91.7323 46.3259 91.6872 46.3122C91.6422 46.2985 91.5948 46.2939 91.548 46.2988C91.5011 46.3037 91.4557 46.318 91.4145 46.3407C91.3732 46.3634 91.337 46.3942 91.3078 46.4312C91.1578 46.6262 91.0078 46.8137 90.8653 47.0161C90.8223 47.0938 90.8094 47.1846 90.8293 47.2711C90.8491 47.3576 90.9002 47.4337 90.9727 47.4849C91.0453 47.536 91.1341 47.5586 91.2223 47.5482C91.3104 47.5378 91.3916 47.4952 91.4503 47.4286C91.5853 47.2486 91.7203 47.0611 91.8703 46.8737C91.8989 46.8372 91.92 46.7955 91.9324 46.7509C91.9449 46.7063 91.9484 46.6597 91.9428 46.6137C91.9373 46.5678 91.9227 46.5233 91.9 46.483C91.8772 46.4427 91.8468 46.4072 91.8103 46.3787ZM94.3602 43.8737C94.3274 43.8404 94.2883 43.8139 94.2452 43.7959C94.2021 43.7778 94.1558 43.7685 94.109 43.7685C94.0622 43.7685 94.0159 43.7778 93.9728 43.7959C93.9297 43.8139 93.8905 43.8404 93.8577 43.8737L93.3103 44.3537C93.2769 44.3865 93.2505 44.4256 93.2324 44.4688C93.2143 44.5119 93.205 44.5582 93.205 44.605C93.205 44.6517 93.2143 44.698 93.2324 44.7412C93.2505 44.7843 93.2769 44.8234 93.3103 44.8562C93.3431 44.8895 93.3822 44.916 93.4253 44.9341C93.4684 44.9522 93.5147 44.9615 93.5615 44.9615C93.6083 44.9615 93.6546 44.9522 93.6977 44.9341C93.7408 44.916 93.78 44.8895 93.8128 44.8562L94.3452 44.3912C94.3819 44.3593 94.4115 44.3201 94.4323 44.2761C94.4531 44.2321 94.4645 44.1844 94.4659 44.1358C94.4673 44.0872 94.4587 44.0388 94.4405 43.9937C94.4223 43.9486 94.395 43.9078 94.3602 43.8737ZM96.7452 41.6688C96.5502 41.7963 96.3477 41.9313 96.1527 42.0738C96.0751 42.1275 96.022 42.2098 96.0052 42.3026C95.9883 42.3955 96.009 42.4912 96.0627 42.5688C96.1164 42.6463 96.1987 42.6994 96.2915 42.7163C96.3844 42.7332 96.4801 42.7125 96.5577 42.6588L97.1427 42.2613C97.1888 42.2386 97.2295 42.2064 97.2621 42.1667C97.2947 42.1271 97.3185 42.0809 97.3318 42.0313C97.3451 41.9817 97.3476 41.9298 97.3392 41.8791C97.3307 41.8285 97.3116 41.7802 97.283 41.7376C97.2544 41.6949 97.217 41.6589 97.1733 41.6319C97.1296 41.6049 97.0807 41.5875 97.0297 41.581C96.9788 41.5745 96.927 41.579 96.8779 41.5941C96.8289 41.6092 96.7836 41.6347 96.7452 41.6688ZM99.8426 39.8238L99.2126 40.1688C99.1659 40.1887 99.124 40.2181 99.0895 40.2553C99.055 40.2925 99.0288 40.3365 99.0125 40.3846C98.9962 40.4326 98.9902 40.4835 98.995 40.534C98.9998 40.5845 99.0152 40.6334 99.0402 40.6775C99.0651 40.7216 99.0992 40.76 99.14 40.7901C99.1809 40.8201 99.2276 40.8412 99.2772 40.852C99.3267 40.8627 99.378 40.8629 99.4276 40.8524C99.4772 40.8419 99.5241 40.8211 99.5651 40.7913C99.7676 40.6713 99.9776 40.5588 100.18 40.4538C100.222 40.4317 100.259 40.4016 100.289 40.3651C100.32 40.3286 100.342 40.2865 100.356 40.2412C100.37 40.1959 100.375 40.1483 100.371 40.1012C100.366 40.054 100.352 40.0082 100.33 39.9663C100.308 39.9243 100.278 39.8872 100.241 39.8571C100.205 39.827 100.162 39.8047 100.117 39.7914C100.071 39.7781 100.023 39.7741 99.9763 39.7797C99.9292 39.7853 99.8838 39.8003 99.8426 39.8238ZM102.723 39.2013L103.375 38.9164C103.457 38.8753 103.521 38.8042 103.552 38.7177C103.584 38.6313 103.581 38.536 103.545 38.4515C103.508 38.367 103.441 38.2997 103.356 38.2634C103.272 38.2271 103.176 38.2246 103.09 38.2564L102.43 38.5489C102.354 38.5941 102.298 38.6655 102.271 38.7497C102.245 38.8338 102.25 38.9247 102.286 39.0051C102.322 39.0856 102.387 39.15 102.467 39.1862C102.547 39.2224 102.638 39.2278 102.723 39.2013ZM105.497 37.5589C105.542 37.6416 105.617 37.7036 105.707 37.7316C105.797 37.7596 105.894 37.7515 105.977 37.7089L106.615 37.3714C106.698 37.3255 106.76 37.2484 106.787 37.1571C106.813 37.0657 106.803 36.9675 106.757 36.8839C106.71 36.802 106.633 36.7414 106.542 36.7149C106.451 36.6884 106.354 36.6979 106.27 36.7414L105.647 37.0789C105.565 37.1235 105.503 37.1987 105.475 37.2884C105.447 37.378 105.455 37.4751 105.497 37.5589ZM108.685 35.2489C108.608 35.3047 108.555 35.3883 108.538 35.482C108.522 35.5757 108.542 35.6723 108.595 35.7514C108.649 35.8281 108.732 35.8804 108.824 35.8973C108.917 35.9141 109.012 35.894 109.09 35.8414C109.292 35.7064 109.487 35.5639 109.682 35.4214C109.746 35.3613 109.785 35.2802 109.794 35.193C109.802 35.1059 109.778 35.0188 109.726 34.9481C109.675 34.8773 109.599 34.8277 109.514 34.8086C109.429 34.7894 109.339 34.802 109.262 34.844C109.075 34.994 108.88 35.129 108.685 35.2489ZM111.977 32.6015L111.46 33.0815C111.399 33.1475 111.365 33.2338 111.365 33.3235C111.364 33.4132 111.397 33.4998 111.457 33.5665C111.517 33.6331 111.6 33.6749 111.689 33.6837C111.779 33.6925 111.868 33.6676 111.94 33.614L112.465 33.119C112.499 33.087 112.526 33.0486 112.545 33.006C112.564 32.9635 112.575 32.9175 112.576 32.8709C112.578 32.8242 112.57 32.7777 112.553 32.7341C112.537 32.6904 112.512 32.6505 112.48 32.6165C112.448 32.5825 112.409 32.5552 112.367 32.5361C112.324 32.5169 112.278 32.5063 112.232 32.5049C112.185 32.5036 112.139 32.5114 112.095 32.5279C112.051 32.5445 112.011 32.5695 111.977 32.6015ZM113.942 31.0491C113.978 31.0792 114.02 31.1018 114.065 31.1155C114.11 31.1292 114.158 31.1338 114.205 31.1289C114.251 31.124 114.297 31.1098 114.338 31.087C114.379 31.0643 114.416 31.0335 114.445 30.9966C114.602 30.8091 114.752 30.6216 114.902 30.4266C114.93 30.3897 114.951 30.3476 114.963 30.3027C114.975 30.2578 114.978 30.211 114.971 30.1651C114.965 30.1191 114.95 30.0748 114.926 30.0347C114.903 29.9946 114.872 29.9596 114.835 29.9316C114.759 29.8753 114.665 29.8501 114.571 29.8613C114.478 29.8725 114.392 29.9191 114.332 29.9916C114.19 30.1791 114.047 30.3666 113.897 30.5466C113.837 30.6195 113.809 30.713 113.817 30.807C113.825 30.901 113.87 30.9879 113.942 31.0491ZM115.997 28.1316C116.081 28.1771 116.179 28.1877 116.27 28.161C116.362 28.1343 116.439 28.0725 116.485 27.9891C116.597 27.7791 116.71 27.5616 116.815 27.3441C116.836 27.302 116.849 27.2559 116.852 27.2086C116.856 27.1613 116.85 27.1139 116.834 27.0691C116.819 27.0243 116.794 26.983 116.763 26.9478C116.731 26.9126 116.693 26.8842 116.65 26.8642C116.608 26.8427 116.562 26.83 116.516 26.8267C116.469 26.8235 116.422 26.8297 116.378 26.8452C116.334 26.8606 116.293 26.8849 116.259 26.9165C116.224 26.9481 116.196 26.9865 116.177 27.0292L115.855 27.6516C115.832 27.6925 115.818 27.7373 115.813 27.7836C115.808 27.8299 115.813 27.8767 115.826 27.9213C115.839 27.966 115.861 28.0075 115.891 28.0436C115.92 28.0797 115.956 28.1096 115.997 28.1316ZM117.4 24.8542C117.492 24.8749 117.589 24.8591 117.67 24.8102C117.751 24.7613 117.81 24.6831 117.835 24.5917C117.887 24.3517 117.94 24.1117 117.985 23.8417C118 23.7485 117.979 23.6529 117.926 23.5746C117.873 23.4964 117.792 23.4417 117.7 23.4217C117.605 23.4063 117.509 23.4283 117.43 23.4829C117.352 23.5375 117.298 23.6205 117.28 23.7142C117.242 23.9392 117.19 24.1642 117.137 24.3892C117.121 24.437 117.116 24.4875 117.12 24.5376C117.125 24.5877 117.14 24.6362 117.165 24.68C117.19 24.7238 117.224 24.7619 117.264 24.7919C117.304 24.8219 117.351 24.8432 117.4 24.8542ZM117.422 20.9993C117.425 21.0463 117.437 21.0923 117.458 21.1345C117.479 21.1767 117.508 21.2143 117.544 21.245C117.579 21.2758 117.621 21.2991 117.666 21.3136C117.71 21.328 117.758 21.3334 117.805 21.3293C117.899 21.3216 117.986 21.2772 118.048 21.2057C118.11 21.1341 118.141 21.0411 118.135 20.9468C118.135 20.6993 118.082 20.4518 118.052 20.1968C118.046 20.1503 118.03 20.1056 118.006 20.0652C117.982 20.0248 117.95 19.9896 117.913 19.9616C117.875 19.9337 117.832 19.9136 117.786 19.9024C117.741 19.8913 117.693 19.8894 117.647 19.8968C117.554 19.9117 117.469 19.9621 117.412 20.0376C117.355 20.113 117.329 20.2077 117.34 20.3018C117.377 20.5268 117.4 20.7518 117.422 20.9993ZM116.567 17.6619C116.608 17.7485 116.681 17.8158 116.771 17.8494C116.86 17.883 116.959 17.8803 117.047 17.8419C117.132 17.8012 117.197 17.7291 117.23 17.6408C117.262 17.5525 117.258 17.4551 117.22 17.3694C117.115 17.1444 117.002 16.9194 116.882 16.7019C116.836 16.6194 116.76 16.5584 116.669 16.5324C116.578 16.5063 116.481 16.5174 116.398 16.5632C116.316 16.6089 116.255 16.6856 116.229 16.7763C116.203 16.867 116.214 16.9644 116.26 17.0469C116.372 17.2494 116.47 17.4594 116.567 17.6619ZM114.617 14.8345C114.65 14.868 114.689 14.8947 114.731 14.9132C114.774 14.9317 114.82 14.9416 114.867 14.9423C114.914 14.943 114.96 14.9345 115.003 14.9173C115.047 14.9001 115.086 14.8745 115.12 14.842C115.153 14.8095 115.18 14.7707 115.198 14.7278C115.217 14.685 115.227 14.6389 115.228 14.5923C115.228 14.5456 115.22 14.4993 115.203 14.4559C115.185 14.4125 115.16 14.373 115.127 14.3395C114.962 14.167 114.79 13.9945 114.602 13.8295C114.568 13.798 114.527 13.7736 114.484 13.7576C114.44 13.7417 114.393 13.7346 114.346 13.7367C114.3 13.7388 114.254 13.75 114.212 13.7698C114.169 13.7896 114.131 13.8175 114.1 13.852C114.068 13.8865 114.044 13.9268 114.028 13.9707C114.012 14.0146 114.005 14.0612 114.007 14.1079C114.009 14.1546 114.02 14.2003 114.04 14.2427C114.06 14.285 114.088 14.323 114.122 14.3545L114.617 14.8345ZM111.302 12.292C111.505 12.412 111.707 12.532 111.902 12.6595C111.942 12.6891 111.988 12.7101 112.036 12.7212C112.084 12.7324 112.134 12.7334 112.183 12.7243C112.232 12.7152 112.278 12.6961 112.319 12.6682C112.36 12.6403 112.395 12.6042 112.421 12.5623C112.448 12.5203 112.465 12.4733 112.473 12.4243C112.48 12.3752 112.477 12.3252 112.465 12.2773C112.452 12.2294 112.429 12.1846 112.398 12.1459C112.367 12.1071 112.329 12.0752 112.285 12.052L111.662 11.677C111.581 11.6303 111.484 11.6174 111.393 11.6413C111.301 11.6651 111.223 11.7237 111.175 11.8045C111.128 11.8863 111.115 11.9832 111.139 12.0743C111.163 12.1654 111.221 12.2436 111.302 12.292ZM108.137 10.7546L108.79 11.0321C108.876 11.0638 108.972 11.0613 109.056 11.025C109.141 10.9887 109.208 10.9214 109.245 10.8369C109.281 10.7524 109.284 10.6572 109.252 10.5707C109.221 10.4842 109.157 10.4132 109.075 10.3721L108.407 10.0946C108.363 10.0687 108.313 10.0527 108.262 10.0475C108.211 10.0424 108.159 10.0483 108.11 10.0649C108.062 10.0815 108.017 10.1083 107.98 10.1436C107.942 10.1789 107.913 10.2218 107.893 10.2694C107.874 10.3171 107.865 10.3684 107.867 10.4198C107.869 10.4712 107.882 10.5216 107.905 10.5676C107.928 10.6136 107.961 10.6541 108.001 10.6863C108.041 10.7186 108.088 10.7418 108.137 10.7546ZM104.792 9.6071L105.475 9.81709C105.565 9.84284 105.662 9.83215 105.745 9.78729C105.828 9.74244 105.89 9.66699 105.917 9.5771C105.932 9.53282 105.938 9.48596 105.935 9.43936C105.931 9.39276 105.918 9.34739 105.896 9.306C105.874 9.26462 105.844 9.22809 105.808 9.19863C105.772 9.16916 105.73 9.14738 105.685 9.13461L104.995 8.92461C104.95 8.91084 104.903 8.90614 104.856 8.91079C104.81 8.91544 104.765 8.92934 104.723 8.95169C104.682 8.97404 104.646 9.00438 104.616 9.04094C104.587 9.0775 104.565 9.11954 104.552 9.16461C104.539 9.20941 104.534 9.25652 104.539 9.30316C104.543 9.3498 104.557 9.39505 104.58 9.43625C104.602 9.47745 104.632 9.51379 104.669 9.54312C104.705 9.57246 104.747 9.59421 104.792 9.6071ZM101.35 8.74462L102.048 8.90212C102.14 8.92233 102.237 8.90533 102.317 8.8548C102.397 8.80427 102.454 8.72428 102.475 8.63212C102.486 8.58629 102.488 8.53871 102.48 8.4922C102.472 8.44568 102.456 8.40118 102.43 8.36132C102.405 8.32146 102.372 8.28706 102.334 8.26014C102.295 8.23323 102.251 8.21435 102.205 8.20463L101.5 8.04714C101.413 8.04046 101.327 8.06547 101.257 8.11755C101.187 8.16963 101.139 8.24524 101.12 8.33038C101.102 8.41551 101.115 8.5044 101.158 8.58057C101.2 8.65673 101.268 8.71502 101.35 8.74462Z" fill="#AFAFAF"/>
<path fill-rule="evenodd" clip-rule="evenodd" d="M135.497 52.2435C134.969 51.1928 134.175 50.2982 133.195 49.6483C132.215 48.9985 131.083 48.6159 129.909 48.5386C127.374 48.3811 126.482 48.4111 119.694 48.3811V46.4236C119.694 46.4236 123.879 45.9887 124.554 45.9362C124.515 44.694 124.39 43.4561 124.179 42.2313C124.179 42.1863 123.939 42.1413 123.782 42.1413C124.037 42.1413 120.422 41.9313 116.282 41.9163C116.231 41.9103 116.18 41.9146 116.131 41.9288C116.082 41.9429 116.037 41.9667 115.997 41.9988C115.862 42.1413 115.877 41.6913 115.907 48.3811C111.466 48.2318 107.02 48.3621 102.595 48.7711C101.159 48.8564 99.8132 49.4997 98.845 50.5635C97.436 52.2113 96.5622 54.2492 96.3401 56.4059C95.9876 58.5958 94.7426 70.093 94.9676 71.4655C90.9578 74.6106 87.7331 78.644 85.5478 83.2477C84.7228 85.0027 84.4004 86.5851 84.7978 87.9651C84.0871 87.63 83.3277 87.4098 82.5479 87.3126C82.5479 87.3126 82.4654 87.0951 82.4279 86.9376C82.2479 86.1876 83.6204 86.2326 84.2504 86.7501C84.3179 86.8251 84.4304 86.7501 84.3629 86.6451C83.4704 85.3477 81.3104 86.1876 82.3904 87.3051C81.4379 87.2601 81.1679 87.8001 81.5579 88.4676C80.9954 88.7226 81.1229 89.3601 81.5579 89.8326C82.3079 90.5825 83.1629 90.5825 83.0579 90.2825C83.0474 90.2487 83.0247 90.2199 82.9942 90.2019C82.9637 90.1839 82.9276 90.1779 82.8929 90.185C82.4054 90.305 81.4379 89.3076 81.6479 88.9626C81.8579 88.6176 84.6479 89.0151 84.4529 91.0025C84.3329 92.7425 79.5255 91.5725 78.9255 87.4626C78.9255 87.3726 78.8805 87.3426 78.738 87.2001C78.5955 87.0576 78.1605 86.6151 77.6205 86.0901C78.6068 84.9918 79.7138 84.0081 80.9204 83.1577C81.1352 83.762 81.5306 84.2856 82.0529 84.6577C82.1309 84.6942 82.2146 84.7171 82.3004 84.7252C83.0595 84.8639 83.8327 84.9093 84.6029 84.8602C84.6206 84.8631 84.6387 84.8626 84.6562 84.8585C84.6737 84.8545 84.6903 84.847 84.7049 84.8365C84.7195 84.8261 84.7319 84.8129 84.7415 84.7976C84.751 84.7824 84.7574 84.7654 84.7603 84.7477C84.7633 84.7299 84.7627 84.7118 84.7587 84.6943C84.7546 84.6768 84.7472 84.6603 84.7367 84.6456C84.7263 84.631 84.7131 84.6186 84.6978 84.6091C84.6825 84.5996 84.6656 84.5931 84.6479 84.5902C83.9113 84.3029 83.1394 84.1162 82.3529 84.0352C81.9558 83.6931 81.5871 83.3194 81.2504 82.9177C81.6329 82.6477 82.2329 82.1677 81.9254 81.8003C78.347 77.6228 75.5523 72.8336 73.6756 67.6631C73.9906 63.1632 73.6756 56.4134 71.6132 52.2885C72.3032 52.401 73.5331 52.581 74.1331 52.2885C74.2715 52.2243 74.3844 52.1155 74.4538 51.9795C74.5231 51.8436 74.5449 51.6883 74.5156 51.5385C75.6231 51.8723 76.8115 51.8167 77.883 51.381C81.7979 49.3561 85.5403 41.6313 86.3878 36.1264C86.7478 36.0889 87.1378 35.9239 86.9653 35.4814C86.8828 35.2789 86.4853 35.3089 86.5228 35.0689C86.5603 34.8289 87.5053 34.6939 87.1153 34.2365C86.9173 34.0969 86.6926 33.9999 86.4553 33.9515C86.0203 33.704 86.4028 33.4565 86.4553 33.4415C86.5078 33.4265 86.6803 33.389 86.7478 33.2615C86.7813 33.1464 86.7813 33.0241 86.7478 32.909C86.6953 32.504 85.9978 32.789 85.8178 32.549C85.4053 32.069 86.8828 31.9115 86.2528 31.424C85.9153 31.1615 85.1353 31.664 84.9178 31.274C84.7003 30.884 85.8403 30.4416 85.1278 29.9391C84.6254 29.5941 83.9279 30.5841 83.6279 29.9916C83.4854 29.7291 83.8979 29.5266 83.9729 29.3391C83.998 29.2468 83.9995 29.1496 83.9772 29.0565C83.955 28.9635 83.9096 28.8775 83.8454 28.8066C83.7704 28.7091 83.5079 28.7466 83.4104 28.8066C83.1629 28.9416 82.7729 29.4141 82.4429 29.1591C81.9479 28.7766 82.8479 28.5066 82.3904 28.0866C82.3363 28.02 82.2701 27.964 82.1954 27.9216C81.8654 27.7566 81.6179 27.9741 81.3554 28.1241C81.1529 28.2291 81.5504 28.1841 81.3554 28.1241C81.1679 28.0566 81.4229 27.8991 81.4604 27.7941C81.4795 27.7009 81.4632 27.604 81.4147 27.5221C81.3662 27.4403 81.2889 27.3795 81.1979 27.3516C80.8079 27.2166 80.6205 27.8841 80.148 27.6066C79.968 27.5016 80.148 27.3366 80.2155 27.2391C80.2483 27.1857 80.2689 27.1257 80.276 27.0635C80.2831 27.0012 80.2763 26.9381 80.2563 26.8787C80.2363 26.8193 80.2034 26.765 80.16 26.7198C80.1167 26.6745 80.0639 26.6393 80.0055 26.6167C79.2555 26.4067 79.0305 27.4416 78.318 27.1491C77.7855 26.9241 78.8055 26.1517 78.123 25.9567C77.823 25.8667 77.6655 26.0017 77.463 26.2342C77.2605 26.4667 77.238 26.7291 76.893 26.7741C76.2031 26.8716 76.6081 26.1967 76.5181 25.9642C76.4281 25.7317 76.2331 25.7242 76.0156 25.7542C75.3856 25.8442 75.6781 26.6466 75.1906 26.7141C74.7031 26.7816 74.9881 26.0317 74.5531 26.1217C74.0056 26.2342 74.7931 26.8716 74.2081 26.9991C73.6231 27.1266 74.0881 26.1592 73.4581 26.3017C72.8281 26.4442 73.1806 27.2166 72.7081 27.3741C72.2357 27.5316 72.5882 26.8941 72.2057 26.9466C71.4557 27.0441 71.7182 27.6966 71.5307 27.8241C71.1332 28.0191 71.2082 27.2616 70.7807 27.3141C69.9257 27.4341 70.2857 28.1841 70.0307 28.6716C69.8507 29.0166 69.4157 28.4016 69.1832 28.7241C68.9507 29.0466 69.3482 29.3241 69.1832 29.6466C69.0932 29.8341 68.7783 29.4066 68.3658 29.8116C67.9533 30.2166 68.0958 30.614 68.1558 31.049C68.2383 31.7015 67.4058 31.1015 67.2783 31.4915C67.1808 31.7315 67.7583 32.1815 67.5408 32.3465C67.3233 32.5115 67.2633 32.2115 66.8658 32.4665C66.4683 32.7215 66.4608 33.014 66.7458 33.3515C66.8733 33.5015 67.1358 33.599 66.9858 33.899C66.8358 34.199 66.4983 33.8165 66.2358 34.1315C65.9058 34.5964 66.9108 34.4915 66.6858 34.9339C66.4608 35.3764 65.8908 35.3389 65.8908 35.3389C65.4408 35.9764 66.3333 36.2539 66.6408 36.5839C66.9483 36.9139 66.1833 37.1014 66.1683 37.3789C66.1683 37.9639 66.6183 37.9414 66.7458 38.0914C66.8733 38.2414 66.3933 38.2789 66.4833 38.6688C66.5365 38.8047 66.6309 38.9205 66.7534 38.9999C66.8758 39.0793 67.02 39.1182 67.1658 39.1113C67.1104 39.1655 67.0692 39.2325 67.0458 39.3063L54.5436 35.7214C43.6239 32.4815 28.3318 39.4713 27.1843 49.5961C21.9344 53.6385 15.9346 63.3732 14.9071 68.4131C12.8597 76.0479 13.2047 82.1527 15.2221 87.5376C17.472 93.6125 23.4719 107.63 23.4719 107.63C23.4719 107.63 13.4371 131.246 14.1121 139.631C14.1121 140.126 13.5571 145.211 13.5496 145.286C14.7046 145.451 20.0745 146.149 22.1744 146.231C23.3069 146.353 24.452 146.198 25.5118 145.781C26.3743 145.309 25.3169 143.621 25.0919 143.329C23.4569 141.184 21.4019 141.409 19.212 141.499V141.364C21.3489 141.369 23.4821 141.186 25.5868 140.816C26.2918 140.539 39.5365 128.644 43.9689 115.782C45.4688 111.35 43.1214 93.9424 43.6389 93.8299C44.3889 93.6725 47.5463 110.862 45.0714 116.374C44.6489 117.253 44.16 118.098 43.6089 118.902C43.6089 118.902 42.7389 119.854 41.7789 133.234C41.7789 133.309 40.594 140.471 40.579 140.546C40.564 140.621 52.0987 143.156 52.7137 141.589C52.8624 140.936 52.7916 140.252 52.5123 139.643C52.233 139.034 51.7607 138.535 51.1687 138.221C49.6687 137.044 48.3263 137.186 46.6238 137.126C46.7063 136.811 46.8338 136.376 46.9838 135.814C48.8408 135.838 50.6911 135.585 52.4737 135.064C54.5436 131.531 59.051 120.544 59.2235 107.99C59.3585 98.5173 53.0511 84.6952 52.0837 82.6327C55.3613 79.4123 58.1055 75.6909 60.2135 71.608C63.2134 80.5028 69.6482 86.0302 75.9631 87.5151C76.01 87.5266 76.0587 87.5285 76.1064 87.5208C76.1541 87.5131 76.1997 87.4958 76.2406 87.4701C76.5181 87.1626 76.9905 86.5851 77.343 86.2401C77.6055 86.5401 78.1605 87.1926 78.408 87.5001C78.828 92.24 84.6853 93.7625 85.0528 91.1075C85.4399 90.7786 85.7216 90.343 85.8628 89.855C86.9409 90.8506 88.2584 91.55 89.687 91.8852C91.1157 92.2203 92.6068 92.1798 94.0151 91.7675C96.2496 91.116 98.2811 89.9053 99.9175 88.2501C101.515 86.7501 108.812 77.4504 109.555 75.6729L118.142 75.1629V138.251C117.077 135.672 115.626 133.269 113.837 131.127C113.81 131.097 113.774 131.077 113.735 131.071C113.695 131.064 113.654 131.07 113.619 131.089C113.584 131.108 113.556 131.138 113.54 131.175C113.523 131.212 113.52 131.253 113.53 131.292C113.53 131.292 114.655 134.764 115.345 136.976C114.483 135.91 113.545 134.908 112.54 133.976C112.51 133.952 112.472 133.938 112.433 133.936C112.395 133.934 112.356 133.945 112.324 133.967C112.292 133.989 112.268 134.021 112.256 134.058C112.243 134.095 112.243 134.134 112.255 134.171C112.255 134.171 113.387 137.081 113.815 138.326C113.335 137.929 110.732 135.806 110.282 136.219C110.251 136.251 110.234 136.294 110.234 136.339C110.234 136.384 110.251 136.427 110.282 136.459C111.009 137.201 111.653 138.021 112.202 138.904C113.402 140.914 112.765 141.454 113.2 141.446C113.248 141.444 113.294 141.424 113.327 141.389C113.361 141.354 113.38 141.307 113.38 141.259C113.305 140.352 113.006 139.479 112.51 138.716C111.445 136.931 110.515 136.421 111.415 136.976C112.338 137.595 113.227 138.263 114.077 138.979C114.099 138.991 114.124 138.999 114.15 139.001C114.175 139.003 114.201 139 114.225 138.992C114.249 138.983 114.271 138.969 114.29 138.952C114.308 138.934 114.323 138.913 114.332 138.889C114.357 138.803 114.357 138.712 114.332 138.626C114.167 138.056 113.357 135.934 112.922 134.786C116.38 138.139 115.562 138.739 116.042 138.881C116.068 138.888 116.095 138.889 116.121 138.884C116.147 138.88 116.172 138.87 116.194 138.855C116.216 138.84 116.234 138.821 116.248 138.798C116.262 138.775 116.271 138.75 116.275 138.724C116.275 138.506 114.602 133.286 114.227 132.131C115.727 134.126 117.58 137.059 118.12 139.489V142.384H121.247V140.771C122.596 138.02 124.947 135.89 127.817 134.816C127.742 134.899 123.729 139.001 124.142 140.516C124.153 140.566 124.182 140.609 124.224 140.637C124.266 140.665 124.317 140.675 124.367 140.666C124.877 140.561 126.159 138.004 131.117 136.639C130.472 137.194 129.377 138.139 129.084 138.326C128.222 138.956 126.782 140.666 126.759 141.206C126.756 141.239 126.763 141.271 126.779 141.299C126.795 141.327 126.82 141.35 126.849 141.364C126.962 141.431 127.029 141.364 127.142 141.289C127.809 140.816 130.344 139.039 131.162 139.151C130.802 139.684 129.819 140.794 129.834 141.776C129.843 141.817 129.865 141.853 129.897 141.879C129.929 141.905 129.969 141.92 130.01 141.92C130.052 141.92 130.092 141.905 130.124 141.879C130.156 141.853 130.178 141.817 130.187 141.776C130.187 140.734 131.552 139.421 131.574 139.114C131.597 138.806 131.282 138.806 131.064 138.806C130.134 138.806 128.154 140.164 127.397 140.689C128.582 138.889 129.804 138.349 131.777 136.541C131.979 136.354 131.859 136.196 131.732 136.181C131.402 136.144 128.102 136.714 124.599 140.029C125.717 136.736 128.229 135.304 128.462 134.599C128.507 134.456 128.402 134.329 128.124 134.366C125.334 134.719 122.979 137.299 121.532 139.721V74.9979C122.207 74.9979 136.299 73.888 136.299 73.888C136.406 73.8809 136.507 73.8352 136.583 73.7593C136.659 73.6834 136.704 73.5826 136.712 73.4755L137.462 62.1208C137.462 58.7758 137.117 55.1159 135.497 52.2435ZM19.797 142.136L19.2495 144.806L14.1721 144.259C14.4121 142.759 14.4946 142.009 14.5771 140.899C15.9023 141.176 17.2508 141.327 18.6045 141.349C18.5145 141.686 18.4245 141.874 18.6045 142.039C18.7845 142.204 18.7995 142.136 19.797 142.136ZM73.3981 50.496C73.1908 50.5074 72.983 50.5074 72.7757 50.496C72.7007 50.496 70.2407 50.1961 70.1657 50.1961C69.7907 50.1961 69.6257 50.7735 70.2182 50.8785C71.7182 51.141 73.0381 51.1485 73.2181 51.201C74.2081 51.4635 74.2756 51.951 72.7081 51.8985C71.1407 51.846 68.8607 51.2535 68.5758 51.3885C67.9203 51.6764 67.2948 52.0281 66.7083 52.4385C66.4221 51.1081 65.8628 49.8516 65.0658 48.7486C65.5083 48.5986 67.0908 48.3286 67.0908 48.3286C67.1298 48.3242 67.1663 48.3072 67.1948 48.2801C67.2232 48.253 67.242 48.2174 67.2483 48.1786C67.3621 47.504 67.5456 46.8429 67.7958 46.2062C67.9233 45.9212 68.1933 45.3812 68.5458 45.3812C68.6508 45.3812 68.6283 45.7187 68.6208 45.8237C68.4657 46.5994 68.2577 47.3637 67.9983 48.1111C67.989 48.1538 67.9897 48.1981 68.0003 48.2406C68.0109 48.283 68.0311 48.3224 68.0594 48.3557C68.0877 48.3891 68.1233 48.4155 68.1634 48.4329C68.2035 48.4503 68.2471 48.4582 68.2908 48.4561C69.5358 48.3151 70.7877 48.2425 72.0407 48.2386C72.4682 48.2386 73.8931 48.3286 73.9831 48.7486C74.0281 48.9511 73.9381 48.9811 73.7281 49.0261C72.5692 49.1207 71.4038 49.1031 70.2482 48.9736C70.1713 48.9623 70.0928 48.9768 70.025 49.0148C69.9572 49.0528 69.9038 49.1121 69.8732 49.1836C69.8732 49.1836 69.8207 49.5886 70.1732 49.6336C71.7407 49.8286 72.5582 49.6336 73.4281 49.8961C73.6306 49.9561 74.0731 50.1136 74.0581 50.2935C74.0431 50.4735 73.5706 50.481 73.3981 50.496ZM78.2505 47.7811C78.2446 47.7855 78.2379 47.7888 78.2307 47.7906C78.2236 47.7924 78.2161 47.7928 78.2088 47.7918C78.2015 47.7908 78.1945 47.7883 78.1881 47.7845C78.1817 47.7808 78.1762 47.7758 78.1718 47.7699C78.1673 47.764 78.1641 47.7572 78.1623 47.7501C78.1604 47.7429 78.16 47.7355 78.1611 47.7282C78.1621 47.7208 78.1646 47.7138 78.1684 47.7075C78.1721 47.7011 78.1771 47.6955 78.183 47.6911C78.2814 47.6025 78.365 47.4987 78.4305 47.3836C78.828 46.6336 76.863 46.7086 76.0306 46.7086C76.0191 46.7044 76.0092 46.6967 76.0022 46.6867C75.9952 46.6766 75.9914 46.6646 75.9914 46.6524C75.9914 46.6401 75.9952 46.6282 76.0022 46.6181C76.0092 46.6081 76.0191 46.6004 76.0306 46.5961C78.678 46.0937 79.293 47.1436 78.2505 47.7811ZM67.0458 39.5313C67.0723 39.5729 67.1089 39.607 67.1522 39.6306C67.1955 39.6542 67.244 39.6665 67.2933 39.6663C67.7058 39.6663 67.6458 39.9138 67.6533 39.9588C67.7208 40.1838 67.4733 40.3488 67.7058 40.5438C67.9383 40.7388 68.2158 40.4388 68.4558 40.5438C68.5008 40.5438 68.5833 40.9938 68.7483 41.0388C68.9132 41.0838 70.6532 41.9388 69.9857 40.8813C68.2158 38.1064 71.2382 36.5764 72.8206 39.8013C72.9556 40.0563 74.0806 33.2015 74.0806 33.2015C82.3829 32.0915 85.6153 34.9339 86.0278 35.7664C85.7203 37.2719 85.2965 38.7513 84.7603 40.1913C84.5613 40.0237 84.3276 39.9024 84.0759 39.8363C83.8243 39.7701 83.5611 39.7607 83.3054 39.8088C83.0406 39.859 82.7867 39.9555 82.5554 40.0938C82.5206 40.1038 82.4912 40.1271 82.4736 40.1588C82.456 40.1904 82.4517 40.2277 82.4617 40.2626C82.4716 40.2974 82.495 40.3268 82.5266 40.3444C82.5583 40.362 82.5956 40.3662 82.6304 40.3563C82.8629 40.3563 83.2529 40.4013 83.3279 40.4088C83.7929 40.4088 84.3704 40.5138 84.4679 40.9638C83.5026 43.6022 82.1283 46.0723 80.3955 48.2836C80.448 48.0586 80.493 47.8261 80.5305 47.5936C80.6655 46.7611 80.3955 45.5537 78.7455 44.7662C79.743 45.1187 80.343 45.3287 80.8754 44.5412C81.7004 43.3187 82.2404 40.0413 82.2629 39.9213C82.2688 39.9046 82.2714 39.8868 82.2704 39.8691C82.2695 39.8514 82.265 39.834 82.2574 39.818C82.2497 39.802 82.239 39.7876 82.2258 39.7757C82.2126 39.7639 82.1972 39.7547 82.1804 39.7488C82.1637 39.7429 82.1459 39.7404 82.1282 39.7413C82.1105 39.7422 82.0931 39.7467 82.0771 39.7543C82.0611 39.762 82.0467 39.7727 82.0348 39.7859C82.023 39.7992 82.0138 39.8146 82.0079 39.8313C81.2129 41.4963 80.8454 43.3262 80.313 44.1662C80.133 44.4512 80.0355 44.4662 79.563 44.3912C77.9955 44.1662 77.8755 44.1062 77.838 44.2862C77.8389 44.3455 77.8631 44.4022 77.9055 44.4437L77.7705 44.3987C73.6531 43.2362 70.6682 46.5586 70.7432 47.6461C69.8732 47.6986 69.0632 47.7961 68.6058 47.8486C68.8982 46.8436 69.5282 44.8487 68.4708 44.9012C67.4133 44.9537 67.0383 46.9936 66.8958 47.9986C66.2274 48.1453 65.5707 48.3408 64.9309 48.5836C64.5484 47.9986 64.6309 48.0361 64.2484 48.0586C63.1859 46.3248 62.6831 44.3058 62.8084 42.2763C62.9352 41.0743 63.4095 39.9354 64.1734 38.9988L67.0458 39.5313ZM63.8884 38.8413C63.273 39.4391 62.8019 40.1691 62.5108 40.9761C62.2197 41.7831 62.1163 42.6458 62.2084 43.4987C62.2913 45.1424 62.8926 46.7177 63.9259 47.9986H63.3109C61.6534 46.7836 61.0609 41.3163 63.2434 38.5938L63.8884 38.8413ZM54.4161 36.1639L62.9659 38.6088C60.2885 41.2563 60.8959 46.5587 62.8984 48.1186C58.691 48.3061 55.5786 48.3661 52.0612 49.1461C54.8211 47.4361 55.4811 44.1512 55.2186 40.8963C55.2186 40.8605 55.2044 40.8261 55.1791 40.8008C55.1537 40.7755 55.1194 40.7613 55.0836 40.7613C55.0478 40.7613 55.0135 40.7755 54.9881 40.8008C54.9628 40.8261 54.9486 40.8605 54.9486 40.8963C54.7311 44.1962 54.0936 47.0686 51.4987 48.9811C50.6362 49.6186 51.0637 49.3186 48.5513 50.0911C48.5165 50.102 48.4874 50.1263 48.4705 50.1587C48.4537 50.191 48.4503 50.2287 48.4613 50.2635C48.4722 50.2984 48.4965 50.3274 48.5289 50.3443C48.5612 50.3611 48.5989 50.3645 48.6338 50.3535C54.3711 48.6811 56.8835 48.7861 64.3459 48.5311C65.6958 50.631 66.1683 51.4035 66.4983 54.3959C65.1558 55.8434 60.446 58.8958 58.001 60.2533C49.4887 64.9332 39.4915 67.3706 32.6367 60.5758C17.997 46.0937 40.009 32.054 54.4161 36.1639ZM65.2533 56.1959C64.8633 57.2534 62.5084 62.7582 61.5859 64.0707C57.3185 70.138 56.0811 70.498 55.9986 70.588C55.262 70.643 54.5247 70.4924 53.8686 70.153C55.8711 67.4981 58.9985 65.2482 61.7059 58.7383C63.0559 57.8609 64.3309 56.9309 65.2533 56.1959ZM47.0588 137.801L46.3088 140.449L41.4039 139.586C41.7328 138.154 41.9832 136.704 42.1539 135.244C43.5422 135.539 44.9515 135.724 46.3688 135.799C45.8363 137.434 45.7838 137.441 45.9113 137.621C46.0388 137.801 46.2488 137.734 47.0588 137.801ZM76.0006 86.8476C73.9984 86.3062 72.0948 85.4506 70.3607 84.3127C65.683 81.2157 62.1871 76.6311 60.4385 71.3005C61.8503 68.5369 63.027 65.6593 63.9559 62.6982C63.9698 62.6565 63.9666 62.6109 63.9469 62.5715C63.9272 62.5321 63.8926 62.5022 63.8509 62.4882C63.8091 62.4743 63.7635 62.4776 63.7241 62.4972C63.6847 62.5169 63.6548 62.5515 63.6409 62.5932C60.8278 70.1238 56.625 77.0589 51.2512 83.0377C44.1264 88.5051 24.0719 83.8477 15.1471 68.7881C16.1221 64.8357 22.3394 54.5384 27.1468 50.0386C26.8993 53.4885 28.3243 57.2684 32.1567 61.0633C40.039 68.8556 51.9262 65.0457 61.2484 59.0233C58.376 65.0232 55.1811 67.2131 53.1111 70.0406C53.0861 70.0729 53.0678 70.1099 53.0573 70.1494C53.0468 70.1889 53.0442 70.2301 53.0498 70.2706C53.0554 70.3111 53.069 70.3501 53.0898 70.3853C53.1107 70.4205 53.1383 70.4512 53.1711 70.4755C53.9002 70.9888 54.7883 71.2254 55.6761 71.143C55.9943 71.0768 56.2939 70.9411 56.5536 70.7455C58.2769 69.3386 59.7699 67.671 60.9784 65.8032C62.9974 62.7423 64.5564 59.4018 65.6058 55.8884C66.098 55.5106 66.5572 55.0916 66.9783 54.6359C67.017 54.5788 67.0331 54.5093 67.0233 54.4409C66.9483 53.781 66.8658 53.226 66.7683 52.731C67.4025 52.3539 68.0644 52.0254 68.7483 51.7485C69.1082 51.7485 70.2482 52.0485 71.2757 52.2285C71.2082 52.0635 73.9606 57.2309 73.0606 67.6706C73.0606 68.0456 75.8056 75.8079 81.2354 82.0477C79.2751 83.3957 77.5131 85.0113 76.0006 86.8476ZM116.605 42.6512C117.91 42.4712 123.617 42.4787 123.752 42.4862C123.834 43.3112 124.074 45.5237 124.074 45.5237L119.019 45.9362V56.2934C118.604 56.1019 118.149 56.0129 117.692 56.0338C117.236 56.0546 116.791 56.1848 116.395 56.4134C116.545 50.2486 116.612 42.8762 116.605 42.6512ZM116.117 58.7683C116.166 58.2003 116.416 57.6684 116.822 57.2684C116.846 57.2468 116.876 57.2348 116.908 57.2348C116.94 57.2348 116.971 57.2468 116.995 57.2684C116.791 57.7266 116.626 58.2006 116.5 58.6858C116.5 59.0908 116.77 60.6508 116.402 60.0508C116.147 59.6754 116.045 59.2165 116.117 58.7683ZM102.43 67.0181L103.052 67.0706C103.127 67.0869 103.193 67.1297 103.239 67.1912C103.284 67.2528 103.306 67.3287 103.299 67.4049C103.293 67.4811 103.259 67.5524 103.204 67.6054C103.149 67.6585 103.076 67.6896 103 67.6931L102.37 67.6406C102.3 67.6195 102.24 67.5749 102.199 67.5143C102.159 67.4538 102.14 67.381 102.147 67.3085C102.155 67.236 102.187 67.1681 102.238 67.1165C102.29 67.0649 102.357 67.0328 102.43 67.0256V67.0181ZM97.345 55.7234C98.155 51.5385 102.197 50.3761 101.74 50.7135C99.1075 52.701 98.635 53.676 97.8925 55.9634C97.5775 56.9234 97.0825 62.8632 96.7675 62.8632C96.5726 62.8707 96.8425 58.3484 97.345 55.7234ZM99.88 67.2956L99.2575 67.1756C99.2176 67.1672 99.1797 67.1511 99.1461 67.1281C99.1124 67.1051 99.0837 67.0757 99.0614 67.0416C99.0391 67.0075 99.0238 66.9693 99.0162 66.9292C99.0087 66.8892 99.0091 66.848 99.0175 66.8081C99.0259 66.7682 99.042 66.7304 99.065 66.6967C99.088 66.6631 99.1174 66.6343 99.1515 66.612C99.1857 66.5897 99.2238 66.5744 99.2639 66.5669C99.3039 66.5593 99.3451 66.5598 99.385 66.5681L99.9925 66.6881C100.073 66.7031 100.144 66.7494 100.191 66.8169C100.237 66.8844 100.255 66.9676 100.24 67.0481C100.225 67.1287 100.179 67.2 100.111 67.2464C100.044 67.2928 99.9605 67.3105 99.88 67.2956ZM96.4526 65.6982L97.0225 65.9157C97.1001 65.9435 97.1634 66.001 97.1986 66.0756C97.2338 66.1501 97.2379 66.2356 97.21 66.3131C97.1822 66.3907 97.1247 66.4541 97.0501 66.4892C96.9756 66.5244 96.8901 66.5285 96.8125 66.5006L96.2201 66.2831C96.1457 66.2501 96.087 66.1896 96.0562 66.1142C96.0255 66.0389 96.0251 65.9545 96.0551 65.8789C96.0852 65.8033 96.1434 65.7422 96.2175 65.7085C96.2915 65.6748 96.3758 65.6711 96.4526 65.6982ZM85.1428 90.875C85.1508 90.4354 85.0347 90.0023 84.8079 89.6256C84.5811 89.2489 84.2527 88.9437 83.8604 88.7451C83.2037 88.3713 82.4361 88.2411 81.6929 88.3776C81.6313 88.2483 81.5956 88.1081 81.5879 87.9651C81.5879 87.6801 81.7904 87.6051 82.0829 87.5976C83.0991 87.6748 84.0854 87.9771 84.9703 88.4826C85.1401 88.8868 85.373 89.2614 85.6603 89.5926C85.6341 90.0655 85.4522 90.5164 85.1428 90.875ZM99.4975 87.7476C96.0851 90.9425 91.6752 92.615 87.6628 90.2525C84.9253 88.6476 84.8578 86.3451 86.1628 83.5027C88.3303 78.7253 92.0577 74.0079 95.0501 71.668C95.0951 71.668 109.397 75.4179 109.397 75.4179C108.377 77.5479 100.72 86.6376 99.4975 87.7476ZM105.497 67.1681H106.112C106.187 67.1797 106.254 67.2174 106.303 67.2745C106.352 67.3316 106.379 67.4042 106.379 67.4794C106.379 67.5545 106.352 67.6272 106.303 67.6842C106.254 67.7413 106.187 67.779 106.112 67.7906H105.497C105.434 67.7702 105.378 67.7302 105.339 67.6763C105.3 67.6224 105.278 67.5574 105.278 67.4906C105.278 67.4239 105.3 67.3588 105.339 67.3049C105.378 67.251 105.434 67.211 105.497 67.1906V67.1681ZM109.247 67.6556L108.625 67.7081C108.549 67.7032 108.477 67.671 108.423 67.6174C108.369 67.5637 108.336 67.4924 108.331 67.4165C108.325 67.3406 108.348 67.2652 108.393 67.2044C108.439 67.1436 108.505 67.1014 108.58 67.0856L109.195 67.0331C109.28 67.0262 109.365 67.0535 109.43 67.109C109.496 67.1646 109.537 67.2438 109.543 67.3294C109.55 67.4149 109.523 67.4997 109.468 67.5651C109.412 67.6305 109.333 67.6711 109.247 67.6781V67.6556ZM136.539 62.0308L135.842 72.9955C134.634 73.0855 109.592 75.3204 109.592 75.3204C109.675 74.8104 110.98 50.8935 104.657 49.0111C106.375 49.0111 111.265 48.9211 115.847 48.6436C115.847 51.2235 116.027 56.5409 116.027 56.6159C115.57 56.9785 115.236 57.4733 115.071 58.0327C114.905 58.5922 114.916 59.189 115.103 59.7419C115.289 60.2947 115.641 60.7766 116.112 61.1219C116.582 61.4671 117.147 61.6588 117.73 61.6709C118.314 61.683 118.886 61.5149 119.371 61.1895C119.855 60.864 120.227 60.3972 120.436 59.8525C120.645 59.3079 120.681 58.712 120.539 58.1462C120.397 57.5804 120.084 57.0722 119.642 56.6909V48.7486C120.872 48.7936 127.419 49.0411 129.804 49.2586C130.852 49.3459 131.86 49.7053 132.726 50.3011C133.593 50.8969 134.29 51.7086 134.747 52.656C136.854 56.4809 136.569 62.0532 136.569 62.0532L136.539 62.0308Z" fill="#AFAFAF"/>
</g>
<defs>
<clipPath id="clip0_2873_69992">
<rect width="150" height="150" fill="white" transform="translate(0.5)"/>
</clipPath>
</defs>
</svg>
