<svg width="338" height="208" viewBox="0 0 338 208" fill="none" xmlns="http://www.w3.org/2000/svg">
<path fill-rule="evenodd" clip-rule="evenodd" d="M162.802 20.9408C241.195 -5.52341 317.995 11.8966 334.34 59.8487C350.685 107.801 300.386 168.128 221.995 194.592C143.602 221.056 66.8015 203.636 50.4558 155.684C34.1107 107.732 84.4097 47.4045 162.802 20.9408Z" fill="#6D41A2" fill-opacity="0.1"/>
<path fill-rule="evenodd" clip-rule="evenodd" d="M316.394 43.0687C325.972 39.8346 335.242 41.6248 337.097 47.0671C338.951 52.5094 332.69 59.5428 323.111 62.7763C313.532 66.0104 304.263 64.2203 302.408 58.7779C300.552 53.3356 306.814 46.3022 316.394 43.0687Z" fill="#8362AA"/>
<path fill-rule="evenodd" clip-rule="evenodd" d="M302.352 31.1854C307.221 32.8477 310.211 36.9734 309.03 40.4008C307.849 43.8276 302.944 45.2586 298.074 43.5958C293.204 41.934 290.214 37.8084 291.396 34.381C292.577 30.9542 297.482 29.5231 302.352 31.1854Z" fill="#8362AA"/>
<path fill-rule="evenodd" clip-rule="evenodd" d="M317.6 31.1071C320.213 30.2249 322.858 31.0563 323.508 32.9633C324.159 34.8708 322.567 37.1322 319.955 38.0138C317.342 38.8961 314.697 38.0646 314.047 36.1571C313.397 34.2501 314.988 31.9888 317.6 31.1071Z" fill="#8362AA"/>
<path fill-rule="evenodd" clip-rule="evenodd" d="M36.9676 100.387C33.164 107.637 26.7096 111.763 22.5498 109.603C18.3907 107.442 18.102 99.8129 21.9056 92.5623C25.7087 85.3123 32.1636 81.186 36.3222 83.347C40.482 85.5073 40.7701 93.1369 36.9676 100.387Z" fill="#E1E2DF"/>
<path fill-rule="evenodd" clip-rule="evenodd" d="M21.1662 71.4469C25.0145 72.9504 27.268 76.3649 26.1996 79.0735C25.1312 81.7821 21.1451 82.7583 17.2969 81.2549C13.4481 79.7514 11.1945 76.3369 12.2629 73.6283C13.3319 70.9196 17.3174 69.9428 21.1662 71.4469Z" fill="#6D41A2" fill-opacity="0.1"/>
<path fill-rule="evenodd" clip-rule="evenodd" d="M29.7822 63.5896C30.8212 61.4321 32.9527 60.2982 34.5427 61.0573C36.1333 61.8151 36.5798 64.1793 35.5407 66.3367C34.5017 68.4935 32.3701 69.6274 30.7802 68.869C29.1902 68.1105 28.7431 65.7464 29.7822 63.5896Z" fill="#E1E2DF"/>
<path fill-rule="evenodd" clip-rule="evenodd" d="M130.658 14.0249C197.15 36.2875 264.034 -12.0844 284.936 65.548C297.147 110.9 204.603 126.559 150.405 133.521C96.2068 140.483 48.1425 116.255 43.0499 79.4069C37.9578 42.559 64.1667 -8.23779 130.658 14.0249Z" fill="#6D41A2" fill-opacity="0.1"/>
<path fill-rule="evenodd" clip-rule="evenodd" d="M125.872 95.123L128.472 121.791L142.372 126.247L143.25 95.8254L125.872 95.123ZM233.91 83.5733L261.363 89.2597L261.478 78.7382L235.153 70.6743L233.91 83.5733ZM187.546 49.1654L183.626 80.2832L184.014 101.923L183.907 102.847L199.331 105.348L205.051 52.7784L187.546 49.1654ZM189.824 31.088L188.142 44.4407L205.568 48.0373L207.125 33.7218L189.824 31.088ZM154.163 28.1324L148.203 63.8283L148.038 69.5322L179.928 77.2581L185.801 30.6349L154.163 28.1324ZM119.795 20.3983L123.596 71.7626H123.595L125.406 90.3393L143.388 91.0656L144.193 63.21L150.156 27.4919L119.795 20.3983ZM85.9571 52.452L80.0161 67.7561L120.056 77.1203L119.58 72.2385L119.572 72.1731L118.733 60.8342L85.9571 52.452ZM75.9549 66.8061L81.9276 51.4215L58.0844 45.3241L54.0455 61.682L75.9549 66.8061ZM122.695 104.191L99.5212 104.155L96.157 120.236L124.354 121.211L122.695 104.191ZM73.7272 98.3425L98.0145 99.3923L122.231 99.4297L120.541 82.1002L78.2836 72.2169L71.2331 90.379L75.0232 94.0965L73.7272 98.3425ZM64.1515 20.751L59.2185 40.7295L118.365 55.8549L114.967 9.95684C116.32 10.1997 117.691 10.4736 119.083 10.7836L119.428 15.4471L150.939 22.808L151.587 18.9246C152.93 19.1196 154.272 19.3001 155.612 19.4559L154.951 23.4135L186.397 25.9014L187.093 20.3779C188.466 20.3324 189.833 20.2804 191.193 20.2232L190.416 26.3778L207.639 29.0006L208.686 19.3736C210.056 19.3106 211.413 19.2563 212.762 19.206L205.801 83.1757L222.911 85.3857L229.026 19.1436C230.386 19.2014 231.731 19.279 233.059 19.3818L227.26 82.1954L229.931 82.7489L231.67 64.6878L261.531 73.8348L262.024 28.3367C263.395 29.2739 264.725 30.3021 266.015 31.4237L265.695 60.9259L282.863 58.6925C283.362 60.1686 283.835 61.7182 284.295 63.3028L265.643 65.7294L265.237 103.244C263.933 104.052 262.583 104.84 261.186 105.608L261.311 94.0971L226.822 86.9522L226.397 91.5573L220.394 113.432L223.753 119.905C222.377 120.283 220.993 120.654 219.602 121.017L215.986 114.049L222.435 90.5448L222.473 90.1256L205.286 87.9057L202.804 110.721L183.361 107.567L180.867 129.08C179.478 129.312 178.097 129.536 176.723 129.757L179.984 101.622L179.632 82.0482L147.899 74.3603L146.364 127.526L152.071 129.356L165.28 131.499C160.097 132.247 155.104 132.917 150.405 133.521C150.219 133.545 150.033 133.565 149.847 133.588L128.969 126.895L129.729 134.692C128.364 134.671 127.006 134.634 125.657 134.573L124.819 125.99L95.1673 124.964L94.2673 129.266C92.9542 128.862 91.6599 128.435 90.3826 127.989L91.045 124.822L81.6677 124.498C78.2824 122.955 75.0672 121.251 72.0363 119.401L92.0348 120.093L95.392 104.045L72.2915 103.046L68.0819 116.835C66.8815 116.003 65.7192 115.143 64.5904 114.261L70.275 95.6391L66.2819 91.7237L74.2235 71.2675L52.9096 66.2829L46.5896 91.8807C45.5904 89.5978 44.769 87.2471 44.136 84.8339L58.6693 25.9697C60.359 24.1153 62.1861 22.3695 64.1515 20.751Z" fill="#F3F3F3"/>
<path fill-rule="evenodd" clip-rule="evenodd" d="M69.8477 183.124C34.2034 184.135 11.3564 185.692 11.3564 187.438C11.3564 189.394 39.986 191.112 83.1566 192.092C78.2969 189.438 73.8414 186.445 69.8477 183.124Z" fill="#E1E2DF"/>
<path fill-rule="evenodd" clip-rule="evenodd" d="M166.53 181.923C129.967 181.923 96.3641 182.373 69.8438 183.125C73.8381 186.445 78.2929 189.439 83.152 192.092C107.235 192.64 135.841 192.956 166.53 192.956C188.332 192.956 209.078 192.795 227.903 192.507C235.839 189.603 243.466 186.354 250.742 182.805C226.487 182.247 197.575 181.923 166.53 181.923Z" fill="#8362AA"/>
<path fill-rule="evenodd" clip-rule="evenodd" d="M91.1405 107.955C76.9393 112.594 52.8742 115.076 35.4214 120.361C17.9686 125.647 11.3564 135.465 11.3564 138.269C11.3564 141.074 11.3564 150.891 11.3564 155.422C11.3564 159.953 17.1537 164.432 25.8822 169.446C34.6106 174.462 42.3593 173.438 46.8036 173.438H48.7116C47.6226 170.433 47.0271 167.193 47.0271 163.815C47.0271 148.154 59.7851 135.458 75.5224 135.458C91.2596 135.458 104.017 148.154 104.017 163.815C104.017 167.193 103.422 170.433 102.333 173.438H253.066C251.977 170.433 251.382 167.193 251.382 163.815C251.382 148.154 264.14 135.458 279.876 135.458C289.278 135.458 297.615 139.991 302.805 146.979C308.133 141.81 312.919 136.465 317.111 131.003C316.937 129.729 316.834 128.512 316.834 127.373C316.834 116.478 295.696 94.7942 292.335 91.3417C288.975 87.8898 284.747 83.7904 285.181 82.1719C285.614 80.554 290.254 81.4111 290.601 80.1219C290.947 78.8333 280.303 76.67 268.486 74.7286C256.671 72.7867 220.681 69.1187 196.724 70.4132C172.767 71.7077 159.325 75.0521 140.247 83.8984C121.168 92.7442 109.786 100.403 91.1405 107.955Z" fill="#B6A4D0"/>
<path fill-rule="evenodd" clip-rule="evenodd" d="M177.783 151.367C147.485 151.367 122.923 152.049 122.923 152.891C122.923 153.732 147.485 154.415 177.783 154.415C208.082 154.415 232.644 153.732 232.644 152.891C232.644 152.049 208.082 151.367 177.783 151.367Z" fill="#8E71B3"/>
<path fill-rule="evenodd" clip-rule="evenodd" d="M316.839 127.731C316.837 127.611 316.834 127.491 316.834 127.373C316.834 127.211 316.828 127.047 316.82 126.88C313.538 127.591 309.307 128.706 304.945 131.283C303.855 131.927 302.719 132.74 301.503 133.61C299.069 135.353 296.308 137.328 292.927 138.601C293.255 138.77 293.579 138.946 293.9 139.126C297.056 137.822 299.669 135.952 301.994 134.288C303.185 133.434 304.299 132.637 305.373 132.003C309.559 129.531 313.64 128.432 316.839 127.731Z" fill="#7853A2"/>
<path fill-rule="evenodd" clip-rule="evenodd" d="M315.819 122.567C313.965 117.557 309.819 111.55 305.488 106.118C300.804 105.468 298.795 105.376 298.396 106.654C297.871 108.341 306.72 120.455 311.418 121.937C312.814 122.378 314.35 122.547 315.819 122.567Z" fill="#8E71B3"/>
<path fill-rule="evenodd" clip-rule="evenodd" d="M37.5654 119.736C36.8408 119.941 36.125 120.148 35.4216 120.361C22.8426 124.171 15.8954 130.335 12.9958 134.531C20.0704 137.487 37.197 132.973 41.4277 131.92C46.4722 130.665 45.3082 123.618 43.8532 121.834C42.2603 120.294 40.0701 119.695 37.5654 119.736Z" fill="#F3F3F3"/>
<path fill-rule="evenodd" clip-rule="evenodd" d="M288.554 110.4C284.841 114.441 237.098 114.284 224.159 114.287C197.091 114.291 136.112 119.218 136.112 118.392C136.112 116.875 144.978 116.467 165.37 114.402C175.737 113.353 189.085 112.268 205.761 111.381C255.236 108.75 293.957 104.519 288.554 110.4Z" fill="#8E71B3"/>
<path fill-rule="evenodd" clip-rule="evenodd" d="M33.4749 122.704C31.0905 122.704 27.1766 125.233 24.7318 128.352C22.287 131.471 22.2383 133.999 24.6221 133.999C27.0065 133.999 30.921 131.471 33.3658 128.352C35.81 125.233 35.8593 122.704 33.4749 122.704Z" fill="#6D41A2" fill-opacity="0.1"/>
<path fill-rule="evenodd" clip-rule="evenodd" d="M279.876 137.647C265.353 137.647 253.581 149.363 253.581 163.815C253.581 169.432 255.359 174.635 258.385 178.897C274.86 170.087 289.319 159.742 301.208 148.512C296.433 141.931 288.658 137.647 279.876 137.647Z" fill="#525357"/>
<path fill-rule="evenodd" clip-rule="evenodd" d="M75.5225 137.647C60.9997 137.647 49.2268 149.363 49.2268 163.815C49.2268 178.269 60.9997 189.985 75.5225 189.985C90.0453 189.985 101.818 178.269 101.818 163.815C101.818 149.363 90.0453 137.647 75.5225 137.647Z" fill="#525357"/>
<path fill-rule="evenodd" clip-rule="evenodd" d="M264.025 82.0659C267.666 85.0554 272.764 99.1887 273.675 104.353C273.675 104.353 214.591 107.252 205.76 108.34L207.126 75.9049C207.126 75.9049 259.655 78.6228 264.025 82.0659Z" fill="#F3F3F3"/>
<path fill-rule="evenodd" clip-rule="evenodd" d="M205.944 103.965L206.015 102.285C206.716 102.233 207.387 102.091 207.996 101.845C209.009 101.435 209.857 100.723 210.384 99.6366C211.073 98.2154 211.242 96.1456 210.582 93.2618C209.342 87.8487 212.103 85.4361 216.382 84.4657C220.189 83.6027 225.198 83.9665 229.462 84.2765C233.058 84.5375 236.098 84.7582 237.061 84.2076C238.847 83.1864 238.269 81.3367 237.191 79.4701C236.891 78.951 236.542 78.4121 236.183 77.8807C236.89 77.9403 237.596 78.001 238.301 78.0629C238.418 78.2527 238.533 78.4442 238.645 78.6386C240.168 81.2754 240.889 83.9437 237.897 85.6551C236.481 86.4649 233.211 86.2273 229.344 85.9464C225.189 85.6446 220.308 85.2896 216.751 86.0959C213.418 86.852 211.264 88.7187 212.22 92.8946C212.973 96.1824 212.742 98.6201 211.897 100.364C211.172 101.859 210.011 102.837 208.628 103.397C207.796 103.734 206.885 103.915 205.944 103.965ZM264.025 82.066C266.299 83.9332 269.142 90.1486 271.178 95.8099C266.521 97.5376 260.283 97.6222 257.107 99.7843C255.087 101.161 255.409 103.163 256.724 105.213C244.047 105.871 227.063 106.787 215.993 107.522C222.439 101.909 218.287 95.4677 222.88 92.1221C229.268 87.4674 244.464 92.1221 248.814 87.1591C250.332 85.4262 250.809 82.4601 250.787 79.334C257.571 80.1538 262.774 81.0804 264.025 82.066Z" fill="#6D41A2" fill-opacity="0.1"/>
<path fill-rule="evenodd" clip-rule="evenodd" d="M197.566 75.9048L191.467 109.607C191.467 109.607 121.003 116.222 120.184 115.406C119.365 114.591 125.176 98.5599 125.631 97.4382C126.086 96.316 152.23 79.4384 197.566 75.9048Z" fill="#F3F3F3"/>
<path fill-rule="evenodd" clip-rule="evenodd" d="M123.908 102.205C124.267 101.179 124.599 100.246 124.876 99.4789C126.96 98.5225 129.047 98.679 130.79 98.8104C132.203 98.9161 133.318 99.0001 133.68 98.2773C134.049 97.5428 133.338 96.3452 132.564 95.0397C132.274 94.5504 131.976 94.0494 131.709 93.5385C132.181 93.2845 132.678 93.023 133.203 92.7526C133.449 93.2402 133.734 93.7213 134.011 94.1884C135.029 95.9038 135.962 97.4768 135.187 99.0235C134.319 100.755 132.707 100.633 130.665 100.48C128.702 100.333 126.23 100.147 123.908 102.205ZM197.566 75.9048L195.954 84.8189C188.795 85.5055 181.506 85.7689 180.354 88.7624C177.455 96.2968 189.705 96.0358 186.958 106.236C186.464 108.072 185.484 109.365 184.205 110.282C166.193 111.944 120.841 116.059 120.184 115.406C119.977 115.201 120.193 114.026 120.638 112.367C135.174 107.16 152.971 108.541 152.971 104.353C152.971 98.7327 140.568 99.7843 142.178 93.4282C143.748 87.2344 169.172 86.5489 170.472 79.8717C178.527 78.1096 187.58 76.6832 197.566 75.9048Z" fill="#6D41A2" fill-opacity="0.1"/>
<path fill-rule="evenodd" clip-rule="evenodd" d="M122.565 99.7848C122.565 99.7848 99.7375 113.804 98.7383 115.477C97.7392 117.149 118.337 115.477 118.337 115.477C118.337 115.477 119.336 108.352 122.565 99.7848Z" fill="#F3F3F3"/>
<path fill-rule="evenodd" clip-rule="evenodd" d="M138.36 108.002C138.118 112.323 134.646 113.427 132.235 113.139C129.824 112.851 123.844 110.783 123.844 108.002C123.844 105.22 127.316 102.149 131.102 102.149C134.887 102.149 138.572 104.141 138.36 108.002Z" fill="#B6A4D0"/>
<path fill-rule="evenodd" clip-rule="evenodd" d="M272.664 112.803C272.713 114.579 274.689 115.395 268.565 115.203C262.441 115.01 256.654 116.546 257.136 114.675C257.618 112.803 261.79 111.555 265.057 111.555C268.324 111.555 273.006 110.691 272.664 112.803Z" fill="#F3F3F3"/>
<path fill-rule="evenodd" clip-rule="evenodd" d="M193.289 117.698C193.337 119.473 195.314 120.289 189.19 120.097C183.065 119.905 177.279 121.441 177.76 119.569C178.243 117.698 182.415 116.449 185.681 116.449C188.949 116.449 193.631 115.586 193.289 117.698Z" fill="#F3F3F3"/>
<path d="M202.394 75.9049L198.801 108.34C197.566 113.182 194.691 141.977 194.691 165.172M273.675 104.353C273.675 104.353 278.438 122.399 275.722 127.303C273.006 132.208 266.108 132.851 256.656 141.775C247.204 150.699 247.526 162.378 244.699 163.815C241.872 165.252 194.691 165.172 194.691 165.172C194.691 165.172 122.346 167.814 120.184 165.814C118.022 163.815 118.022 142.277 118.022 136.237C118.022 130.197 117.736 119.168 120.15 115.356" stroke="#7853A2" stroke-width="3.83131" stroke-miterlimit="22.9256"/>
<path fill-rule="evenodd" clip-rule="evenodd" d="M15.1331 145.054C15.1331 145.68 34.2773 147.758 38.2265 146.306C42.1756 144.854 41.874 142.05 37.648 142.05C33.4219 142.05 28.7171 143.775 23.8375 144.103C18.9566 144.43 15.1331 144.43 15.1331 145.054Z" fill="#8E71B3"/>
<path fill-rule="evenodd" clip-rule="evenodd" d="M25.2099 153.827C25.2099 153.827 24.7124 158.241 25.0744 159.727C25.4363 161.214 26.1152 162.61 27.8806 162.565C29.646 162.52 32.3965 160.223 32.3965 156.71C32.3965 153.196 25.2099 153.827 25.2099 153.827Z" fill="#F3F3F3"/>
<path d="M21.9954 152.478C26.5687 152.928 31.5845 151.918 33.2555 154.139C34.7604 156.139 34.4688 158.729 31.5904 162.566" stroke="#7853A2" stroke-width="2.87347" stroke-miterlimit="22.9256"/>
<path fill-rule="evenodd" clip-rule="evenodd" d="M279.876 147.138C270.621 147.138 263.119 154.605 263.119 163.815C263.119 167.737 264.479 171.342 266.756 174.189C276.748 168.278 285.892 161.796 294.045 154.907C291.075 150.238 285.84 147.138 279.876 147.138Z" fill="#525357"/>
<path fill-rule="evenodd" clip-rule="evenodd" d="M292.354 156.314C290.662 153.534 288.059 151.364 284.957 150.216C286.318 152.628 287.097 155.411 287.097 158.374C287.097 159.131 287.045 159.876 286.947 160.605C288.792 159.195 290.595 157.764 292.354 156.314Z" fill="#56595B"/>
<path fill-rule="evenodd" clip-rule="evenodd" d="M75.5226 147.139C66.2672 147.139 58.7644 154.605 58.7644 163.815C58.7644 173.027 66.2672 180.493 75.5226 180.493C84.7779 180.493 92.2807 173.027 92.2807 163.815C92.2807 154.605 84.7779 147.139 75.5226 147.139Z" fill="#525357"/>
<path fill-rule="evenodd" clip-rule="evenodd" d="M66.8145 175.449C69.244 177.253 72.2574 178.321 75.5224 178.321C83.572 178.321 90.098 171.827 90.098 163.815C90.098 160.069 88.6705 156.656 86.3272 154.082C86.8382 155.679 87.1151 157.381 87.1151 159.146C87.1151 168.357 79.6123 175.823 70.357 175.823C69.1413 175.823 67.9568 175.693 66.8145 175.449Z" fill="#56595B"/>
<path fill-rule="evenodd" clip-rule="evenodd" d="M41.2838 123.886C39.7044 123.886 37.1112 125.561 35.4918 127.627C33.8725 129.694 33.8397 131.368 35.4191 131.368C36.9985 131.368 39.5918 129.694 41.2111 127.627C42.831 125.561 42.8632 123.886 41.2838 123.886Z" fill="#E3ED51"/>
<path fill-rule="evenodd" clip-rule="evenodd" d="M127.606 110.164C129.149 111.028 130.318 111.339 128.914 115.047C127.509 118.754 126.639 119.33 122.565 119.33C118.491 119.33 118.829 116.45 121.336 113.859C123.844 111.267 125.821 109.348 127.606 110.164Z" fill="#7853A2"/>
<path fill-rule="evenodd" clip-rule="evenodd" d="M197.283 41.7867C199.655 41.7867 201.578 42.1685 201.578 42.6392C201.578 43.1103 199.655 43.4922 197.283 43.4922C194.912 43.4922 192.988 43.1103 192.988 42.6392C192.988 42.1685 194.912 41.7867 197.283 41.7867Z" fill="#C3C5C3"/>
<path fill-rule="evenodd" clip-rule="evenodd" d="M197.283 0.000228882C204.227 0.000228882 209.855 5.60194 209.855 12.5115C209.855 19.4223 197.283 42.6396 197.283 42.6396C197.283 42.6396 184.71 19.4223 184.71 12.5115C184.71 5.60194 190.34 0.000228882 197.283 0.000228882Z" fill="#8E71B3"/>
<path fill-rule="evenodd" clip-rule="evenodd" d="M197.283 8.23816C199.655 8.23816 201.578 10.1515 201.578 12.5116C201.578 14.8722 199.655 16.7861 197.283 16.7861C194.912 16.7861 192.988 14.8722 192.988 12.5116C192.988 10.1515 194.912 8.23816 197.283 8.23816Z" fill="#6D41A2" fill-opacity="0.1"/>
<path fill-rule="evenodd" clip-rule="evenodd" d="M65.0908 35.1909C65.0908 35.1909 64.9242 40.6577 63.0097 42.3142C61.0959 43.9707 60.3467 35.108 60.3467 35.108L65.0908 35.1909Z" fill="#525357"/>
<path fill-rule="evenodd" clip-rule="evenodd" d="M54.6309 200.683C54.1827 200.682 53.7327 200.682 53.2821 200.682C23.8551 200.682 0 202.32 0 204.341C0 206.362 23.8551 208 53.2821 208C63.7343 208 73.4818 207.793 81.7092 207.436C96.6439 206.788 106.564 205.644 106.564 204.341C106.564 202.35 83.4342 200.732 54.6309 200.683Z" fill="#E1E2DF"/>
<path fill-rule="evenodd" clip-rule="evenodd" d="M62.6864 67.2429C62.7086 65.0154 62.782 62.5147 61.5434 60.5143C60.3049 58.5145 54.5206 59.7711 50.1572 59.6146C45.7944 59.4581 35.4725 56.7232 33.9324 60.3579C32.3929 63.9931 33.9324 66.6561 33.9324 66.6561C33.9324 66.6561 30.107 69.8254 27.7731 73.6592C25.4386 77.4929 23.5336 84.8042 22.2475 87.3097C20.9614 89.8157 19.7229 96.0357 20.485 100.261C21.2472 104.486 21.0565 109.297 22.6764 110.862C24.2957 112.427 29.2018 114.093 36.3461 114.492C43.491 114.891 59.216 118.381 59.216 108.662C59.216 98.9434 66.199 92.6685 62.6864 67.2429Z" fill="#8362AA"/>
<path fill-rule="evenodd" clip-rule="evenodd" d="M62.6865 67.2429C62.7041 65.4522 62.7551 63.4845 62.1309 61.7428C59.9442 61.7738 57.3193 62.068 55.071 61.9874C50.7083 61.831 40.3863 59.0961 38.8468 62.7307C37.3073 66.3654 38.8468 69.029 38.8468 69.029C38.8468 69.029 35.0203 72.1977 32.6869 76.0315C30.353 79.8652 28.4474 87.1765 27.1613 89.6825C25.8753 92.1885 24.6367 98.408 25.3989 102.634C26.1446 106.766 25.9791 111.461 27.4869 113.128C29.8027 113.783 32.7984 114.294 36.3462 114.492C43.4912 114.891 59.2161 118.381 59.2161 108.662C59.2161 98.9434 66.1991 92.6685 62.6865 67.2429Z" fill="#8E71B3"/>
<path fill-rule="evenodd" clip-rule="evenodd" d="M88.6106 199.081C88.6106 199.081 89.2695 204.511 84.073 204.343C78.8771 204.173 74.6857 203.491 74.6857 203.491V204.343H66.4407V200.475L88.6106 199.081Z" fill="#6D41A2"/>
<path fill-rule="evenodd" clip-rule="evenodd" d="M67.968 122.8L75.4156 190.085H66.9201L54.2431 142.074L43.7152 192.746H35.1557L35.0947 122.8H67.968Z" fill="#8362AA"/>
<path fill-rule="evenodd" clip-rule="evenodd" d="M63.7578 94.0225C65.576 99.1998 69.213 104.128 75.1529 103.63C81.0933 103.132 75.1529 87.6997 75.1529 87.6997L63.7578 94.0225Z" fill="#E9B0A0"/>
<path fill-rule="evenodd" clip-rule="evenodd" d="M76.896 93.2912C76.1303 90.2399 75.1529 87.7 75.1529 87.7L69.7534 90.6959C69.6713 94.2231 70.6581 97.8297 74.9815 98.0078L76.896 93.2912Z" fill="#F8A074"/>
<path fill-rule="evenodd" clip-rule="evenodd" d="M47.162 53.8081L45.7944 70.0557H57.1302C57.1302 70.0557 54.5417 61.1177 54.5417 56.5313L47.162 53.8081Z" fill="#E9B0A0"/>
<path fill-rule="evenodd" clip-rule="evenodd" d="M47.1621 53.8081L46.877 57.1969C49.4397 59.8156 52.8455 62.2469 55.4482 63.25C54.953 60.8795 54.5417 58.36 54.5417 56.5313L47.1621 53.8081Z" fill="#D0522F"/>
<path fill-rule="evenodd" clip-rule="evenodd" d="M63.0508 32.1585C63.0508 32.1585 67.1807 59.1016 53.7357 59.1016C40.2901 59.1016 41.8718 40.7048 41.8718 36.0728V32.1585H63.0508Z" fill="#E9B0A0"/>
<path fill-rule="evenodd" clip-rule="evenodd" d="M40.259 43.0497C44.4187 43.3796 47.4638 40.6394 47.4638 38.3751C47.4638 36.1109 46.1883 33.8869 46.1883 33.8869C46.1883 33.8869 50.5281 38.628 57.683 38.5042C64.838 38.3804 68.0038 34.6944 67.5873 30.0555C67.318 27.0462 64.5469 24.5816 61.9959 24.5816C59.4443 24.5816 55.0071 26.4757 51.901 26.4757C48.795 26.4757 45.3434 25.1579 43.1591 27.0111C40.9742 28.8638 41.1408 30.7164 41.1408 30.7164C41.1408 30.7164 35.8264 32.0342 35.8264 36.6048C35.8264 41.1748 39.3144 43.3498 40.1305 43.306L40.259 43.0497Z" fill="#525357"/>
<path fill-rule="evenodd" clip-rule="evenodd" d="M51.8083 44.7021C52.2594 44.7021 52.6255 45.0828 52.6255 45.5522C52.6255 46.0217 52.2594 46.4023 51.8083 46.4023C51.3571 46.4023 50.991 46.0217 50.991 45.5522C50.991 45.0828 51.3571 44.7021 51.8083 44.7021Z" fill="#525357"/>
<path fill-rule="evenodd" clip-rule="evenodd" d="M60.0292 44.8119C60.4804 44.8119 60.8459 45.1926 60.8459 45.662C60.8459 46.132 60.4804 46.5127 60.0292 46.5127C59.578 46.5127 59.2119 46.132 59.2119 45.662C59.2119 45.1926 59.578 44.8119 60.0292 44.8119Z" fill="#525357"/>
<path fill-rule="evenodd" clip-rule="evenodd" d="M56.9338 44.9275C58.2621 47.3073 59.1533 49.1927 55.0458 49.9196C54.8504 49.9424 54.6779 49.8425 54.6615 49.6977C54.6445 49.5524 54.7894 49.4163 54.9848 49.3941C58.4217 48.7886 57.446 47.2554 56.2867 45.1791C56.2057 45.0501 56.2849 44.8883 56.4639 44.8194C56.6422 44.7494 56.8529 44.7978 56.9338 44.9275Z" fill="#D0522F"/>
<path fill-rule="evenodd" clip-rule="evenodd" d="M32.5185 73.2845C33.6579 71.5995 46.224 64.9497 46.224 64.9497C46.224 64.9497 48.2447 69.1168 52.1193 69.1168C55.9939 69.1168 55.7234 64.5188 55.7234 64.5188C55.7234 64.5188 69.0417 68.0431 70.2955 69.4C71.5487 70.7569 77.0755 91.8629 77.0755 91.8629C77.0755 91.8629 73.4291 94.6702 66.364 94.2492C66.364 94.2492 68.0731 111.611 68.6433 115.355C69.2124 119.098 70.4322 121.798 70.0907 122.22C67.7762 125.08 60.3385 126.151 57.0576 126.592C49.1599 127.653 40.2373 126.35 33.1105 122.692C32.1988 122.225 34.5128 102.299 35.1963 98.7416C35.1963 98.7416 26.5928 96.6828 26.5359 96.1212C26.479 95.5595 31.4361 74.7816 32.5185 73.2845Z" fill="#D7C8E9"/>
<path fill-rule="evenodd" clip-rule="evenodd" d="M71.3909 93.9932C70.5173 94.1444 69.5445 94.2501 68.4744 94.2822L67.9897 76.0991C71.6062 82.1773 71.4988 91.4294 71.3909 93.9932Z" fill="#6D41A2"/>
<path fill-rule="evenodd" clip-rule="evenodd" d="M44.8933 65.6629L45.2048 65.4953C45.7118 66.6093 46.7508 67.853 48.0369 68.7825C49.3323 69.7185 50.8736 70.3292 52.358 70.15C55.2669 69.7996 56.2508 68.2862 56.4732 66.7687C56.5799 66.0401 56.5148 65.3096 56.4016 64.7012L56.7894 64.8063C56.8897 65.4054 56.939 66.1049 56.8363 66.8043C56.5964 68.4398 55.5385 70.0706 52.4114 70.4472C50.8067 70.6404 49.1645 69.997 47.7952 69.0079C46.4921 68.0667 45.4331 66.8073 44.8933 65.6629Z" fill="#6D41A2"/>
<path fill-rule="evenodd" clip-rule="evenodd" d="M72.9709 95.6829C72.1219 99.7975 73.5317 103.423 75.6627 103.544C77.793 103.666 79.8201 102.685 82.9719 96.9096C86.1237 91.1351 89.0942 76.2503 89.5788 75.4037C90.064 74.5576 94.7313 75.354 96.0648 73.711C97.3978 72.0685 98.3072 64.519 96.0648 64.519C93.8219 64.519 86.6294 67.4886 85.0735 73.4126C83.5175 79.3367 77.0755 84.0363 72.9709 95.6829Z" fill="#E9B0A0"/>
<path fill-rule="evenodd" clip-rule="evenodd" d="M74.2053 185.181C77.2755 186.313 75.5835 192.385 76.3356 193.517C77.0872 194.649 78.9664 195.421 81.7861 194.854C84.6053 194.289 89.3664 194.804 89.3664 198.199C89.3664 201.595 88.1566 202.83 81.7861 202.83C75.4157 202.83 66.6039 202.841 66.2143 201.647C65.8247 200.452 65.8113 190.067 66.6074 188.935C66.8562 188.638 68.9777 189.246 69.7973 188.525C71.0247 187.446 71.3457 185.019 74.2053 185.181Z" fill="#6D41A2" fill-opacity="0.1"/>
<path fill-rule="evenodd" clip-rule="evenodd" d="M83.1348 194.685C81.7244 194.865 80.8215 195.987 80.2735 196.962C80.2013 197.117 79.9907 197.195 79.8012 197.137C79.6122 197.078 79.5166 196.904 79.5888 196.749C80.2993 195.486 81.3354 194.295 83.1348 194.084C83.3373 194.084 83.501 194.219 83.501 194.384C83.501 194.55 83.3373 194.685 83.1348 194.685Z" fill="#525357"/>
<path fill-rule="evenodd" clip-rule="evenodd" d="M79.9309 195.001C78.8296 195.154 77.7448 195.909 77.191 196.679C77.1076 196.829 76.8912 196.897 76.7063 196.829C76.5221 196.761 76.44 196.582 76.5233 196.431C77.2461 195.421 78.4911 194.581 79.9309 194.4C80.1333 194.4 80.297 194.535 80.297 194.701C80.297 194.866 80.1333 195.001 79.9309 195.001Z" fill="#525357"/>
<path fill-rule="evenodd" clip-rule="evenodd" d="M77.157 194.365C76.6483 194.331 75.7348 195.085 75.4555 195.341C75.3505 195.483 75.1258 195.529 74.9527 195.443C74.7797 195.357 74.7245 195.172 74.8289 195.029C75.411 194.479 76.3532 193.675 77.3524 193.784C77.5472 193.829 77.661 193.995 77.6076 194.155C77.553 194.315 77.3518 194.409 77.157 194.365Z" fill="#525357"/>
<path fill-rule="evenodd" clip-rule="evenodd" d="M76.1959 191.133L76.2616 191.163C77.3916 190.968 78.3086 190.597 78.3849 189.992C77.8662 190.046 77.0525 190.51 76.1959 191.133ZM74.7303 191.322C74.7655 191.295 74.8001 191.268 74.8353 191.241C73.3492 190.632 71.9868 190.298 71.7756 190.975C72.0238 191.239 73.3374 191.384 74.7303 191.322ZM71.9792 194.341C72.4908 193.466 73.1849 192.669 73.9406 191.983C71.5832 191.794 69.7603 190.88 71.8542 190.134C72.6457 189.852 74.0403 190.228 75.4455 190.806C77.7683 189.246 79.9614 188.851 78.9393 190.511C78.6049 191.055 78.01 191.428 77.2907 191.667C78.2664 192.172 79.0954 192.676 79.5237 192.984C79.6516 193.113 79.6287 193.302 79.4721 193.407C79.3154 193.513 79.0848 193.493 78.9569 193.365C78.7087 193.188 77.5881 192.533 76.3015 191.905C75.9037 191.969 75.4901 192.004 75.0764 192.014C73.9998 192.924 73.0318 193.915 72.6932 194.474C72.648 194.636 72.4521 194.737 72.255 194.701C72.0578 194.663 71.934 194.503 71.9792 194.341Z" fill="#525357"/>
<path fill-rule="evenodd" clip-rule="evenodd" d="M62.7087 65.0158C65.1218 65.5786 66.4261 67.3197 67.5356 71.2843C68.6444 75.2482 70.438 86.7132 69.8836 92.7937C69.3291 98.8743 67.4364 104.808 67.4364 104.808C67.4364 104.808 66.2636 93.1149 65.9702 90.5435C65.6763 87.9721 62.6759 72.4894 61.3059 69.222C59.9365 65.9535 59.023 65.5132 59.2512 65.0158C59.4795 64.5195 62.7087 65.0158 62.7087 65.0158Z" fill="#8362AA"/>
<path fill-rule="evenodd" clip-rule="evenodd" d="M32.8887 200.762L31.3257 200.814C31.4184 203.461 30.7366 207.188 39.0215 207.299C47.3058 207.409 46.7162 204.608 46.7496 201.662L32.8887 200.762Z" fill="#6D41A2"/>
<path fill-rule="evenodd" clip-rule="evenodd" d="M39.4228 66.8997C41.6939 65.7191 42.7752 65.8604 43.0445 66.1914C43.3138 66.5225 45.3251 69.0717 45.7944 73.038C46.2644 77.0037 47.04 85.5026 46.6663 90.8147C46.2931 96.1262 40.4695 107.954 33.9324 108.662V98.4588C34.461 98.5926 34.9034 98.6941 35.1961 98.742C36.8125 99.0077 40.7916 99.1145 42.4226 98.3917C42.4226 98.3917 43.2769 92.1506 43.2769 88.9895C43.2769 86.4234 41.5784 74.6028 40.0265 72.3292C38.4741 70.0555 37.7266 69.5908 37.6697 69.213C37.6122 68.8352 37.9284 67.7732 39.4228 66.8997Z" fill="#8362AA"/>
<path fill-rule="evenodd" clip-rule="evenodd" d="M38.4648 44.8924C38.4648 46.6919 39.9392 47.9414 41.8138 47.9414C43.6883 47.9414 44.3184 45.4255 44.3184 44.8521C44.3184 44.2781 43.5 41.9952 41.3919 41.9952C39.2845 41.9952 38.351 43.7024 38.4648 44.8924Z" fill="#E9B0A0"/>
<path fill-rule="evenodd" clip-rule="evenodd" d="M41.0052 43.216C42.0977 43.0882 43.3104 43.7392 43.186 45.0103C43.1649 45.2246 41.7562 45.2345 42.0584 45.6169C42.4215 46.077 43.0581 45.8826 43.2435 45.7296C43.1561 46.2037 41.8601 46.5611 41.5673 45.7267C41.4253 45.3209 41.7316 44.8036 42.5835 44.7849C42.4051 43.8227 41.7545 43.5267 41.1455 43.6172C39.8987 43.8023 39.7667 44.3826 39.6816 44.7441C39.478 44.2717 39.7931 43.3591 41.0052 43.216Z" fill="#D0522F"/>
<path fill-rule="evenodd" clip-rule="evenodd" d="M28.8174 97.0144C28.1081 99.3055 27.3354 102.921 28.2254 105.991C29.654 110.921 39.276 135.801 39.276 135.801L43.2768 132.984C43.2768 132.984 38.1373 107.012 37.8515 104.764C37.8515 104.764 39.2737 102.408 40.2042 98.8606C38.4183 99.0258 36.2991 98.6749 35.1961 98.4945C34.0937 98.3129 30.7447 97.5883 28.8174 97.0144Z" fill="#E9B0A0"/>
<path fill-rule="evenodd" clip-rule="evenodd" d="M87.6918 54.6463L95.8383 55.2612C96.4397 55.3067 96.8867 55.7481 96.8316 56.2421L95.1753 71.0369C95.1202 71.5315 94.5827 71.8982 93.9814 71.8526L85.8343 71.2378C85.233 71.1923 84.7859 70.7509 84.841 70.2569L86.4973 55.462C86.5525 54.9675 87.0899 54.6008 87.6918 54.6463Z" fill="#8E71B3"/>
<path fill-rule="evenodd" clip-rule="evenodd" d="M94.8515 56.0285C95.3174 56.0635 95.663 56.4051 95.6207 56.7881L95.3743 58.9835C95.3321 59.3659 94.9161 59.6503 94.4502 59.6152C93.9844 59.5796 93.6382 59.2381 93.6817 58.8562L93.9269 56.6596C93.9697 56.2778 94.3857 55.9935 94.8515 56.0285Z" fill="#525357"/>
<path fill-rule="evenodd" clip-rule="evenodd" d="M94.8064 56.4321C95.1062 56.4548 95.3274 56.6726 95.2998 56.919C95.2723 57.1654 95.0065 57.347 94.7067 57.3242C94.4063 57.3015 94.1857 57.0831 94.2133 56.8373C94.2408 56.5909 94.5066 56.4093 94.8064 56.4321Z" fill="#525357"/>
<path fill-rule="evenodd" clip-rule="evenodd" d="M94.5575 58.6562C94.7347 58.6696 94.8649 58.7987 94.8485 58.9446C94.832 59.09 94.6754 59.1969 94.4982 59.1834C94.321 59.17 94.1908 59.0416 94.2072 58.8956C94.223 58.7502 94.3797 58.6428 94.5575 58.6562Z" fill="#F3F3F3"/>
<path fill-rule="evenodd" clip-rule="evenodd" d="M94.6819 57.5444C94.9817 57.5672 95.2029 57.7849 95.1748 58.0319C95.1478 58.2777 94.882 58.4593 94.5822 58.4365C94.2818 58.4138 94.0612 58.196 94.0888 57.9496C94.1163 57.7032 94.3815 57.5216 94.6819 57.5444Z" fill="#525357"/>
<path fill-rule="evenodd" clip-rule="evenodd" d="M40.081 189.691C45.9874 189.926 44.1299 194.834 43.9392 196.957C43.7491 199.08 46.6545 199.784 46.7496 201.662C46.8446 203.54 45.1302 205.785 39.1998 205.785C33.2699 205.785 31.3174 203.643 31.3174 200.45C31.3174 197.258 34.5232 196.961 34.5232 195.001C34.5232 193.042 32.8323 189.818 40.081 189.691Z" fill="#6D41A2" fill-opacity="0.1"/>
<path fill-rule="evenodd" clip-rule="evenodd" d="M36.1526 199.662C37.4645 198.822 39.6013 198.983 40.912 199.738C41.0545 199.855 41.0545 200.046 40.912 200.163C40.7688 200.28 40.5371 200.28 40.3939 200.163C39.4558 199.644 37.593 199.5 36.6519 200.102C36.5035 200.215 36.2717 200.208 36.1344 200.086C35.9965 199.965 36.0048 199.775 36.1526 199.662Z" fill="#525357"/>
<path fill-rule="evenodd" clip-rule="evenodd" d="M36.613 197.694C37.7137 197.15 39.5378 197.047 40.554 197.8C40.6889 197.924 40.676 198.114 40.5252 198.226C40.375 198.336 40.1433 198.325 40.0083 198.202C39.3759 197.739 37.7741 197.823 37.093 198.148C36.9404 198.257 36.7093 198.244 36.5767 198.118C36.4441 197.993 36.4599 197.803 36.613 197.694Z" fill="#525357"/>
<path fill-rule="evenodd" clip-rule="evenodd" d="M36.6647 196.11C37.445 195.224 39.7812 195.142 40.7429 196.081C40.8549 196.219 40.8097 196.406 40.6419 196.498C40.4741 196.59 40.2465 196.553 40.1339 196.415C39.529 195.826 37.6996 195.977 37.3141 196.386C37.2208 196.534 37.0002 196.591 36.8207 196.515C36.6412 196.438 36.5714 196.257 36.6647 196.11Z" fill="#525357"/>
<path fill-rule="evenodd" clip-rule="evenodd" d="M40.0278 193.561C41.3239 193.618 42.5184 193.436 42.8687 192.886C42.6281 192.395 41.4048 192.823 40.0278 193.561ZM38.2548 193.343C37.4493 192.592 36.7833 192.006 36.0723 192.02C36.0529 192.031 36.0312 192.046 36.0265 192.062C35.8728 192.592 36.9253 193.073 38.2548 193.343ZM35.1136 196.313C35.9954 195.265 36.9459 194.455 37.8823 193.844C35.9526 193.316 34.5761 192.305 35.5724 191.578C36.4548 190.935 37.8353 192.03 39.0827 193.159C42.1992 191.628 44.7256 192.238 43.3175 193.379C42.5536 193.999 41.406 194.221 40.2144 194.193C40.6234 194.557 40.9859 194.85 41.2699 194.984C42.2609 195.454 42.5466 195.497 43.6156 195.817C43.8086 195.865 43.9171 196.034 43.8579 196.192C43.798 196.351 43.5933 196.44 43.3996 196.391L42.1341 196.012C40.8698 195.564 39.8958 194.823 39.0803 194.101C37.6558 194.96 36.267 195.994 35.7789 196.565C35.6944 196.716 35.4773 196.782 35.2931 196.713C35.1101 196.643 35.0291 196.465 35.1136 196.313Z" fill="#525357"/>
<path fill-rule="evenodd" clip-rule="evenodd" d="M38.6079 98.9414C39.4193 97.4718 42.3681 92.4464 42.7876 84.0981C43.0915 86.2859 43.2769 88.1426 43.2769 88.9898C43.2769 92.1509 42.4227 98.392 42.4227 98.392C41.569 98.7703 40.0723 98.9216 38.6079 98.9414Z" fill="#6D41A2"/>
<path fill-rule="evenodd" clip-rule="evenodd" d="M44.955 131.71C42.8223 134.209 41.0422 136.056 37.2274 136.454C37.0256 136.454 36.8613 136.32 36.8613 136.153C36.8613 135.987 37.0256 135.853 37.2274 135.853C40.6784 135.49 42.4057 133.654 44.3137 131.419C44.4117 131.273 44.6346 131.221 44.8118 131.301C44.9884 131.381 45.0529 131.564 44.955 131.71Z" fill="#525357"/>
<path fill-rule="evenodd" clip-rule="evenodd" d="M96.5869 64.7061C96.5869 64.7061 92.8385 61.5222 92.0892 62.2673C91.34 63.0129 95.3508 65.7367 95.3508 65.7367C95.3508 65.7367 90.981 63.376 90.856 64.3698C90.731 65.3641 95.1008 67.9729 95.1008 67.9729C95.1008 67.9729 91.1059 66.7304 90.856 67.8485C90.606 68.9667 94.6015 69.5879 94.6015 69.5879C94.6015 69.5879 90.4817 69.5879 90.2317 70.2092C89.9818 70.8304 95.6007 72.1973 95.6007 72.1973L96.5869 64.7061Z" fill="#E9B0A0"/>
<path d="M49.9935 42.8209C50.0598 42.7455 50.129 42.6737 50.203 42.606C50.2423 42.5704 50.2827 42.5359 50.3232 42.5021C50.3749 42.4589 50.3303 42.5079 50.305 42.5149C50.3232 42.5097 50.3467 42.484 50.362 42.4729C50.4435 42.4145 50.5286 42.3614 50.616 42.3123C50.6623 42.286 50.7093 42.2615 50.7568 42.2382C50.7785 42.2277 50.7996 42.2177 50.8208 42.2078C50.8354 42.2014 50.9293 42.1576 50.8583 42.1909C50.7938 42.2207 50.8671 42.1885 50.8806 42.1833C50.9029 42.1745 50.9252 42.1669 50.9475 42.1588C50.9974 42.1412 51.0484 42.1249 51.0989 42.1103C51.1957 42.0829 51.2931 42.0601 51.3922 42.0426C51.4157 42.0385 51.4391 42.0356 51.462 42.0315C51.5313 42.0192 51.364 42.0402 51.4339 42.0356C51.4873 42.0321 51.5395 42.025 51.5929 42.0227C51.6991 42.0175 51.8053 42.0186 51.9114 42.0256C52.1737 42.042 52.4248 41.7839 52.4131 41.5258C52.4002 41.2415 52.1925 41.0447 51.9114 41.0266C50.9358 40.9653 49.9272 41.3822 49.2842 42.115C49.1111 42.3112 49.0753 42.6305 49.2842 42.8209C49.4731 42.9937 49.8093 43.0311 49.9935 42.8209Z" fill="#525357"/>
<path d="M58.9642 43.664C59.0628 43.6337 59.1625 43.608 59.2635 43.5893C59.2951 43.5829 59.4518 43.5373 59.321 43.5782C59.3667 43.5636 59.4277 43.5677 59.4747 43.5647C59.5779 43.5583 59.6812 43.5577 59.7839 43.5636C59.8355 43.5659 59.8865 43.5712 59.9382 43.5753C60.0438 43.5834 59.8425 43.5583 59.9769 43.5811C60.0719 43.5974 60.167 43.6179 60.2597 43.6436C60.3518 43.6687 60.4715 43.6914 60.5525 43.7417C60.4427 43.6739 60.5841 43.7563 60.6094 43.7685C60.6563 43.7907 60.7015 43.8147 60.7467 43.8392C60.837 43.8894 60.9232 43.9449 61.0071 44.0044C61.2219 44.1562 61.5751 44.0488 61.6942 43.8252C61.8303 43.5683 61.7435 43.3038 61.5141 43.142C60.7132 42.5757 59.6343 42.4151 58.6973 42.7006C58.4462 42.7771 58.2614 43.0533 58.3464 43.3149C58.4286 43.5665 58.6949 43.7458 58.9642 43.664Z" fill="#525357"/>
<path d="M52.1674 51.5087C53.6441 52.7331 55.8126 52.945 57.48 51.9682C58.0362 51.6424 57.5317 50.7788 56.9737 51.1058C55.7181 51.8409 54.0055 51.7381 52.8767 50.8022C52.669 50.6299 52.371 50.5996 52.1674 50.8022C51.989 50.9797 51.9579 51.3353 52.1674 51.5087Z" fill="#525357"/>
</svg>
