<svg width="374" height="208" viewBox="0 0 374 208" fill="none" xmlns="http://www.w3.org/2000/svg">
<path d="M369.359 204.453H150.574C155.868 203.62 160.003 199.288 160.549 193.891C160.591 193.49 160.611 193.084 160.611 192.672V192.514H250.321C252.204 192.514 253.663 190.977 253.665 189.15C253.665 189 253.656 188.848 253.634 188.693C253.556 188.1 253.502 187.5 253.471 186.893C264.902 186.692 284.618 186.282 295.553 186.052C295.53 186.447 295.5 186.839 295.46 187.229C295.458 187.239 295.457 187.249 295.456 187.258C295.456 187.259 295.456 187.259 295.456 187.259C295.453 187.287 295.451 187.314 295.447 187.342C295.431 187.499 295.422 187.654 295.422 187.807C295.418 190.113 297.271 192.042 299.636 192.042H315.929C318.891 192.042 321.293 189.643 321.293 186.683V185.801V182.472C321.293 181.582 320.763 180.813 319.998 180.466V171.95C319.998 170.066 319.878 168.182 319.595 166.318C317.935 155.388 312.572 153.092 296.705 149.922C279.197 146.423 256.971 135.017 256.971 135.017C256.971 135.017 219.062 116.461 209.775 114.331C204.237 113.062 193.88 112.765 182.355 112.765C175.267 112.765 167.737 112.878 160.611 112.944V48.0858H165.439V76.057H171.891V85.6387H176.342V105.235H181.681V42.3876H184.575V32.5469H209.939V42.3876H212.832V89.0245L221.287 88.8021V58.9633H245.316L246.396 115.053L249.989 114.83V95.8979H257.777V81.0049H262.449V71.0009H280.694V81.0049H285.367V95.8979H293.155V130.847L299.83 130.624V95.962H322.143V128.573V133.871H335.771V117.419H352.24V154.366H369.359V204.453Z" fill="#6D41A2" fill-opacity="0.1"/>
<path d="M78.753 203.354C78.753 203.354 70.41 155.259 67.0364 150.292C64.4754 146.521 61.5719 151.178 59.4282 155.833C57.6691 159.654 56.4214 163.473 56.2941 162.64C53.6239 145.157 54.1826 123.106 41.6943 119.764C34.5954 117.865 42.1637 136.232 41.2821 140.965C40.4005 145.697 28.5911 128.802 21.3178 119.862C14.0446 110.924 9.59096 115.856 13.8071 126.701C17.8839 137.186 32.6529 149.474 29.3468 150.526C27.8947 150.988 23.5036 148.428 18.7991 145.869C12.7929 142.602 6.27546 139.334 4.70886 142.353C1.28342 148.955 29.8406 160.606 26.9753 161.921C25.8411 162.441 23.0242 161.786 20.0345 161.133C15.4715 160.135 10.5062 159.137 10.5062 162.313C10.5062 167.571 29.3044 168.886 28.8154 171.16C28.44 172.905 25.5872 171.704 22.5929 170.502C19.2726 169.17 15.7781 167.838 15.2932 170.524C14.3498 175.748 31.3231 176.144 30.7302 180.231C30.3896 182.579 26.1146 180.12 25.3413 183.349C23.5781 190.711 50.3243 201.026 50.3243 201.026L78.753 203.354Z" fill="#8E71B3"/>
<path d="M92.0632 204.598C88.6688 200.186 68.6184 175.511 56.4818 171.572C43.0849 167.225 55.7113 184.492 55.7113 184.492C55.7113 184.492 31.9457 158.442 23.2245 160.79C15.2301 162.943 23.2245 179.09 23.2245 179.09C23.2245 179.09 14.2204 170.149 3.30125 170.149C-7.32574 170.149 11.0184 202.9 11.9922 204.598H92.0632Z" fill="#6D41A2" fill-opacity="0.1"/>
<path d="M199.775 67.7514C199.775 72.7874 195.69 76.8682 190.65 76.8682C185.61 76.8682 181.525 72.7874 181.525 67.7514C181.525 62.7167 185.61 58.6347 190.65 58.6347C195.69 58.6347 199.775 62.7167 199.775 67.7514Z" fill="#F3F3F3"/>
<path d="M270.108 56.6608C269.82 58.9306 272.188 60.7328 274.292 60.5908C276.62 60.4337 278.593 58.5271 278.933 56.2423C279.302 53.7702 277.815 51.792 275.514 51.611C273.275 51.4351 271.842 53.4271 272.488 55.4367C272.951 56.877 274.268 57.4136 274.931 57.0165C275.448 56.7073 275.417 55.9256 274.792 55.7873C274.54 55.732 274.282 55.8715 274.149 56.0638C273.602 55.8464 273.08 54.851 273.433 53.774C273.886 52.4003 275.625 52.3224 276.704 52.9633C278.079 53.779 278.295 55.5347 277.791 56.9348C277.261 58.4052 275.817 59.5627 274.245 59.6733C272.462 59.8003 270.894 58.4354 270.751 56.6621C270.718 56.2435 270.16 56.2536 270.108 56.6608Z" fill="#6D41A2"/>
<path d="M310.006 49.0642L311.501 45.6948L309.57 42.5553C309.349 42.1984 309.636 41.7434 310.054 41.7862L313.723 42.1657L316.115 39.3593C316.388 39.0401 316.909 39.172 316.997 39.5818L317.77 43.185L321.18 44.5913C321.568 44.7522 321.605 45.2876 321.241 45.4975L318.05 47.3462L317.764 51.021C317.733 51.4396 317.233 51.6394 316.92 51.3591L314.175 48.8971L310.589 49.7617C310.181 49.861 309.836 49.4488 310.006 49.0642Z" fill="#6D41A2"/>
<path d="M170.073 25.2007L171.194 22.6733L169.745 20.318C169.58 20.0503 169.795 19.7098 170.108 19.7412L172.861 20.0252L174.655 17.9213C174.86 17.6813 175.25 17.7806 175.317 18.0885L175.897 20.7906L178.454 21.8463C178.746 21.9657 178.772 22.3679 178.501 22.5262L176.107 23.9125L175.893 26.6686C175.868 26.9828 175.494 27.1324 175.26 26.9212L173.199 25.0763L170.51 25.7248C170.204 25.7977 169.945 25.4885 170.073 25.2007Z" fill="#6D41A2"/>
<path d="M335.103 78.2305L336.69 75.3499L341.611 77.3884L344.452 73.4635L348.386 74.3872L348.854 72.399L343.594 71.1623L340.902 74.8824L335.782 72.7609L333.394 77.0956L335.103 78.2305Z" fill="#7853A2"/>
<path d="M206.007 16.0785L203.212 14.3416L205.514 9.54068L201.741 6.498L202.875 2.6233L200.912 2.05021L199.395 7.23071L202.971 10.115L200.577 15.1095L204.782 17.7236L206.007 16.0785Z" fill="#6D41A2"/>
<path d="M250.252 33.069L252.101 30.0552L249.16 28.8638L247.31 31.8776L250.252 33.069ZM242.756 35.7586L244.824 32.4017L243.164 31.7293C242.8 31.5822 242.624 31.1675 242.773 30.8043C242.92 30.4411 243.334 30.2664 243.697 30.4134L245.613 31.1901L247.463 28.1763L245.687 27.4575C245.324 27.3092 245.149 26.8957 245.296 26.5324C245.445 26.1692 245.859 25.9945 246.222 26.1416L248.25 26.9635L250.399 23.5124C250.581 23.2183 250.948 23.0989 251.268 23.2296L251.577 23.3553C251.985 23.5199 252.146 24.0088 251.917 24.3833L249.919 27.6397L252.861 28.8311L255.008 25.38C255.19 25.0871 255.558 24.9678 255.879 25.0972L256.217 25.2342C256.623 25.3988 256.784 25.889 256.555 26.2622L254.558 29.5186L256.218 30.1922C256.582 30.3393 256.758 30.7528 256.61 31.116C256.462 31.4792 256.048 31.6539 255.685 31.5068L253.769 30.7314L251.949 33.7565L253.722 34.4754C254.086 34.6224 254.261 35.0359 254.114 35.3991C253.966 35.7623 253.553 35.9383 253.189 35.79L251.16 34.968L248.966 38.5285C248.785 38.8239 248.416 38.9445 248.094 38.8138L247.732 38.6668C247.325 38.5021 247.164 38.0107 247.395 37.6375L249.463 34.2806L246.522 33.0891L244.328 36.6496C244.146 36.9437 243.778 37.0643 243.456 36.9349L243.093 36.7879C242.687 36.6232 242.526 36.1318 242.756 35.7586Z" fill="#7853A2"/>
<path d="M152.763 0.708633L152.737 0.701096C152.499 0.61438 152.256 0.537689 152.009 0.467316C151.926 0.443436 151.843 0.418304 151.758 0.395676C151.67 0.371796 151.579 0.350433 151.49 0.329056C151.399 0.307693 151.307 0.286331 151.216 0.26622C151.129 0.247375 151.042 0.231033 150.955 0.214706C150.857 0.195847 150.759 0.177017 150.661 0.160675C150.577 0.146851 150.492 0.134262 150.408 0.121689C150.302 0.106613 150.195 0.0940552 150.087 0.0814819C150.009 0.0726929 149.931 0.0626373 149.853 0.0550995C149.73 0.0437927 149.607 0.0349731 149.483 0.0274353C149.418 0.0223999 149.353 0.0173798 149.287 0.0136108C149.097 0.00482178 148.906 -0.000213623 148.713 -0.000213623H60.4882C60.2829 -0.000213623 60.0789 0.00480652 59.8761 0.0148621C59.4705 0.0362244 59.0704 0.0764618 58.6765 0.136795C58.4797 0.166946 58.2843 0.202148 58.0907 0.242371C53.0568 1.27419 49.1811 5.49448 48.6529 10.7064C48.6123 11.1073 48.5916 11.5132 48.5916 11.9255V159.096V192.672C48.5916 197.834 51.8628 202.227 56.4397 203.889C56.4599 203.895 56.4806 203.901 56.5008 203.909C56.7278 203.991 56.9585 204.064 57.1915 204.13C57.2756 204.154 57.3593 204.179 57.4441 204.202C57.5329 204.226 57.6227 204.247 57.7123 204.268C57.8034 204.29 57.8944 204.311 57.9863 204.331C58.0728 204.35 58.16 204.366 58.2473 204.384C58.3451 204.402 58.4433 204.42 58.5419 204.436C58.6257 204.451 58.7095 204.463 58.7938 204.476C58.9003 204.491 59.0074 204.503 59.115 204.516C59.193 204.525 59.271 204.535 59.3496 204.542C59.4722 204.554 59.5958 204.562 59.7196 204.57C59.7846 204.574 59.8493 204.58 59.9147 204.584C60.1049 204.593 60.2959 204.598 60.4882 204.598H148.713C149.125 204.598 149.53 204.576 149.93 204.536C155.529 203.967 159.98 199.504 160.549 193.891C160.59 193.49 160.61 193.084 160.61 192.672V45.5019V11.9255C160.61 6.76384 157.34 2.3701 152.763 0.708633Z" fill="#B6A4D0"/>
<path d="M54.3589 188.344H155.186V16.254H54.3589V188.344Z" fill="#6D41A2" fill-opacity="0.1"/>
<path d="M141.074 123.805C135.569 130.518 129.745 137.582 124.655 143.737L95.1789 127.378L125.684 113.979L141.074 123.805ZM133.066 151.833L126.547 172.054L72.8357 152.44L73.8012 136.766L91.731 128.893L133.066 151.833ZM72.4196 114.746V96.0464L101.064 95.4808L118.483 110.596L88.5941 123.723L72.4196 114.746ZM60.0788 93.2927L75.8661 73.2721L100.112 74.2775V92.5022L60.0788 93.2927ZM79.3069 40.7878L115.106 56.1282V68.8997L79.3069 67.4167V40.7878ZM119.53 75.0818L121.181 108.969L103.111 93.289V74.4007L119.53 75.0818ZM155.186 88.7457L126.086 86.3603L125.255 69.3207L118.105 69.0241V57.4139L155.186 73.3035V70.0421L142.885 64.7711L140.557 16.254H137.554L139.819 63.4578L118.105 54.1538V53.822H117.331L112.391 51.7043L112.368 16.254H109.369L109.391 50.4186L79.3069 37.5277V16.254H73.3081V34.9576L54.3589 26.8375V30.0976L73.3081 38.2177V57.1738L54.3589 48.3374V51.644L73.3081 60.4805V71.6734L56.2004 93.3694L54.3589 93.4058V96.4033L69.4202 96.1054V116.509L85.1461 125.238L68.6478 132.483L54.3589 122.297V125.978L67.8527 135.598L67.864 135.582L64.614 188.344H70.6241L72.6436 155.56L97.9937 164.818L95.0921 188.344H98.1141L100.886 165.874L125.628 174.909L121.296 188.344H124.448L128.447 175.938L155.186 185.703V182.512L129.367 173.084L136.676 150.409L127.321 145.216C130.572 141.283 137.591 132.781 144.596 124.234C149.058 118.79 152.51 114.556 155.186 111.252V106.481C151.869 110.597 147.588 115.853 142.987 121.471L127.307 111.46L126.232 89.3791L155.186 91.7519V88.7457Z" fill="#F3F3F3"/>
<path d="M127.174 174.958L68.3391 153.953L69.3694 134.807L120.977 112.017L100.564 94.5373V72.4442L75.2362 71.6825V51.55H77.3786V69.6063L102.707 70.3667V93.5532L124.952 112.602L71.4382 136.234L70.5642 152.474L127.895 172.943L127.174 174.958Z" fill="#B6A4D0"/>
<path d="M73.5746 42.1518C73.5943 40.5808 74.8848 39.324 76.4569 39.3442C78.0291 39.3643 79.2875 40.6525 79.2677 42.2235C79.2478 43.7944 77.9574 45.0512 76.3852 45.0311C74.8131 45.0123 73.5547 43.7228 73.5746 42.1518ZM70.7658 44.4115L76.2558 55.2979L82.0185 44.5523C83.7246 40.611 80.9859 36.1155 76.6913 35.937C76.6278 35.9345 76.564 35.932 76.4999 35.932C76.436 35.9307 76.3721 35.9307 76.3086 35.932C72.0109 36.0024 69.1596 40.4275 70.7658 44.4115Z" fill="#8E71B3"/>
<path d="M126.073 10.8457H83.2928C83.2325 10.8457 83.1836 10.7967 83.1836 10.7364V8.79839C83.1836 8.73806 83.2325 8.68906 83.2928 8.68906H126.073C126.133 8.68906 126.182 8.73806 126.182 8.79839V10.7364C126.182 10.7967 126.133 10.8457 126.073 10.8457Z" fill="#F3F3F3"/>
<path d="M99.6084 196.636C99.6084 199.361 101.818 201.583 104.544 201.583C107.269 201.583 109.479 199.361 109.479 196.636C109.479 193.91 107.269 191.688 104.544 191.688C101.818 191.688 99.6084 193.91 99.6084 196.636Z" fill="#525357"/>
<path d="M144.416 188.344H124.448L125.672 184.544C133.25 185.761 140.536 186.906 144.5 187.463C144.479 187.758 144.45 188.052 144.416 188.344ZM121.296 188.344H98.1141L98.6774 183.777L99.6093 184.022C99.7114 184.039 99.8131 184.048 99.9129 184.048C100.803 184.048 101.574 183.374 101.675 182.457C101.676 182.443 101.678 182.428 101.679 182.414C101.68 182.405 101.681 182.398 101.682 182.389C101.683 182.384 101.683 182.38 101.684 182.377C101.731 181.955 101.79 181.537 101.859 181.123H104.663C109.121 181.857 115.857 182.962 122.676 184.062L121.296 188.344ZM95.0921 188.344H70.6241L71.069 181.123H88.6274L95.7508 183.004L95.0921 188.344ZM64.614 188.344H54.3589V181.123H65.0588L64.614 188.344Z" fill="#6D41A2" fill-opacity="0.1"/>
<path d="M155.186 25.3857H140.994L140.557 16.2539H155.186V25.3857ZM137.992 25.3857H112.373L112.368 16.2539H137.554L137.992 25.3857ZM109.374 25.3857H79.3069V16.2539H109.369L109.374 25.3857ZM73.3081 25.3857H54.3589V16.2539H73.3081V25.3857Z" fill="#6D41A2" fill-opacity="0.1"/>
<path d="M293.139 94.3283H255.895C254.608 94.3283 253.565 95.374 253.565 96.6635V112.07C253.565 113.36 254.608 114.406 255.895 114.406H285.217C286.403 116.066 288.554 119.038 288.744 119.038C288.922 119.038 288.579 116.23 288.339 114.406H293.139C294.424 114.406 295.467 113.36 295.467 112.07V96.6635C295.467 95.374 294.424 94.3283 293.139 94.3283Z" fill="#6D41A2"/>
<path d="M269.401 100.83H258.675C258.493 100.83 258.346 100.683 258.346 100.501V100.143C258.346 99.9604 258.493 99.8133 258.675 99.8133H269.401C269.584 99.8133 269.732 99.9604 269.732 100.143V100.501C269.732 100.683 269.584 100.83 269.401 100.83Z" fill="#F3F3F3"/>
<path d="M265.706 105.27H258.675C258.493 105.27 258.346 105.122 258.346 104.94V104.582C258.346 104.4 258.493 104.253 258.675 104.253H265.706C265.889 104.253 266.036 104.4 266.036 104.582V104.94C266.036 105.122 265.889 105.27 265.706 105.27Z" fill="#F3F3F3"/>
<path d="M276.1 105.27H268.425C268.242 105.27 268.095 105.122 268.095 104.94V104.582C268.095 104.4 268.242 104.253 268.425 104.253H276.1C276.282 104.253 276.43 104.4 276.43 104.582V104.94C276.43 105.122 276.282 105.27 276.1 105.27Z" fill="#F3F3F3"/>
<path d="M290.527 105.27H279.148C278.966 105.27 278.819 105.122 278.819 104.94V104.582C278.819 104.4 278.966 104.253 279.148 104.253H290.527C290.708 104.253 290.857 104.4 290.857 104.582V104.94C290.857 105.122 290.708 105.27 290.527 105.27Z" fill="#F3F3F3"/>
<path d="M290.527 100.83H272.511C272.328 100.83 272.181 100.683 272.181 100.501V100.143C272.181 99.9604 272.328 99.8133 272.511 99.8133H290.527C290.708 99.8133 290.856 99.9604 290.856 100.143V100.501C290.856 100.683 290.708 100.83 290.527 100.83Z" fill="#F3F3F3"/>
<path d="M273.268 109.796H258.675C258.493 109.796 258.346 109.648 258.346 109.465V109.107C258.346 108.926 258.493 108.778 258.675 108.778H273.268C273.451 108.778 273.598 108.926 273.598 109.107V109.465C273.598 109.648 273.451 109.796 273.268 109.796Z" fill="#F3F3F3"/>
<path d="M290.527 109.796H275.929C275.747 109.796 275.598 109.648 275.598 109.465V109.107C275.598 108.926 275.747 108.778 275.929 108.778H290.527C290.708 108.778 290.857 108.926 290.857 109.107V109.465C290.857 109.648 290.708 109.796 290.527 109.796Z" fill="#F3F3F3"/>
<path d="M99.3892 180.254C99.3892 180.254 147.003 188.146 147.574 187.805C148.145 187.463 154.311 160.884 154.311 160.884C154.311 160.884 114.937 153.812 114.299 153.812C113.662 153.812 105.098 160.655 104.984 161.113C104.87 161.569 99.3892 180.254 99.3892 180.254Z" fill="#C6B8DB"/>
<path d="M244.628 187.006C245.769 187.119 303.432 185.885 303.432 185.885L299.093 172.634C299.093 172.634 291.099 160.558 286.875 160.778C285.281 160.861 280.708 160.333 275.399 159.804C266.645 158.933 255.889 158.062 253.189 159.933C248.853 162.938 244.97 160.542 242.915 167.728C240.861 174.915 239.257 175.719 240.858 180.051C242.458 184.382 244.628 187.006 244.628 187.006Z" fill="#C6B8DB"/>
<path d="M103.806 184.984C103.806 195.816 112.592 204.598 123.431 204.598C134.27 204.598 143.058 195.816 143.058 184.984C143.058 174.152 134.27 165.371 123.431 165.371C112.592 165.371 103.806 174.152 103.806 184.984Z" fill="#525357"/>
<path d="M109.777 184.985C109.777 192.522 115.891 198.631 123.431 198.631C130.973 198.631 137.087 192.522 137.087 184.985C137.087 177.448 130.973 171.338 123.431 171.338C115.891 171.338 109.777 177.448 109.777 184.985Z" fill="#A0A0A0"/>
<path d="M114.299 184.985C114.299 190.026 118.388 194.111 123.431 194.111C128.476 194.111 132.564 190.026 132.564 184.985C132.564 179.945 128.476 175.859 123.431 175.859C118.388 175.859 114.299 179.945 114.299 184.985Z" fill="#D8D9DD"/>
<path d="M254.911 184.984C254.911 195.816 263.697 204.598 274.536 204.598C285.375 204.598 294.163 195.816 294.163 184.984C294.163 174.152 285.375 165.371 274.536 165.371C263.697 165.371 254.911 174.152 254.911 184.984Z" fill="#525357"/>
<path d="M260.882 184.985C260.882 192.522 266.996 198.631 274.536 198.631C282.078 198.631 288.192 192.522 288.192 184.985C288.192 177.448 282.078 171.338 274.536 171.338C266.996 171.338 260.882 177.448 260.882 184.985Z" fill="#A0A0A0"/>
<path d="M265.404 184.985C265.404 190.026 269.493 194.111 274.536 194.111C279.581 194.111 283.669 190.026 283.669 184.985C283.669 179.945 279.581 175.859 274.536 175.859C269.493 175.859 265.404 179.945 265.404 184.985Z" fill="#D8D9DD"/>
<path d="M319.595 166.319C317.935 155.389 312.572 153.093 296.705 149.923C279.197 146.424 256.971 135.017 256.971 135.017C256.971 135.017 219.062 116.462 209.775 114.332C200.488 112.203 177.652 112.811 158.47 112.963C139.287 113.115 128.021 118.439 118.277 126.044C108.534 133.649 91.6353 139.427 91.6353 139.427L88.5654 139.975C85.4085 140.538 83.1099 143.282 83.1099 146.486V173.61C83.1099 176.681 85.1804 179.367 88.1527 180.151L99.2474 183.078C100.151 183.234 100.991 182.593 101.091 181.682C102.306 170.586 111.908 162.153 123.358 162.167C135.533 162.18 145.517 172.174 145.509 184.339C145.509 185.72 145.381 187.072 145.137 188.384C144.885 189.739 145.927 190.987 147.306 190.987H249.413C251.398 190.987 252.939 189.245 252.676 187.281C252.549 186.336 252.482 185.372 252.48 184.392C252.443 172.378 262.168 162.418 274.19 162.17C286.655 161.914 296.838 171.931 296.838 184.324C296.838 185.144 296.793 185.955 296.706 186.752C296.46 189.01 298.208 190.987 300.482 190.987H315.165C317.835 190.987 319.998 188.826 319.998 186.159V171.951C319.998 170.067 319.878 168.183 319.595 166.319Z" fill="#6D41A2"/>
<path d="M83.7569 149.694H95.8498C96.8856 149.694 97.5873 150.748 97.1869 151.702L95.8285 154.941C94.5334 158.028 91.5102 160.036 88.1599 160.036H83.7569C82.895 160.036 82.1963 159.339 82.1963 158.478V151.252C82.1963 150.392 82.895 149.694 83.7569 149.694Z" fill="#8362AA"/>
<path d="M300.36 154.713C307.018 155.731 314.688 162.031 314.688 162.031C316.521 163.999 315.008 167.195 312.322 167.026L299.337 166.206C296.64 166.035 294.34 164.193 293.588 161.599C292.325 157.243 293.399 153.647 300.36 154.713Z" fill="#F3FCFF"/>
<path d="M83.1801 174.618C82.3476 174.598 81.7576 175.434 82.0646 176.207C82.9331 178.394 84.7959 180.113 87.1776 180.741L99.6092 184.022C100.622 184.196 101.563 183.477 101.675 182.457C101.905 180.353 102.407 178.338 103.141 176.438C103.39 175.795 102.921 175.1 102.23 175.083L83.1801 174.618Z" fill="#9A81BB"/>
<path d="M296.943 179.731C295.998 179.708 295.268 180.536 295.39 181.472C295.524 182.511 295.594 183.572 295.594 184.648C295.594 185.559 295.544 186.458 295.447 187.343C295.173 189.847 297.114 192.043 299.636 192.043H315.929C318.891 192.043 321.293 189.644 321.293 186.684V182.473C321.293 181.277 320.338 180.302 319.143 180.272L296.943 179.731Z" fill="#9A81BB"/>
<path d="M250.765 180.025L249.737 180C250.332 162.497 255.302 144.859 256.139 141.999C253.241 140.415 233.712 129.793 220.453 123.657C209.153 118.429 196.775 117.888 192.139 117.888C191.531 117.888 191.056 117.897 190.734 117.906V178.561L189.707 178.536V117.915C188.401 117.89 184.674 117.828 179.75 117.828C167.225 117.828 146.97 118.227 139.221 120.64C128.429 124 113.989 139.243 112.221 141.14L116.033 159.007C116.969 158.96 117.877 158.939 118.758 158.939C132.236 158.939 139.309 164.111 142.914 168.635C145.586 171.989 146.766 175.398 147.276 177.502L146.199 177.475C145.672 175.446 144.523 172.287 142.077 169.233C137.198 163.143 129.166 159.966 118.733 159.966C117.727 159.966 116.7 159.996 115.65 160.055L115.211 160.08L111.106 140.836L111.284 140.641C111.928 139.935 127.194 123.309 138.915 119.659C146.793 117.206 166.689 116.79 179.279 116.79C185.284 116.79 189.627 116.886 190.214 116.898C190.344 116.892 191.018 116.862 192.125 116.862C196.845 116.862 209.406 117.415 220.884 122.726C235.198 129.349 256.782 141.178 256.998 141.297L257.364 141.499L257.241 141.897C257.182 142.094 251.408 161.147 250.765 180.025Z" fill="#7853A2"/>
<path d="M101.939 180.675H101.938C101.976 180.47 102.017 180.265 102.061 180.063H102.062C102.018 180.265 101.977 180.47 101.939 180.675Z" fill="#7853A2"/>
<path d="M99.9129 184.048C99.813 184.048 99.7114 184.039 99.6092 184.021L98.6774 183.776L95.7507 183.003L87.1776 180.741C84.796 180.113 82.9331 178.394 82.0647 176.207L102.061 180.063C102.017 180.265 101.976 180.47 101.938 180.675C101.91 180.824 101.884 180.974 101.859 181.123C101.79 181.537 101.731 181.955 101.684 182.376C101.683 182.38 101.683 182.384 101.682 182.389C101.681 182.398 101.68 182.405 101.679 182.414C101.678 182.428 101.676 182.443 101.675 182.457C101.574 183.374 100.803 184.048 99.9129 184.048Z" fill="#8362AA"/>
<path d="M295.553 186.053C295.558 185.969 295.562 185.886 295.565 185.801H295.568C295.563 185.886 295.559 185.969 295.554 186.053C295.553 186.053 295.554 186.053 295.553 186.053Z" fill="#7853A2"/>
<path d="M315.929 192.043H299.636C297.271 192.043 295.418 190.114 295.422 187.808C295.422 187.654 295.431 187.5 295.447 187.343C295.451 187.315 295.453 187.287 295.456 187.26C295.456 187.26 295.456 187.26 295.456 187.258C295.457 187.25 295.458 187.24 295.46 187.229C295.5 186.84 295.531 186.448 295.554 186.053C295.559 185.969 295.563 185.886 295.568 185.802H321.293V186.684C321.293 189.644 318.891 192.043 315.929 192.043Z" fill="#8362AA"/>
<path d="M253.442 185.801C253.438 184.69 253.517 183.597 253.673 182.527C253.861 181.242 252.901 180.076 251.602 180.045L145.4 177.455C144.241 177.427 143.406 178.532 143.722 179.645C144.273 181.588 144.568 183.636 144.567 185.746C144.566 187.146 144.438 188.515 144.191 189.843C143.936 191.23 144.982 192.514 146.395 192.514H250.321C252.36 192.514 253.901 190.713 253.634 188.693C253.51 187.747 253.444 186.781 253.442 185.801Z" fill="#9A81BB"/>
<path d="M250.321 192.514H146.395C145.126 192.514 144.152 191.478 144.153 190.262C144.153 190.123 144.166 189.984 144.191 189.843C144.438 188.515 144.566 187.146 144.567 185.746H253.442C253.442 185.765 253.442 185.782 253.442 185.801C253.444 186.781 253.51 187.747 253.634 188.693C253.656 188.848 253.665 189 253.665 189.151C253.663 190.977 252.204 192.514 250.321 192.514Z" fill="#8362AA"/>
<path d="M135.131 149.015H121.88C121.567 149.015 121.312 148.761 121.312 148.447V147.263C121.312 146.95 121.567 146.695 121.88 146.695H135.131C135.444 146.695 135.699 146.95 135.699 147.263V148.447C135.699 148.761 135.444 149.015 135.131 149.015Z" fill="#9A81BB"/>
<path d="M208.179 150.175H194.929C194.615 150.175 194.361 149.92 194.361 149.607V148.423C194.361 148.11 194.615 147.855 194.929 147.855H208.179C208.493 147.855 208.747 148.11 208.747 148.423V149.607C208.747 149.92 208.493 150.175 208.179 150.175Z" fill="#9A81BB"/>
<path d="M123.845 143.116L182.538 143.67C182.538 143.67 186.131 143.573 186.619 140.196C187.108 136.819 187.067 122.356 187.067 122.356C187.067 122.356 186.64 119.452 183.856 119.414C182.164 119.391 167.984 118.38 154.192 120.057C142.942 121.427 132.534 126.56 124.644 134.446L120.477 138.609C120.477 138.609 117.667 143.058 123.845 143.116Z" fill="#525357"/>
<path d="M193.6 124.191V139.356C193.6 141.326 195.113 142.944 197.026 143.022L243.145 144.874C244.203 144.917 245.241 144.438 245.847 143.545C246.675 142.327 246.771 140.321 242.638 137.633C235.452 132.957 217.168 122.845 210.404 121.868C206.099 121.244 200.466 120.974 196.94 120.86C195.112 120.801 193.6 122.309 193.6 124.191Z" fill="#525357"/>
<path d="M291.106 126.449L290.804 126.72C290.648 126.86 290.414 126.854 290.28 126.707L284.909 120.788C284.775 120.641 284.793 120.408 284.949 120.269L285.252 119.997C285.407 119.858 285.642 119.863 285.775 120.01L291.147 125.93C291.279 126.077 291.262 126.309 291.106 126.449Z" fill="#A892C5"/>
<path d="M309.317 121.64C308.6 121.054 303.047 123.496 303.117 124.347C303.188 125.196 299.244 133.438 299.244 133.438L292.427 127.99L292.424 127.992C292.364 127.794 291.717 125.675 291.686 125.297C291.653 124.899 290.501 124.202 289.966 124.305C289.431 124.408 290.424 125.081 290.488 125.204C290.665 125.541 289.98 125.666 289.98 125.666C289.98 125.666 288.01 124.583 287.968 123.946C287.927 123.309 287.52 121.973 287.095 122.252C286.875 122.396 286.877 123.344 286.945 123.794C286.82 123.284 286.64 122.707 286.466 122.649C286.147 122.545 285.988 122.952 286.046 123.15C286.104 123.35 286.618 125.517 286.774 125.762C286.928 125.999 290.108 128.568 290.567 129.126C290.567 129.126 299.385 139.231 300.012 139.495C300.562 139.726 302.527 136.245 304.383 133.932C306.238 131.621 311.561 123.468 309.317 121.64Z" fill="#F7A491"/>
<path d="M327.109 195.936C327.109 195.936 328.32 197.121 328.348 197.556C328.375 197.991 328.455 202.651 327.96 203.086C327.466 203.521 326.013 203.829 326.48 204.318C326.833 204.688 329.549 204.609 331.348 204.51C331.874 204.481 332.533 200.278 332.741 199.66C333.044 198.764 333.779 196.743 333.504 196.117C333.37 195.813 332.729 195.187 331.826 194.603C330.878 193.988 329.969 192.62 329.969 192.62L327.109 195.936Z" fill="#F48C7F"/>
<path d="M314.558 198.696L315.643 201.774C315.724 202.26 316.041 203.463 316.041 203.906C316.041 205.567 308.567 202.495 310.241 201.759C310.394 201.692 310.869 201.159 310.918 200.594C310.996 199.723 310.289 198.631 310.289 198.631L314.558 198.696Z" fill="#F7A491"/>
<path d="M302.831 141.519C302.831 141.519 302.287 147.023 302.287 147.106C302.287 156.01 300.526 173.403 300.861 175.077C301.678 179.16 310.47 199.99 310.47 199.99L315.222 199.421L309.03 174.481L311.308 164.443L314.534 144.601L302.831 141.519Z" fill="#8362AA"/>
<path d="M318.781 146.389L319.681 151.606L322.122 173.077L331.412 194.063C331.412 194.063 330.105 197.115 328.177 197.544L313.39 175.999L304.205 148.43L304.527 142.306L318.781 146.389Z" fill="#9A81BB"/>
<path d="M300.937 128.413L307.527 129.088C307.527 129.088 307.828 123.672 307.828 121.09C307.828 117.955 307.562 113.92 307.184 114.006C306.125 114.25 304.698 114.836 303.848 116.007C300.908 120.055 300.937 128.413 300.937 128.413Z" fill="#525357"/>
<path d="M304.174 120.536C304.036 121.491 301.503 147.468 301.503 147.468C313.501 153.276 320.121 148.502 320.121 148.502C320.121 148.502 319.728 130.262 320.199 127.779C320.51 126.136 320.898 115.221 319.836 114.915C318.474 114.523 316.911 114.106 315.208 113.929C313.755 113.778 308.108 113.69 307.098 114.031C307.098 114.031 304.754 116.518 304.174 120.536Z" fill="#525357"/>
<path d="M331.768 194.573C331.768 194.573 328.976 202.454 327.882 202.835C327.592 202.937 326.199 203.193 325.936 203.81C325.857 203.996 325.936 204.617 325.936 204.617H331.757C331.757 204.617 332.493 201.145 332.785 199.619C332.785 199.619 334.325 195.891 334.154 195.552C333.983 195.213 331.768 194.573 331.768 194.573Z" fill="#7853A2"/>
<path d="M316.466 204.453L315.61 201.742C315.61 201.742 313.813 202.505 312.913 202.378C312.015 202.251 310.26 201.742 310.26 201.742C306.672 202.926 303.733 203.5 304.268 204.453H316.466Z" fill="#7853A2"/>
<path d="M300.012 139.495C299.985 139.483 299.887 139.407 299.831 139.36C300.044 136.815 300.006 134.349 299.208 133.515C299.229 133.476 299.402 133.104 299.585 132.719C300.508 133.436 300.946 135.337 300.775 138.425C300.762 138.638 300.702 138.8 300.653 139.064C300.385 139.359 300.142 139.549 300.012 139.495Z" fill="#F7A491"/>
<path d="M332.004 147.743C332.011 147.688 332.012 147.631 332.007 147.576C331.83 145.778 330.341 130.671 330.089 130.029C329.863 129.45 323.18 119.869 323.18 119.869L319.895 124.354L326.322 132.947C326.466 133.494 328.784 143.691 328.784 143.691C328.784 143.691 329.26 145.549 329.474 146.662C329.376 146.931 329.281 147.184 329.197 147.393C328.983 147.836 328.733 148.201 328.504 148.507C328.217 148.895 327.741 149.737 327.684 149.963C327.616 150.225 327.492 150.771 327.423 151.099C327.354 151.428 327.258 151.812 327.242 151.99C327.233 152.099 327.121 152.316 327.034 152.469C326.906 152.696 327.125 152.967 327.373 152.884C327.607 152.806 327.788 152.503 327.9 152.314C328.217 151.781 328.386 150.809 328.464 150.86C328.543 150.91 328.82 152.562 328.864 152.748C328.908 152.935 329.24 154.852 329.427 155.202C329.615 155.553 329.864 155.494 329.929 155.274C329.986 155.086 329.722 152.404 329.722 152.404C329.722 152.404 329.689 152.062 329.839 152.168C329.988 152.275 330.232 154.71 330.337 155.067C330.44 155.422 330.678 155.612 330.879 155.326C331.123 154.977 330.703 152.395 330.703 152.395C330.703 152.395 330.655 152.069 330.793 152.099C330.932 152.13 331.105 154.206 331.212 154.384C331.321 154.564 331.592 154.628 331.722 154.329C331.874 153.977 331.479 151.675 331.479 151.675C331.479 151.675 331.499 151.491 331.585 151.553C331.672 151.613 331.945 153.371 332.123 153.535C332.273 153.672 332.399 153.538 332.399 153.538C332.726 153.315 332.224 151.642 332.229 150.81C332.234 149.979 331.849 149.044 331.963 148.054C331.971 147.992 331.991 147.839 332.004 147.743Z" fill="#F8A492"/>
<path d="M328.401 125.936L322.693 129.778C322.693 129.778 319.475 124.979 317.748 123.271C315.585 121.13 318.537 114.574 319.931 114.944C323.048 115.774 328.401 125.936 328.401 125.936Z" fill="#525357"/>
<path d="M314.789 108.314L315.643 113.956C315.643 113.956 312.525 120.672 310.663 120.09C309.102 119.601 310.063 113.658 310.063 113.658C310.063 113.658 310.913 110.466 310.658 108.868C310.402 107.272 314.789 108.314 314.789 108.314Z" fill="#F7A491"/>
<path d="M310.658 108.868C310.402 107.272 314.789 108.314 314.789 108.314L314.86 108.781C314.731 109.094 314.574 109.362 314.384 109.568C313.404 110.625 311.873 111.26 310.55 111.308C310.682 110.447 310.763 109.524 310.658 108.868Z" fill="#8362AA"/>
<path d="M315.508 100.333C315.632 100.288 316.502 106.758 314.852 108.539C313.201 110.319 309.986 110.902 308.832 109.499C307.557 107.948 307.621 100.995 310.187 99.1634C312.752 97.3322 315.508 100.333 315.508 100.333Z" fill="#F7A491"/>
<path d="M311.163 95.7024C313.147 96.1083 314.432 97.3224 314.904 97.8402C315.804 97.947 317.028 98.4459 318.293 100.544C319.846 103.124 318.699 105.982 316.89 107.383C315.08 108.786 315.105 110.404 315.105 110.404L314.819 109.567C314.608 108.933 314.522 108.26 314.593 107.594C314.636 107.194 314.721 106.762 314.886 106.408C315.32 105.471 313.951 104.849 313.566 104.07C313.271 103.471 313.257 102.098 312.79 101.107L312.234 100.35C312.234 100.35 310.951 99.3483 309.694 99.6298C308.439 99.9126 308.619 95.1821 311.163 95.7024Z" fill="#8E71B3"/>
<path d="M313.65 105.221C313.638 106.01 313.996 106.656 314.451 106.665C314.905 106.673 315.285 106.039 315.297 105.25C315.311 104.461 314.953 103.813 314.498 103.806C314.043 103.798 313.664 104.432 313.65 105.221Z" fill="#F7A491"/>
<path d="M310.971 107.045L308.484 106.917C308.484 106.917 308.491 107.867 309.585 107.955C310.916 108.063 310.971 107.045 310.971 107.045Z" fill="#F3F3F3"/>
<path d="M183.369 68.9777C183.42 64.9597 186.721 61.7449 190.741 61.7951C194.763 61.8454 197.981 65.1432 197.931 69.1599C197.881 73.1779 194.58 76.3927 190.559 76.3425C186.537 76.2922 183.319 72.9944 183.369 68.9777ZM176.186 74.7551L190.227 102.601L204.967 75.1184C209.33 65.0376 202.325 53.5368 191.341 53.0805C191.179 53.073 191.016 53.0692 190.852 53.0667C190.688 53.0642 190.525 53.0655 190.363 53.068C179.37 53.2477 172.077 64.5689 176.186 74.7551Z" fill="#8362AA"/>
<path d="M371.993 208H6.97407C6.10214 208 5.39526 207.294 5.39526 206.423V206.031C5.39526 205.16 6.10214 204.453 6.97407 204.453H371.993C372.865 204.453 373.572 205.16 373.572 206.031V206.423C373.572 207.294 372.865 208 371.993 208Z" fill="#A892C5"/>
</svg>
