<svg width="372" height="210" viewBox="0 0 372 210" fill="none" xmlns="http://www.w3.org/2000/svg">
<path d="M309.907 208.132C309.907 208.132 365.085 183.391 363.801 133.476C362.518 83.5602 310.224 60.3488 274.722 91.1667C239.221 121.984 216.245 96.1416 197.852 70.0984C179.46 44.0558 138.43 11.189 84.5975 26.3761C28.2053 42.2852 10.8523 99.865 16.438 138.289C20.4503 165.888 35.1241 189.288 55.1202 207.268C55.7704 207.853 56.4362 208.431 57.1175 209L309.907 208.132Z" fill="#6D41A2" fill-opacity="0.1"/>
<path d="M66.223 101.681H38.8384V137.21H66.223V101.681Z" fill="#6D41A2" fill-opacity="0.1"/>
<path d="M254.919 83.2787H207.183V131.409H254.919V83.2787Z" fill="#6D41A2" fill-opacity="0.1"/>
<path d="M128.233 89.3415H100.849V124.87H128.233V89.3415Z" fill="#6D41A2" fill-opacity="0.1"/>
<path d="M180.046 108.572H152.661V144.1H180.046V108.572Z" fill="#6D41A2" fill-opacity="0.1"/>
<path d="M369.687 169.275H11.4536V122.657H369.687V169.275Z" fill="#6D41A2" fill-opacity="0.1"/>
<path d="M38.8383 87.1271H11.4536V122.656H38.8383V87.1271Z" fill="#6D41A2" fill-opacity="0.1"/>
<path d="M156.556 54.6676C156.556 64.606 148.565 72.6621 138.709 72.6621C128.851 72.6621 120.861 64.606 120.861 54.6676C120.861 44.7292 128.851 36.673 138.709 36.673C148.565 36.673 156.556 44.7292 156.556 54.6676Z" fill="#6D41A2" fill-opacity="0.1"/>
<path d="M142.839 46.4199C142.839 48.72 140.99 50.585 138.708 50.585C136.427 50.585 134.578 48.72 134.578 46.4199C134.578 44.1199 136.427 42.2549 138.708 42.2549C140.99 42.2549 142.839 44.1199 142.839 46.4199Z" fill="#6D41A2" fill-opacity="0.1"/>
<path d="M159.564 169.275H117.853V53.1966H159.564V169.275Z" fill="#B6A4D0"/>
<path d="M131.795 77.9639H123.502V61.5108H131.795V77.9639Z" fill="#6D41A2" fill-opacity="0.1"/>
<path d="M152.661 77.9639H144.368V61.5108H152.661V77.9639Z" fill="#6D41A2" fill-opacity="0.1"/>
<path d="M131.795 103.047H123.502V86.5943H131.795V103.047Z" fill="#6D41A2" fill-opacity="0.1"/>
<path d="M152.661 103.047H144.368V86.5943H152.661V103.047Z" fill="#6D41A2" fill-opacity="0.1"/>
<path d="M131.795 128.132H123.502V111.679H131.795V128.132Z" fill="#6D41A2" fill-opacity="0.1"/>
<path d="M152.661 128.132H144.368V111.679H152.661V128.132Z" fill="#6D41A2" fill-opacity="0.1"/>
<path d="M131.795 153.216H123.502V136.763H131.795V153.216Z" fill="#6D41A2" fill-opacity="0.1"/>
<path d="M152.661 153.216H144.368V136.763H152.661V153.216Z" fill="#6D41A2" fill-opacity="0.1"/>
<path d="M214.749 169.275H169.385V26.3674H214.749V169.275Z" fill="#B6A4D0"/>
<path d="M180.044 42.7676H173.859V36.5311H180.044V42.7676Z" fill="#6D41A2" fill-opacity="0.1"/>
<path d="M195.16 42.7676H188.974V36.5311H195.16V42.7676Z" fill="#6D41A2" fill-opacity="0.1"/>
<path d="M210.275 42.7676H204.09V36.5311H210.275V42.7676Z" fill="#6D41A2" fill-opacity="0.1"/>
<path d="M180.044 53.7842H173.859V47.5477H180.044V53.7842Z" fill="#6D41A2" fill-opacity="0.1"/>
<path d="M195.16 53.7842H188.974V47.5477H195.16V53.7842Z" fill="#6D41A2" fill-opacity="0.1"/>
<path d="M210.275 53.7842H204.09V47.5477H210.275V53.7842Z" fill="#6D41A2" fill-opacity="0.1"/>
<path d="M180.044 64.8008H173.859V58.5643H180.044V64.8008Z" fill="#6D41A2" fill-opacity="0.1"/>
<path d="M195.16 64.8008H188.974V58.5643H195.16V64.8008Z" fill="#6D41A2" fill-opacity="0.1"/>
<path d="M210.275 64.8008H204.09V58.5643H210.275V64.8008Z" fill="#6D41A2" fill-opacity="0.1"/>
<path d="M180.044 75.8174H173.859V69.5803H180.044V75.8174Z" fill="#6D41A2" fill-opacity="0.1"/>
<path d="M195.16 75.8174H188.974V69.5803H195.16V75.8174Z" fill="#6D41A2" fill-opacity="0.1"/>
<path d="M210.275 75.8174H204.09V69.5803H210.275V75.8174Z" fill="#6D41A2" fill-opacity="0.1"/>
<path d="M180.044 86.833H173.859V80.5965H180.044V86.833Z" fill="#6D41A2" fill-opacity="0.1"/>
<path d="M195.16 86.833H188.974V80.5965H195.16V86.833Z" fill="#6D41A2" fill-opacity="0.1"/>
<path d="M210.275 86.833H204.09V80.5965H210.275V86.833Z" fill="#6D41A2" fill-opacity="0.1"/>
<path d="M180.044 97.8486H173.859V91.6116H180.044V97.8486Z" fill="#6D41A2" fill-opacity="0.1"/>
<path d="M195.16 97.8486H188.974V91.6116H195.16V97.8486Z" fill="#6D41A2" fill-opacity="0.1"/>
<path d="M210.275 97.8486H204.09V91.6116H210.275V97.8486Z" fill="#6D41A2" fill-opacity="0.1"/>
<path d="M180.044 108.865H173.859V102.629H180.044V108.865Z" fill="#6D41A2" fill-opacity="0.1"/>
<path d="M195.16 108.865H188.974V102.629H195.16V108.865Z" fill="#6D41A2" fill-opacity="0.1"/>
<path d="M210.275 108.865H204.09V102.629H210.275V108.865Z" fill="#6D41A2" fill-opacity="0.1"/>
<path d="M180.044 119.881H173.859V113.644H180.044V119.881Z" fill="#6D41A2" fill-opacity="0.1"/>
<path d="M195.16 119.881H188.974V113.644H195.16V119.881Z" fill="#6D41A2" fill-opacity="0.1"/>
<path d="M210.275 119.881H204.09V113.644H210.275V119.881Z" fill="#6D41A2" fill-opacity="0.1"/>
<path d="M180.044 130.897H173.859V124.66H180.044V130.897Z" fill="#6D41A2" fill-opacity="0.1"/>
<path d="M195.16 130.897H188.974V124.66H195.16V130.897Z" fill="#6D41A2" fill-opacity="0.1"/>
<path d="M210.275 130.897H204.09V124.66H210.275V130.897Z" fill="#6D41A2" fill-opacity="0.1"/>
<path d="M180.044 141.913H173.859V135.677H180.044V141.913Z" fill="#6D41A2" fill-opacity="0.1"/>
<path d="M195.16 141.913H188.974V135.677H195.16V141.913Z" fill="#6D41A2" fill-opacity="0.1"/>
<path d="M210.275 141.913H204.09V135.677H210.275V141.913Z" fill="#6D41A2" fill-opacity="0.1"/>
<path d="M180.044 152.93H173.859V146.693H180.044V152.93Z" fill="#6D41A2" fill-opacity="0.1"/>
<path d="M195.16 152.93H188.974V146.693H195.16V152.93Z" fill="#6D41A2" fill-opacity="0.1"/>
<path d="M210.275 152.93H204.09V146.693H210.275V152.93Z" fill="#6D41A2" fill-opacity="0.1"/>
<path d="M359.375 208.754H314.011V65.8458H359.375V208.754Z" fill="#B6A4D0"/>
<path d="M324.671 82.2461H318.485V76.0096H324.671V82.2461Z" fill="#6D41A2" fill-opacity="0.1"/>
<path d="M339.786 82.2461H333.601V76.0096H339.786V82.2461Z" fill="#6D41A2" fill-opacity="0.1"/>
<path d="M354.902 82.2461H348.716V76.0096H354.902V82.2461Z" fill="#6D41A2" fill-opacity="0.1"/>
<path d="M324.671 93.2637H318.485V87.0272H324.671V93.2637Z" fill="#6D41A2" fill-opacity="0.1"/>
<path d="M339.786 93.2637H333.601V87.0272H339.786V93.2637Z" fill="#6D41A2" fill-opacity="0.1"/>
<path d="M354.902 93.2637H348.716V87.0272H354.902V93.2637Z" fill="#6D41A2" fill-opacity="0.1"/>
<path d="M324.671 104.279H318.485V98.0423H324.671V104.279Z" fill="#6D41A2" fill-opacity="0.1"/>
<path d="M339.786 104.279H333.601V98.0423H339.786V104.279Z" fill="#6D41A2" fill-opacity="0.1"/>
<path d="M354.902 104.279H348.716V98.0423H354.902V104.279Z" fill="#6D41A2" fill-opacity="0.1"/>
<path d="M324.671 115.295H318.485V109.058H324.671V115.295Z" fill="#6D41A2" fill-opacity="0.1"/>
<path d="M339.786 115.295H333.601V109.058H339.786V115.295Z" fill="#6D41A2" fill-opacity="0.1"/>
<path d="M354.902 115.295H348.716V109.058H354.902V115.295Z" fill="#6D41A2" fill-opacity="0.1"/>
<path d="M324.671 126.312H318.485V120.074H324.671V126.312Z" fill="#6D41A2" fill-opacity="0.1"/>
<path d="M339.786 126.312H333.601V120.074H339.786V126.312Z" fill="#6D41A2" fill-opacity="0.1"/>
<path d="M354.902 126.312H348.716V120.074H354.902V126.312Z" fill="#6D41A2" fill-opacity="0.1"/>
<path d="M324.671 137.328H318.485V131.091H324.671V137.328Z" fill="#6D41A2" fill-opacity="0.1"/>
<path d="M339.786 137.328H333.601V131.091H339.786V137.328Z" fill="#6D41A2" fill-opacity="0.1"/>
<path d="M354.902 137.328H348.716V131.091H354.902V137.328Z" fill="#6D41A2" fill-opacity="0.1"/>
<path d="M324.671 148.344H318.485V142.107H324.671V148.344Z" fill="#6D41A2" fill-opacity="0.1"/>
<path d="M339.786 148.344H333.601V142.107H339.786V148.344Z" fill="#6D41A2" fill-opacity="0.1"/>
<path d="M354.902 148.344H348.716V142.107H354.902V148.344Z" fill="#6D41A2" fill-opacity="0.1"/>
<path d="M324.671 159.36H318.485V153.123H324.671V159.36Z" fill="#6D41A2" fill-opacity="0.1"/>
<path d="M339.786 159.36H333.601V153.123H339.786V159.36Z" fill="#6D41A2" fill-opacity="0.1"/>
<path d="M354.902 159.36H348.716V153.123H354.902V159.36Z" fill="#6D41A2" fill-opacity="0.1"/>
<path d="M324.671 170.376H318.485V164.14H324.671V170.376Z" fill="#6D41A2" fill-opacity="0.1"/>
<path d="M339.786 170.376H333.601V164.14H339.786V170.376Z" fill="#6D41A2" fill-opacity="0.1"/>
<path d="M354.902 170.376H348.716V164.14H354.902V170.376Z" fill="#6D41A2" fill-opacity="0.1"/>
<path d="M107.928 169.275H51.8199V26.3674H107.928V169.275Z" fill="#B6A4D0"/>
<path d="M61.4952 123.26H57.7086V49.3412H61.4952V123.26Z" fill="#6D41A2" fill-opacity="0.1"/>
<path d="M71.6309 123.26H67.8448V49.3412H71.6309V123.26Z" fill="#6D41A2" fill-opacity="0.1"/>
<path d="M81.7673 123.26H77.9807V49.3412H81.7673V123.26Z" fill="#6D41A2" fill-opacity="0.1"/>
<path d="M91.9035 123.26H88.1169V49.3412H91.9035V123.26Z" fill="#6D41A2" fill-opacity="0.1"/>
<path d="M102.04 123.26H98.2532V49.3412H102.04V123.26Z" fill="#6D41A2" fill-opacity="0.1"/>
<path d="M107.928 42.1807H51.8199V34.2739H107.928V42.1807Z" fill="#6D41A2" fill-opacity="0.1"/>
<path d="M6.75258 87.3621C6.75258 88.9861 5.46478 90.3027 3.87639 90.3027C2.2878 90.3027 1 88.9861 1 87.3621C1 85.7382 2.2878 84.4216 3.87639 84.4216C5.46478 84.4216 6.75258 85.7382 6.75258 87.3621V87.3621Z" stroke="#6D41A2" stroke-opacity="0.1" stroke-width="1.70287" stroke-miterlimit="10"/>
<path d="M348.335 24.2186C348.335 25.8425 347.047 27.1592 345.458 27.1592C343.87 27.1592 342.583 25.8425 342.583 24.2186C342.583 22.5946 343.87 21.278 345.458 21.278C347.047 21.278 348.335 22.5946 348.335 24.2186V24.2186Z" stroke="#6D41A2" stroke-opacity="0.1" stroke-width="1.70287" stroke-miterlimit="10"/>
<path d="M213.08 54.9218C213.08 56.6056 211.745 57.9707 210.098 57.9707C208.452 57.9707 207.117 56.6056 207.117 54.9218C207.117 53.238 208.452 51.8733 210.098 51.8733C211.745 51.8733 213.08 53.238 213.08 54.9218Z" stroke="#6D41A2" stroke-opacity="0.1" stroke-width="1.70287" stroke-miterlimit="10"/>
<path d="M41.9785 14.6582H62.9121" stroke="#6D41A2" stroke-opacity="0.1" stroke-width="1.33136" stroke-miterlimit="10"/>
<path d="M351.454 79.6572H369.616" stroke="#6D41A2" stroke-opacity="0.1" stroke-width="1.33136" stroke-miterlimit="10"/>
<path d="M199.054 1H230.689" stroke="#6D41A2" stroke-opacity="0.1" stroke-width="1.33136" stroke-miterlimit="10"/>
<path d="M253.687 208.702H313.633C321.285 208.702 327.488 202.448 327.488 194.733V33.8752C327.488 26.1603 321.285 19.9061 313.633 19.9061H253.687C246.035 19.9061 239.832 26.1603 239.832 33.8752V194.733C239.832 202.448 246.035 208.702 253.687 208.702Z" fill="#8E71B3"/>
<path d="M244.593 208.702H304.539C312.191 208.702 318.394 202.448 318.394 194.733V33.8752C318.394 26.1603 312.191 19.9061 304.539 19.9061H244.593C236.941 19.9061 230.738 26.1603 230.738 33.8752V194.733C230.738 202.448 236.941 208.702 244.593 208.702Z" fill="#8362AA"/>
<path d="M244.51 204.47H304.621C309.889 204.47 314.159 200.164 314.159 194.853V34.6391C314.159 29.3279 309.889 25.0221 304.621 25.0221H244.51C239.243 25.0221 234.972 29.3279 234.972 34.6391V194.853C234.972 200.164 239.243 204.47 244.51 204.47Z" fill="#F3F3F3"/>
<path d="M259.871 29.7451H288.61C290.033 29.7451 291.186 28.5821 291.186 27.1474V22.9107H257.295V27.1474C257.295 28.5821 258.448 29.7451 259.871 29.7451Z" fill="#8362AA"/>
<path d="M266.451 25.3916H279.737" stroke="#525357" stroke-width="1.1578" stroke-miterlimit="10" stroke-linecap="round" stroke-linejoin="round"/>
<path d="M309.887 110.404H239.306V57.1087H309.887V110.404Z" fill="#6D41A2" fill-opacity="0.1"/>
<path d="M314.328 61.2098L226.629 127.968" stroke="#F3F3F3" stroke-width="6.83467" stroke-miterlimit="10"/>
<path d="M335.198 72.2317L247.499 138.99" stroke="#F3F3F3" stroke-width="6.83467" stroke-miterlimit="10"/>
<path d="M293.053 50.5185L215.53 109.53" stroke="#F3F3F3" stroke-width="6.83467" stroke-miterlimit="10"/>
<path d="M244.306 51.9936L276.797 100.159C277.898 101.791 277.611 103.996 276.128 105.287L265.7 114.363C260.945 118.502 260.287 123.01 264.212 127.956L281.045 151.845" stroke="#F3F3F3" stroke-width="6.83467" stroke-miterlimit="10"/>
<path d="M298.44 51.8437C298.44 45.0594 291.337 39.9482 284.219 43.6565C283.114 44.2329 281.709 45.625 281.106 46.7238C279.244 50.1211 279.411 53.4714 280.75 56.1187H280.74L280.816 56.2567C280.85 56.322 280.886 56.3856 280.922 56.4498L289.083 71.3301L297.259 56.4255C297.287 56.3759 297.315 56.3257 297.341 56.2751L297.379 56.2066H297.374C298.051 54.9013 298.44 53.4191 298.44 51.8437Z" fill="#8E71B3"/>
<path d="M293.228 51.7438C293.228 54.052 291.372 55.9229 289.083 55.9229C286.794 55.9229 284.938 54.052 284.938 51.7438C284.938 49.4357 286.794 47.5648 289.083 47.5648C291.372 47.5648 293.228 49.4357 293.228 51.7438Z" fill="#F3F3F3"/>
<path d="M204.297 163.811H194.607C185.095 163.811 177.383 173.874 177.383 186.286C177.383 198.698 185.095 208.761 194.607 208.761H204.297C213.81 208.761 221.522 198.698 221.522 186.286C221.522 173.874 213.81 163.811 204.297 163.811Z" fill="#525357"/>
<path d="M325.137 163.811H315.447C305.934 163.811 298.223 173.874 298.223 186.286C298.223 198.698 305.934 208.761 315.447 208.761H325.137C334.65 208.761 342.362 198.698 342.362 186.286C342.362 173.874 334.65 163.811 325.137 163.811Z" fill="#525357"/>
<path d="M279.113 158.367H207.683V190.577H279.113V158.367Z" fill="#525357"/>
<path d="M263.558 186.749C263.558 198.873 256.025 208.702 246.733 208.702C237.441 208.702 229.908 198.873 229.908 186.749C229.908 174.625 237.441 164.796 246.733 164.796C256.025 164.796 263.558 174.625 263.558 186.749Z" fill="#525357"/>
<path d="M237.268 208.702H246.733L256.408 198.947L246.733 164.796H237.268V208.702Z" fill="#525357"/>
<path d="M254.093 186.749C254.093 198.873 246.56 208.702 237.268 208.702C227.976 208.702 220.443 198.873 220.443 186.749C220.443 174.625 227.976 164.796 237.268 164.796C246.56 164.796 254.093 174.625 254.093 186.749Z" fill="#8362AA"/>
<path d="M244.228 186.286C244.228 192.42 240.591 197.393 236.105 197.393C231.619 197.393 227.983 192.42 227.983 186.286C227.983 180.152 231.619 175.18 236.105 175.18C240.591 175.18 244.228 180.152 244.228 186.286Z" fill="#B8B8C2"/>
<path d="M248.009 186.286C248.009 192.42 244.373 197.393 239.887 197.393C235.401 197.393 231.764 192.42 231.764 186.286C231.764 180.152 235.401 175.18 239.887 175.18C244.373 175.18 248.009 180.152 248.009 186.286Z" fill="#F3F3F3"/>
<path d="M158.273 158.367H86.8434V190.577H158.273V158.367Z" fill="#525357"/>
<path d="M142.718 186.749C142.718 198.873 135.185 208.702 125.893 208.702C116.601 208.702 109.068 198.873 109.068 186.749C109.068 174.625 116.601 164.796 125.893 164.796C135.185 164.796 142.718 174.625 142.718 186.749Z" fill="#525357"/>
<path d="M116.428 208.702H125.893L135.569 198.947L125.893 164.796H116.428V208.702Z" fill="#525357"/>
<path d="M133.253 186.749C133.253 198.873 125.721 208.702 116.428 208.702C107.136 208.702 99.6038 198.873 99.6038 186.749C99.6038 174.625 107.136 164.796 116.428 164.796C125.721 164.796 133.253 174.625 133.253 186.749Z" fill="#8362AA"/>
<path d="M123.388 186.286C123.388 192.42 119.752 197.393 115.266 197.393C110.78 197.393 107.143 192.42 107.143 186.286C107.143 180.152 110.78 175.18 115.266 175.18C119.752 175.18 123.388 180.152 123.388 186.286Z" fill="#B8B8C2"/>
<path d="M127.17 186.286C127.17 192.42 123.533 197.393 119.047 197.393C114.561 197.393 110.925 192.42 110.925 186.286C110.925 180.152 114.561 175.18 119.047 175.18C123.533 175.18 127.17 180.152 127.17 186.286Z" fill="#F3F3F3"/>
<path d="M75.4965 190.576V152.438C75.4965 146.998 79.4537 142.363 84.7969 141.614C89.4873 140.958 95.492 140.385 101.707 140.5C101.707 140.5 137.62 118.244 150.788 118.244L233.29 117.816C244.333 117.664 255.253 120.173 265.141 125.134L301.884 143.568L350.734 154.352C350.734 154.352 360.854 157.12 363.022 163.752C365.19 170.384 364.468 177.671 364.468 177.671H257.174C257.174 177.671 252.338 162.342 236.866 162.342C221.394 162.342 217.204 181.152 218.171 190.576H137.107C137.107 190.576 137.429 162.627 116.477 163.602C95.5246 164.577 97.1364 190.576 97.1364 190.576H75.4965Z" fill="#8E71B3"/>
<path d="M76.2927 177.671C73.466 177.671 71.1735 179.98 71.1697 182.829L71.1665 185.415C71.1665 188.265 73.4585 190.576 76.2863 190.576H97.1364C97.1364 190.576 97.0299 183.542 98.8786 177.671H76.2927Z" fill="#7853A2"/>
<path d="M201.721 107.305H169.704C167.036 107.305 164.874 109.484 164.874 112.173V118.244H206.55V112.173C206.55 109.484 204.388 107.305 201.721 107.305Z" fill="#525357"/>
<path d="M207.95 107.305H175.933C173.266 107.305 171.104 109.484 171.104 112.173V118.244H212.779V112.173C212.779 109.484 210.617 107.305 207.95 107.305Z" fill="#7853A2"/>
<path d="M182.567 110.705H180.582V109.756H185.664V110.705H183.679V115.794H182.567V110.705Z" fill="#525357"/>
<path d="M190.363 113.518L189.234 110.878L188.113 113.518H190.363ZM190.731 114.397H187.737L187.146 115.794H186L188.695 109.756H189.79L192.493 115.794H191.33L190.731 114.397Z" fill="#525357"/>
<path d="M197.372 115.794L195.747 113.499L194.139 115.794H192.874L195.098 112.715L192.992 109.756H194.251L195.782 111.904L197.295 109.756H198.502L196.406 112.672L198.656 115.794H197.372Z" fill="#525357"/>
<path d="M199.977 109.756H201.089V115.794H199.977V109.756Z" fill="#525357"/>
<path d="M217.854 142.037L185.251 123.547C182.482 121.977 179.359 121.152 176.181 121.152H156.767C151.744 121.152 146.823 122.583 142.57 125.281L111.596 143.002C110.711 143.508 111.067 144.869 112.084 144.869H217.118C218.662 144.869 219.199 142.801 217.854 142.037Z" fill="#525357"/>
<path d="M111.391 143.77V157.034C111.391 157.034 139.836 151.258 142.718 184.124H207.683C207.683 184.124 205.946 151.996 217.941 144.16" stroke="#525357" stroke-width="1.04803" stroke-miterlimit="10" stroke-linecap="round" stroke-linejoin="round"/>
<path d="M164.408 144.869C164.408 144.869 157.63 147.9 160.917 184.124" stroke="#525357" stroke-width="1.04803" stroke-miterlimit="10" stroke-linecap="round" stroke-linejoin="round"/>
<path d="M174.858 151.289H168.329C167.616 151.289 167.036 150.705 167.036 149.985V149.38C167.036 148.661 167.616 148.077 168.329 148.077H174.858C175.572 148.077 176.151 148.661 176.151 149.38V149.985C176.151 150.705 175.572 151.289 174.858 151.289Z" fill="#525357"/>
<path d="M125.822 151.289H119.294C118.58 151.289 118.001 150.705 118.001 149.985V149.38C118.001 148.661 118.58 148.077 119.294 148.077H125.822C126.537 148.077 127.115 148.661 127.115 149.38V149.985C127.115 150.705 126.537 151.289 125.822 151.289Z" fill="#525357"/>
<path d="M197.646 124.894L234.962 144.869H298.403L255.725 123.828C252.153 122.067 248.229 121.152 244.254 121.152H198.57C196.516 121.152 195.832 123.923 197.646 124.894Z" fill="#525357"/>
<path d="M244.228 148.077H302.951" stroke="#525357" stroke-width="1.04803" stroke-miterlimit="10" stroke-linecap="round" stroke-linejoin="round"/>
<path d="M209.728 121.152L251.15 144.869H264.973L223.564 121.152H209.728Z" fill="#5E5E5E"/>
<path d="M235.531 121.152L276.953 144.869H281.446L240.037 121.152H235.531Z" fill="#5E5E5E"/>
<path d="M358.174 190.576H262.283C259.455 190.576 257.163 188.265 257.163 185.415L257.174 177.671H364.467L364.382 184.318C364.382 187.774 361.603 190.576 358.174 190.576Z" fill="#7853A2"/>
<path d="M333.282 181.379H315.875V176.069H333.282V181.379Z" fill="#F3F3F3"/>
<path d="M295.23 165.482H346.538" stroke="#525357" stroke-width="1.04803" stroke-miterlimit="10" stroke-linecap="round" stroke-linejoin="round"/>
<path d="M304.594 169.432H338.315" stroke="#525357" stroke-width="1.04803" stroke-miterlimit="10" stroke-linecap="round" stroke-linejoin="round"/>
<path d="M304.594 173.366H338.315" stroke="#525357" stroke-width="1.04803" stroke-miterlimit="10" stroke-linecap="round" stroke-linejoin="round"/>
<path d="M297.371 173.962H274.976C273.084 173.962 271.55 172.415 271.55 170.508V167.267C271.55 165.359 273.084 163.812 274.976 163.812H297.371C299.263 163.812 300.797 165.359 300.797 167.267V170.508C300.797 172.415 299.263 173.962 297.371 173.962Z" fill="#F3F3F3"/>
<path d="M363.055 163.812H346.069C344.177 163.812 342.643 165.359 342.643 167.267V170.508C342.643 172.415 344.177 173.962 346.069 173.962H364.582C364.733 167.146 363.284 164.229 363.055 163.812Z" fill="#F3F3F3"/>
<path d="M271.55 170.507H300.797" stroke="#525357" stroke-width="1.04803" stroke-miterlimit="10" stroke-linecap="round" stroke-linejoin="round"/>
<path d="M342.643 170.507H364.468" stroke="#525357" stroke-width="1.04803" stroke-miterlimit="10" stroke-linecap="round" stroke-linejoin="round"/>
<path d="M161.808 24.3207C161.808 14.2686 151.284 6.69442 140.738 12.189C139.099 13.0431 137.017 15.1064 136.125 16.7341C133.366 21.7678 133.614 26.7318 135.597 30.6542H135.583L135.695 30.8591C135.746 30.9556 135.799 31.0505 135.852 31.1454L147.945 53.1934L160.058 31.1098C160.1 31.0354 160.141 30.9621 160.181 30.8866L160.236 30.7852H160.229C161.233 28.8507 161.808 26.6547 161.808 24.3207Z" fill="#8E71B3"/>
<path d="M154.086 24.1724C154.086 27.5923 151.336 30.3652 147.945 30.3652C144.553 30.3652 141.803 27.5923 141.803 24.1724C141.803 20.7531 144.553 17.9802 147.945 17.9802C151.336 17.9802 154.086 20.7531 154.086 24.1724Z" fill="#F3F3F3"/>
<path d="M97.2534 197.81H105.902L120.205 205.523L95.6117 205.228L97.2534 197.81Z" fill="#525357"/>
<path d="M95.5261 208.49L95.6117 205.227L120.204 205.523L120.119 208.786L95.5261 208.49Z" fill="#F3F3F3"/>
<path d="M111.879 200.65L109.046 201.431" stroke="#F3F3F3" stroke-width="1.94209" stroke-miterlimit="10" stroke-linecap="round" stroke-linejoin="round"/>
<path d="M109.11 199.217L106.276 199.998" stroke="#F3F3F3" stroke-width="1.94209" stroke-miterlimit="10" stroke-linecap="round" stroke-linejoin="round"/>
<path d="M106.817 185.516H98.0021L97.2534 197.81H106.068L106.817 185.516Z" fill="#E9B0A0"/>
<path d="M112.585 104.741L107.15 193.856H94.8754L96.9962 104.741H112.585Z" fill="#BCA4DA"/>
<path d="M77.3772 197.81H86.0258L100.328 205.523L75.7355 205.228L77.3772 197.81Z" fill="#525357"/>
<path d="M75.6505 208.49L75.7355 205.227L100.328 205.523L100.243 208.786L75.6505 208.49Z" fill="#F3F3F3"/>
<path d="M92.0033 200.65L89.1702 201.431" stroke="#F3F3F3" stroke-width="1.94209" stroke-miterlimit="10" stroke-linecap="round" stroke-linejoin="round"/>
<path d="M89.2337 199.217L86.4 199.998" stroke="#F3F3F3" stroke-width="1.94209" stroke-miterlimit="10" stroke-linecap="round" stroke-linejoin="round"/>
<path d="M87.8166 185.516H79.0017L77.3771 197.81H86.1925L87.8166 185.516Z" fill="#E9B0A0"/>
<path d="M86.5943 104.741L74.5762 193.856H87.9937L105.462 104.741H86.5943Z" fill="#BCA4DA"/>
<path d="M95.8268 153.897L102.686 118.905L107.693 115.615" stroke="#525357" stroke-width="0.850184" stroke-miterlimit="10" stroke-linecap="round" stroke-linejoin="round"/>
<path d="M84.8326 117.804L92.3278 111.855" stroke="#525357" stroke-width="0.850184" stroke-miterlimit="10" stroke-linecap="round" stroke-linejoin="round"/>
<path d="M114.895 70.8708L128.55 88.9484C130.06 90.65 130.154 93.1948 128.773 95.0048C127.032 97.2865 123.694 97.4919 121.691 95.4404L107.015 78.3285C105.003 76.2678 104.938 72.9816 106.866 70.8406H106.867C109.022 68.4484 112.757 68.4629 114.895 70.8708Z" fill="#E9B0A0"/>
<path d="M108.206 64.0133C108.206 64.0133 114.882 64.8533 119.993 74.8418L112.142 84.3311L108.206 64.0133Z" fill="#8362AA"/>
<path d="M119.188 89.6901L137.907 77.8533L141.633 81.7326L128.062 95.7529L119.188 89.6901Z" fill="#E9B0A0"/>
<path d="M140.906 70.457L150.188 73.1874C150.188 73.1874 150.188 80.4402 141.626 81.7514C141.157 81.8231 139.051 81.0101 138.688 80.6844L137.263 76.5895C136.758 75.9182 136.801 74.9785 137.365 74.3568L140.906 70.457Z" fill="#E9B0A0"/>
<path d="M140.138 71.6644L143.422 67.3182C143.909 66.7116 144.744 66.5844 145.296 67.0314C145.825 67.4605 145.912 68.2714 145.494 68.8909L142.461 73.6582L140.138 71.6644Z" fill="#E9B0A0"/>
<path d="M144.107 75.1315L148.051 71.2064C148.597 70.6549 149.407 70.5982 149.871 71.0797C150.317 71.5418 150.289 72.3397 149.809 72.9096L146.045 77.2666L144.107 75.1315Z" fill="#E9B0A0"/>
<path d="M142.588 72.4504L146.315 68.7383C146.865 68.191 147.699 68.1673 148.191 68.6849C148.662 69.1809 148.653 70.0048 148.171 70.5741L144.641 74.7402L142.588 72.4504Z" fill="#E9B0A0"/>
<path d="M148.861 61.0506L150.339 61.1466V70.9275L145.153 79.1152L143.576 78.9853L146.358 68.7002L148.861 61.0506Z" fill="#36438D"/>
<path d="M140.168 74.6267L144.503 78.7465C144.899 79.2436 145.652 79.2371 146.04 78.733L155.478 66.8563C155.708 66.556 155.704 66.1355 155.469 65.8395L150.922 61.4534C150.592 61.0399 149.966 61.0458 149.644 61.4647L140.158 73.4045C139.88 73.7652 139.884 74.2709 140.168 74.6267Z" fill="#525357"/>
<path d="M138.726 74.5303L143.061 78.6501C143.457 79.1472 144.21 79.1402 144.597 78.636L154.035 66.7599C154.266 66.4596 154.262 66.0391 154.026 65.7431L149.479 61.357C149.149 60.9435 148.523 60.9494 148.201 61.3683L138.715 73.3081C138.438 73.6688 138.442 74.1745 138.726 74.5303Z" fill="#F3F3F3"/>
<path d="M138.264 77.9209C137.756 77.6691 136.488 76.3352 136.712 74.3134C137.007 71.6526 138.37 69.6372 138.37 69.6372C138.823 68.7805 139.348 68.3659 140.084 68.4694C140.882 68.5821 141.393 69.4383 141.251 70.033L140.419 71.8909C140.419 71.8909 141.334 74.2465 139.419 77.8168L138.264 77.9209Z" fill="#E9B0A0"/>
<path d="M95.6465 62.0973C95.6465 62.0973 90.5973 63.2867 86.9973 65.1171C84.731 66.2698 84.4797 68.7602 84.7647 71.3029L86.5941 104.741H112.585L114.404 72.4362C114.654 68.8923 112.589 65.4191 109.253 64.276C105.515 62.995 103.154 61.7754 101.165 61.6589L95.6465 62.0973Z" fill="#8362AA"/>
<path d="M113.852 82.2637L114.404 72.4358" stroke="#525357" stroke-width="0.850184" stroke-miterlimit="10" stroke-linecap="round" stroke-linejoin="round"/>
<path d="M95.6466 62.0974L92.6498 62.9277C92.6498 62.9277 94.8754 67.2518 102.96 66.5201C108.63 66.0074 106.346 63.2108 106.346 63.2108L103.525 62.1815L95.6466 62.0974Z" fill="#E9B0A0"/>
<path d="M71.0852 81.2937L84.5059 101.215L80.8915 105.201L66.0767 90.5662L71.0852 81.2937Z" fill="#E9B0A0"/>
<path d="M96.8375 102.122L91.0969 99.1789L91.6605 97.9086C91.8658 97.4466 91.7386 96.9026 91.3503 96.5812C90.9493 96.2491 90.3744 96.2399 89.9632 96.5591L84.3092 101.035L80.8916 105.201C83.9926 107.879 86.0194 107.846 87.1873 107.327C87.3236 107.373 87.4584 107.423 87.5969 107.463L92.368 108.843C92.8092 109.035 93.3225 108.847 93.5386 108.415C93.6958 108.101 93.7514 107.598 92.8332 107.128L93.7514 107.598C94.2182 107.801 94.7605 107.595 94.9781 107.132C95.1835 106.723 94.9316 106.182 94.3926 105.828L95.0952 106.107C95.6043 106.328 96.2038 106.076 96.3947 105.531C96.5594 105.061 96.3123 104.54 95.8701 104.315L94.8557 103.797L96.0605 104.091C96.615 104.289 97.2337 103.99 97.4155 103.404C97.5717 102.901 97.3032 102.361 96.8375 102.122Z" fill="#E9B0A0"/>
<path d="M95.1609 103.942L91.7668 102.328" stroke="#525357" stroke-width="0.552121" stroke-miterlimit="10" stroke-linecap="round" stroke-linejoin="round"/>
<path d="M94.2481 105.769L90.976 104.394" stroke="#525357" stroke-width="0.552121" stroke-miterlimit="10" stroke-linecap="round" stroke-linejoin="round"/>
<path d="M93.137 107.249L90.3643 106.146" stroke="#525357" stroke-width="0.552121" stroke-miterlimit="10" stroke-linecap="round" stroke-linejoin="round"/>
<path d="M89.9091 75.8029L72.8424 90.6439C71.2499 92.2673 68.736 92.5164 66.8601 91.2364C64.4954 89.6233 64.0896 86.2756 65.9986 84.1351L82.0472 68.3264C83.9648 66.1757 87.2145 65.9104 89.4509 67.7214C91.9503 69.7455 92.1637 73.505 89.9091 75.8029Z" fill="#E9B0A0"/>
<path d="M90.6786 63.577C90.6786 63.577 81.7717 65.3319 74.4648 74.6719L82.2086 84.8496L93.3112 76.8334L90.6786 63.577Z" fill="#8362AA"/>
<path d="M85.9777 82.1279L92.4183 77.4777" stroke="#525357" stroke-width="0.850184" stroke-miterlimit="10" stroke-linecap="round" stroke-linejoin="round"/>
<path d="M109.452 34.0262C109.452 34.0262 112.46 36.7355 109.965 42.8184L105.836 34.6058L109.452 34.0262Z" fill="#8E71B3"/>
<path d="M92.607 34.76C92.607 34.76 89.0952 34.375 88.2979 39.8356C87.5006 45.2968 91.4808 48.5609 95.8989 51.2012L92.607 34.76Z" fill="#8E71B3"/>
<path d="M110.004 41.7398C110.004 47.4803 105.493 52.1338 99.9284 52.1338C94.3637 52.1338 89.8525 47.4803 89.8525 41.7398C89.8525 35.9999 94.3637 31.3464 99.9284 31.3464C105.493 31.3464 110.004 35.9999 110.004 41.7398Z" fill="#8E71B3"/>
<path d="M106.437 46.2164C106.887 47.5654 108.336 48.2911 109.674 47.8376C111.012 47.3842 111.732 45.9231 111.282 44.5741C110.833 43.2251 109.383 42.4989 108.045 42.9528C106.707 43.4063 105.988 44.8674 106.437 46.2164Z" fill="#F3F3F3"/>
<path d="M103.572 52.1967L103.722 63.4102L95.4268 62.0277L96.0294 45.9451L103.572 52.1967Z" fill="#E9B0A0"/>
<path d="M103.652 57.8779L97.8262 52.1332L103.837 53.1975L103.652 57.8779Z" fill="#525357"/>
<path d="M108.801 36.7466C108.801 36.7466 111.044 45.7786 110.031 49.246C109.019 52.7139 106.347 54.9616 101.887 54.2241C101.887 54.2241 96.7433 54.1249 95.223 46.4774C92.9342 34.9641 103.268 30.749 108.801 36.7466Z" fill="#E9B0A0"/>
<path d="M96.6636 46.4707C96.6636 46.4707 99.9561 38.8469 96.3802 37.3605C95.3075 36.9146 94.6786 36.6881 94.1717 40.5092C93.6642 44.3297 94.9877 44.9551 94.9877 44.9551L96.6636 46.4707Z" fill="#8E71B3"/>
<path d="M92.1113 47.3459C92.5766 48.7402 94.0739 49.4902 95.4568 49.0216C96.8396 48.5526 97.5835 47.0424 97.1188 45.6486C96.6541 44.2544 95.1562 43.5039 93.7734 43.9724C92.391 44.4415 91.6466 45.9516 92.1113 47.3459Z" fill="#E9B0A0"/>
<path d="M93.4011 45.7557C93.4011 45.7557 95.3198 45.1367 95.899 47.2686" stroke="#525357" stroke-width="0.525888" stroke-miterlimit="10" stroke-linecap="round" stroke-linejoin="round"/>
<path d="M106.96 45.4613L107.533 47.4114C107.561 47.5565 107.472 47.6977 107.329 47.7328L106.68 47.8379" stroke="#525357" stroke-width="0.497083" stroke-miterlimit="10" stroke-linecap="round" stroke-linejoin="round"/>
<path d="M102.927 44.8505C102.906 45.2058 103.174 45.511 103.526 45.532C103.879 45.5536 104.181 45.2829 104.202 44.9276C104.223 44.5728 103.955 44.2677 103.603 44.2461C103.251 44.2251 102.948 44.4957 102.927 44.8505Z" fill="#525357"/>
<path d="M108.268 44.7059C108.249 45.0353 108.498 45.3178 108.825 45.3378C109.151 45.3577 109.432 45.1064 109.451 44.7776C109.471 44.4481 109.222 44.1651 108.895 44.1451C108.568 44.1257 108.288 44.3764 108.268 44.7059Z" fill="#525357"/>
<path d="M104.769 40.4889L99.9561 42.04C99.9561 42.04 101.026 40.5579 102.415 40.1179C103.803 39.678 104.769 40.4889 104.769 40.4889Z" fill="#525357"/>
<path d="M107.469 40.3754L110.004 41.1992C110.004 41.1992 109.568 40.1069 108.837 39.875C108.105 39.6437 107.469 40.3754 107.469 40.3754Z" fill="#525357"/>
<path d="M103.565 48.3216C103.565 48.3216 105.337 49.2317 107.109 49.2317C107.109 49.2317 104.698 50.9963 103.565 48.3216Z" fill="#F3F3F3"/>
<path d="M95.3096 37.4477C95.3096 37.4477 97.9871 39.7736 104.615 38.4273C111.243 37.0805 111.505 32.551 110.706 30.9594C110.706 30.9594 108.267 32.8686 104.249 31.8248C102.007 31.2419 97.001 29.1182 93.9952 31.3929C92.9594 32.1774 92.3572 33.4778 92.607 34.7594C92.8 35.7509 93.4567 36.8832 95.3096 37.4477Z" fill="#8E71B3"/>
<path d="M65.1425 155.73H47.8892V118.465C47.8892 114.74 50.8843 111.721 54.5789 111.721H58.4533C62.1479 111.721 65.1425 114.74 65.1425 118.465V155.73Z" stroke="#525357" stroke-width="3.82461" stroke-miterlimit="10"/>
<path d="M51.694 204.747C51.694 206.977 49.9004 208.786 47.6881 208.786C45.4758 208.786 43.6823 206.977 43.6823 204.747C43.6823 202.516 45.4758 200.707 47.6881 200.707C49.9004 200.707 51.694 202.516 51.694 204.747Z" fill="#525357"/>
<path d="M69.3499 204.747C69.3499 206.977 67.5563 208.786 65.3435 208.786C63.1312 208.786 61.3376 206.977 61.3376 204.747C61.3376 202.516 63.1312 200.707 65.3435 200.707C67.5563 200.707 69.3499 202.516 69.3499 204.747Z" fill="#525357"/>
<path d="M70.2146 203.8H42.8169C38.9078 203.8 35.7388 200.604 35.7388 196.663V150.069C35.7388 146.127 38.9078 142.932 42.8169 142.932H70.2146C74.1242 142.932 77.2932 146.127 77.2932 150.069V196.663C77.2932 200.604 74.1242 203.8 70.2146 203.8Z" fill="#8362AA"/>
<path d="M44.3838 194.631H42.8667V152.559H44.3838V194.631Z" stroke="#525357" stroke-width="0.817204" stroke-miterlimit="10" stroke-linecap="round" stroke-linejoin="round"/>
<path d="M52.4528 194.631H50.9357V152.559H52.4528V194.631Z" stroke="#525357" stroke-width="0.817204" stroke-miterlimit="10" stroke-linecap="round" stroke-linejoin="round"/>
<path d="M60.5216 194.631H59.0045V152.559H60.5216V194.631Z" stroke="#525357" stroke-width="0.817204" stroke-miterlimit="10" stroke-linecap="round" stroke-linejoin="round"/>
<path d="M68.5906 194.631H67.0735V152.559H68.5906V194.631Z" stroke="#525357" stroke-width="0.817204" stroke-miterlimit="10" stroke-linecap="round" stroke-linejoin="round"/>
<path d="M9.651 208.761H371" stroke="#525357" stroke-width="1.30461" stroke-miterlimit="10" stroke-linecap="round" stroke-linejoin="round"/>
</svg>
