<svg width="172" height="172" viewBox="0 0 172 172" fill="none" xmlns="http://www.w3.org/2000/svg">
<path d="M86.0002 159.494C128.265 159.494 162.527 139.713 162.527 115.312C162.527 90.9102 128.265 71.1289 86.0002 71.1289C43.7357 71.1289 9.47363 90.9102 9.47363 115.312C9.47363 139.713 43.7357 159.494 86.0002 159.494Z" fill="#F3F3F3"/>
<path d="M99.7386 151.946L137.282 130.27C138.105 129.795 138.105 129.025 137.282 128.55L66.2023 87.5116C65.3798 87.0365 64.0458 87.0365 63.2233 87.5116L25.6791 109.188C24.8563 109.663 24.8563 110.433 25.6791 110.908L96.7595 151.946C97.582 152.421 98.9161 152.421 99.7386 151.946Z" fill="#E0E0E0"/>
<path d="M32.8598 110.005L35.8028 108.306C35.8028 108.306 36.5238 102.004 36.0439 97.1226C35.37 90.2639 30.9407 82.0113 25.6565 83.9494C20.3723 85.8875 28.0793 92.8724 29.7948 98.6898C31.5103 104.507 32.8598 110.005 32.8598 110.005Z" fill="#C6B8DB"/>
<path opacity="0.15" d="M32.8598 110.005L35.8028 108.306C35.8028 108.306 36.5238 102.004 36.0439 97.1226C35.37 90.2639 30.9407 82.0113 25.6565 83.9494C20.3723 85.8875 28.0793 92.8724 29.7948 98.6898C31.5103 104.507 32.8598 110.005 32.8598 110.005Z" fill="#A7A7A7"/>
<path d="M34.4075 109.29C34.4055 109.29 34.4037 109.29 34.4013 109.29C34.303 109.286 34.2259 109.204 34.2293 109.105C34.7464 93.8657 27.1601 86.1996 27.0834 86.1243C27.0133 86.0552 27.0126 85.9423 27.0814 85.8725C27.1512 85.8023 27.264 85.8016 27.3332 85.8704C27.4113 85.9471 35.1072 93.7233 34.5854 109.118C34.5823 109.214 34.5032 109.29 34.4075 109.29Z" fill="white"/>
<path d="M31.2893 111.221L33.3832 110.012C33.3832 110.012 33.7393 105.687 31.6192 100.433C29.7733 95.8593 25.1933 92.065 22.8895 92.8624C20.5861 93.6597 20.6432 95.2934 21.7664 97.0069C22.8895 98.7203 29.7224 102.805 31.2893 111.221Z" fill="#C6B8DB"/>
<path d="M32.3938 110.761H32.3931C32.2947 110.76 32.2152 110.681 32.2156 110.582C32.2572 100.947 23.2097 94.4342 23.1182 94.3695C23.038 94.3128 23.0187 94.2016 23.0759 94.1212C23.1319 94.0413 23.243 94.0214 23.3242 94.0788C23.4168 94.1445 32.6143 100.765 32.572 110.584C32.5716 110.682 32.4918 110.761 32.3938 110.761Z" fill="white"/>
<path d="M133.38 18.8192L136.343 20.5292C136.328 20.3971 136.318 20.2657 136.318 20.1371V19.2788C136.318 17.7518 137.39 17.1326 138.712 17.8962C139.248 18.2055 139.741 18.6954 140.14 19.2688C140.356 17.3486 141.863 16.6334 143.693 17.6898C145.671 18.8323 147.275 21.6101 147.275 23.8949V25.1787C147.275 25.7704 147.166 26.2689 146.972 26.6658L149.432 28.0862C150.166 28.5097 150.76 29.54 150.76 30.3869C150.76 31.2338 150.165 31.5771 149.432 31.1537L133.38 21.8863C132.647 21.4628 132.052 20.4326 132.052 19.5856C132.052 18.739 132.647 18.3957 133.38 18.8192Z" fill="#EBEBEB"/>
<path d="M121.073 26.45L123.245 27.7035C123.234 27.6065 123.226 27.5102 123.226 27.416V26.7868C123.226 25.6674 124.012 25.2133 124.982 25.7734C125.374 26.0001 125.736 26.3592 126.028 26.7796C126.187 25.3719 127.291 24.8473 128.633 25.622C130.083 26.4593 131.259 28.4961 131.259 30.1707V31.1119C131.259 31.5457 131.179 31.911 131.037 32.202L132.84 33.2433C133.378 33.554 133.814 34.309 133.814 34.93C133.814 35.5509 133.378 35.8027 132.84 35.492L121.073 28.6984C120.535 28.3878 120.099 27.6327 120.099 27.0118C120.099 26.3912 120.536 26.1397 121.073 26.45Z" fill="#EBEBEB"/>
<path d="M135.008 122.902C135.542 123.315 135.484 123.902 134.836 124.274L99.3999 144.736C98.6881 145.144 97.5333 145.144 96.8223 144.734L29.0987 105.633C28.4433 105.255 28.3897 104.658 28.9473 104.247C28.3071 104.7 27.81 105.615 27.8097 106.38L27.8076 108.083C27.8052 108.905 28.3824 109.905 29.0962 110.317L96.8171 149.416C97.5313 149.828 98.6861 149.828 99.3964 149.415L134.834 128.958C135.546 128.549 136.123 127.549 136.123 126.725L136.127 125.019C136.125 124.265 135.641 123.361 135.008 122.902Z" fill="#959595"/>
<path d="M134.836 122.787L67.1121 83.6869C66.401 83.2765 65.2462 83.2765 64.5345 83.6852L29.098 104.147C28.3863 104.555 28.3869 105.223 29.098 105.633L96.8223 144.734C97.5334 145.144 98.6882 145.144 99.3999 144.736L134.836 124.274C135.548 123.865 135.547 123.198 134.836 122.787ZM125.648 119.625C126.257 119.976 126.259 120.547 125.646 120.899L93.4274 139.504C92.8161 139.854 91.8274 139.856 91.2158 139.503L38.4875 109.061C37.8758 108.708 37.8786 108.136 38.4868 107.784L70.7086 89.1806C71.3185 88.8266 71.9532 88.6233 72.5617 88.9749L125.648 119.625Z" fill="#696969"/>
<path d="M28.9468 104.247C28.3066 104.7 27.8095 105.615 27.8092 106.38L27.8071 108.083C27.8078 108.907 28.382 109.905 29.0958 110.317L96.8166 149.416C97.1737 149.622 97.6412 149.724 98.109 149.725L98.1114 145.041C97.644 145.041 97.1761 144.938 96.8221 144.734L29.0985 105.634C28.4428 105.255 28.3895 104.658 28.9468 104.247Z" fill="#696969"/>
<path d="M50.2152 95.925C50.6923 95.6494 50.6923 95.2029 50.2152 94.9274C49.738 94.6518 48.9644 94.6518 48.4872 94.9274C48.0101 95.2029 48.0101 95.6494 48.4872 95.925C48.9644 96.2005 49.738 96.2005 50.2152 95.925Z" fill="#A7A7A7"/>
<path d="M115.805 133.343C116.928 132.694 116.928 131.642 115.805 130.993C114.681 130.345 112.859 130.345 111.735 130.993C110.612 131.642 110.611 132.694 111.735 133.343C112.859 133.991 114.681 133.991 115.805 133.343Z" stroke="#E6E6E6" stroke-miterlimit="10"/>
<path d="M49.3627 99.2347L56.0332 95.3836C56.4312 95.1539 56.4512 94.793 56.078 94.5773C55.7047 94.3616 55.0793 94.3733 54.6813 94.6031L48.0108 98.4545C47.6128 98.6843 47.5929 99.0452 47.9661 99.2609C48.3393 99.4759 48.9647 99.4645 49.3627 99.2347Z" fill="#A7A7A7"/>
<path d="M72.5624 88.9757C71.9539 88.6244 71.3192 88.8274 70.7093 89.1814L38.4875 107.785C37.879 108.136 37.8765 108.708 38.4882 109.061L91.2165 139.504C91.8281 139.857 92.8168 139.854 93.4281 139.505L125.647 120.9C126.26 120.547 126.258 119.977 125.649 119.625L72.5624 88.9757Z" fill="#C6B8DB"/>
<path opacity="0.85" d="M72.5624 88.9757C71.9539 88.6244 71.3192 88.8274 70.7093 89.1814L38.4875 107.785C37.879 108.136 37.8765 108.708 38.4882 109.061L91.2165 139.504C91.8281 139.857 92.8168 139.854 93.4281 139.505L125.647 120.9C126.26 120.547 126.258 119.977 125.649 119.625L72.5624 88.9757Z" fill="white"/>
<path d="M42.1994 109.457L41.8561 109.259C41.7818 109.216 41.7818 109.146 41.8557 109.103L41.8929 109.082C41.9668 109.039 42.0869 109.039 42.1612 109.082L42.5045 109.28C42.5788 109.323 42.5788 109.393 42.5048 109.435L42.4677 109.457C42.3937 109.499 42.2733 109.499 42.1994 109.457Z" fill="#959595"/>
<path d="M42.8104 109.103L42.2173 108.761C42.143 108.718 42.143 108.648 42.2173 108.605L42.2548 108.584C42.3291 108.541 42.4492 108.541 42.5235 108.584L43.1169 108.926C43.1912 108.969 43.1912 109.039 43.1169 109.082L43.0794 109.103C43.0048 109.146 42.8847 109.146 42.8104 109.103Z" fill="#959595"/>
<path d="M43.4234 108.75L42.5806 108.263C42.5063 108.22 42.5063 108.151 42.5806 108.108L42.6178 108.087C42.6917 108.044 42.8121 108.044 42.8861 108.087L43.7289 108.574C43.8032 108.617 43.8032 108.686 43.7289 108.729L43.6918 108.75C43.6178 108.793 43.4974 108.793 43.4234 108.75Z" fill="#959595"/>
<path d="M44.0341 108.397L42.579 107.556C42.5047 107.514 42.505 107.444 42.5793 107.401L42.6168 107.38C42.6911 107.337 42.8115 107.337 42.8855 107.38L44.3392 108.22C44.4132 108.263 44.4135 108.332 44.3392 108.375L44.3021 108.396C44.2288 108.44 44.1084 108.44 44.0341 108.397Z" fill="#959595"/>
<path d="M45.7907 107.497C45.7686 107.499 45.7459 107.493 45.7232 107.48L45.5096 107.357L44.824 107.753C44.7862 107.774 44.7525 107.777 44.7222 107.759L44.6455 107.715C44.6283 107.705 44.6166 107.695 44.6114 107.688C44.6066 107.68 44.6032 107.669 44.6008 107.654L44.565 106.791C44.5646 106.776 44.5667 106.764 44.5719 106.755C44.5767 106.746 44.5897 106.736 44.6118 106.723L44.7074 106.668C44.7359 106.651 44.7621 106.643 44.7869 106.642C44.8106 106.641 44.835 106.647 44.8588 106.661L45.6049 107.092L45.7562 107.004C45.7855 106.987 45.8106 106.979 45.8323 106.978C45.855 106.978 45.8777 106.984 45.9014 106.998L45.9523 107.027C45.975 107.04 45.985 107.053 45.9836 107.066C45.9823 107.078 45.9675 107.092 45.9382 107.109L45.7869 107.197L46.0005 107.32C46.0232 107.333 46.0335 107.346 46.0308 107.359C46.028 107.371 46.0122 107.387 45.9823 107.404L45.8667 107.47C45.8381 107.487 45.813 107.496 45.7907 107.497ZM45.373 107.225L44.8409 106.918L44.8753 107.513L45.373 107.225Z" fill="#959595"/>
<path d="M46.4763 106.952C46.2269 106.964 45.9954 106.907 45.7818 106.784C45.5692 106.661 45.4729 106.528 45.4922 106.383C45.5114 106.239 45.6432 106.096 45.8867 105.955C45.9848 105.899 46.0852 105.85 46.1881 105.812C46.2906 105.772 46.3859 105.746 46.475 105.732C46.4953 105.729 46.5097 105.73 46.5186 105.735C46.5248 105.739 46.5297 105.745 46.5324 105.753L46.5634 105.843C46.5658 105.855 46.5634 105.863 46.5544 105.868C46.5496 105.87 46.5372 105.874 46.5169 105.879C46.3714 105.908 46.2304 105.962 46.0952 106.04C45.9308 106.135 45.8413 106.233 45.8279 106.334C45.8152 106.435 45.8902 106.532 46.0539 106.627C46.219 106.722 46.3869 106.766 46.5579 106.76C46.7285 106.753 46.8929 106.705 47.0518 106.613C47.11 106.579 47.1619 106.545 47.2084 106.508C47.2548 106.472 47.2882 106.439 47.3081 106.411L46.9614 106.21L46.6755 106.375C46.6466 106.392 46.6212 106.401 46.5991 106.401C46.5768 106.402 46.5541 106.395 46.53 106.381L46.4812 106.353C46.4574 106.339 46.4468 106.327 46.4492 106.315C46.4512 106.302 46.4664 106.288 46.4956 106.271L46.9521 106.008C46.9837 105.989 47.0133 105.98 47.0402 105.98C47.067 105.979 47.0942 105.987 47.1217 106.003L47.6164 106.289C47.6349 106.299 47.647 106.309 47.6518 106.317C47.6573 106.325 47.6559 106.335 47.6494 106.348C47.5892 106.466 47.4447 106.591 47.2166 106.723C46.972 106.865 46.725 106.942 46.4763 106.952Z" fill="#959595"/>
<path d="M55.9961 100.268L56.8062 100.735C56.8667 100.771 56.9651 100.771 57.026 100.735L57.8389 100.267C57.8997 100.232 57.8997 100.175 57.8392 100.14L57.0281 99.6718C56.9675 99.6367 56.8691 99.6367 56.8082 99.6718L55.9964 100.141C55.9355 100.176 55.9355 100.233 55.9961 100.268Z" fill="#959595"/>
<path d="M56.5566 99.6341C56.4689 99.5835 56.3457 99.5557 56.2088 99.5557C56.0715 99.556 55.9487 99.5835 55.8607 99.6341C55.7048 99.7246 55.7045 99.866 55.8607 99.9568L56.1393 100.118L56.3447 100.078L56.066 99.9172C55.9525 99.8512 55.9525 99.7397 56.066 99.674C56.109 99.6492 56.1623 99.6351 56.2081 99.6351C56.2559 99.6351 56.3079 99.6492 56.3505 99.674L56.6295 99.8346L56.8349 99.7951L56.5566 99.6341Z" fill="#959595"/>
<path d="M71.3167 91.0996C71.1626 91.0996 71.0243 91.1309 70.9259 91.1877L68.8705 92.3738C68.693 92.476 68.693 92.6363 68.8698 92.7384L69.6184 93.1705C69.7171 93.2276 69.8561 93.2589 70.0095 93.2589C70.0752 93.2589 70.1392 93.2531 70.1994 93.2414C70.2771 93.2262 70.3449 93.2025 70.4003 93.1705L72.4557 91.9844C72.6328 91.8819 72.6332 91.7219 72.456 91.6197L71.7078 91.1877C71.6094 91.1309 71.4705 91.0996 71.3167 91.0996ZM70.0095 93.1722C69.9538 93.1722 69.8932 93.1557 69.8437 93.1271L69.0952 92.6951C68.9648 92.6197 68.9648 92.4925 69.0955 92.4175L71.1509 91.2314C71.1829 91.2131 71.2197 91.1994 71.2565 91.1925C71.2768 91.1887 71.2968 91.1866 71.317 91.1866C71.3731 91.1866 71.4333 91.2032 71.4825 91.2314L72.2311 91.6634C72.3618 91.7388 72.3618 91.866 72.2311 91.9414L70.1757 93.1275C70.1258 93.156 70.0663 93.1722 70.0095 93.1722Z" fill="#959595"/>
<path d="M70.0704 93.0269C70.0697 93.0242 70.0563 93.019 70.0412 93.0104L69.3676 92.6217C69.2744 92.568 69.2747 92.47 69.3679 92.416L71.2176 91.3485C71.2335 91.3396 71.2469 91.3344 71.2551 91.332C71.2565 91.3348 71.2699 91.3399 71.2851 91.3485L71.9586 91.7376C72.0518 91.7913 72.0515 91.8893 71.9583 91.9433L70.1086 93.0108C70.0924 93.0197 70.079 93.0245 70.0704 93.0269Z" fill="#959595"/>
<path d="M71.8149 91.132C71.8903 91.088 72.0757 91.1241 72.2291 91.2129L72.3681 91.293C72.5219 91.3818 72.5872 91.4912 72.5143 91.5376L72.3822 91.6216L71.6787 91.2115C71.6787 91.2115 71.7396 91.1757 71.8149 91.132Z" fill="#959595"/>
<path d="M60.0578 111.347C60.5301 111.329 61.0957 111.184 61.5043 110.948C62.3437 110.463 62.5607 109.802 61.2291 108.973C61.203 109.406 60.837 109.872 60.354 110.15C59.2116 110.81 57.9112 110.979 56.8651 110.375C55.8662 109.798 56.1826 108.88 57.3261 108.22C58.6257 107.469 60.4919 107.264 62.1748 108.236C64.1174 109.357 63.6805 110.545 62.3072 111.338C61.5109 111.797 60.6712 111.991 59.9591 112.04L60.0578 111.347ZM60.5442 108.614C59.5373 108.178 58.6787 108.238 58.0285 108.614C57.483 108.928 57.3712 109.384 57.9766 109.734C58.5666 110.074 59.2604 110.027 59.9319 109.64C60.3089 109.422 60.5948 109.067 60.5442 108.614Z" fill="#959595"/>
<path d="M62.9404 106.45C63.3804 106.196 63.9752 106.152 64.3292 106.356C64.6835 106.561 64.6075 106.904 64.1668 107.158C63.7268 107.412 63.1214 107.463 62.7667 107.258C62.4131 107.054 62.5001 106.704 62.9404 106.45ZM65.6302 108.003C66.0701 107.749 66.6653 107.705 67.0192 107.909C67.3732 108.114 67.2972 108.457 66.8576 108.711C66.4172 108.966 65.8115 109.016 65.4575 108.811C65.1032 108.607 65.1898 108.257 65.6302 108.003Z" fill="#959595"/>
<path d="M66.0934 106.128C64.4023 105.151 64.402 104.135 65.7862 103.336C67.1698 102.537 68.9383 102.541 70.6215 103.513C72.3126 104.49 72.3604 105.534 70.9772 106.333C69.5929 107.132 67.7845 107.104 66.0934 106.128ZM69.4688 104.179C68.0532 103.362 67.1437 103.369 66.4939 103.744C65.8544 104.114 65.831 104.645 67.2465 105.462C68.6621 106.279 69.6294 106.293 70.2689 105.924C70.9187 105.549 70.8843 104.996 69.4688 104.179Z" fill="#959595"/>
<path d="M71.4718 103.023C69.7807 102.046 69.7807 101.029 71.1642 100.23C72.5485 99.4312 74.3173 99.4363 76.0005 100.408C77.6916 101.384 77.7391 102.428 76.3552 103.227C74.9716 104.026 73.1629 103.999 71.4718 103.023ZM74.8478 101.074C73.4322 100.256 72.5223 100.264 71.8729 100.639C71.2334 101.008 71.2096 101.54 72.6252 102.357C74.0408 103.174 75.0084 103.188 75.6479 102.819C76.2974 102.443 76.2633 101.891 74.8478 101.074Z" fill="#959595"/>
<path d="M62.8008 118.896L89.8671 103.271C90.4388 102.941 91.3659 102.941 91.9376 103.271L98.8551 107.265C99.4268 107.595 99.4268 108.13 98.8551 108.46L71.7933 124.086C71.2216 124.416 70.2945 124.416 69.7224 124.086L62.8012 120.091C62.2291 119.761 62.2291 119.226 62.8008 118.896Z" fill="#8362AA"/>
<path d="M65.6984 119.425L70.5398 122.221C70.7865 122.363 71.1869 122.363 71.4336 122.221L78.5695 118.101C78.8161 117.958 78.8161 117.727 78.5695 117.585L73.728 114.789C73.4814 114.647 73.081 114.647 72.8343 114.789L65.6987 118.909C65.4514 119.052 65.4514 119.283 65.6984 119.425Z" fill="#FAFAFA"/>
<path d="M73.0091 118.082L78.7525 117.855L73.0325 117.769L73.2623 114.683L72.3242 118.491L65.5137 119.164L71.0744 118.902L70.9368 122.325L71.3644 118.889L72.9547 118.814L73.0091 118.082Z" fill="#8362AA"/>
<path d="M76.0278 113.321L83.0213 109.299C83.3392 109.116 83.8435 109.109 84.1473 109.285C84.4513 109.46 84.44 109.751 84.1218 109.935L77.1283 113.956C76.8104 114.14 76.3061 114.146 76.002 113.971C75.6986 113.795 75.71 113.504 76.0278 113.321Z" fill="#FAFAFA"/>
<path d="M78.1796 114.563L92.3541 106.373C92.672 106.189 93.1763 106.182 93.4804 106.358C93.7845 106.534 93.7731 106.825 93.4549 107.008L79.2804 115.198C78.9625 115.382 78.4582 115.389 78.1545 115.213C77.8504 115.037 77.8617 114.746 78.1796 114.563Z" fill="#FAFAFA"/>
<path d="M80.3315 115.805L94.506 107.615C94.8239 107.431 95.3282 107.425 95.6319 107.6C95.936 107.775 95.9247 108.067 95.6065 108.25L81.4319 116.44C81.1141 116.624 80.6098 116.63 80.306 116.455C80.0023 116.279 80.0136 115.988 80.3315 115.805Z" fill="#FAFAFA"/>
<path d="M59.7002 62.4497L105.583 35.959L107.419 37.0188C107.894 37.293 108.282 37.9655 108.282 38.5139V72.3611C108.282 72.9091 107.894 73.5819 107.419 73.8561L63.2623 99.3499C62.7876 99.6241 62.0108 99.6241 61.5361 99.3499L60.5633 98.7882C60.0886 98.514 59.7002 97.8415 59.7002 97.2931V62.4497Z" fill="#C6B8DB"/>
<path opacity="0.05" d="M59.7002 62.4497L105.583 35.959L107.419 37.0188C107.894 37.293 108.282 37.9655 108.282 38.5139V72.3611C108.282 72.9091 107.894 73.5819 107.419 73.8561L63.2623 99.3499C62.7876 99.6241 62.0108 99.6241 61.5361 99.3499L60.5633 98.7882C60.0886 98.514 59.7002 97.8415 59.7002 97.2931V62.4497Z" fill="#A7A7A7"/>
<path d="M105.33 32.9838L105.518 32.8816L104.805 32.4674V32.4681C104.743 32.4324 104.68 32.4017 104.615 32.3777L84.4223 24.895C83.8877 24.6968 83.1935 24.9177 82.8715 25.3879L60.2828 58.3755C59.9608 58.8457 59.6997 59.6888 59.6997 60.2589C59.6997 61.2014 59.6997 62.4498 59.6997 62.4498L60.3997 62.8564L105.583 35.9594V33.7681C105.583 33.5012 105.486 33.2246 105.33 32.9838Z" fill="#C6B8DB"/>
<path opacity="0.1" d="M83.8067 25.5475C83.7172 25.6163 83.6381 25.7023 83.5728 25.7952L60.9823 58.7814C60.8172 59.0256 60.6658 59.3696 60.5626 59.7239L59.8608 59.318C59.9124 59.146 59.9744 58.9774 60.0432 58.8192C60.0466 58.8123 60.0466 58.8089 60.05 58.8054C60.081 58.7366 60.112 58.6713 60.1464 58.6059C60.1532 58.5956 60.1567 58.5853 60.1636 58.575C60.2014 58.5027 60.2427 58.4339 60.284 58.3754L82.871 25.3893C82.9054 25.3377 82.9432 25.2964 82.9845 25.2517C83.0224 25.2138 83.0636 25.176 83.1049 25.1416L83.8067 25.5475Z" fill="#A7A7A7"/>
<path opacity="0.35" d="M105.51 32.8781C105.448 32.8403 105.383 32.8093 105.318 32.7852L85.1213 25.2998C84.6947 25.1415 84.165 25.2516 83.8072 25.5475L83.1055 25.1415C83.4667 24.8491 83.993 24.7356 84.423 24.8939L104.616 32.3759C104.681 32.3999 104.743 32.4309 104.805 32.4687L105.51 32.8781Z" fill="white"/>
<path d="M60.1626 58.5735C60.2015 58.5019 60.2417 58.4352 60.283 58.375C60.2417 58.4352 60.2015 58.5023 60.1626 58.5735Z" fill="#C6B8DB"/>
<path d="M82.9854 25.2513C83.0235 25.2125 83.0638 25.176 83.1064 25.1416C83.0638 25.176 83.0225 25.2118 82.9854 25.2513Z" fill="#C6B8DB"/>
<path d="M59.8599 59.3189C59.9115 59.1462 59.9741 58.9759 60.0436 58.8184C59.9737 58.9763 59.9118 59.1458 59.8599 59.3189Z" fill="#C6B8DB"/>
<path opacity="0.2" d="M60.0435 58.8174C60.0455 58.8127 60.0471 58.8081 60.0491 58.8037C60.0471 58.8081 60.0455 58.8131 60.0435 58.8174Z" fill="#A7A7A7"/>
<path opacity="0.2" d="M60.146 58.6067C60.1516 58.5959 60.1568 58.5837 60.1627 58.5732C60.1568 58.5837 60.1519 58.5959 60.146 58.6067Z" fill="#A7A7A7"/>
<path opacity="0.2" d="M82.8716 25.3878C82.905 25.3393 82.9445 25.295 82.9851 25.252C82.9435 25.2939 82.905 25.339 82.8716 25.3878Z" fill="#A7A7A7"/>
<path d="M83.5717 25.7942L60.983 58.7817C60.661 59.2519 60.3999 60.0951 60.3999 60.6651C60.3999 61.6077 60.3999 62.8557 60.3999 62.8557L106.284 36.3632L106.283 34.1743C106.283 33.6043 105.85 32.9817 105.316 32.7839L85.1225 25.3012C84.5879 25.1031 83.8937 25.3239 83.5717 25.7942Z" fill="#C6B8DB"/>
<path d="M65.3928 94.7424L63.9225 93.8913H63.9187L63.9039 93.8803V93.8765C63.6865 93.7403 63.5503 93.4675 63.5503 93.0733V47.215C63.5503 46.7912 63.7123 46.3158 63.9631 45.9033L65.4591 46.7657C65.2049 47.1785 65.0463 47.6536 65.0463 48.0812V93.9395C65.0463 94.3261 65.1791 94.6061 65.3928 94.7424Z" fill="#E0E0E0"/>
<path d="M66.3141 45.8918L103.168 24.6161C103.866 24.2129 104.432 24.5397 104.432 25.3457V71.2026C104.432 72.0086 103.867 72.989 103.168 73.3922L66.3148 94.6679C65.6169 95.071 65.0506 94.7442 65.0506 93.9383L65.0503 48.0813C65.0503 47.2753 65.6162 46.2949 66.3141 45.8918Z" fill="#F0F0F0"/>
<path d="M102.568 23.6659L104.012 24.5025C103.788 24.3993 103.493 24.4252 103.167 24.6233L66.3115 45.8935C65.9813 46.0748 65.6841 46.3971 65.4594 46.7655L63.9634 45.9031C64.1846 45.5347 64.4866 45.2179 64.8144 45.0263L101.669 23.7509C102.023 23.5483 102.34 23.5297 102.568 23.6697V23.6659Z" fill="#FAFAFA"/>
<path d="M69.1876 48.2916L99.837 30.5958C100.248 30.3585 100.582 30.5271 100.582 30.9725C100.582 31.418 100.248 31.9718 99.8367 32.2092L69.1876 49.9046C68.7762 50.1419 68.4429 49.9734 68.4429 49.5279C68.4429 49.0828 68.7762 48.5289 69.1876 48.2916Z" fill="#E0E0E0"/>
<path d="M69.1876 51.508L99.837 33.8126C100.248 33.5753 100.582 33.7438 100.582 34.1893C100.582 34.6348 100.248 35.1886 99.8367 35.426L69.1876 53.1214C68.7762 53.3587 68.4429 53.1902 68.4429 52.7447C68.4429 52.2992 68.7762 51.7454 69.1876 51.508Z" fill="#E0E0E0"/>
<path d="M69.1876 54.7238L99.837 37.0285C100.248 36.7911 100.582 36.9597 100.582 37.4051C100.582 37.8506 100.248 38.4045 99.8367 38.6418L69.1876 56.3372C68.7762 56.5745 68.4429 56.406 68.4429 55.9605C68.4429 55.515 68.7762 54.9612 69.1876 54.7238Z" fill="#E0E0E0"/>
<path d="M69.1876 57.9396L99.837 40.2443C100.248 40.0069 100.582 40.1755 100.582 40.621C100.582 41.0664 100.248 41.6203 99.8367 41.8576L69.1876 59.553C68.7762 59.7904 68.4429 59.6218 68.4429 59.1763C68.4429 58.7308 68.7762 58.1774 69.1876 57.9396Z" fill="#E0E0E0"/>
<path d="M69.1876 61.1564L99.837 43.4611C100.248 43.2237 100.582 43.3923 100.582 43.8378C100.582 44.2832 100.248 44.8371 99.8367 45.0744L69.1876 62.7698C68.7762 63.0072 68.4429 62.8386 68.4429 62.3931C68.4429 61.9476 68.7762 61.3941 69.1876 61.1564Z" fill="#E0E0E0"/>
<path d="M69.1876 64.3726L99.837 46.6769C100.248 46.4395 100.582 46.6081 100.582 47.0536C100.582 47.4991 100.248 48.0529 99.8367 48.2903L69.1876 65.9856C68.7762 66.223 68.4429 66.0544 68.4429 65.6089C68.4429 65.1635 68.7762 64.61 69.1876 64.3726Z" fill="#E0E0E0"/>
<path d="M69.1876 67.5884L99.837 49.8927C100.248 49.6554 100.582 49.8239 100.582 50.2694C100.582 50.7149 100.248 51.2687 99.8367 51.5061L69.1876 69.2014C68.7762 69.4388 68.4429 69.2702 68.4429 68.8248C68.4429 68.3793 68.7762 67.8258 69.1876 67.5884Z" fill="#E0E0E0"/>
<path d="M69.1876 70.8043L99.837 53.1085C100.248 52.8712 100.582 53.0397 100.582 53.4852C100.582 53.9307 100.248 54.4845 99.8367 54.7219L69.1876 72.4173C68.7762 72.6546 68.4429 72.4861 68.4429 72.0406C68.4429 71.5955 68.7762 71.0416 69.1876 70.8043Z" fill="#E0E0E0"/>
<path d="M107.118 72.8121C107.104 72.8362 107.091 72.8568 107.07 72.8809L87.9497 64.4003C86.4481 63.7333 84.69 64.2764 83.8176 65.6721L63.3767 98.4707L62.621 98.9073L62.6141 98.9107C62.385 99.038 62.1796 99.0552 62.0293 98.9761L83.0515 65.2424C83.9239 63.8468 85.6851 63.3036 87.1867 63.9668L107.118 72.8121Z" fill="#C6B8DB"/>
<path opacity="0.4" d="M81.9356 68.6542L81.9838 68.6129L63.3768 98.4721L62.62 98.909L62.6131 98.9124C62.3861 99.0397 62.1797 99.0535 62.0283 98.9778L81.1994 68.2139L81.9356 68.6542Z" fill="white"/>
<path opacity="0.4" d="M107.12 72.8132C107.106 72.8373 107.092 72.858 107.072 72.882L87.9488 64.399C86.4489 63.7316 84.6911 64.2752 83.8173 65.6718L83.0605 65.2315C83.9343 63.8417 85.6887 63.3051 87.1885 63.9656L107.12 72.8132Z" fill="white"/>
<path d="M108.266 38.2975H108.263C108.222 38.0499 108.091 37.9811 107.922 38.098C107.857 38.1427 107.781 38.2184 107.702 38.3251L107.606 38.4592L88.7376 64.7271L85.9202 68.6521C85.6037 69.0993 84.9088 69.3573 84.3688 69.2335L81.9367 68.6555L63.371 64.2386C63.2368 64.2076 63.1096 64.2042 62.9926 64.2248C62.9444 64.2351 62.8963 64.2489 62.8516 64.2695L63.3641 63.9737L81.2624 68.229L83.6945 68.8069C84.2312 68.9342 84.926 68.6762 85.246 68.2255L88.0633 64.3039L107.025 37.9019C107.087 37.8159 107.162 37.754 107.238 37.7059L105.597 36.7599L106.285 36.3643L107.42 37.0179C107.833 37.2587 108.18 37.7987 108.266 38.2975Z" fill="#C6B8DB"/>
<path opacity="0.4" d="M88.7364 64.7266L85.9191 68.6516C85.6026 69.0988 84.9077 69.3568 84.3676 69.233L81.9355 68.655L81.9837 68.6138L82.1007 68.428L83.6934 68.8064C84.23 68.9337 84.9249 68.6757 85.2448 68.225L88.0347 64.3447L88.7364 64.7266Z" fill="white"/>
<path opacity="0.1" d="M107.419 37.0169L106.284 36.3633L105.596 36.7589L107.237 37.7049C107.238 37.7059 107.24 37.7069 107.241 37.708L107.238 37.7063C107.156 37.7582 107.083 37.8218 107.025 37.9023L88.0622 64.303L88.0347 64.3408V64.3442L88.7364 64.7261L107.605 38.4582L107.701 38.3241C107.78 38.2174 107.856 38.1418 107.921 38.097C108.09 37.9801 108.221 38.0489 108.262 38.2966H108.265C108.179 37.7978 107.832 37.2577 107.419 37.0169Z" fill="#A7A7A7"/>
<path d="M63.748 64.7884L59.7002 62.4502V97.294C59.7002 97.8423 60.0886 98.5148 60.5633 98.789L61.5361 99.3507C62.0108 99.6249 62.7879 99.6249 63.2623 99.3507L63.748 99.0704V64.7884Z" fill="#C6B8DB"/>
<path opacity="0.15" d="M63.748 64.7884L59.7002 62.4502V97.294C59.7002 97.8423 60.0886 98.5148 60.5633 98.789L61.5361 99.3507C62.0108 99.6249 62.7879 99.6249 63.2623 99.3507L63.748 99.0704V64.7884Z" fill="#A7A7A7"/>
<path d="M107.606 38.46V71.938C107.606 72.2201 107.506 72.5366 107.338 72.8118C107.203 73.0388 107.028 73.2418 106.832 73.376L106.801 73.3966C106.78 73.4104 106.763 73.4241 106.742 73.4344L62.5866 98.9248L62.5798 98.9283C62.5213 98.9627 62.4662 98.9902 62.4112 99.0074C62.4043 98.9592 62.4009 98.9076 62.4009 98.8526V65.003C62.4009 64.456 62.8309 64.112 63.371 64.2393L81.9366 68.6563L84.3687 69.2342C84.9088 69.358 85.6037 69.1 85.9202 68.6528L88.7375 64.7278L107.606 38.46Z" fill="#959595"/>
<path d="M108.284 38.5144V72.3606C108.284 72.6461 108.18 72.9591 108.015 73.2343C107.878 73.4614 107.706 73.6643 107.51 73.8019L107.475 73.8191C107.455 73.8329 107.441 73.8466 107.42 73.857L63.2643 99.3474L63.2574 99.3508C63.027 99.4815 62.8206 99.4987 62.6692 99.4196C62.535 99.3508 62.4422 99.2098 62.4112 99.0068C62.4043 98.9586 62.4009 98.907 62.4009 98.852V65.0024C62.4009 64.4554 62.8309 64.1114 63.371 64.2387L81.9366 68.6557L84.3687 69.2336C84.9088 69.3574 85.6037 69.0994 85.9202 68.6522L88.7375 64.7272L107.606 38.4594L107.702 38.3252C108.022 37.8814 108.284 37.964 108.284 38.5144Z" fill="#C6B8DB"/>
<path d="M107.42 73.8579C107.44 73.848 107.456 73.8345 107.477 73.8215L107.51 73.8015C107.706 73.6653 107.878 73.4627 108.015 73.2367C108.178 72.9656 108.279 72.656 108.283 72.3774L88.7393 64.7285L101.827 77.0871L107.42 73.8579Z" fill="#C6B8DB"/>
<path opacity="0.2" d="M107.42 73.8579C107.44 73.848 107.456 73.8345 107.477 73.8215L107.51 73.8015C107.706 73.6653 107.878 73.4627 108.015 73.2367C108.178 72.9656 108.279 72.656 108.283 72.3774L88.7393 64.7285L101.827 77.0871L107.42 73.8579Z" fill="#A7A7A7"/>
<path d="M62.4002 98.8509C62.4002 99.1368 62.5031 99.3325 62.6693 99.4192C62.822 99.499 63.028 99.4825 63.2575 99.3528L63.264 99.3494L78.4664 90.5729L81.9381 68.6553L62.3999 98.2888L62.4002 98.8509Z" fill="#C6B8DB"/>
<path opacity="0.15" d="M83.8105 65.6683L62.6682 99.4182C62.5031 99.3322 62.3999 99.1361 62.3999 98.8506V98.2898L81.055 68.4444L81.1995 68.2139L83.0537 65.2418C83.0537 65.2383 83.0571 65.2349 83.0605 65.2314L83.8105 65.6683Z" fill="#A7A7A7"/>
<path d="M108.014 73.2363C107.878 73.4623 107.705 73.6649 107.509 73.8011L107.476 73.8211L63.2637 99.3493L63.2572 99.3528C63.0281 99.4824 62.822 99.4989 62.6689 99.4191L83.8132 65.6635C84.6898 64.2644 86.4603 63.7212 87.9705 64.3879L108.014 73.2363Z" fill="#C6B8DB"/>
<path d="M108.015 73.2362C107.88 73.4632 107.705 73.6662 107.509 73.8004L107.478 73.821L63.2636 99.3492L63.2567 99.3527C63.0297 99.48 62.8233 99.4972 62.6685 99.418L63.2567 98.4824L106.707 73.391L106.742 73.3704C106.917 73.2465 107.075 73.0711 107.199 72.875L108.015 73.2362Z" fill="#C6B8DB"/>
<path opacity="0.15" d="M59.8609 59.3184L60.5627 59.7243C60.4629 60.0545 60.401 60.3916 60.401 60.6668C60.401 61.6094 60.401 62.8547 60.401 62.8547L59.6992 62.4488C59.6992 62.4488 59.6992 61.2 59.6992 60.2575C59.6992 59.9857 59.7615 59.6486 59.8609 59.3184Z" fill="#A7A7A7"/>
<path d="M64.012 64.1284L63.3642 63.9746L62.8516 64.2704L62.143 63.8611L60.3989 62.8566L61.0766 62.4541L64.012 64.1284Z" fill="#C6B8DB"/>
<path opacity="0.1" d="M64.0135 64.128L64.0094 64.127L61.0771 62.4541L60.3994 62.8566L62.1435 63.8611L62.8521 64.2704L62.8594 64.2663C62.9017 64.2477 62.9467 64.234 62.9918 64.2243C63.1088 64.2037 63.236 64.2071 63.3702 64.2381L64.7978 64.5786L81.0552 68.4452L81.1997 68.2147L64.0135 64.128Z" fill="#A7A7A7"/>
<path d="M116.443 65.4785L113.178 63.5865C113.177 63.5858 113.175 63.5851 113.174 63.5844L113.145 63.5676L113.142 63.5724C111.717 62.7678 109.761 62.8892 107.598 64.1376C103.242 66.6529 99.71 72.7696 99.71 77.7999C99.71 80.3108 100.591 82.0755 102.013 82.9014V82.9024L102.02 82.9062L102.021 82.9069L104.997 84.6145L105.695 83.4473C106.416 83.2819 107.165 83.0246 107.957 82.5674C112.313 80.0524 115.845 73.9354 115.846 68.9051C115.846 68.1579 115.746 67.5002 115.598 66.8903L116.443 65.4785Z" fill="#9A81BB"/>
<path opacity="0.15" d="M100.008 75.1504C99.8152 76.05 99.71 76.9413 99.71 77.8006C99.71 80.3114 100.591 82.0761 102.013 82.9021V82.9031L102.02 82.9069L102.021 82.9076L104.997 84.6152L105.695 83.448C106.415 83.2826 107.165 83.0252 107.957 82.5681C108.703 82.1374 109.423 81.5994 110.107 80.9812L100.008 75.1504Z" fill="#A7A7A7"/>
<path d="M110.703 65.927C106.347 68.442 102.815 74.559 102.814 79.5893C102.814 84.6197 106.346 86.6585 110.702 84.1432C115.059 81.6282 118.591 75.5112 118.591 70.4809C118.591 65.4506 115.059 63.4117 110.703 65.927Z" fill="#A892C5"/>
<path d="M113.819 72.9317V70.9991C113.819 68.794 112.479 67.7806 110.825 68.7352C109.171 69.6902 107.83 72.2516 107.83 74.4566V76.1838C107.83 77.2702 107.453 78.5048 106.822 79.5571C106.821 79.5595 106.819 79.5619 106.818 79.5643C106.668 79.8351 106.573 80.1539 106.573 80.4477C106.573 81.0033 106.911 81.2585 107.328 81.0181L114.322 76.9799C114.738 76.7394 115.076 76.0941 115.076 75.5385C115.076 75.2609 114.992 75.0579 114.855 74.9547C114.852 74.9523 114.848 74.9499 114.844 74.9478C114.226 74.6696 113.819 73.9723 113.819 72.9317Z" fill="white"/>
<path d="M112.263 78.7666C112.263 79.8251 111.619 81.0549 110.825 81.5134C110.031 81.972 109.388 81.4852 109.388 80.4267L112.263 78.7666Z" fill="white"/>
<path d="M29.9328 130.37L29.9283 131.578C29.918 132.998 30.8485 134.422 32.7209 135.512C35.5407 137.153 39.689 137.566 43.1668 136.747L46.3877 138.622L48.8693 138.07L50.558 139.053L50.643 141.099L51.5528 141.629L53.8422 141.838L55.4844 142.762L55.4803 143.915L57.5412 145.115L62.7927 145.134L64.6792 144.054L64.6837 142.835L47.9174 134.297C48.6942 133.479 49.0853 132.57 49.0905 131.661L49.095 130.44C48.8466 129.26 47.8665 128.648 46.3017 127.737C42.5672 125.563 36.4994 125.541 32.7491 127.688C31.0632 128.653 30.1068 129.1 29.9328 130.37ZM35.0821 128.977C36.1444 128.369 37.8634 128.375 38.9212 128.991C39.9793 129.607 39.9755 130.599 38.9132 131.207C37.851 131.816 36.132 131.809 35.0742 131.194C34.0161 130.578 34.0198 129.585 35.0821 128.977Z" fill="#9A81BB"/>
<path opacity="0.2" d="M29.9328 130.37L29.9283 131.578C29.918 132.998 30.8485 134.422 32.7209 135.512C35.5407 137.153 39.689 137.566 43.1668 136.747L46.3877 138.622L48.8693 138.07L50.558 139.053L50.643 141.099L51.5528 141.629L53.8422 141.838L55.4844 142.762L55.4803 143.915L57.5412 145.115L62.7927 145.134L64.6792 144.054L64.6837 142.835L47.9174 134.297C48.6942 133.479 49.0853 132.57 49.0905 131.661L49.095 130.44C48.8466 129.26 47.8665 128.648 46.3017 127.737C42.5672 125.563 36.4994 125.541 32.7491 127.688C31.0632 128.653 30.1068 129.1 29.9328 130.37ZM35.0821 128.977C36.1444 128.369 37.8634 128.375 38.9212 128.991C39.9793 129.607 39.9755 130.599 38.9132 131.207C37.851 131.816 36.132 131.809 35.0742 131.194C34.0161 130.578 34.0198 129.585 35.0821 128.977Z" fill="#7A7A7A"/>
<path d="M32.7253 134.293C35.5451 135.934 39.6934 136.347 43.1712 135.528L46.3921 137.403L48.8737 136.851L50.5624 137.834L50.6474 139.88L51.5573 140.41L53.8466 140.619L55.6285 141.622L55.485 142.696L57.546 143.896L62.7978 143.915L64.6843 142.835L47.9229 133.077C49.9085 130.986 49.3753 128.304 46.3068 126.517C42.5723 124.343 36.5045 124.321 32.7546 126.468C29.0032 128.615 28.9905 132.118 32.7253 134.293ZM35.0865 127.758C36.1488 127.15 37.8678 127.156 38.9256 127.772C39.9837 128.387 39.9799 129.38 38.9177 129.988C37.8554 130.597 36.1364 130.59 35.0786 129.975C34.0205 129.359 34.0243 128.366 35.0865 127.758Z" fill="#9A81BB"/>
<path opacity="0.3" d="M32.7253 134.293C35.5451 135.934 39.6934 136.347 43.1712 135.528L46.3921 137.403L48.8737 136.851L50.5624 137.834L50.6474 139.88L51.5573 140.41L53.8466 140.619L55.6285 141.622L55.485 142.696L57.546 143.896L62.7978 143.915L64.6843 142.835L47.9229 133.077C49.9085 130.986 49.3753 128.304 46.3068 126.517C42.5723 124.343 36.5045 124.321 32.7546 126.468C29.0032 128.615 28.9905 132.118 32.7253 134.293ZM35.0865 127.758C36.1488 127.15 37.8678 127.156 38.9256 127.772C39.9837 128.387 39.9799 129.38 38.9177 129.988C37.8554 130.597 36.1364 130.59 35.0786 129.975C34.0205 129.359 34.0243 128.366 35.0865 127.758Z" fill="white"/>
<g opacity="0.2">
<path d="M49.0663 130.793L39.6145 129.302C39.8691 128.776 39.641 128.188 38.9255 127.771C37.8674 127.156 36.1487 127.149 35.0865 127.758C34.728 127.963 34.4931 128.212 34.3758 128.476L30.9258 127.931C31.3799 127.402 31.9874 126.907 32.7535 126.468C32.8622 126.406 32.9795 126.351 33.0919 126.293L48.6414 128.746C49.0061 129.41 49.1457 130.105 49.0663 130.793Z" fill="white"/>
<path d="M30.4665 132.208C29.7648 131.044 29.7569 129.773 30.438 128.609L34.363 129.229C34.4745 129.501 34.7108 129.761 35.0779 129.974C36.136 130.59 37.8546 130.597 38.9169 129.988C38.9355 129.977 38.951 129.966 38.9688 129.955L48.8987 131.522C48.7106 132.06 48.3883 132.585 47.9211 133.077L52.3608 135.662L30.4665 132.208Z" fill="white"/>
</g>
<path d="M33.28 133.34C31.8493 132.507 31.0309 131.426 31.0347 130.374C31.0385 129.323 31.8648 128.247 33.3013 127.424C34.9504 126.48 37.1634 125.965 39.5318 125.974C41.9003 125.982 44.1094 126.513 45.7517 127.469C47.1824 128.302 48.0004 129.383 47.9966 130.435C47.9928 131.487 47.1669 132.562 45.73 133.385C44.0809 134.329 41.8683 134.844 39.4995 134.836C37.1311 134.827 34.9219 134.296 33.28 133.34ZM33.4723 127.723C32.1455 128.483 31.3825 129.45 31.379 130.375C31.3756 131.301 32.1317 132.273 33.453 133.043C35.0437 133.969 37.1916 134.483 39.5009 134.491C41.8101 134.499 43.9619 134.001 45.559 133.087C46.8859 132.327 47.6489 131.36 47.6523 130.434C47.6557 129.509 46.9 128.537 45.5783 127.767C43.9877 126.841 41.8397 126.327 39.5305 126.319C37.2215 126.31 35.0698 126.809 33.4723 127.723Z" fill="#9A81BB"/>
<path opacity="0.1" d="M36.0479 135.553L36.0435 136.772C38.3311 137.29 40.8921 137.282 43.1667 136.746L43.1711 135.527C40.8966 136.063 38.3355 136.071 36.0479 135.553Z" fill="#7A7A7A"/>
<path opacity="0.1" d="M46.3917 137.402L46.3872 138.622L48.8692 138.07L48.8733 136.851L46.3917 137.402Z" fill="#7A7A7A"/>
<path opacity="0.1" d="M50.5626 137.834L50.5581 139.054L50.6431 141.1L50.6475 139.88L50.5626 137.834Z" fill="#7A7A7A"/>
<path opacity="0.1" d="M51.5569 140.409L51.5527 141.629L53.8417 141.838L53.8462 140.619L51.5569 140.409Z" fill="#7A7A7A"/>
<path opacity="0.1" d="M57.5459 143.894L57.5415 145.113L62.7934 145.132L62.7977 143.913L57.5459 143.894Z" fill="#7A7A7A"/>
<path opacity="0.15" d="M64.6831 142.836L64.679 144.056L62.7925 145.135L62.797 143.915L63.6236 143.442L63.6215 143.968L64.078 143.707L64.0797 143.175L64.6831 142.836Z" fill="#7A7A7A"/>
<path d="M64.0798 143.175L63.6237 143.441L63.6216 143.968L64.0781 143.707L64.0798 143.175Z" fill="#9A81BB"/>
<path opacity="0.3" d="M64.0798 143.175L63.6237 143.441L63.6216 143.968L64.0781 143.707L64.0798 143.175Z" fill="white"/>
<path d="M64.0797 143.175L64.078 143.707L46.8887 133.698L47.3452 133.432L64.0797 143.175Z" fill="#9A81BB"/>
<path opacity="0.15" d="M47.3452 133.432L47.3431 133.963L46.8887 133.698L47.3452 133.432Z" fill="#7A7A7A"/>
</svg>
