<svg width="24" height="15" viewBox="0 0 24 15" fill="none" xmlns="http://www.w3.org/2000/svg">
<path d="M0.75 0H23.25V15H0.75V0Z" fill="white"/>
<path d="M6.375 0H23.25V15H6.375V0Z" fill="#01411C"/>
<path d="M14.8125 12C17.2978 12 19.3125 9.98528 19.3125 7.5C19.3125 5.01472 17.2978 3 14.8125 3C12.3272 3 10.3125 5.01472 10.3125 7.5C10.3125 9.98528 12.3272 12 14.8125 12Z" fill="white"/>
<path d="M18.7033 9.56065C20.4061 8.0471 20.5594 5.4398 19.0459 3.73708C17.5323 2.03436 14.925 1.88101 13.2223 3.39456C11.5196 4.90812 11.3662 7.51541 12.8798 9.21813C14.3933 10.9208 17.0006 11.0742 18.7033 9.56065Z" fill="#01411C"/>
<path d="M16.4522 4.17745L17.161 4.91325L18.0799 4.46646L17.5991 5.36799L18.308 6.10379L17.302 5.92517L16.8213 6.82671L16.6803 5.81478L15.6743 5.63617L16.5931 5.18938L16.4522 4.17745Z" fill="white"/>
</svg>
