<svg width="48" height="60" viewBox="0 0 48 60" fill="none" xmlns="http://www.w3.org/2000/svg">
<path d="M47.3332 57.5C47.3332 58.8825 46.1717 60 44.7406 60H41.5102C39.2054 60 37.1572 58.5075 36.5247 56.3725L32.9521 44.3125C32.6358 43.245 31.6091 42.5 30.458 42.5H18.8147C14.5265 42.5 11.0369 39.135 11.0369 35V20C11.0369 18.6175 12.1984 17.5 13.6295 17.5C15.0606 17.5 16.2221 18.6175 16.2221 20V25H31.7776C33.2087 25 34.3702 26.1175 34.3702 27.5C34.3702 28.8825 33.2087 30 31.7776 30H16.2221V35C16.2221 36.38 17.3861 37.5 18.8147 37.5H30.458C33.9113 37.5 36.9887 39.7375 37.9376 42.9375L41.5102 55H44.7406C46.1717 55 47.3332 56.1175 47.3332 57.5ZM14.9258 12.5C18.5009 12.5 21.4072 9.6975 21.4072 6.25C21.4072 2.8025 18.5009 0 14.9258 0C11.3506 0 8.44428 2.8025 8.44428 6.25C8.44428 9.6975 11.3506 12.5 14.9258 12.5ZM26.5924 47.5H18.8147C11.6669 47.5 5.85169 41.8925 5.85169 35V20C5.85169 18.6175 4.69021 17.5 3.2591 17.5C1.82799 17.5 0.666504 18.6175 0.666504 20V35C0.666504 44.6475 8.80725 52.5 18.8147 52.5H26.5924C28.0235 52.5 29.185 51.3825 29.185 50C29.185 48.6175 28.0235 47.5 26.5924 47.5Z" fill="#9E9FA4"/>
</svg>
