<svg width="172" height="172" viewBox="0 0 172 172" fill="none" xmlns="http://www.w3.org/2000/svg">
<path d="M172 131.545H0V131.631H172V131.545Z" fill="#EEEEEE"/>
<path d="M108.589 133.888H99.8315V133.974H108.589V133.888Z" fill="#EEEEEE"/>
<path d="M156.673 135.749H135.918V135.835H156.673V135.749Z" fill="#EEEEEE"/>
<path d="M97.9684 133.931H76.5259V134.017H97.9684V133.931Z" fill="#EEEEEE"/>
<path d="M62.6223 136.504H58.1362V136.59H62.6223V136.504Z" fill="#EEEEEE"/>
<path d="M87.4048 136.504H66.9795V136.59H87.4048V136.504Z" fill="#EEEEEE"/>
<path d="M31.2741 135.052H18.0459V135.138H31.2741V135.052Z" fill="#EEEEEE"/>
<path d="M81.5327 116.203H15.1066C14.0241 116.203 13.1431 115.322 13.1431 114.239V20.8669C13.1431 19.7843 14.0241 18.9033 15.1066 18.9033H81.5327C82.6149 18.9033 83.4959 19.7843 83.4959 20.8669V114.239C83.4959 115.322 82.6149 116.203 81.5327 116.203ZM15.1066 18.9897C14.0712 18.9897 13.2291 19.8318 13.2291 20.8672V114.24C13.2291 115.275 14.0712 116.117 15.1066 116.117H81.5327C82.5678 116.117 83.4099 115.275 83.4099 114.24V20.8669C83.4099 19.8318 82.5678 18.9893 81.5327 18.9893L15.1066 18.9897Z" fill="#EEEEEE"/>
<path d="M155.939 116.203H89.513C88.4304 116.203 87.5498 115.322 87.5498 114.239V20.8669C87.5498 19.7843 88.4308 18.9033 89.513 18.9033H155.939C157.022 18.9033 157.902 19.7843 157.902 20.8669V114.239C157.903 115.322 157.022 116.203 155.939 116.203ZM89.513 18.9897C88.4779 18.9897 87.6358 19.8318 87.6358 20.8672V114.24C87.6358 115.275 88.4779 116.117 89.513 116.117H155.939C156.974 116.117 157.816 115.275 157.816 114.24V20.8669C157.816 19.8318 156.974 18.9893 155.939 18.9893L89.513 18.9897Z" fill="#EEEEEE"/>
<path d="M67.4107 101.71H44.5688L43.1821 85.7139H66.0241L67.4107 101.71Z" fill="#EEEEEE"/>
<path d="M68.594 101.71H45.7524L44.3657 85.7139H67.2073L68.594 101.71Z" fill="#F3F3F3"/>
<path d="M48.8744 98.2744L48.1128 89.1484H64.0847L64.846 98.2744H48.8744Z" fill="white"/>
<path d="M72.5463 101.71H69.8662V131.545H72.5463V101.71Z" fill="#EEEEEE"/>
<path d="M73.3921 101.71H71.5308V131.545H73.3921V101.71Z" fill="#F3F3F3"/>
<path d="M47.4514 105.003H73.3921V101.71H47.4514V105.003Z" fill="#F3F3F3"/>
<path d="M48.3681 105.003H45.688V131.545H48.3681V105.003Z" fill="#EEEEEE"/>
<path d="M49.2139 105.003H47.3525V131.545H49.2139V105.003Z" fill="#F3F3F3"/>
<path d="M29.2909 105.003H26.6108V131.545H29.2909V105.003Z" fill="#EEEEEE"/>
<path d="M30.1368 105.003H28.2754V131.545H30.1368V105.003Z" fill="#F3F3F3"/>
<path d="M55.5859 105.003H52.9058V131.545H55.5859V105.003Z" fill="#EEEEEE"/>
<path d="M56.4317 105.003H54.5703V131.545H56.4317V105.003Z" fill="#F3F3F3"/>
<path d="M47.451 101.711H26.6108V105.004H47.451V101.711Z" fill="#EEEEEE"/>
<path d="M125.16 27.3184H44.5508V72.1952H125.16V27.3184Z" fill="#E0E0E0"/>
<path d="M129.587 27.3184H44.9575V72.1952H129.587V27.3184Z" fill="#F3F3F3"/>
<path d="M128.205 70.8126V28.7012L46.3408 28.7012L46.3408 70.8126L128.205 70.8126Z" fill="white"/>
<path d="M79.4866 70.8126L94.9425 28.7012H69.4349L53.979 70.8126H79.4866Z" fill="#F3F3F3"/>
<path d="M104.04 70.8126L119.495 28.7012H100.253L84.7979 70.8126H104.04Z" fill="#F3F3F3"/>
<path d="M150.711 88.6846H143.858V131.545H150.711V88.6846Z" fill="#EEEEEE"/>
<path d="M148.909 131.545H150.71V128.245H147.02L148.909 131.545Z" fill="#F3F3F3"/>
<path d="M87.5323 88.6846H80.6802V131.545H87.5323V88.6846Z" fill="#EEEEEE"/>
<path d="M150.71 88.6846H85.96V130.655H150.71V88.6846Z" fill="#F3F3F3"/>
<path d="M149.485 102.227H87.1855V90.373H149.485V102.227ZM87.5295 101.883H149.141V90.717H87.5295V101.883Z" fill="#EEEEEE"/>
<path d="M138.517 96.1282H99.3627C97.5443 96.1282 95.7937 94.6614 94.5604 92.1041L94.4414 91.8574H143.439L143.32 92.1041C142.087 94.6614 140.336 96.1282 138.517 96.1282ZM94.9925 92.2014C96.1566 94.4825 97.739 95.7842 99.3627 95.7842H138.517C140.141 95.7842 141.724 94.4825 142.888 92.2014H94.9925Z" fill="#EEEEEE"/>
<path d="M87.7618 131.545H85.96V128.245H89.6507L87.7618 131.545Z" fill="#F3F3F3"/>
<path d="M149.485 115.597H87.1855V103.743H149.485V115.597ZM87.5295 115.253H149.141V104.087H87.5295V115.253Z" fill="#EEEEEE"/>
<path d="M138.517 109.498H99.3627C97.5443 109.498 95.7937 108.031 94.5604 105.474L94.4414 105.228H143.439L143.32 105.474C142.087 108.032 140.336 109.498 138.517 109.498ZM94.9925 105.572C96.1566 107.853 97.739 109.154 99.3627 109.154H138.517C140.141 109.154 141.724 107.853 142.888 105.572H94.9925Z" fill="#EEEEEE"/>
<path d="M149.485 128.966H87.1855V117.112H149.485V128.966ZM87.5295 128.622H149.141V117.456H87.5295V128.622Z" fill="#EEEEEE"/>
<path d="M138.517 122.867H99.3627C97.5443 122.867 95.7937 121.401 94.5604 118.843L94.4414 118.597H143.439L143.32 118.843C142.087 121.401 140.336 122.867 138.517 122.867ZM94.9925 118.941C96.1566 121.222 97.739 122.523 99.3627 122.523H138.517C140.141 122.523 141.724 121.222 142.888 118.941H94.9925Z" fill="#EEEEEE"/>
<path d="M41.618 94.3535V95.1853H41.0855L40.6459 101.71H34.1666L33.7273 95.1853H33.1948V94.3535H41.618Z" fill="#EEEEEE"/>
<path d="M39.4857 78.1605C38.9532 74.2744 33.7082 73.1643 27.0529 73.0219C20.7195 72.8867 18.6909 70.6455 18.6909 70.6455C18.6909 70.6455 18.7109 79.7199 27.8368 83.0054C36.5026 86.1252 40.0193 82.0536 39.4857 78.1605Z" fill="#EEEEEE"/>
<path d="M36.2504 86.9715C36.3616 85.373 38.9137 82.4355 45.0524 83.771C49.4913 84.7366 51.1415 82.4355 51.1415 82.4355C51.1415 82.4355 50.7304 88.9299 44.0548 90.8825C37.7155 92.7366 36.0547 89.7827 36.2504 86.9715Z" fill="#EEEEEE"/>
<path d="M37.6509 96.8025C37.7179 96.8025 37.7847 96.774 37.8318 96.7186C38.2769 96.1926 37.9126 94.9332 37.409 93.1898C36.7623 90.9525 35.9577 88.1685 36.6392 86.1464C37.0237 85.005 37.4998 83.9988 37.9598 83.0253C38.9233 80.9875 39.7554 79.2276 39.0613 77.3896C39.0152 77.2671 38.8786 77.2055 38.7561 77.2516C38.634 77.2977 38.5721 77.4343 38.6182 77.5567C39.2412 79.2066 38.4868 80.8024 37.5315 82.8227C37.087 83.7622 36.5838 84.8272 36.1902 85.9947C35.4613 88.1571 36.289 91.0202 36.9539 93.3209C37.3461 94.6776 37.7513 96.0801 37.4703 96.4124C37.386 96.5122 37.3984 96.6615 37.4981 96.7461C37.5425 96.7839 37.5968 96.8025 37.6509 96.8025Z" fill="#EEEEEE"/>
<path d="M86.0001 147.081C122.836 147.081 152.698 145.337 152.698 143.186C152.698 141.035 122.836 139.291 86.0001 139.291C49.1639 139.291 19.3022 141.035 19.3022 143.186C19.3022 145.337 49.1639 147.081 86.0001 147.081Z" fill="#F3F3F3"/>
<path d="M85.9864 124.2H37.1384L34.4648 45.6416H83.3128L85.9864 124.2Z" fill="#C6B8DB"/>
<path d="M88.4243 121.762H39.5763L36.9023 43.2041H85.7503L88.4243 121.762Z" fill="#C6B8DB"/>
<path opacity="0.3" d="M88.4243 121.762H39.5763L36.9023 43.2041H85.7503L88.4243 121.762Z" fill="white"/>
<path d="M72.0621 75.535C77.2927 70.2149 77.0708 61.515 71.5664 56.1033C66.062 50.6915 57.3596 50.6173 52.129 55.9374C46.8984 61.2575 47.1204 69.9574 52.6248 75.3691C58.1291 80.7809 66.8316 80.8552 72.0621 75.535Z" fill="#C6B8DB"/>
<path d="M73.4334 65.7339C73.5001 67.6923 73.066 69.5309 72.2469 71.1357C70.4544 74.6703 66.7904 77.0742 62.4791 77.0742C58.1681 77.0742 54.3404 74.6703 52.307 71.1357C51.3789 69.5313 50.8195 67.6926 50.7528 65.7339C50.5395 59.4696 55.4432 54.3936 61.7071 54.3936C67.971 54.3936 73.2201 59.4696 73.4334 65.7339Z" fill="white"/>
<path opacity="0.6" d="M72.2466 71.1359C70.454 74.6705 66.7901 77.0744 62.4787 77.0744C58.1677 77.0744 54.34 74.6705 52.3066 71.1359C55.0968 69.2288 58.4849 68.1152 62.1736 68.1152C65.863 68.1152 69.3267 69.2284 72.2466 71.1359Z" fill="#C6B8DB"/>
<path opacity="0.6" d="M65.6276 65.4574C67.5506 63.5015 67.469 60.303 65.4453 58.3135C63.4217 56.3239 60.2223 56.2965 58.2993 58.2525C56.3763 60.2084 56.4579 63.4068 58.4815 65.3964C60.5052 67.386 63.7046 67.4133 65.6276 65.4574Z" fill="#C6B8DB"/>
<path d="M78.6125 93.3131H47.4516L47.2407 87.1211H78.402L78.6125 93.3131Z" fill="white"/>
<path d="M78.9893 104.381H47.8281L47.6172 98.1895H78.7784L78.9893 104.381Z" fill="white"/>
<path d="M66.9625 99.0404L59.4533 100.061C59.1448 100.103 58.9418 100.384 59.0003 100.683L59.9862 105.715C60.045 106.016 60.3446 106.226 60.6532 106.185L68.1624 105.164C68.4709 105.122 68.6742 104.843 68.6154 104.542L67.6295 99.51C67.571 99.2111 67.2711 98.9985 66.9625 99.0404ZM64.8049 104.138L63.4454 104.323L63.3085 102.699C63.0192 102.572 62.8097 102.315 62.7506 102.013C62.6542 101.521 62.9865 101.065 63.4912 100.996C63.9941 100.928 64.483 101.272 64.5796 101.764C64.6388 102.066 64.538 102.365 64.3127 102.563L64.8049 104.138Z" fill="#C6B8DB"/>
<path d="M66.2215 98.7701C65.947 98.8073 65.6822 98.6208 65.6299 98.3535L65.5332 97.8609C65.2676 96.5052 63.9714 95.4818 62.5683 95.6039C61.0684 95.7347 60.0629 97.0591 60.3436 98.4915L60.4544 99.0574C60.5067 99.3246 60.3268 99.5716 60.0523 99.6088C59.7777 99.6459 59.5129 99.4595 59.4606 99.1922L59.3667 98.712C58.9965 96.8227 60.1857 95.0064 62.1097 94.6717C64.1324 94.3194 66.127 95.6837 66.5126 97.6525L66.6233 98.2183C66.6756 98.4856 66.4957 98.7326 66.2215 98.7701Z" fill="#C6B8DB"/>
<path d="M73.8458 113.051H53.5622L53.4253 109.021H73.7086L73.8458 113.051Z" fill="#C6B8DB"/>
<path d="M64.059 90.2174C64.0804 90.8428 63.5905 91.3499 62.9651 91.3499C62.3397 91.3499 61.8155 90.8428 61.7941 90.2174C61.7728 89.592 62.2627 89.085 62.888 89.085C63.5134 89.085 64.0377 89.592 64.059 90.2174Z" fill="#0F1110"/>
<path d="M59.1835 90.2174C59.2049 90.8428 58.715 91.3499 58.0896 91.3499C57.4642 91.3499 56.94 90.8428 56.9186 90.2174C56.8973 89.592 57.3872 89.085 58.0126 89.085C58.638 89.085 59.1622 89.592 59.1835 90.2174Z" fill="#0F1110"/>
<path d="M54.308 90.2174C54.3294 90.8428 53.8395 91.3499 53.2141 91.3499C52.5887 91.3499 52.0645 90.8428 52.0432 90.2174C52.0218 89.592 52.5117 89.085 53.1371 89.085C53.7625 89.085 54.2867 89.592 54.308 90.2174Z" fill="#0F1110"/>
<path d="M68.9345 90.2174C68.9558 90.8428 68.466 91.3499 67.8406 91.3499C67.2152 91.3499 66.6909 90.8428 66.6696 90.2174C66.6483 89.592 67.1381 89.085 67.7635 89.085C68.3889 89.085 68.9132 89.592 68.9345 90.2174Z" fill="#0F1110"/>
<path d="M73.81 90.2174C73.8313 90.8428 73.3415 91.3499 72.7161 91.3499C72.0907 91.3499 71.5664 90.8428 71.5451 90.2174C71.5238 89.592 72.0136 89.085 72.639 89.085C73.2644 89.085 73.789 89.592 73.81 90.2174Z" fill="#0F1110"/>
<path d="M114.865 59.9531C115.323 60.6876 115.702 61.3924 116.096 62.1241C116.488 62.8486 116.842 63.594 117.19 64.345C117.874 65.8527 118.486 67.4083 118.944 69.0684C119.005 69.2721 119.052 69.4881 119.103 69.6997L119.178 70.0179L119.216 70.1768L119.26 70.4389C119.359 71.1379 119.272 71.7079 119.153 72.2109C118.906 73.2133 118.509 74.0127 118.082 74.7757C117.212 76.2862 116.197 77.5728 115.026 78.7913L113.577 77.6946C114.291 76.3392 114.997 74.9192 115.516 73.5538C115.768 72.8748 115.979 72.1837 116.041 71.6164C116.071 71.3375 116.051 71.0977 116.013 71.0086L115.877 70.5882C115.82 70.4155 115.77 70.2439 115.702 70.0698C115.206 68.6818 114.576 67.2875 113.889 65.9129C113.213 64.5435 112.463 63.1492 111.725 61.8479L114.865 59.9531Z" fill="#EEEEEE"/>
<path d="M113.945 77.2021L112.366 78.0405L114.181 80.1664C114.181 80.1664 115.315 79.3996 115.366 78.2286L113.945 77.2021Z" fill="#EEEEEE"/>
<path d="M110.24 79.3517L112.186 80.8952L114.181 80.1669L112.365 78.041L110.24 79.3517Z" fill="#EEEEEE"/>
<path d="M103.596 48.698C103.557 48.8893 103.424 49.0238 103.299 48.9983C103.174 48.9728 103.104 48.7974 103.143 48.6061C103.182 48.4149 103.315 48.2804 103.44 48.3058C103.565 48.3313 103.635 48.5071 103.596 48.698Z" fill="#0F1110"/>
<path d="M103.442 49.0273C103.442 49.0273 102.783 50.0421 102.196 50.4773C102.47 50.8619 103.075 50.8344 103.075 50.8344L103.442 49.0273Z" fill="#EEEEEE"/>
<path d="M102.822 55.7751L102.837 53.5205L105.822 53.8814C105.822 53.8814 105.771 55.8201 104.104 56.3902L102.822 55.7751Z" fill="#EEEEEE"/>
<path d="M103.68 51.8975L105.782 52.5015L105.823 53.882L102.836 53.5211L103.68 51.8975Z" fill="#EEEEEE"/>
<path opacity="0.2" d="M105.783 52.5009L103.681 51.8955L103.272 52.6798C103.324 54.0111 104.135 55.105 105.212 55.5969C105.797 54.8298 105.821 53.8804 105.821 53.8804L105.783 52.5009Z" fill="#6D41A2"/>
<path d="M104.512 47.779C104.54 47.779 104.568 47.769 104.59 47.7483C104.636 47.7053 104.639 47.6328 104.596 47.5863C104.166 47.1205 103.643 47.2035 103.621 47.2072C103.558 47.2179 103.516 47.2771 103.527 47.3393C103.538 47.4016 103.598 47.4432 103.659 47.4332C103.676 47.4305 104.084 47.3706 104.428 47.7422C104.45 47.7666 104.481 47.779 104.512 47.779Z" fill="#0F1110"/>
<path d="M108.907 52.1787C108.56 53.9489 108.351 56.4013 109.589 57.5826C109.589 57.5826 109.105 59.3783 105.816 59.3783C102.199 59.3783 104.076 57.8024 104.076 57.8024C105.579 57.336 105.566 55.6235 105.222 54.2479L108.907 52.1787Z" fill="#EEEEEE"/>
<path d="M110.266 58.767C110.588 58.3109 110.575 56.8698 110.231 56.6156C109.676 56.2052 107.302 56.111 104.103 56.8465C104.447 58.2424 103.709 58.9741 103.709 58.9741L110.266 58.767Z" fill="#C6B8DB"/>
<path d="M121.017 140.434C120.775 140.486 120.532 140.5 120.415 140.401C120.366 140.359 120.317 140.279 120.36 140.135C120.382 140.059 120.432 140.002 120.507 139.966C120.834 139.81 121.585 140.116 121.617 140.129C121.638 140.138 121.651 140.158 121.652 140.18C121.653 140.203 121.64 140.224 121.62 140.234C121.505 140.289 121.261 140.381 121.017 140.434ZM120.624 140.047C120.599 140.053 120.577 140.06 120.557 140.07C120.511 140.091 120.483 140.123 120.47 140.167C120.439 140.27 120.477 140.303 120.49 140.313C120.62 140.424 121.103 140.322 121.444 140.186C121.213 140.105 120.839 140.001 120.624 140.047Z" fill="#C6B8DB"/>
<path d="M121.607 140.238C121.598 140.24 121.588 140.24 121.579 140.237C121.305 140.157 120.72 139.741 120.713 139.467C120.712 139.417 120.729 139.327 120.86 139.282C120.944 139.252 121.029 139.259 121.113 139.302C121.437 139.467 121.641 140.137 121.65 140.166C121.656 140.186 121.65 140.208 121.636 140.223C121.627 140.23 121.618 140.236 121.607 140.238ZM120.922 139.383C120.914 139.385 120.905 139.387 120.897 139.39C120.826 139.414 120.827 139.449 120.828 139.464C120.832 139.626 121.218 139.952 121.501 140.085C121.43 139.891 121.269 139.51 121.061 139.404C121.014 139.38 120.968 139.373 120.922 139.383Z" fill="#C6B8DB"/>
<path d="M103.153 140.84C102.843 140.84 102.543 140.797 102.442 140.658C102.407 140.609 102.379 140.525 102.447 140.407C102.485 140.341 102.546 140.296 102.629 140.273C103.032 140.164 103.877 140.645 103.913 140.666C103.934 140.678 103.945 140.701 103.941 140.725C103.937 140.748 103.919 140.767 103.895 140.772C103.741 140.803 103.443 140.84 103.153 140.84ZM102.77 140.371C102.729 140.371 102.692 140.375 102.659 140.384C102.606 140.398 102.569 140.424 102.547 140.464C102.506 140.535 102.521 140.571 102.536 140.59C102.648 140.747 103.26 140.75 103.71 140.687C103.485 140.572 103.052 140.371 102.77 140.371Z" fill="#C6B8DB"/>
<path d="M103.884 140.773C103.876 140.773 103.868 140.771 103.86 140.768C103.568 140.637 102.99 140.113 103.034 139.839C103.044 139.775 103.09 139.695 103.247 139.679C103.365 139.667 103.471 139.7 103.565 139.778C103.873 140.03 103.938 140.682 103.941 140.71C103.943 140.73 103.934 140.75 103.917 140.762C103.908 140.769 103.896 140.773 103.884 140.773ZM103.294 139.792C103.282 139.792 103.271 139.792 103.259 139.793C103.156 139.804 103.149 139.844 103.147 139.858C103.121 140.022 103.514 140.433 103.812 140.612C103.781 140.422 103.695 140.032 103.493 139.866C103.432 139.816 103.366 139.792 103.294 139.792Z" fill="#C6B8DB"/>
<path d="M106.545 140.715H104.125L103.884 135.112H106.304L106.545 140.715Z" fill="#EEEEEE"/>
<path d="M124.304 139.595L121.939 140.107L119.565 134.888L121.93 134.376L124.304 139.595Z" fill="#EEEEEE"/>
<path d="M121.712 139.87L124.369 139.295C124.465 139.274 124.564 139.323 124.605 139.413L125.527 141.414C125.623 141.621 125.496 141.865 125.272 141.909C124.341 142.094 123.879 142.137 122.71 142.39C121.991 142.546 120.369 142.941 119.376 143.156C118.405 143.366 118.042 142.417 118.429 142.241C120.164 141.448 120.889 140.749 121.359 140.098C121.444 139.981 121.571 139.901 121.712 139.87Z" fill="#676767"/>
<path d="M104.141 140.436H106.783C106.882 140.436 106.968 140.504 106.989 140.601L107.467 142.751C107.517 142.974 107.347 143.185 107.119 143.182C106.166 143.166 104.788 143.109 103.59 143.109C102.19 143.109 100.98 143.186 99.3369 143.186C98.3434 143.186 98.0679 142.182 98.4838 142.091C100.377 141.676 101.922 141.632 103.558 140.624C103.736 140.514 103.932 140.436 104.141 140.436Z" fill="#676767"/>
<path d="M113.921 58.1296C116.189 58.6494 118.059 64.4389 118.059 64.4389L113.505 67.9099C113.505 67.9099 111.834 66.334 111.09 63.4382C110.31 60.4038 111.602 57.5981 113.921 58.1296Z" fill="#676767"/>
<path opacity="0.4" d="M113.921 58.1296C116.189 58.6494 118.059 64.4389 118.059 64.4389L113.505 67.9099C113.505 67.9099 111.834 66.334 111.09 63.4382C110.31 60.4038 111.602 57.5981 113.921 58.1296Z" fill="#676767"/>
<path d="M101.996 65.0394C101.431 65.65 100.866 66.1931 100.282 66.7521C99.992 67.0301 99.6955 67.3025 99.3924 67.5698L98.9356 67.9699L98.8207 68.0693C98.765 68.1171 98.6972 68.1739 98.6246 68.2293C98.4733 68.3411 98.3074 68.4714 97.96 68.6218C97.776 68.6926 97.5393 68.7865 97.1234 68.7948C96.9256 68.7979 96.6573 68.7635 96.401 68.6665C96.1392 68.5695 95.886 68.4016 95.7126 68.2289C95.3528 67.8674 95.2441 67.5502 95.1733 67.338C95.1075 67.1192 95.0886 66.963 95.0752 66.8264C95.0535 66.5595 95.0673 66.3789 95.0821 66.2117C95.0983 66.0466 95.121 65.9038 95.1461 65.769C95.2472 65.2385 95.3903 64.8106 95.5455 64.382C95.7027 63.9578 95.8767 63.5505 96.08 63.1388C96.2985 62.7005 96.5093 62.3826 96.7195 62.0163C97.5696 60.5956 98.5672 59.298 99.627 58.0751C100.71 56.8604 101.847 55.75 103.153 54.7324L104.42 56.0352C103.53 57.225 102.656 58.5003 101.848 59.7579C101.04 61.0249 100.291 62.3149 99.6466 63.6265C99.498 63.9506 99.3147 64.3056 99.2115 64.5767C99.0907 64.8729 98.98 65.1911 98.8888 65.5044C98.7987 65.814 98.7261 66.1367 98.6934 66.3734C98.6858 66.4305 98.6821 66.4804 98.6821 66.5093C98.681 66.5358 98.6879 66.5505 98.6845 66.4773C98.681 66.4374 98.6772 66.3779 98.6401 66.252C98.5981 66.1322 98.5328 65.9055 98.2431 65.6125C98.1034 65.4752 97.8936 65.3314 97.6762 65.2537C97.466 65.1714 97.2462 65.1474 97.0969 65.1481C96.7787 65.1553 96.6366 65.2203 96.5424 65.254C96.3738 65.3269 96.3704 65.3465 96.3721 65.339L96.5042 65.2186L96.9173 64.8402L97.7398 64.07C98.284 63.5571 98.8317 63.0101 99.3487 62.5024L101.996 65.0394Z" fill="#EEEEEE"/>
<path opacity="0.2" d="M111.978 62.3867C113.21 63.6055 113.611 65.8253 113.707 67.7552L113.506 67.91C113.506 67.91 111.833 66.3324 111.088 63.4373C111.042 63.2564 111.003 63.0751 110.97 62.8972L111.978 62.3867Z" fill="#6D41A2"/>
<path d="M99.5905 60.5559C99.0959 63.1699 98.7863 68.5377 100.222 79.168H113.164C113.253 77.1814 112.005 67.4902 113.921 58.1296C113.921 58.1296 111.703 57.6845 109.589 57.5827C107.935 57.5029 105.541 57.4502 104.087 57.583C103.48 57.6384 102.885 57.7261 102.354 57.82C100.955 58.0674 99.8547 59.1596 99.5905 60.5559Z" fill="#676767"/>
<path opacity="0.4" d="M99.5905 60.5559C99.0959 63.1699 98.7863 68.5377 100.222 79.168H113.164C113.253 77.1814 112.005 67.4902 113.921 58.1296C113.921 58.1296 111.703 57.6845 109.589 57.5827C107.935 57.5029 105.541 57.4502 104.087 57.583C103.48 57.6384 102.885 57.7261 102.354 57.82C100.955 58.0674 99.8547 59.1596 99.5905 60.5559Z" fill="#676767"/>
<path opacity="0.2" d="M101.571 64.4194L99.2325 63.8594C99.1599 65.2756 99.1534 67.0311 99.259 69.2017C100.336 67.9764 101.709 66.0661 101.571 64.4194Z" fill="#6D41A2"/>
<path opacity="0.2" d="M103.885 135.113L104.009 138.002H106.429L106.305 135.113H103.885Z" fill="#6D41A2"/>
<path opacity="0.2" d="M121.931 134.377L119.565 134.889L120.79 137.579L123.156 137.067L121.931 134.377Z" fill="#6D41A2"/>
<path d="M110.057 49.5898C109.436 51.9094 109.19 53.2984 107.758 54.263C105.605 55.7137 102.925 54.0487 102.841 51.5901C102.765 49.3772 103.795 45.9558 106.284 45.4883C108.736 45.028 110.679 47.2702 110.057 49.5898Z" fill="#EEEEEE"/>
<path d="M104.626 49.6781C104.511 49.3671 103.975 46.9701 104.478 46.3479C104.982 45.7256 110.708 46.1731 111.555 47.0066C112.96 48.3891 111.986 49.6231 110.448 51.2151C109.291 52.4122 109.246 53.7617 108.663 53.9595C107.641 54.3066 106.055 53.9805 105.737 52.889C105.419 51.7978 104.626 49.6781 104.626 49.6781Z" fill="#676767"/>
<path d="M110.862 44.2804C108.837 43.4183 105.042 44.3719 102.993 43.8779C102.92 44.9392 103.56 46.6409 105.609 47.0985C105.609 47.0985 108.519 47.6657 110.769 47.5742C113.02 47.4827 112.581 45.0124 110.862 44.2804Z" fill="#676767"/>
<path d="M111.179 47.0807C111.179 47.0807 112.431 47.2217 113.319 46.6699C113.699 47.5846 111.618 47.8357 111.179 47.0807Z" fill="#676767"/>
<path d="M105.73 49.7742C105.692 50.402 105.401 50.9926 105.05 51.3793C104.523 51.9603 103.972 51.5988 103.879 50.8908C103.794 50.2537 103.967 49.1835 104.612 48.8633C105.248 48.5471 105.772 49.0563 105.73 49.7742Z" fill="#EEEEEE"/>
<path d="M104.813 79.168C104.813 79.168 107.559 97.659 109.067 104.586C110.717 112.173 119.569 137.271 119.569 137.271L123.901 136.334C123.901 136.334 117.711 115.88 116.325 105.274C115.261 97.1275 113.164 79.168 113.164 79.168H104.813Z" fill="#C6B8DB"/>
<path d="M118.532 135.826C118.513 135.83 119.339 137.392 119.339 137.392L124.213 136.337L123.802 134.872L118.532 135.826Z" fill="#676767"/>
<path opacity="0.3" d="M106.548 85.7561C109.724 86.3787 109.388 98.2192 109.006 104.309C108.09 100.004 106.75 91.7207 105.834 85.8418C106.045 85.7365 106.282 85.7035 106.548 85.7561Z" fill="#6D41A2"/>
<path d="M100.223 79.168C100.223 79.168 99.8893 97.2589 100.152 104.637C100.426 112.312 103.107 137.442 103.107 137.442H107.206C107.206 137.442 107.356 112.761 107.538 105.223C107.737 97.0061 108.729 79.168 108.729 79.168H100.223Z" fill="#C6B8DB"/>
<path d="M102.318 135.81C102.299 135.81 102.549 137.511 102.549 137.511H107.535L107.67 135.993L102.318 135.81Z" fill="#676767"/>
<path d="M104.663 61.3499C105.823 64.4766 99.0065 68.1594 99.0065 68.1594L96.0557 64.3658C96.0557 64.3658 98.0244 60.4476 100.44 58.6812C103.424 56.4992 103.779 58.9698 104.663 61.3499Z" fill="#676767"/>
<path opacity="0.4" d="M104.663 61.3499C105.823 64.4766 99.0065 68.1594 99.0065 68.1594L96.0557 64.3658C96.0557 64.3658 98.0244 60.4476 100.44 58.6812C103.424 56.4992 103.779 58.9698 104.663 61.3499Z" fill="#676767"/>
<path d="M131.365 37.6101C138.221 37.6101 143.779 34.0678 143.779 29.6981C143.779 25.3285 138.221 21.7861 131.365 21.7861C124.509 21.7861 118.951 25.3285 118.951 29.6981C118.951 34.0678 124.509 37.6101 131.365 37.6101Z" fill="#C6B8DB"/>
<path d="M126.883 33.6809C126.193 33.6809 125.52 33.4745 124.935 33.0758C124.151 32.5413 123.63 31.7308 123.468 30.7937C123.159 29.0025 124.348 27.2179 126.12 26.8154C127.578 26.4848 129.059 27.1064 129.843 28.3692L137.812 26.7246C138.458 26.5914 139.114 26.9764 139.273 27.5835C139.357 27.9062 139.307 28.2395 139.132 28.5223C138.956 28.8051 138.68 28.9974 138.354 29.0648L138.145 29.1081C138.083 29.1209 138.032 29.1587 138.001 29.2144C137.971 29.2695 137.967 29.3345 137.989 29.393L138.13 29.7583C138.225 30.0056 138.136 30.2839 137.918 30.4198C137.748 30.5258 137.632 30.7074 137.609 30.9062C137.581 31.1498 137.418 31.3373 137.195 31.3834L137.031 31.4171C136.808 31.4625 136.585 31.3558 136.462 31.1432C136.318 30.8949 136.033 30.7669 135.751 30.8254C135.468 30.8839 135.255 31.1147 135.22 31.3999C135.191 31.6438 135.028 31.8309 134.806 31.8767L134.645 31.9097C134.425 31.9554 134.199 31.8481 134.076 31.6358C133.975 31.4625 133.796 31.3414 133.597 31.3118C133.343 31.274 133.151 31.0538 133.14 30.7882L133.124 30.3971C133.122 30.3335 133.093 30.2771 133.043 30.2382C132.993 30.199 132.933 30.1849 132.869 30.1972L130.329 30.7215C130.114 32.1605 129.029 33.3125 127.594 33.6087C127.357 33.6565 127.119 33.6809 126.883 33.6809ZM126.196 27.1508C124.6 27.5134 123.528 29.1216 123.807 30.7353C123.953 31.5798 124.422 32.3097 125.129 32.7917C125.836 33.2736 126.687 33.4439 127.525 33.2709C128.854 32.9964 129.851 31.9059 130.004 30.5574L130.018 30.4336L132.799 29.8594C132.96 29.8261 133.126 29.8653 133.255 29.9664C133.384 30.0672 133.461 30.2189 133.468 30.3827L133.484 30.7738C133.488 30.8729 133.558 30.9578 133.648 30.9709C133.954 31.0167 134.218 31.1959 134.374 31.4628C134.411 31.5282 134.483 31.5911 134.576 31.5722L134.737 31.5392C134.828 31.5203 134.87 31.4336 134.879 31.3586C134.93 30.9265 135.253 30.5767 135.681 30.4883C136.109 30.4002 136.542 30.5942 136.76 30.9706C136.798 31.0359 136.869 31.0996 136.962 31.0799L137.126 31.0462C137.217 31.0273 137.259 30.941 137.268 30.8663C137.303 30.5595 137.475 30.2905 137.737 30.1278C137.814 30.0799 137.845 29.9743 137.809 29.8821L137.669 29.5165C137.61 29.3634 137.621 29.1935 137.7 29.0497C137.779 28.9062 137.916 28.8047 138.076 28.7717L138.286 28.7284C138.518 28.6805 138.715 28.5429 138.84 28.3417C138.965 28.1401 139.001 27.9021 138.941 27.6716C138.827 27.2388 138.352 26.965 137.882 27.0627L129.671 28.7573L129.609 28.6492C128.92 27.4456 127.55 26.8429 126.196 27.1508ZM126.887 32.4092C126.462 32.4092 126.045 32.2853 125.681 32.0459C125.189 31.7222 124.853 31.2268 124.734 30.6506C124.615 30.0734 124.727 29.4848 125.051 28.9936C125.374 28.5027 125.87 28.167 126.446 28.0479C127.024 27.9286 127.612 28.0407 128.103 28.3637C128.594 28.6864 128.93 29.1824 129.049 29.76C129.168 30.3362 129.056 30.9245 128.733 31.4157C128.41 31.9076 127.914 32.244 127.336 32.3631C127.187 32.394 127.037 32.4092 126.887 32.4092ZM126.898 28.3455C126.771 28.3455 126.643 28.3586 126.516 28.3847C126.03 28.4852 125.611 28.7686 125.338 29.1828C125.066 29.5973 124.971 30.0937 125.071 30.5811C125.172 31.0672 125.455 31.4852 125.87 31.7583C126.285 32.0311 126.782 32.1264 127.268 32.0259C127.755 31.9255 128.173 31.6414 128.446 31.2265C128.719 30.812 128.813 30.3159 128.713 29.8292C128.612 29.3417 128.329 28.9231 127.915 28.6506C127.608 28.4501 127.257 28.3455 126.898 28.3455Z" fill="white"/>
<path opacity="0.6" d="M121.258 42.2491C123.511 42.2491 125.338 41.0848 125.338 39.6485C125.338 38.2122 123.511 37.0479 121.258 37.0479C119.004 37.0479 117.178 38.2122 117.178 39.6485C117.178 41.0848 119.004 42.2491 121.258 42.2491Z" fill="#C6B8DB"/>
<path opacity="0.3" d="M114.768 43.3165C115.693 43.3165 116.443 42.8386 116.443 42.2491C116.443 41.6595 115.693 41.1816 114.768 41.1816C113.843 41.1816 113.093 41.6595 113.093 42.2491C113.093 42.8386 113.843 43.3165 114.768 43.3165Z" fill="#C6B8DB"/>
</svg>
