<svg width="172" height="172" viewBox="0 0 172 172" fill="none" xmlns="http://www.w3.org/2000/svg">
<path d="M72.9781 30.7492C79.3273 21.7503 92.6727 21.7503 99.0219 30.7492L99.4298 31.3274C102.977 36.3545 109.1 38.8911 115.163 37.8443L115.86 37.724C126.713 35.8503 136.15 45.2869 134.276 56.1397L134.156 56.837C133.109 62.8997 135.645 69.0234 140.673 72.5702L141.251 72.9781C150.25 79.3273 150.25 92.6727 141.251 99.0219L140.673 99.4298C135.645 102.977 133.109 109.1 134.156 115.163L134.276 115.86C136.15 126.713 126.713 136.15 115.86 134.276L115.163 134.156C109.1 133.109 102.977 135.645 99.4298 140.673L99.0219 141.251C92.6727 150.25 79.3273 150.25 72.9781 141.251L72.5702 140.673C69.0234 135.645 62.8997 133.109 56.837 134.156L56.1397 134.276C45.2869 136.15 35.8503 126.713 37.724 115.86L37.8443 115.163C38.8911 109.1 36.3545 102.977 31.3274 99.4298L30.7492 99.0219C21.7503 92.6727 21.7503 79.3273 30.7492 72.9781L31.3274 72.5702C36.3545 69.0234 38.8911 62.8997 37.8443 56.837L37.724 56.1397C35.8503 45.2869 45.2869 35.8503 56.1397 37.724L56.837 37.8443C62.8997 38.8911 69.0234 36.3545 72.5702 31.3274L72.9781 30.7492Z" fill="#E6E6E6"/>
<g clip-path="url(#clip0_1375_143754)">
<path d="M86.0023 99.1255C84.4476 99.1255 83.1892 97.8656 83.1892 96.3132C83.1892 92.6796 85.7247 89.3592 90.5202 86.7175C94.0929 84.7488 95.9421 80.8472 95.2275 76.7786C94.5674 73.0232 91.4823 69.939 87.7258 69.2791C85.0158 68.8028 82.3527 69.4516 80.2222 71.1052C78.1311 72.7307 76.8165 75.1625 76.6177 77.778C76.4995 79.3248 75.1455 80.4872 73.6001 80.3691C72.051 80.251 70.8901 78.901 71.0083 77.3524C71.3271 73.1582 73.4276 69.2622 76.7715 66.6655C80.1697 64.0237 84.4063 62.9869 88.6973 63.7388C94.7437 64.7999 99.7079 69.7628 100.769 75.8075C101.889 82.1802 98.8602 88.5455 93.2358 91.6447C90.4677 93.169 88.8154 94.9145 88.8154 96.3132C88.8154 97.8656 87.557 99.1255 86.0023 99.1255ZM83.1892 105.688C83.1892 107.24 84.4494 108.5 86.0023 108.5C87.5552 108.5 88.8154 107.24 88.8154 105.688C88.8154 104.135 87.5552 102.875 86.0023 102.875C84.4494 102.875 83.1892 104.135 83.1892 105.688Z" fill="#6D41A2"/>
</g>
<defs>
<clipPath id="clip0_1375_143754">
<rect width="60" height="60" fill="white" transform="translate(56 56)"/>
</clipPath>
</defs>
</svg>
