<svg width="151" height="150" viewBox="0 0 151 150" fill="none" xmlns="http://www.w3.org/2000/svg">
<path d="M21.3155 97.5967C20.6908 97.6979 19.9011 97.8082 19.6468 97.8082C19.0206 97.8082 19.3626 97.7969 17.1457 94.3522C16.1429 92.793 12.0128 86.5254 12.0233 86.2997C12.1013 86.1339 14.271 85.9734 17.2079 85.3765C17.0962 85.063 17.1142 84.787 17.2776 84.55C16.1902 84.7982 15.5669 84.9287 13.2488 85.24C12.7508 85.3067 11.538 85.5662 11.4863 85.5865C10.8871 85.819 10.8871 85.936 11.1076 86.4167C11.6573 87.6219 13.7415 90.8026 15.4169 93.3585C18.3629 97.8532 17.1119 96.1222 18.3306 97.9484C18.9486 98.8739 19.0356 98.9774 21.857 98.3309C21.6425 98.0459 21.485 97.8284 21.317 97.5967H21.3155Z" fill="#AFAFAF"/>
<path d="M24.8827 112.389C25.1977 112.223 25.1632 112.266 24.8182 111.612C22.9815 112.075 20.6971 112.65 17.7991 113.376C17.3694 113.484 17.0994 113.67 16.7904 113.322C14.9935 111.294 6.94468 99.4049 5.12597 96.2384C5.00972 96.036 5.23922 96.0772 5.8437 95.6437C5.9637 95.5575 6.02445 95.5732 6.1002 95.6857C7.11717 97.1939 13.7807 107.782 16.4582 110.766C17.0387 111.413 18.8431 110.692 22.5263 109.672C24.072 109.245 25.0987 109.002 25.8232 108.844C25.7407 108.678 25.6252 108.435 25.5097 108.186C24.975 108.328 24.3015 108.503 23.439 108.72C21.4545 109.221 18.3054 109.976 17.4857 110.207C16.9464 110.359 16.8842 110.016 16.4754 109.583C15.2792 108.318 8.65912 98.4201 7.62941 96.8444C5.04797 92.8943 5.06597 92.877 5.25497 92.7623C6.14295 92.2238 6.24194 92.0835 6.40019 92.3115C7.53116 93.9375 6.98367 93.3398 8.24213 95.1802C13.1613 102.377 13.9232 104.571 16.7552 107.534C17.4099 108.219 17.1414 108.349 20.4848 107.463C22.7843 106.854 24.777 106.327 26.5087 105.873C26.5042 105.851 26.4952 105.825 26.4832 105.792C26.3827 105.527 26.2919 105.279 26.2537 105.055C24.096 105.597 22.0418 106.111 20.4668 106.485C19.5473 106.704 18.8184 107.055 18.2971 107.139C17.8501 107.211 17.5786 107.294 17.0192 106.674C16.0082 105.554 15.8769 105.654 13.0465 101.316C12.5658 100.579 11.3403 98.7696 11.0238 98.2236C9.97684 96.4147 9.61835 96.2647 8.42438 94.1513C6.52619 90.7913 6.63493 91.2428 6.0162 89.8269C5.8257 89.3904 6.1437 89.3266 6.76543 89.0574C7.07667 88.9224 7.02492 88.8354 7.27317 89.2336C9.80734 93.3068 9.42035 92.64 10.5041 94.6777C11.1783 95.9452 15.8229 102.946 16.5587 103.966C16.8047 104.307 17.0972 104.611 17.4549 104.843C17.9086 105.137 17.6716 105.089 22.9643 103.705C24 103.434 24.8062 103.19 25.6109 102.952C25.4047 102.7 25.2255 102.481 25.0657 102.288C24.9772 102.313 24.8902 102.337 24.804 102.361C22.5308 102.982 19.4784 103.716 18.0249 104.113C17.7789 104.181 17.6394 104.122 17.5097 103.933C10.3856 93.585 11.7768 95.4487 10.3271 93.0045C7.54391 88.3111 7.61666 88.9366 6.62818 86.6634C6.43094 86.209 6.74593 86.143 7.26942 85.9735C7.97515 85.744 7.48391 85.8062 10.1823 89.7069C11.9185 92.2163 12.9078 94.2825 15.2155 98.0481C15.9279 99.2114 17.4864 101.377 17.8021 101.844C18.0894 102.268 18.4974 102.309 18.9909 102.178C20.6948 101.725 22.296 101.292 23.8732 100.867C23.6992 100.66 23.5222 100.447 23.3003 100.172C21.6765 100.625 20.1743 101.077 18.8821 101.516C18.2289 101.738 18.1171 101.299 11.8563 91.0163C10.3871 88.6029 8.42813 85.744 7.81615 84.352C7.59491 83.8488 8.60288 83.911 12.4998 83.2983C14.4595 82.99 16.2429 82.7365 17.9334 82.507C17.7864 82.2468 17.6641 82.0233 17.6266 81.9446C17.5884 81.8636 17.5674 81.7871 17.5599 81.7128C12.826 82.3563 8.59388 82.9495 7.57541 83.3695C6.74368 83.713 6.95368 84.319 7.23492 85.06C7.34067 85.339 7.18992 85.2032 6.41144 85.5467C6.0552 85.7035 5.66596 86.0297 5.84895 86.5262C5.9277 86.7414 6.50669 87.9992 6.65743 88.2706C6.80143 88.5286 6.57493 88.4604 5.97795 88.6629C5.09672 88.9621 4.90248 89.4961 5.25797 90.2521C5.87745 91.5706 6.02745 91.4513 5.63521 91.6583C4.65198 92.178 4.24924 92.2785 4.42549 92.9243C4.58224 93.4995 4.69398 93.6675 5.39371 94.6867C5.64646 95.0557 5.49346 94.9402 4.63398 95.4525C4.37599 95.6062 4.154 95.838 4.21399 96.1304C4.29124 96.5054 4.39549 96.7529 4.61073 97.0679C9.02886 103.541 7.42916 101.471 9.82534 105.057C10.7126 106.383 10.7756 106.359 12.9955 109.68C14.7887 112.363 13.369 110.265 15.1105 112.663C16.1432 114.085 16.5414 114.692 17.5824 114.444C21.5258 113.507 21.498 113.382 22.995 113.007C23.313 112.928 23.7802 112.815 24.315 112.686C24.4762 112.602 24.666 112.507 24.8842 112.392L24.8827 112.389Z" fill="#AFAFAF"/>
<path d="M41.6566 107.421C41.8531 107.221 41.6266 107.109 41.5336 106.736C41.3948 106.182 41.7368 105.864 41.9888 105.978C42.5273 106.221 42.3548 106.811 42.6908 106.71C42.9323 106.637 43.1858 106.554 43.425 106.56C44.3243 106.58 44.5463 107.321 44.316 107.678C44.0078 108.156 43.5173 107.539 42.6301 108.03C41.7968 108.49 41.6888 109.676 42.7103 109.479C43.7805 109.272 44.355 108.926 45.1837 108.999C46.341 109.101 47.5049 110.325 47.0039 111.945C46.524 113.494 45.8467 113.25 46.089 113.759C46.1002 113.783 46.35 114.225 46.4542 114.721C46.5817 115.33 46.0035 115.817 45.6495 115.294C44.9985 114.331 45.1755 114.159 44.8185 114.313C44.1743 114.592 43.5975 114.863 42.8566 114.612C42.3653 114.446 42.2656 113.857 42.4013 113.58C42.5491 113.277 42.7598 113.314 43.059 113.313C44.43 113.311 45.942 112.113 45.5835 110.997C45.4102 110.456 44.748 110.465 43.5518 110.794C42.8611 110.985 42.0473 111.092 41.4001 110.686C40.5331 110.143 40.5459 108.556 41.6566 107.421Z" fill="#AFAFAF"/>
<path d="M86.704 123.146C86.4325 123.211 86.1603 123.275 85.8865 123.335C85.3338 123.455 84.775 123.547 84.2216 123.663C81.3536 124.267 81.6154 124.404 81.6521 123.935C81.8231 123.006 81.8854 122.687 81.9184 122.45C81.6701 122.349 81.4009 122.241 81.1061 122.128C80.7116 121.976 80.3314 121.79 79.9459 121.613C79.6647 123.552 79.4239 125.121 79.4164 125.161C79.3722 125.414 79.2814 125.582 79.0167 125.678C78.575 125.839 78.4175 125.718 78.4505 125.241C78.4842 124.754 78.7475 123.168 79.0324 121.244C78.9529 121.217 78.8734 121.193 78.7924 121.17C78.3665 121.052 77.9615 120.863 77.54 120.725C77.081 120.574 74.5378 119.816 71.9961 118.835C71.2829 118.56 70.5989 118.211 69.9014 117.896C69.7747 117.838 69.6757 117.762 69.5969 117.673C69.5347 118.497 69.3592 119.75 68.6085 126.273C68.517 127.069 68.4652 127.473 68.3437 127.516C68.1555 127.582 67.9582 127.637 67.7595 127.659C67.6935 127.666 67.5802 127.577 67.551 127.506C67.2592 126.802 68.487 119.687 68.5867 116.262C68.2567 116.13 67.7505 115.913 65.7383 115.184C65.7945 115.272 65.841 115.349 65.8755 115.412C65.3565 115.673 46.9048 119.267 38.1285 122.247C37.4752 122.469 37.3635 122.03 31.1034 111.747C29.6342 109.334 27.6752 106.475 27.0633 105.083C27.0145 104.971 27.0258 104.887 27.1158 104.817C27.0138 104.69 26.8983 104.546 26.767 104.383C26.7168 104.321 26.668 104.26 26.62 104.2C26.029 104.555 26.2255 105.117 26.4813 105.79C26.587 106.069 26.4363 105.933 25.6578 106.277C25.3016 106.434 24.9123 106.76 25.0953 107.256C25.1741 107.471 25.753 108.729 25.9038 109.001C26.0478 109.259 25.8213 109.191 25.2243 109.393C24.3431 109.692 24.1488 110.226 24.5043 110.982C25.1238 112.301 25.2746 112.182 24.8816 112.389C23.8983 112.908 23.4956 113.009 23.6711 113.655C23.8278 114.23 23.9396 114.398 24.6393 115.417C24.8921 115.786 24.7391 115.67 23.8796 116.183C23.6216 116.336 23.3996 116.568 23.4596 116.861C23.5368 117.236 23.6411 117.483 23.8563 117.798C28.2745 124.271 26.6748 122.201 29.071 125.787C29.9582 127.114 30.0212 127.089 32.2411 130.411C34.0343 133.093 32.6139 130.996 34.3561 133.393C35.3888 134.815 35.787 135.423 36.828 135.174C40.7714 134.237 40.7437 134.112 42.2406 133.737C43.5876 133.401 47.6 132.463 48.161 132.32C56.959 130.067 63.0728 128.946 63.5408 128.819C64.1866 128.644 64.3546 128.464 64.7528 128.905C65.5223 129.759 66.3098 129.331 68.9152 128.788C69.7319 128.617 70.5157 128.306 71.3526 128.215C71.7921 128.168 72.2226 128.046 72.6606 127.978C73.1377 127.903 75.77 127.566 78.437 127.009C79.1854 126.852 79.9167 126.618 80.6554 126.419C81.0356 126.317 81.2276 126.034 81.3416 125.686C81.5306 125.112 81.4721 125.148 81.7114 125.113C82.5933 124.982 81.8884 124.99 88.4799 123.823C87.6475 123.504 87.043 123.277 86.701 123.146L86.704 123.146ZM65.2538 125.562L65.223 125.557C65.151 126.165 65.0768 126.769 65.01 127.376C64.9935 127.529 64.5548 127.564 62.9596 127.917C61.5954 128.218 59.3514 128.791 56.1265 129.471C50.5032 130.657 52.6054 130.214 37.0478 134.109C36.618 134.217 36.348 134.403 36.039 134.055C34.2421 132.028 26.1933 120.139 24.3746 116.972C24.2583 116.77 24.4878 116.811 25.0923 116.378C25.2123 116.291 25.2731 116.307 25.3488 116.419C26.3658 117.928 33.0294 128.515 35.7075 131.5C36.288 132.146 38.0925 131.425 41.7756 130.405C45.4055 129.4 46.175 129.419 46.88 129.154C47.7432 128.828 48.665 128.737 49.5462 128.487C51.206 128.015 54.0168 127.365 55.135 127.166C55.1875 127.157 65.0753 125.033 65.094 125.03C65.3378 124.982 65.2883 125.118 65.2538 125.563V125.562ZM65.5463 122.681C65.3655 124.685 65.6948 124.09 63.9863 124.451C63.5086 124.552 63.9916 124.477 53.9223 126.683C49.4052 127.672 51.3694 127.364 47.3052 128.23C46.5928 128.383 46.3055 128.541 42.6876 129.452C40.7032 129.952 37.554 130.708 36.7343 130.939C36.195 131.091 36.1328 130.747 35.724 130.315C34.5278 129.05 27.9077 119.152 26.878 117.576C24.2966 113.626 24.3146 113.609 24.5036 113.494C25.3916 112.956 25.4906 112.815 25.6488 113.043C26.7798 114.669 26.233 114.071 27.4907 115.912C32.4099 123.109 33.1719 125.302 36.0038 128.266C36.6585 128.95 36.39 129.081 39.7334 128.194C61.3479 122.465 55.837 124.165 61.5076 123.037C65.922 122.159 65.616 121.91 65.5463 122.681ZM65.955 119.624C65.88 120.599 65.9955 119.654 65.73 121.316C65.6843 121.601 65.724 121.389 62.4309 122.151C61.7259 122.315 57.7307 122.99 57.0153 123.098C54.0851 123.539 44.6008 126.058 39.7154 127.216C38.7967 127.435 38.0677 127.786 37.5457 127.87C37.0988 127.942 36.8273 128.025 36.2678 127.405C35.2576 126.285 35.1256 126.384 32.2951 122.047C31.8144 121.31 30.5889 119.501 30.2724 118.955C29.2255 117.146 28.867 116.996 27.673 114.882C25.7748 111.522 25.8835 111.974 25.2648 110.558C25.0743 110.121 25.3923 110.058 26.014 109.788C26.3253 109.653 26.2735 109.566 26.5218 109.965C29.056 114.038 28.669 113.371 29.7519 115.409C30.4262 116.676 35.0708 123.676 35.8065 124.697C36.0525 125.038 36.345 125.342 36.7028 125.574C37.1565 125.868 36.9195 125.82 42.2121 124.435C45.326 123.622 46.364 123.057 51.5111 122.126C52.7644 121.899 54.3783 121.826 60.6459 120.212C61.7994 119.915 61.8376 120.008 65.3633 119.276C66.0293 119.137 65.997 119.082 65.955 119.624ZM66.1193 117.322C66.033 118.439 66.0945 118.332 65.7765 118.393C56.5413 120.163 57.4165 120.386 51.3634 121.333C47.9067 121.874 45.7595 122.624 44.0518 123.092C41.7786 123.713 38.7262 124.447 37.2727 124.844C37.0268 124.912 36.8873 124.853 36.7575 124.664C29.6334 114.316 31.0247 116.18 29.5749 113.736C26.7918 109.042 26.8645 109.668 25.876 107.394C25.6788 106.94 25.9938 106.874 26.5173 106.704C27.223 106.475 26.7318 106.537 29.4302 110.438C31.1664 112.947 32.1549 115.013 34.4633 118.779C35.1766 119.942 36.7343 122.108 37.05 122.575C37.3372 122.999 37.7452 123.04 38.2387 122.909C46.766 120.642 52.7246 118.874 65.8868 116.264C66.2993 116.182 66.2018 116.245 66.1185 117.323L66.1193 117.322Z" fill="#AFAFAF"/>
<path d="M61.9247 113.833C55.9496 115.08 42.7649 117.922 41.1299 118.232C40.5599 118.34 39.2385 118.541 38.8957 118.541C38.2695 118.541 38.6115 118.53 36.3945 115.085C35.6933 113.995 33.4629 110.603 32.1886 108.584L31.7544 108.729C31.5849 108.785 31.4312 108.816 31.2864 108.822C32.1931 110.322 33.5237 112.353 34.6651 114.092C37.611 118.587 36.36 116.856 37.5788 118.682C38.2807 119.735 38.2965 119.725 42.4229 118.758C51.1099 116.722 59.7543 115.104 63.5244 114.395C63.0414 114.225 62.5104 114.038 61.9247 113.833Z" fill="#AFAFAF"/>
<path d="M112.963 70.982C111.436 70.5471 110.035 71.2933 109.971 72.314C109.934 72.9185 110.229 73.4607 110.6 73.9167C110.647 73.9317 110.693 73.946 110.741 73.961C111.241 74.12 111.729 74.321 112.229 74.4837C112.562 74.5925 112.902 74.702 113.25 74.8129C112.917 74.0645 112.344 73.7232 111.658 72.8892C110.997 72.086 112.091 71.6143 112.893 72.1273C113.747 72.6733 113.44 73.3985 114.007 73.4412C114.431 73.4727 114.976 72.9245 114.565 72.125C114.455 71.912 114.262 71.7283 114.083 71.5513C113.834 71.3038 114.434 71.174 114.391 70.5853C114.37 70.3093 113.929 70.1601 113.508 70.5471C113.225 70.8073 113.234 71.0593 112.964 70.9828L112.963 70.982Z" fill="#AFAFAF"/>
<path d="M106.825 66.9568C106.85 66.9658 106.876 66.9748 106.903 66.9838C110.322 68.1552 110.135 68.1072 111.133 68.3465C113.721 68.9652 115.797 69.629 117.267 70.2124C120.873 71.6419 123.855 72.2479 123.92 72.4549C123.906 72.5974 121.913 74.9126 120.148 76.9482C120.469 77.0457 120.788 77.1432 121.105 77.2399C123.145 74.8983 125.095 72.5951 124.997 72.2074C124.962 72.0724 124.826 71.9757 124.55 71.8227C124.502 71.7949 123.336 71.3712 122.852 71.2369C118.991 70.1607 119.987 70.2972 115.281 68.6607C112.383 67.6528 111.39 67.706 108.338 66.5825C107.762 66.725 107.262 66.8495 106.825 66.9568Z" fill="#AFAFAF"/>
<path d="M100.179 68.4861C100.297 68.6301 100.405 68.7868 100.504 68.96C100.553 69.0463 100.597 69.1325 100.634 69.2173C101.019 69.3268 101.292 69.3943 101.463 69.4543C101.506 69.4693 101.548 69.4843 101.589 69.4985C101.465 69.065 101.245 68.654 100.967 68.2701C100.711 68.3391 100.447 68.4118 100.179 68.4861Z" fill="#AFAFAF"/>
<path d="M111.374 65.8243C111.351 65.8303 111.328 65.8356 111.306 65.8416C115.269 66.9935 119.024 67.949 123.862 69.4137C127.637 70.5567 128.644 70.6339 128.356 71.1019C127.558 72.3971 125.224 74.9591 123.437 77.1469C123.257 77.3674 123.08 77.5827 122.909 77.7927C123.146 77.8654 123.38 77.9374 123.611 78.0094C124.136 77.3644 124.671 76.7367 125.274 76.0804C128.484 72.5891 128.005 72.4594 128.673 72.7834C129.169 73.0234 129.472 73.1329 129.214 73.5551C128.008 75.53 128.065 75.1302 125.309 78.5396C125.527 78.6079 125.74 78.6761 125.948 78.7429C126.386 78.2104 127.042 77.4282 128.221 76.0129C128.521 75.653 128.458 75.7317 128.748 75.908C129.326 76.2604 129.633 76.3677 129.384 76.7734C128.738 77.8264 128.717 77.7619 127.537 79.2604C127.82 79.3549 128.088 79.4464 128.34 79.5334C128.433 79.4299 128.539 79.3144 128.662 79.1816C128.85 78.9784 128.929 79.1306 129.734 79.7861C129.795 79.8349 129.835 79.8694 129.729 80.0479C130.006 80.1596 130.231 80.2608 130.4 80.3493C130.445 80.2623 130.488 80.1693 130.534 80.0606C130.798 79.4449 130.412 79.2904 129.51 78.6401C129.15 78.3799 129.282 78.5194 130.077 77.2984C130.533 76.5987 130.414 76.0437 129.583 75.626C129.019 75.3432 128.786 75.3792 128.964 75.1437C129.151 74.8953 129.897 73.7284 130.005 73.5266C130.255 73.0609 129.913 72.6836 129.583 72.4796C128.858 72.0319 128.691 72.1459 128.833 71.8842C129.214 71.1889 129.505 70.6182 128.728 70.1629C127.353 69.3582 119.376 67.2725 112.862 65.3961C112.37 65.6676 111.772 65.7246 111.372 65.8251L111.374 65.8243Z" fill="#AFAFAF"/>
<path d="M141.212 87.1509C141.175 87.0167 141.037 86.9222 140.76 86.7744C140.71 86.7474 139.538 86.3439 139.052 86.2172C135.253 85.228 136.131 85.3224 131.727 83.8652C131.651 83.9905 131.469 84.2672 131.274 84.5567C132.102 84.8065 132.829 85.0532 133.45 85.2879C137.08 86.6559 140.072 87.2109 140.14 87.4171C140.123 87.6429 135.266 93.3652 134.082 94.7917C131.466 97.9439 131.803 97.9949 131.182 97.9199C130.842 97.8786 129.554 97.5194 129.001 97.3431C128.916 97.3154 128.797 97.2772 128.65 97.2277C128.429 97.4661 128.237 97.6754 128.069 97.8599C131.635 99.1656 131.678 99.1431 132.473 98.2184C132.829 97.8036 132.985 97.6191 133.53 96.9067C135.318 94.572 141.398 87.8311 141.213 87.1502L141.212 87.1509Z" fill="#AFAFAF"/>
<path d="M146.885 94.908C147.138 94.2878 146.75 94.14 145.836 93.5048C145.472 93.2513 145.606 93.3878 146.381 92.1541C146.825 91.4468 146.697 90.8933 145.858 90.4898C145.29 90.2161 145.057 90.2566 145.231 90.0181C145.413 89.7669 146.14 88.5872 146.244 88.3839C146.486 87.9137 146.139 87.5424 145.804 87.3437C145.072 86.9087 144.906 87.0249 145.045 86.7609C145.413 86.059 145.695 85.483 144.911 85.042C143.665 84.3408 137.089 82.6998 131.024 81.0948C131.036 81.3431 130.92 81.6108 130.76 81.9033C133.609 82.6428 136.539 83.383 140.032 84.3753C143.826 85.4537 144.834 85.5137 144.553 85.987C143.778 87.2949 141.488 89.8966 139.738 92.1143C132.281 101.566 132.117 101.989 131.495 101.689C130.09 101.014 128.415 100.287 126.598 99.5444C126.439 99.7304 126.26 99.9359 126.023 100.202C127.73 100.89 129.455 101.591 131.307 102.332C131.781 102.522 132.191 102.531 132.527 102.145C132.897 101.719 134.705 99.7574 135.553 98.6894C138.3 95.2305 139.531 93.2985 141.557 91.0171C144.707 87.4712 144.226 87.3504 144.9 87.6632C145.399 87.8949 145.704 87.9984 145.453 88.4259C144.198 90.5633 144.345 89.9506 141.016 94.2735C139.282 96.5249 140.887 94.8435 132.566 104.256C132.414 104.427 132.269 104.469 132.032 104.372C130.637 103.802 127.697 102.706 125.514 101.813C125.289 101.721 125.057 101.623 124.814 101.519C124.589 101.761 124.408 101.95 124.236 102.127C125.148 102.519 126.008 102.907 127.178 103.369C132.266 105.383 132.024 105.402 132.51 105.165C132.893 104.979 133.221 104.712 133.506 104.403C134.359 103.48 139.816 97.0904 140.638 95.9137C141.959 94.0223 141.494 94.6372 144.502 90.8993C144.796 90.5341 144.735 90.6136 145.027 90.7853C145.612 91.1281 145.92 91.2301 145.677 91.6396C144.892 92.9708 145.054 92.5358 142.764 95.6415C141.324 97.5952 140.95 97.7009 139.692 99.3704C139.312 99.8744 137.877 101.522 137.311 102.196C133.977 106.16 133.858 106.045 132.72 107.034C132.089 107.582 131.83 107.468 131.396 107.343C130.888 107.196 130.207 106.759 129.32 106.432C128.643 106.182 127.876 105.892 127.049 105.578C126.976 105.798 126.843 106.032 126.698 106.284C126.672 106.328 126.656 106.362 126.65 106.389C127.449 106.707 128.293 107.044 129.185 107.4C132.396 108.684 132.146 108.522 132.878 107.921C136.047 105.322 137.068 103.237 142.821 96.6862C144.292 95.0115 143.677 95.5387 144.996 94.0613C145.18 93.855 145.262 94.0058 146.079 94.647C146.253 94.7835 146.268 94.803 143.229 98.4127C142.016 99.8519 134.25 108.879 132.909 109.99C132.45 110.37 132.347 110.703 131.831 110.487C131.196 110.222 129.096 109.435 127.307 108.753C127.159 108.972 127.009 109.19 126.895 109.349C130.425 110.805 132.129 111.738 132.783 111.166C135.802 108.527 143.695 98.8214 144.887 97.4467C144.975 97.3447 145.038 97.3364 145.146 97.4362C145.694 97.9394 145.926 97.9267 145.787 98.1134C143.599 101.038 134.173 111.867 132.145 113.663C131.796 113.971 131.55 113.754 131.137 113.595C129.786 113.077 128.573 112.611 127.481 112.191C126.959 112.894 126.913 112.827 127.212 113.054C127.253 113.085 127.292 113.115 127.331 113.143C128.001 113.435 128.884 113.814 131.225 114.68C132.228 115.052 132.697 114.497 133.894 113.21C135.913 111.04 134.249 112.95 136.354 110.505C138.958 107.476 139.018 107.508 140.059 106.298C142.871 103.028 141.034 104.889 146.201 98.9976C146.453 98.7104 146.586 98.4771 146.708 98.1142C146.803 97.8314 146.611 97.5742 146.373 97.3904C145.582 96.7792 145.416 96.8744 145.712 96.5392C146.529 95.6122 146.661 95.4585 146.886 94.9065L146.885 94.908Z" fill="#AFAFAF"/>
<path d="M109.503 106.876C109.459 106.821 109.424 106.767 109.396 106.716C108.924 106.518 108.391 106.296 107.863 106.076C107.848 106.136 107.837 106.197 107.831 106.26C107.765 107.022 108.232 107.697 108.716 108.225C109.555 109.138 109.864 109.724 109.462 110.125C108.631 110.953 106.876 110.154 106.249 108.934C106.111 108.668 106.048 108.463 105.712 108.469C105.403 108.475 104.924 108.833 105.001 109.345C105.115 110.119 105.619 110.509 106.162 110.955C106.462 111.203 106.227 111.124 105.667 112.143C105.363 112.696 106.06 112.989 106.544 112.597C106.938 112.279 107.218 111.855 107.234 111.834C107.576 111.386 107.668 112.101 109.266 111.821C110.935 111.529 111.494 109.935 111.058 108.858C110.745 108.087 110.175 107.733 109.504 106.875L109.503 106.876Z" fill="#AFAFAF"/>
<path d="M64.5891 99.0524C64.1181 99.2189 63.6562 99.4116 63.1792 99.5579C67.6611 101.023 71.8182 102.333 71.8647 102.294L72.4722 101.769C72.6417 101.622 72.4632 101.613 64.5891 99.0524Z" fill="#AFAFAF"/>
<path d="M122.418 106.121C122.376 106.096 121.499 105.752 120.955 105.566C120.709 105.83 120.514 106.039 120.357 106.208C121.221 106.483 121.748 106.651 121.773 106.737C121.746 106.962 116.659 112.481 115.417 113.857C112.672 116.898 113.008 116.964 112.39 116.864C112.051 116.808 110.78 116.396 110.234 116.198C108.208 115.458 87.7161 107.388 87.6306 107.452C86.8551 108.03 86.8469 108.02 86.8746 108.095C86.9039 108.172 97.9128 111.97 108.874 116.507C112.79 118.128 112.804 118.141 113.667 117.215C114.04 116.816 114.202 116.637 114.777 115.949C116.66 113.689 123.012 107.204 122.854 106.516C122.823 106.38 122.69 106.281 122.418 106.121Z" fill="#AFAFAF"/>
<path d="M127.213 113.055C126.859 112.787 126.988 112.929 127.812 111.728C128.284 111.039 128.179 110.481 127.358 110.043C126.802 109.746 126.568 109.778 126.751 109.546C126.944 109.302 127.718 108.154 127.831 107.955C128.092 107.495 127.761 107.11 127.434 106.898C126.721 106.433 126.55 106.542 126.7 106.284C127.096 105.598 127.402 105.034 126.636 104.561C126.163 104.268 124.891 103.801 123.16 103.231C122.973 103.425 122.755 103.651 122.495 103.925C125.662 104.943 126.52 105.06 126.24 105.491C125.412 106.767 123.016 109.272 121.177 111.416C113.338 120.553 113.156 120.968 112.548 120.644C104.369 116.285 86.7391 109.759 86.2688 109.419C86.8831 108.624 89.2073 106.606 89.5402 106.326C89.6857 106.203 89.8252 106.028 89.9917 105.993C90.1357 105.962 90.3082 106.109 90.4755 106.16C92.6069 106.809 95.3053 107.522 97.9213 106.332C98.444 106.094 98.8273 105.706 99.221 105.318C99.3335 105.208 99.722 104.43 99.5825 103.532C99.5217 103.144 99.3815 102.772 99.1865 102.417C98.7282 102.229 98.2843 102.047 97.8545 101.873C98.0795 102.107 98.2813 102.366 98.4493 102.679C98.96 103.628 98.777 104.529 98.522 104.844C97.7585 105.789 96.5083 106.002 95.2153 106.144C94.6926 106.202 93.3201 106.212 90.7575 105.462C90.5062 105.388 90.6937 105.399 92.5514 103.858C93.7446 102.868 95.2003 101.619 95.8468 101.069C94.9566 100.717 94.1586 100.405 93.4641 100.138C93.3861 100.205 93.3036 100.275 93.2181 100.348C92.6579 100.826 93.1806 100.303 91.0455 102.191C84.4494 108.02 83.6904 108.366 83.5216 109.389C82.9967 112.557 83.0844 120.406 82.6637 121.083C82.6232 121.148 82.4972 121.218 82.4334 121.2C82.2407 121.146 82.0547 121.061 81.8799 120.965C81.7674 120.902 81.7809 120.496 81.8192 119.696C82.3089 109.42 82.1012 112.139 82.4567 109.19C82.6209 107.823 83.7489 107.096 90.5632 101.185C91.1699 100.659 91.7354 100.166 92.2889 99.6883C91.1639 99.2601 90.4845 99.0089 90.3457 98.9451C89.7367 98.6684 89.5995 98.4636 89.1353 98.8356C88.239 99.5541 87.5303 99.0059 85.0456 98.0519C84.2664 97.7526 83.5434 97.3199 82.7312 97.0964C82.5999 97.0604 82.4709 97.0177 82.3419 96.9712C80.2472 98.7591 77.4048 101.173 73.4036 104.46C73.0459 104.754 72.8577 105.117 72.7864 105.558C72.2262 109.041 72.3754 115.981 72.2719 117.089C72.2277 117.566 72.0529 117.659 71.6427 117.429C71.3967 117.291 71.3344 117.112 71.3315 116.854C71.3307 116.765 71.4072 109.384 71.5894 106.738C71.6592 105.721 71.8197 105.131 71.8414 105.015C71.9719 104.31 72.1504 104.096 72.9117 103.467C72.9297 103.452 76.6113 100.43 76.6293 100.417C79.6015 98.1966 78.4945 98.9429 81.3407 96.6082C80.965 96.4904 80.1182 96.2317 79.0518 95.8777C75.4383 98.8011 71.201 102.231 70.085 103.359C69.9477 103.498 69.8547 103.533 69.6702 103.465C66.8496 102.414 63.7401 101.325 60.7635 100.314C59.97 100.523 59.514 100.498 59.0273 100.045C58.5923 99.6396 58.44 99.8338 57.8123 100.065C57.7665 100.082 57.6638 100.114 57.5078 100.161C62.6654 101.889 68.4853 103.931 69.428 104.336C69.6612 104.436 69.593 104.348 69.5337 105.914C69.5532 105.915 69.551 105.917 69.5232 106.2C69.5142 106.291 69.4917 106.353 69.3733 106.314C65.4591 105.015 58.9553 102.779 54.2244 101.143C53.7872 101.277 53.3147 101.422 52.8084 101.58C53.3432 101.767 53.9461 101.978 54.6279 102.213C69.5188 107.343 69.5052 107.072 69.4992 107.399C69.4992 107.415 69.4572 108.699 69.473 108.699C69.4647 108.793 69.4535 108.888 69.4497 108.983C69.4347 109.383 68.8865 108.832 67.6213 108.42C65.9443 107.876 65.5649 107.492 62.0054 106.368C60.825 105.995 56.0431 104.523 54.1831 103.909C52.7627 103.44 51.1367 102.973 49.7178 102.56C49.3038 102.694 48.8755 102.833 48.436 102.978C49.0518 103.184 50.7887 103.699 52.0532 104.104C52.8354 104.355 53.6041 104.649 54.3909 104.883C55.3201 105.158 56.2523 105.428 57.1613 105.765C58.341 106.202 63.1979 107.521 63.9546 107.85C65.6901 108.602 66.1986 108.69 69.1903 109.881C69.3628 109.95 69.4333 110.052 69.4152 110.255C69.2368 112.295 69.4768 112.151 69.0493 111.996C68.8955 111.94 48.4315 104.829 46.8168 104.154C46.4096 103.983 47.2571 103.678 47.7468 103.205C47.0238 103.445 46.2701 103.698 45.4886 103.964C45.3244 104.46 46.0601 104.835 46.7718 105.072C47.9508 105.465 47.4093 105.192 45.4031 106.724C45.0529 106.991 44.7844 107.631 45.0911 107.952C45.5771 108.459 46.3526 108.583 46.8296 108.747C54.3496 111.328 54.0031 111.172 54.6534 111.322C55.9486 111.621 57.951 112.453 59.9167 113.135C69.1145 116.324 68.1193 116.133 69.074 116.438C69.3043 116.511 69.2518 116.466 69.3463 117.063C69.4033 117.424 69.5465 117.734 69.9057 117.897C70.6032 118.212 71.2865 118.562 72.0004 118.837C74.5421 119.818 77.0861 120.576 77.5443 120.726C77.9658 120.864 78.3708 121.054 78.7968 121.172C79.6082 121.396 80.3312 121.829 81.1097 122.129C83.5929 123.086 84.3016 123.636 85.1986 122.918C85.6628 122.546 85.8001 122.751 86.4091 123.029C86.8501 123.23 92.7029 125.323 101.022 128.967C101.552 129.199 105.361 130.772 106.636 131.322C108.053 131.932 108.006 132.052 111.746 133.614C112.733 134.026 113.224 133.491 114.473 132.255C116.579 130.17 114.839 132.01 117.041 129.652C119.768 126.733 119.827 126.767 120.916 125.602C123.86 122.45 121.948 124.234 127.353 118.559C127.617 118.283 127.759 118.055 127.896 117.698C128.003 117.419 127.821 117.154 127.591 116.96C126.826 116.317 126.656 116.406 126.965 116.083C127.82 115.19 127.957 115.042 128.205 114.5C128.483 113.891 128.101 113.727 127.215 113.055H127.213ZM69.344 113.13C69.284 113.882 69.2915 113.616 69.3238 115.283C69.284 115.752 69.5645 115.659 66.8323 114.599C66.3051 114.395 65.7681 114.214 65.2424 114.006C64.6776 113.783 64.1226 113.538 63.5594 113.317C60.315 112.042 53.6342 110.068 48.7908 108.308C48.097 108.056 47.2511 107.848 46.4411 107.543C46.0803 107.406 46.2731 107.178 46.5183 107.02C46.6391 106.942 48.223 105.945 48.517 105.819C48.6295 105.77 48.7308 105.765 48.8605 105.801C51.208 106.461 62.6729 110.719 69.1813 112.883C69.3057 112.924 69.3545 113.003 69.3448 113.13L69.344 113.13ZM80.248 108.719C79.1643 108.366 77.545 107.74 74.0441 106.239C73.5829 106.042 73.8214 105.364 74.4536 105.549C76.0676 106.02 80.7835 107.823 81.4787 108.2C81.8207 108.385 81.4622 109.115 80.2487 108.72L80.248 108.719ZM85.7213 111.265C85.8136 110.188 85.7273 110.11 86.1211 110.258C98.6885 114.959 104.283 117.666 112.333 121.28C112.799 121.49 113.208 121.515 113.56 121.143C113.947 120.734 115.834 118.847 116.726 117.815C119.611 114.471 120.921 112.592 123.04 110.395C126.333 106.982 125.857 106.842 126.517 107.181C127.007 107.433 127.307 107.55 127.039 107.966C125.697 110.049 125.869 109.444 122.365 113.626C120.54 115.805 122.214 114.19 113.513 123.252C113.354 123.417 113.207 123.452 112.975 123.346C111.605 122.719 108.711 121.502 106.568 120.521C104.958 119.785 102.96 118.697 99.6365 117.605C93.8159 115.693 94.7159 115.614 85.8871 112.376C85.5833 112.265 85.6261 112.38 85.7213 111.264V111.265ZM85.5113 113.562C85.5578 113.022 85.5166 113.07 86.1518 113.315C89.5132 114.607 89.5657 114.521 90.6562 115.001C96.5811 117.605 98.162 117.939 99.362 118.365C104.291 120.115 105.224 120.84 108.166 122.147C113.166 124.367 112.924 124.376 113.42 124.16C113.81 123.989 114.148 123.736 114.446 123.439C115.337 122.552 121.05 116.393 121.921 115.251C123.319 113.415 122.829 114.011 125.988 110.4C126.297 110.047 126.232 110.124 126.517 110.308C127.087 110.674 127.391 110.79 127.132 111.189C126.293 112.486 126.473 112.059 124.057 115.067C122.538 116.96 122.16 117.05 120.834 118.667C120.433 119.154 118.932 120.742 118.339 121.391C114.845 125.215 114.731 125.095 113.553 126.037C112.901 126.559 112.646 126.434 112.217 126.291C111.716 126.124 111.053 125.659 110.181 125.296C105.547 123.363 96.5938 119.346 93.7739 118.437C93.0854 118.215 89.2515 116.903 88.5825 116.628C85.4551 115.344 85.4603 115.56 85.4611 115.271C85.4671 113.587 85.4288 114.539 85.5121 113.564L85.5113 113.562ZM126.974 117.659C124.668 120.491 114.805 130.924 112.704 132.634C112.343 132.928 112.106 132.7 111.7 132.525C96.9756 126.168 98.9788 126.945 93.6209 124.866C90.5482 123.674 88.4258 122.747 87.1283 122.229C85.6118 121.624 85.1836 121.518 85.1926 121.364C85.2249 120.755 85.2496 120.146 85.2766 119.536H85.2451C85.2833 119.09 85.2564 118.948 85.4888 119.035C85.5068 119.042 94.9213 122.734 94.9724 122.751C96.0433 123.128 98.7125 124.223 100.275 124.957C101.104 125.347 101.999 125.586 102.798 126.046C103.452 126.421 104.214 126.528 107.634 128.106C111.104 129.707 112.769 130.71 113.446 130.165C116.57 127.652 124.857 118.28 126.103 116.955C126.196 116.857 126.259 116.851 126.363 116.955C126.889 117.481 127.122 117.477 126.975 117.658L126.974 117.659ZM124.406 117.851C123.136 119.24 115.004 127.94 113.619 128.995C113.145 129.355 113.029 129.684 112.521 129.447C111.749 129.087 108.763 127.833 106.886 127.018C103.463 125.534 103.205 125.332 102.526 125.066C98.6555 123.555 100.545 124.177 96.2458 122.471C86.6648 118.668 87.1298 118.82 86.6746 118.643C85.0471 118.011 85.2758 118.651 85.4206 116.644C85.4768 115.871 85.1341 116.067 89.349 117.647C94.7624 119.678 89.5995 117.108 110.004 126.253C113.16 127.668 112.916 127.495 113.674 126.925C116.947 124.459 118.053 122.417 124.07 116.109C125.609 114.496 124.973 114.998 126.352 113.575C126.544 113.376 126.62 113.53 127.409 114.205C127.578 114.348 127.592 114.368 124.407 117.85L124.406 117.851Z" fill="#AFAFAF"/>
<path d="M34.1388 80.6591C34.3166 80.4423 34.0818 80.3501 33.9558 79.9871C33.7691 79.4471 34.0818 79.1014 34.3428 79.1929C34.9001 79.3871 34.7801 79.9901 35.1063 79.8603C35.3403 79.7673 35.5855 79.6623 35.8248 79.6466C36.7218 79.5881 37.0083 80.3073 36.8095 80.6831C36.5448 81.1863 36.0018 80.6148 35.1603 81.1803C34.3706 81.712 34.3668 82.903 35.3666 82.6173C36.4143 82.318 36.9565 81.9228 37.7882 81.9235C38.95 81.9243 40.2167 83.0417 39.8582 84.6985C39.5154 86.2839 38.8195 86.1002 39.1052 86.5854C39.1187 86.6087 39.4059 87.0272 39.5529 87.5124C39.7329 88.1079 39.1997 88.6434 38.8015 88.1529C38.0687 87.2506 38.23 87.0632 37.888 87.2477C37.2708 87.5821 36.7203 87.9024 35.959 87.7171C35.455 87.5949 35.3043 87.0167 35.4153 86.7279C35.536 86.4137 35.749 86.4317 36.0475 86.4054C37.4132 86.2832 38.8142 84.9579 38.3605 83.8772C38.14 83.3537 37.4815 83.4205 36.319 83.8532C35.6478 84.103 34.8468 84.2807 34.1666 83.9335C33.2554 83.4685 33.1309 81.886 34.1388 80.6591Z" fill="#AFAFAF"/>
<path d="M73.8345 93.831C73.629 93.738 73.494 93.597 73.4055 93.4253C73.3477 94.3747 73.3065 95.007 73.3042 95.0325C73.2817 95.289 73.2067 95.4637 72.951 95.583C72.525 95.7817 72.3578 95.6752 72.3488 95.196C72.3413 94.7985 72.4223 93.6585 72.5153 92.1975C71.979 91.983 70.974 91.5436 63.8402 89.0791C63.5162 88.9674 63.1915 88.8511 62.8682 88.7341C62.8615 89.6101 62.7918 91.2623 62.6343 97.0837C62.6125 97.8846 62.596 98.2911 62.479 98.3444C62.2975 98.4276 62.1055 98.4989 61.9098 98.5386C61.8453 98.5521 61.7245 98.4726 61.6885 98.4044C61.3743 97.8006 61.819 92.004 61.777 88.3336C60.9018 88.0111 60.0738 87.7074 59.3666 87.4899C59.3808 87.6467 59.3666 87.9241 59.3718 88.3846C59.3831 89.5059 59.4348 89.3934 59.1236 89.4811C50.0781 92.0513 50.9691 92.1968 45.0225 93.669C41.6265 94.5097 39.5528 95.4449 37.8931 96.0599C35.6822 96.8782 32.7063 97.8749 31.2925 98.3984C31.0533 98.4869 30.9093 98.4404 30.7638 98.2641C22.763 88.5774 24.3117 90.3121 22.6543 88.0036C19.4721 83.572 19.5988 84.1885 18.4154 82.0105C18.1791 81.5748 18.4874 81.4818 18.9944 81.2673C19.6776 80.9771 19.1931 81.0821 22.2223 84.7315C24.1715 87.0797 25.3369 89.0521 27.9649 92.6018C28.7771 93.6982 30.5178 95.7195 30.8733 96.1567C31.1966 96.5542 31.6068 96.5594 32.0868 96.3854C40.3666 93.3885 46.1414 91.1093 58.9698 87.3737C58.8326 87.3354 58.7006 87.3017 58.5754 87.2732C58.2866 87.2072 58.1944 87.2012 57.5216 86.9889C53.0015 88.4116 39.0624 92.5905 31.9203 95.736C31.2888 96.0142 31.1396 95.586 24.0042 85.8902C22.3295 83.6148 20.1283 80.9373 19.3971 79.6039C19.1324 79.1209 20.1418 79.0954 23.9705 78.1451C28.3789 77.0502 31.8933 76.3227 35.4744 75.497C35.2434 75.1962 35.0605 74.954 34.9075 74.747C28.3549 76.2754 20.4681 77.9216 19.0709 78.6469C18.2721 79.0616 18.5346 79.6466 18.8789 80.3606C19.0086 80.6291 18.8466 80.5068 18.1011 80.9178C17.7599 81.1053 17.4007 81.4638 17.6256 81.9423C17.7231 82.1493 18.4094 83.353 18.5834 83.6095C18.7491 83.8548 18.5181 83.806 17.9414 84.0602C17.0894 84.436 16.9432 84.9842 17.3632 85.7065C18.0959 86.9657 18.2346 86.8329 17.8619 87.0744C16.9274 87.6782 16.5352 87.8131 16.7669 88.4416C16.9732 89.0004 17.0992 89.1586 17.8851 90.1126C18.1694 90.4576 18.0066 90.3571 17.1952 90.9413C16.9514 91.1168 16.7504 91.3673 16.8367 91.6538C16.9462 92.0205 17.0714 92.2583 17.3137 92.5538C22.28 98.6159 20.5056 96.6944 23.2063 100.057C24.206 101.301 24.2667 101.272 26.7687 104.385C28.7891 106.901 27.1917 104.935 29.1356 107.172C30.2891 108.499 30.7383 109.069 31.7538 108.731C35.5997 107.452 35.5614 107.33 37.0202 106.827C38.3326 106.374 42.2475 105.09 42.7943 104.898C51.3613 101.884 57.3544 100.234 57.8089 100.066C58.4366 99.8354 58.5889 99.6411 59.0238 100.046C59.8653 100.829 60.6123 100.334 63.16 99.5646C63.9587 99.3239 64.7125 98.9459 65.5382 98.7824C65.9724 98.6969 66.3902 98.5379 66.8199 98.4314C67.2886 98.3159 69.8821 97.7489 72.4898 96.9614C73.2217 96.7402 73.9297 96.4432 74.6482 96.1807C75.0179 96.0457 75.1844 95.7472 75.2677 95.391C75.4064 94.8015 75.3509 94.8435 75.5856 94.7872C75.6778 94.7655 75.7521 94.7467 75.8196 94.728C75.1454 94.461 74.4952 94.1317 73.833 93.8332L73.8345 93.831ZM59.1453 98.4974C59.1423 98.6511 58.7081 98.7246 57.1504 99.2151C55.8177 99.6344 53.6322 100.4 50.4793 101.359C44.9812 103.033 47.0369 102.408 31.879 107.647C31.4605 107.792 31.2071 108 30.8696 107.681C28.9024 105.818 19.8456 94.6785 17.7569 91.6816C17.6234 91.4903 17.8559 91.5113 18.4199 91.0261C18.5316 90.9301 18.5931 90.9406 18.6786 91.0448C19.8231 92.4593 27.3866 102.424 30.3146 105.163C30.9491 105.757 32.6838 104.881 36.2642 103.543C39.7928 102.225 40.5608 102.176 41.2403 101.85C42.072 101.451 42.9825 101.279 43.8382 100.953C45.4507 100.338 48.1941 99.4446 49.2906 99.1484C49.3423 99.1341 59.0066 96.1559 59.0246 96.1499C59.2631 96.0809 59.2256 96.2204 59.2301 96.6674C59.2301 96.6674 59.1596 97.8854 59.1461 98.4959L59.1453 98.4974ZM57.8704 95.673C57.4031 95.8147 57.8779 95.6992 48.0396 98.7756C43.626 100.156 45.5557 99.6771 41.583 100.895C40.8863 101.109 40.6141 101.292 37.0899 102.516C35.1572 103.188 32.086 104.215 31.2888 104.517C30.7653 104.715 30.6731 104.378 30.2276 103.983C28.9249 102.829 21.4663 93.546 20.3023 92.0663C17.3857 88.3569 17.4014 88.3381 17.5799 88.2069C18.4169 87.5934 18.5039 87.4449 18.6816 87.6579C19.9498 89.1789 19.3529 88.6314 20.7673 90.3548C26.2962 97.0942 27.2472 99.2136 30.3273 101.917C31.0391 102.543 30.7833 102.696 34.0367 101.521C55.0677 93.9248 49.7271 96.1012 55.2769 94.4812C59.5976 93.2198 59.2713 92.9985 59.2691 93.7732C59.2646 95.7854 59.5406 95.1645 57.8704 95.673ZM59.3336 92.3978C59.3133 92.6865 59.3336 92.4713 56.1199 93.5183C55.4322 93.7425 51.5113 94.7647 50.8078 94.935C47.9271 95.6302 38.6994 98.9676 33.934 100.549C33.037 100.846 32.3418 101.261 31.8295 101.39C31.3908 101.5 31.1276 101.607 30.5163 101.038C29.4116 100.011 29.2894 100.121 26.0907 96.0472C25.5469 95.3549 24.1685 93.66 23.8055 93.1433C22.604 91.4333 22.2343 91.3148 20.8603 89.3139C18.6764 86.1324 18.8234 86.5727 18.0839 85.216C17.8559 84.7982 18.1671 84.706 18.7626 84.3835C19.0611 84.2222 19.0019 84.1397 19.2839 84.5155C22.1645 88.3516 21.7205 87.7209 22.9775 89.6559C23.7597 90.8596 28.9984 97.4279 29.8203 98.3796C30.0948 98.6976 30.4136 98.9751 30.7901 99.1754C31.2678 99.4281 31.0271 99.4011 36.1794 97.5599C39.2108 96.4769 40.1956 95.8244 45.2414 94.4467C46.4699 94.1115 48.0711 93.897 54.1745 91.7423C55.2979 91.3456 55.3437 91.4348 58.7921 90.3976C59.4438 90.2011 59.4071 90.1493 59.4123 90.6923C59.4228 91.6711 59.4558 90.7186 59.3358 92.3978H59.3336Z" fill="#AFAFAF"/>
<path d="M53.5791 85.6727C47.3138 87.5754 36.0498 91.0538 34.5588 91.4745C34.0001 91.632 32.7019 91.9478 32.3599 91.9778C31.7359 92.0318 32.0756 91.9913 29.5662 88.7536C28.4307 87.2881 23.7696 81.4053 23.7598 81.1795C23.8348 80.9755 26.8438 80.5218 30.5172 79.2761C32.0149 78.7676 34.1223 78.2096 36.7375 77.7221C36.916 77.6891 37.0563 77.6629 37.1868 77.6366C36.964 77.3674 36.7825 77.1491 36.5763 76.8949C35.3681 77.1484 34.3128 77.3209 32.5789 77.8271C27.7962 79.2228 28.799 79.1373 24.8871 80.0163C24.3973 80.1258 23.2116 80.4903 23.1614 80.5158C22.8794 80.6546 22.7376 80.7446 22.6964 80.8773C22.4879 81.5515 28.337 88.4926 30.0469 90.8865C30.5682 91.6163 30.7174 91.8068 31.0594 92.232C31.8506 93.219 31.8656 93.2077 35.8923 91.884C43.3194 89.4421 50.7419 87.3211 54.9508 86.1369C54.5473 86.0004 54.0928 85.8467 53.5783 85.6712L53.5791 85.6727Z" fill="#AFAFAF"/>
<path d="M114.767 80.8908C115.034 80.9741 115.031 80.7213 115.32 80.4678C115.75 80.0906 116.188 80.2503 116.202 80.5263C116.233 81.1158 115.628 81.232 115.872 81.4848C116.047 81.6663 116.236 81.8538 116.341 82.0698C116.734 82.8783 116.176 83.4145 115.753 83.3732C115.187 83.3177 115.511 82.5993 114.67 82.0338C113.879 81.5028 112.776 81.949 113.418 82.7673C114.09 83.6245 114.66 83.9777 114.974 84.7487C115.412 85.8249 114.854 87.4194 113.185 87.7134C111.588 87.9946 111.495 87.2806 111.153 87.7284C111.137 87.7494 110.858 88.1739 110.464 88.4926C109.98 88.8841 109.284 88.5924 109.587 88.0389C110.146 87.0196 110.381 87.0984 110.081 86.8517C109.539 86.4062 109.034 86.0169 108.918 85.2429C108.841 84.73 109.32 84.3722 109.628 84.3662C109.965 84.3595 110.028 84.5642 110.165 84.8297C110.793 86.0484 112.55 86.8457 113.379 86.0169C113.781 85.6157 113.471 85.0307 112.632 84.1172C112.146 83.59 111.68 82.915 111.745 82.1538C111.832 81.1346 113.25 80.4206 114.767 80.8908Z" fill="#AFAFAF"/>
<path d="M74.1794 76.8289C73.0537 77.1687 72.5152 77.2339 71.9377 76.6849C71.5147 76.283 71.358 76.4637 70.7512 76.6827C73.6064 77.5954 75.7432 78.2547 75.7762 78.2269L76.3829 77.7012C76.4939 77.6044 76.4564 77.5677 74.1794 76.8289Z" fill="#AFAFAF"/>
<path d="M126.771 82.3923C126.739 82.2565 126.605 82.1568 126.334 81.9978C126.286 81.9693 125.13 81.5185 124.649 81.373C120.813 80.2083 121.807 80.3681 117.14 78.6236C114.178 77.5166 113.213 77.5826 109.967 76.2747C108.682 75.7572 103.447 73.9292 103.072 73.7424C103.045 73.7282 103.011 73.7334 102.988 73.7544C102.374 74.3184 102.311 74.3357 102.328 74.4107C102.348 74.4969 102.344 74.3724 108.801 76.7539C112.193 78.0041 112.008 77.9509 113 78.2134C115.572 78.8914 117.633 79.6031 119.089 80.2203C122.661 81.733 125.628 82.4065 125.688 82.615C125.662 82.84 120.581 88.3636 119.34 89.7413C116.599 92.7855 116.935 92.8515 116.317 92.751C115.979 92.6962 114.707 92.286 114.161 92.088C112.134 91.3508 91.6328 83.3035 91.5473 83.368C90.7846 83.938 90.7636 83.9365 90.7921 84.0115C90.8213 84.0887 101.834 87.8746 112.8 92.3993C116.718 94.0155 116.732 94.0282 117.594 93.102C117.966 92.7023 118.129 92.5238 118.703 91.8345C120.584 89.5726 126.928 83.0807 126.769 82.393L126.771 82.3923Z" fill="#AFAFAF"/>
<path d="M132.128 90.3698C132.405 89.7608 132.024 89.5973 131.136 88.9261C130.782 88.6584 130.911 88.8001 131.734 87.5979C132.206 86.9087 132.1 86.3507 131.278 85.9134C130.722 85.6172 130.488 85.6487 130.671 85.4169C130.863 85.1732 131.636 84.0242 131.748 83.824C132.009 83.3635 131.676 82.9795 131.35 82.7673C130.636 82.303 130.466 82.4125 130.615 82.1545C131.011 81.4683 131.316 80.9043 130.55 80.4318C129.006 79.4801 118.957 76.6752 112.227 74.4821C111.727 74.3193 111.239 74.1183 110.739 73.9593C106.639 72.6581 106.45 72.7721 106.466 72.3409C106.514 71.1109 104.683 70.586 101.463 69.4543C101.127 69.3358 100.401 69.1887 99.1999 68.7537C98.7896 68.8655 98.3741 68.9772 97.9609 69.0822C88.5314 71.4799 89.4996 71.3786 88.5554 71.5946C88.3199 71.6479 88.3754 71.6074 88.2306 72.1939C88.1421 72.5501 87.9741 72.8464 87.6014 72.9776C86.8799 73.2333 86.1674 73.5236 85.434 73.7373C85.344 73.7636 85.254 73.7898 85.164 73.8153C83.199 75.4909 80.6641 77.6329 77.3169 80.3898C76.9599 80.6846 76.7717 81.0483 76.7012 81.4893C76.1447 84.9722 76.3014 91.9118 76.2002 93.0202C76.1559 93.4972 75.9819 93.591 75.571 93.3615C75.3249 93.2235 75.2626 93.0442 75.2589 92.7862C75.2581 92.697 75.3264 85.3164 75.5057 82.6698C75.5747 81.6528 75.7345 81.0625 75.7554 80.9471C75.8852 80.2413 76.0637 80.0276 76.8234 79.3976C76.8414 79.3826 80.5193 76.3564 80.5373 76.3437C82.149 75.1369 82.56 74.8053 83.0535 74.3808C81.4028 74.7956 80.0723 75.0732 79.7483 75.1497C79.3171 75.2509 78.8971 75.4062 78.4629 75.4879C78.4479 75.4909 78.4336 75.4939 78.4194 75.4969C76.3757 77.1769 74.6499 78.6319 73.9959 79.2933C73.8587 79.4321 73.7657 79.4681 73.5812 79.3998C71.8397 78.7534 69.9873 78.0919 68.1251 77.4439C67.6923 77.5699 67.1988 77.7154 66.6401 77.8819C69.9415 79.0181 72.7142 80.0036 73.3397 80.2721C73.5729 80.3718 73.5047 80.2833 73.4477 81.85C73.4672 81.8515 73.4649 81.853 73.4379 82.1358C73.4289 82.2273 73.4064 82.2895 73.2879 82.2498C70.6885 81.3903 66.9483 80.1198 63.3424 78.8854C62.8962 79.0234 62.426 79.1696 61.931 79.3248C73.4319 83.2375 73.4207 83.035 73.4154 83.3342C73.4154 83.35 73.3749 84.634 73.3907 84.634C73.3824 84.7285 73.3712 84.823 73.3674 84.9182C73.3532 85.3187 72.8042 84.7675 71.5382 84.358C69.8613 83.815 69.481 83.4317 65.9201 82.3113C64.9234 81.9978 61.3587 80.9036 59.153 80.2023C58.6963 80.3478 58.2238 80.4993 57.7356 80.6568C57.9246 80.7191 58.1136 80.7783 58.3048 80.8345C59.234 81.109 60.1663 81.3775 61.0767 81.7135C62.2572 82.15 67.1148 83.4632 67.8723 83.791C69.6093 84.541 70.1178 84.6287 73.1102 85.8159C73.2834 85.8842 73.3532 85.9877 73.3359 86.1902C73.1597 88.2301 73.3997 88.0861 72.9714 87.9309C72.8559 87.8889 61.2695 83.8772 54.8302 81.5995C54.4244 81.7323 54.0089 81.868 53.5844 82.0075C57.0763 83.1362 67.1591 86.8479 73.1057 88.8181C73.2302 88.8594 73.2789 88.9373 73.2692 89.0648C73.2099 89.8178 73.2167 89.5516 73.2512 91.2188C73.2122 91.6875 73.4927 91.5938 70.759 90.5378C70.2318 90.3338 69.6948 90.1538 69.1683 89.9461C68.6035 89.7241 68.0478 89.4788 67.4846 89.2583C64.2387 87.9871 57.5556 86.0207 52.7107 84.2657C52.0162 84.0145 51.171 83.8082 50.3603 83.503C50.082 83.398 50.133 83.239 50.2823 83.0988C50.1435 83.1452 50.004 83.1917 49.8638 83.2382C49.4573 83.374 49.167 83.4812 48.8768 83.5922C48.885 83.7137 48.9255 83.8255 49.0095 83.9132C49.4955 84.4195 50.2718 84.544 50.7488 84.7075C58.2718 87.2799 57.9251 87.1247 58.5754 87.2732C59.8706 87.5702 61.8747 88.4004 63.8412 89.0798C73.0427 92.259 72.0475 92.0685 73.0022 92.3723C73.2324 92.4458 73.1799 92.4 73.2752 92.9977C73.3322 93.3585 73.4752 93.669 73.8345 93.831C74.532 94.1452 75.2176 94.4939 75.9309 94.7684C78.4741 95.7464 81.0181 96.5016 81.4771 96.6516C81.8985 96.7896 82.3035 96.9786 82.7295 97.0956C83.541 97.3191 84.2647 97.7519 85.044 98.0511C87.5286 99.0051 88.2374 99.5541 89.1336 98.8348C89.5978 98.4629 89.7351 98.6676 90.3441 98.9443C90.7851 99.1446 96.6409 101.231 104.963 104.866C105.494 105.098 109.304 106.666 110.579 107.215C111.997 107.824 111.95 107.943 115.691 109.501C116.679 109.913 117.169 109.377 118.417 108.139C120.52 106.052 118.783 107.894 120.982 105.534C123.706 102.612 123.765 102.646 124.853 101.479C127.793 98.3234 125.883 100.11 131.281 94.4295C131.544 94.1527 131.687 93.9255 131.823 93.5677C131.93 93.2887 131.748 93.024 131.518 92.8312C130.752 92.1885 130.582 92.2778 130.891 91.9545C131.745 91.0613 131.883 90.9128 132.129 90.3706L132.128 90.3698ZM131.053 87.0571C130.215 88.3554 130.395 87.9279 127.983 90.9398C126.465 92.8342 126.087 92.925 124.764 94.5427C124.364 95.0309 122.864 96.6202 122.272 97.2704C118.782 101.098 118.668 100.979 117.491 101.922C116.839 102.444 116.584 102.319 116.155 102.177C115.654 102.01 114.991 101.546 114.118 101.184C109.482 99.2563 100.524 95.2492 97.7029 94.344C97.0137 94.1227 93.179 92.8148 92.5093 92.541C89.3811 91.2608 89.3856 91.4768 89.3863 91.1873C89.3901 89.5036 89.3533 90.4553 89.4351 89.4811C89.4808 88.9403 89.4396 88.9891 90.0756 89.2328C93.4385 90.5213 93.4902 90.4351 94.5815 90.9136C100.509 93.5115 102.091 93.8437 103.292 94.2682C108.222 96.0127 109.157 96.7364 112.1 98.0391C117.102 100.255 116.86 100.264 117.355 100.047C117.746 99.8751 118.084 99.6223 118.381 99.3246C119.27 98.4359 124.977 92.271 125.846 91.1273C127.242 89.2898 126.753 89.8861 129.908 86.2719C130.216 85.9187 130.152 85.9959 130.437 86.1789C131.007 86.5442 131.311 86.6589 131.053 87.0586V87.0571ZM130.957 83.8367C129.617 85.9217 129.789 85.3164 126.289 89.5021C124.467 91.6823 126.138 90.0661 117.447 99.1378C117.289 99.3028 117.142 99.3388 116.909 99.2323C115.538 98.6069 112.643 97.3934 110.499 96.4154C108.889 95.6804 106.889 94.5945 103.565 93.507C97.7419 91.6013 98.6419 91.5218 89.8093 88.2939C89.5056 88.1829 89.5491 88.2984 89.6428 87.1816C89.7336 86.1047 89.6473 86.0267 90.0411 86.1737C102.614 90.8603 108.212 93.5617 116.266 97.1669C116.731 97.3754 117.141 97.4009 117.492 97.0281C117.879 96.6179 119.764 94.7302 120.654 93.6967C123.536 90.3503 124.843 88.4686 126.96 86.2704C130.249 82.8535 129.774 82.7133 130.434 83.053C130.923 83.3042 131.225 83.4205 130.957 83.8367ZM105.064 72.8756C112.816 75.8382 117.814 76.9849 125.701 79.5723C129.45 80.8023 130.455 80.9021 130.155 81.364C129.327 82.6405 126.936 85.1477 125.098 87.2941C117.27 96.4394 117.089 96.8557 116.48 96.5317C108.296 92.1825 90.6591 85.6757 90.1888 85.3359C90.8023 84.541 93.1243 82.5198 93.4565 82.2393C93.602 82.1163 93.7407 81.9415 93.9072 81.9063C94.0512 81.8755 94.2237 82.0225 94.391 82.0728C96.5232 82.72 99.2224 83.4302 101.837 82.2363C102.36 81.9978 102.742 81.6093 103.135 81.2215C103.248 81.1105 103.635 80.3328 103.494 79.4351C103.284 78.0994 102.127 76.9392 101.064 76.0887C100.932 75.9822 100.863 75.9934 101.195 75.7182C104.713 72.8119 104.635 72.7114 105.064 72.8756ZM96.4632 79.7681C97.9121 78.5629 99.7473 76.9752 100.049 76.7262C100.212 76.5912 100.426 76.6137 100.59 76.7524C101.277 77.3359 101.93 77.7836 102.36 78.5824C102.872 79.5311 102.69 80.4326 102.435 80.7483C101.673 81.6933 100.423 81.9078 99.1301 82.0518C98.6074 82.1103 97.2357 82.1223 94.6715 81.3738C94.4202 81.3003 94.6077 81.3115 96.4632 79.7681ZM84.1665 84.6422C83.082 84.2905 81.4628 83.6665 77.9596 82.1695C77.4984 81.9723 77.7362 81.2943 78.3684 81.4788C79.9831 81.9475 84.7005 83.7452 85.3964 84.121C85.7384 84.3055 85.3807 85.0359 84.1665 84.6422ZM87.4394 85.3082C86.9182 88.4769 87.0142 96.3262 86.5949 97.0034C86.5544 97.0686 86.4284 97.1391 86.3647 97.1211C86.1719 97.0671 85.9859 96.9824 85.8112 96.8864C85.6987 96.8242 85.7122 96.4177 85.7489 95.6174C86.2267 85.3412 86.0227 88.0606 86.3744 85.1109C86.5372 83.7437 87.6644 83.0155 94.472 77.0966C96.7212 75.1414 98.4146 73.6338 100.959 71.7229C101.596 71.2444 101.97 70.5259 102.543 70.9587C102.596 70.9984 102.666 71.0112 102.726 71.0404C103.333 71.3374 102.606 71.7529 102.117 72.1361C98.5136 74.9658 100.134 73.6833 97.1262 76.2567C96.5659 76.7359 97.0887 76.2124 94.9557 78.1024C88.3664 83.9387 87.6074 84.286 87.4394 85.3082ZM130.903 93.5295C128.6 96.3637 118.748 106.808 116.65 108.521C116.289 108.815 116.052 108.588 115.645 108.413C100.914 102.073 102.918 102.847 97.5574 100.774C94.4832 99.5856 92.36 98.6616 91.0618 98.1449C89.5446 97.5411 89.1164 97.4361 89.1246 97.2824C89.1561 96.6734 89.1801 96.0637 89.2064 95.4532H89.1749C89.2124 95.0069 89.1854 94.8652 89.4178 94.9522C89.4358 94.9589 98.8549 98.6399 98.9051 98.6579C99.9768 99.0336 102.647 100.126 104.21 100.858C105.039 101.247 105.935 101.485 106.735 101.944C107.388 102.319 108.151 102.425 111.572 103.999C115.044 105.597 116.71 106.597 117.386 106.052C120.508 103.536 128.784 94.1535 130.029 92.8275C130.122 92.7293 130.184 92.7233 130.288 92.8275C130.815 93.3525 131.048 93.3487 130.901 93.5302L130.903 93.5295ZM128.336 93.7252C127.067 95.1157 118.945 103.824 117.562 104.88C117.088 105.241 116.972 105.57 116.464 105.334C115.692 104.975 112.705 103.724 110.826 102.912C107.402 101.433 107.143 101.23 106.464 100.966C102.592 99.4588 104.481 100.078 100.181 98.3766C90.5961 94.5847 91.0611 94.7362 90.6051 94.56C88.9769 93.9307 89.2064 94.5697 89.3489 92.5628C89.4036 91.7903 89.0616 91.9868 93.2787 93.5625C98.6944 95.5859 93.5285 93.0232 113.944 102.145C117.101 103.556 116.857 103.384 117.613 102.813C120.884 100.343 121.988 98.3001 127.998 91.9853C129.535 90.3706 128.899 90.873 130.276 89.4488C130.469 89.2493 130.545 89.4038 131.334 90.0773C131.503 90.2206 131.517 90.2401 128.336 93.7252Z" fill="#AFAFAF"/>
<path d="M47.7407 59.7535C49.8586 59.329 50.1249 59.2315 50.6754 59.2458C52.2233 59.2855 53.6528 60.601 52.6741 62.2554C52.0583 63.2972 51.4268 63.1697 51.7186 63.4982C51.8071 63.5979 52.0171 63.9586 52.0651 64.0944C52.2766 64.6974 51.6256 65.1834 51.1606 64.6434C50.6431 64.0426 50.6851 63.8184 50.4436 63.9264C49.8414 64.1949 49.0524 64.4589 48.4119 64.2841C47.5172 64.0404 47.4939 63.4074 47.9807 63.1134C48.6519 62.7069 49.0921 62.9799 50.2659 62.3634C50.6334 62.1707 51.1981 61.9074 51.4043 61.3832C51.5041 61.1297 51.4283 60.9692 51.1741 60.8672C51.0533 60.8185 50.9094 60.775 50.7856 60.7922C48.9144 61.0487 48.1509 61.3772 46.822 61.0375C45.2425 60.634 45.2042 58.7845 46.5362 57.6401C46.6765 57.5193 46.6045 57.4946 46.2827 56.8593C45.9347 56.1716 46.915 55.5409 47.4587 56.7431C47.6567 57.1811 47.6289 56.6838 48.9137 56.7791C49.7011 56.8376 50.1106 57.4698 49.8414 57.9025C49.4604 58.516 48.7562 57.5688 47.5644 58.4433C47.3732 58.5835 47.2112 58.7793 47.0732 58.9758C46.8377 59.3103 46.9982 59.6455 47.4099 59.7093C47.5164 59.7258 47.6274 59.7123 47.7347 59.7123L47.7414 59.7528L47.7407 59.7535Z" fill="#AFAFAF"/>
<path d="M88.991 46.6798C89.2062 46.4623 88.8883 46.358 88.6858 45.974C88.376 45.3875 88.7675 45.0328 89.132 45.1475C89.8917 45.3868 89.7807 46.0123 90.1955 45.8923C90.491 45.8068 90.7984 45.7093 91.1022 45.7048C92.6112 45.6815 92.7514 47.021 91.8912 46.985C91.8229 46.982 91.7472 46.9948 91.6887 46.97C91.3099 46.814 90.9672 46.9618 90.635 47.1057C90.1107 47.333 89.8032 47.6967 89.6847 48.0972C89.5602 48.515 90.1812 48.6935 90.6447 48.5885C91.8889 48.308 92.5669 47.9592 93.5239 47.9645C94.8161 47.972 96.1293 48.9447 95.7176 50.3247C95.3388 51.5936 94.6331 51.4871 94.9203 51.8486C94.9331 51.8651 95.2143 52.1704 95.3516 52.5251C95.5166 52.9526 94.9878 53.3808 94.6016 53.0523C93.8621 52.4231 94.0279 52.2679 93.6754 52.4314C93.0349 52.7291 92.6937 53.0643 91.6339 52.9278C91.0767 52.8566 90.8764 52.4186 90.9852 52.1801C91.3812 51.3161 93.1031 51.6251 94.1899 50.2287C94.3399 50.0359 94.4374 49.8154 94.3024 49.5919C93.8351 48.8172 91.4097 50.5519 89.3195 49.8387C88.1225 49.4299 87.7805 47.9015 88.991 46.6798Z" fill="#AFAFAF"/>
<path d="M71.4744 61.6379L70.9779 61.1415C70.9592 61.1227 70.9307 61.1145 70.9044 61.122C62.8706 63.3449 61.1569 63.6704 52.2517 66.4603C51.0404 66.8398 46.6493 68.243 45.3548 68.3443C44.7309 68.393 45.0728 68.36 42.5934 65.0916C39.1592 60.564 38.953 60.4687 36.8823 57.4927C36.7263 57.2677 39.6715 56.9251 43.6434 55.6246C45.1261 55.1386 47.2823 54.5889 49.8787 54.1359C52.4452 53.6844 60.3252 51.2071 60.7669 51.1284C60.8389 51.1164 60.8517 51.0175 60.7849 50.9875C60.5975 50.899 60.5412 50.6335 60.2742 50.4385C60.1632 50.3567 59.6487 50.713 55.8471 51.6977C51.9119 52.7207 52.3102 52.8159 48.9802 53.4579C43.9831 54.4194 43.2444 55.1925 37.9998 56.3153C37.4958 56.4233 36.3116 56.7773 36.2711 56.7961C35.6861 57.0653 35.7011 57.1913 35.9561 57.6533C36.9318 59.4203 41.7947 65.4561 42.8784 66.9943C43.3396 67.6536 43.5376 67.9498 44.0454 68.594C45.1666 70.016 44.6596 69.398 57.0568 65.8048C62.3997 64.2569 71.4669 61.8119 71.4932 61.7106C71.4992 61.6851 71.4924 61.6582 71.4737 61.6395L71.4744 61.6379Z" fill="#AFAFAF"/>
<path d="M111.882 59.6132C112.257 59.4804 112.791 59.3784 113.262 59.1542C113.781 58.9082 113.516 58.2947 113.164 58.0157C112.482 57.4742 111.948 57.2807 111.292 56.8173C111.407 56.7783 111.521 56.7393 111.635 56.701C111.66 56.6928 111.69 56.6995 111.715 56.6913C112.008 56.5923 112.311 56.5113 112.592 56.3838C113.112 56.1483 113.226 55.5685 112.815 55.1868C112.296 54.7031 112.105 54.6693 111.494 54.3281C111.419 54.2861 111.415 54.2036 111.517 54.1743C111.57 54.1593 111.627 54.1706 111.679 54.1563C112.086 54.0438 112.519 54.0221 112.819 53.6351C113.141 53.2203 113.12 52.8446 112.653 52.5131C103.895 46.292 104.423 47.141 100.954 44.5251C98.5214 42.6906 98.9084 42.8721 97.3312 41.8401C96.5475 41.3271 95.3423 40.6612 95.1443 40.5142C94.1873 39.8024 92.6123 40.0004 84.649 41.9256C80.4206 42.9471 78.7054 43.3401 74.4989 44.4831C73.9041 44.6443 73.5876 43.9753 72.6847 43.9341C69.8985 44.3526 69.879 44.4546 67.9208 44.9481C67.0485 45.1678 66.1651 45.344 65.3078 45.611C63.5319 46.163 62.5314 46.2658 62.1114 46.3753C58.8093 47.237 56.9396 47.6037 56.8833 48.833C56.8638 49.2627 56.6861 49.1337 52.4899 50.0869C51.9784 50.2032 51.4759 50.3629 50.9645 50.4822C44.0714 52.0939 33.8236 54.0558 32.2067 54.8756C31.405 55.282 31.6592 55.8708 31.9974 56.587C32.1249 56.857 31.9644 56.734 31.2137 57.136C30.8695 57.3205 30.5065 57.6752 30.727 58.1552C30.823 58.3645 31.4964 59.5742 31.6674 59.8322C31.8309 60.0789 31.5999 60.0279 31.021 60.2762C30.1652 60.6437 30.0137 61.1911 30.4262 61.9156C31.147 63.1816 31.2872 63.0511 30.9115 63.2888C29.9725 63.8836 29.5772 64.0141 29.8022 64.6448C30.0032 65.205 30.127 65.367 30.9032 66.3285C31.1845 66.6765 31.0225 66.573 30.2042 67.1497C29.959 67.323 29.755 67.5727 29.8382 67.8585C29.9455 68.226 30.067 68.4645 30.307 68.7614C35.2269 74.8618 33.4561 72.9358 36.1216 76.3249C37.1078 77.5789 37.1678 77.5519 39.6382 80.6906C41.6332 83.2255 40.056 81.2441 41.9767 83.5015C43.1152 84.8387 43.5591 85.4139 44.5784 85.087C48.4378 83.8487 48.3988 83.725 49.8635 83.2368C65.1331 78.1466 70.188 76.8799 70.7227 76.6909C71.3534 76.4674 71.5087 76.2739 71.9377 76.6827C72.7709 77.4747 73.5224 76.9879 76.0775 76.2432C76.8777 76.0099 77.636 75.6409 78.4639 75.485C78.8982 75.404 79.3182 75.2487 79.7494 75.1467C80.2196 75.0365 82.8183 74.4988 85.435 73.7361C86.1685 73.5223 86.881 73.2321 87.6024 72.9763C87.9752 72.8443 88.1432 72.5489 88.2317 72.1926C88.3772 71.6061 88.3217 71.6466 88.5564 71.5934C89.5007 71.3781 88.5324 71.4786 97.9619 69.0817C99.9786 68.5687 102.045 67.9095 103.361 67.7227C104.021 67.629 103.662 67.7542 111.374 65.8215C111.862 65.6993 112.648 65.64 113.174 65.1765C113.505 64.884 113.293 64.2211 112.968 63.9271C111.097 62.2329 110.536 62.4571 111.745 62.1661C112.608 61.9591 113.52 61.5609 112.959 60.8739C112.677 60.5289 111.621 59.7894 111.621 59.7212C111.621 59.5794 111.79 59.6424 111.882 59.6102L111.882 59.6132ZM111.654 55.5498C111.741 55.6203 111.751 55.6578 111.648 55.7215C111.333 55.9173 110.982 56.0155 110.629 56.107C110.51 56.1385 95.946 59.8457 89.1129 61.4904C88.9899 61.5196 88.9727 61.4559 88.9719 61.3644C88.9697 61.0786 88.9652 61.0786 88.9869 61.0786C89.0619 59.5127 88.9854 59.5959 89.2269 59.5157C91.0014 58.9254 109.402 54.2891 109.943 54.5388C110.547 54.8186 111.131 55.1328 111.654 55.5498ZM37.1086 54.4346C45.1828 52.5169 50.255 51.7766 58.234 49.4907C58.4538 49.4277 58.5438 49.4322 58.8985 49.7457C59.836 50.5744 61.0277 51.8426 61.7979 52.5866C62.1707 52.9459 62.1024 52.9203 61.9532 53.0216C60.8252 53.7828 59.572 54.8396 59.2517 56.1528C58.9435 57.4165 59.536 58.4462 60.6692 59.0844C63.2424 60.5349 66.0998 59.9709 68.1038 59.5487C68.274 59.5127 68.4585 59.3814 68.5988 59.4227C68.7915 59.4797 71.4554 62.2974 72.0134 63.1568C71.5169 63.4553 53.3974 68.4645 44.8754 72.1086C44.2401 72.3801 44.0969 71.9519 37.0621 62.1819C35.4113 59.8884 33.2387 57.1892 32.5202 55.8483C32.2607 55.363 33.2702 55.3473 37.1078 54.4353L37.1086 54.4346ZM62.3319 53.5016C62.5067 53.3771 62.5247 53.3793 62.6762 53.5278C62.9566 53.8008 64.8879 55.7485 66.2303 57.0722C67.9485 58.7657 68.1375 58.7687 67.8795 58.8212C65.2613 59.3522 63.8949 59.2247 63.3796 59.1234C60.883 58.633 59.0597 57.5275 60.451 55.3968C60.9475 54.6371 61.5954 54.0258 62.3304 53.5023L62.3319 53.5016ZM31.5114 58.24C31.2805 57.8027 31.5894 57.712 32.0994 57.502C32.7849 57.2192 32.3004 57.3182 35.2906 60.9984C37.2151 63.3668 38.3595 65.3528 40.953 68.9279C41.7539 70.0327 43.4729 72.0719 43.8239 72.5128C44.1426 72.9126 44.5536 72.9223 45.0359 72.7543C53.3666 69.8467 59.1647 67.5997 72.0884 63.9968C72.4934 63.8836 72.4034 63.9578 72.4034 65.037C72.4034 66.159 72.4522 66.0465 72.1402 66.1313C63.0684 68.604 63.9594 68.7645 57.9963 70.1752C54.5929 70.9806 52.5087 71.8941 50.843 72.4911C48.6238 73.2868 45.6388 74.2566 44.2184 74.7613C43.9784 74.8468 43.8344 74.7988 43.6904 74.6203C35.7991 64.842 37.3208 66.6015 35.6881 64.2773C32.5502 59.8119 32.6672 60.4322 31.5099 58.2392L31.5114 58.24ZM72.1724 73.3191L72.1402 73.3176C72.1289 73.9273 72.0892 74.5363 72.0697 75.1452C72.0644 75.3005 71.6317 75.3665 70.0695 75.8412C68.73 76.2477 66.5386 76.9902 63.3766 77.9171C57.8613 79.5333 59.9215 78.9229 44.7119 84.0137C44.2919 84.1547 44.0369 84.3602 43.7024 84.037C41.7554 82.1538 32.8112 70.9229 30.7562 67.9042C30.625 67.7115 30.8575 67.7325 31.426 67.2555C31.5384 67.161 31.6007 67.1722 31.6839 67.2787C32.8059 68.709 40.2742 78.7459 43.1737 81.5156C43.8006 82.1148 45.5451 81.2576 49.1382 79.9571C52.6789 78.6754 53.4484 78.6349 54.1309 78.3161C54.9671 77.9254 55.8768 77.7634 56.7378 77.4454C58.3563 76.8469 61.1072 75.9769 62.2074 75.6972C62.2599 75.6837 71.9542 72.8053 71.9722 72.8001C72.2129 72.7326 72.1724 72.8736 72.1724 73.3191ZM70.83 72.3096C70.3597 72.4469 70.8352 72.3344 60.9655 75.3095C56.5376 76.6444 58.471 76.1839 54.4879 77.3622C53.7889 77.5692 53.5144 77.7491 49.979 78.9371C48.0388 79.5888 44.9564 80.5863 44.1584 80.8788C43.6326 81.0716 43.5441 80.7341 43.1032 80.3351C41.8124 79.1666 34.4484 69.8077 33.3009 68.316C30.4225 64.5766 30.4397 64.5578 30.619 64.4288C31.4627 63.8236 31.5512 63.6781 31.7259 63.8918C32.9792 65.427 32.3874 64.872 33.7839 66.6098C39.2438 73.4046 40.1685 75.5374 43.2239 78.2696C43.9169 78.8891 43.6416 79.0631 46.9363 77.9104C68.0078 70.5382 62.6087 72.6719 68.2485 71.0901C72.5827 69.8744 72.2602 69.6517 72.2497 70.4257C72.2227 72.4379 72.5062 71.8199 70.83 72.3096ZM72.3247 69.0434C72.3022 69.3307 72.3232 69.1214 69.0975 70.1347C68.4068 70.3522 64.4769 71.3331 63.7719 71.4966C60.8845 72.1664 51.6229 75.4077 46.8403 76.9369C45.9403 77.2249 45.2414 77.6329 44.7269 77.7551C44.2874 77.8594 44.0234 77.9636 43.4166 77.3892C42.3209 76.3504 42.1979 76.4599 39.0428 72.3524C38.5073 71.6549 37.1453 69.9449 36.7891 69.4252C35.6071 67.7017 35.2374 67.5817 33.8836 65.5658C31.7327 62.3626 31.8737 62.8043 31.1492 61.4386C30.9272 61.0194 31.237 60.9301 31.8369 60.6137C32.1369 60.4554 32.0799 60.3737 32.3559 60.7509C35.1901 64.6201 34.7596 63.9818 35.9963 65.928C36.7666 67.14 41.9362 73.7601 42.7484 74.7215C43.0199 75.0425 43.3349 75.3222 43.7099 75.527C44.1854 75.7849 43.9446 75.7549 49.1157 73.9671C52.1584 72.9156 53.1499 72.2736 58.2093 70.9476C59.4422 70.6244 61.045 70.4272 67.1708 68.3347C68.298 67.95 68.3438 68.04 71.8012 67.038C72.4544 66.849 72.4169 66.7965 72.4169 67.3387C72.4169 68.3167 72.4574 67.365 72.3247 69.0434ZM75.5795 73.7646C75.5488 74.5663 75.527 74.972 75.4116 75.0237C75.2286 75.1055 75.0358 75.173 74.8401 75.2112C74.7764 75.224 74.6556 75.1445 74.6211 75.0755C74.2641 74.3631 75.0133 66.5513 74.7598 63.3503C74.6781 62.3184 73.9484 61.9059 67.8705 55.54C65.9026 53.4783 66.3796 54.0423 65.8621 53.5181C63.0804 50.6997 64.5886 52.1164 61.2354 48.9942C60.7817 48.572 60.091 48.0987 60.721 47.8512C60.7832 47.8272 60.8552 47.819 60.9107 47.7845C61.5189 47.4027 61.8302 48.1482 62.4264 48.6792C64.8016 50.7949 66.3623 52.4389 68.4398 54.5763C74.7268 61.0449 75.7887 61.8639 75.8367 63.2408C75.9395 66.21 75.9732 63.4846 75.5803 73.7638L75.5795 73.7646ZM84.4315 60.9781C80.8166 62.1789 79.0189 62.4414 77.9104 62.7009C76.6625 62.9934 76.8425 62.1946 77.1995 62.0386C77.9232 61.7229 82.4688 60.6294 84.1143 60.2919C84.9513 60.1202 84.727 60.8799 84.4315 60.9781ZM86.8735 61.7214C86.8352 64.0426 86.275 71.7359 86.2675 71.8229C86.2442 72.0794 86.1662 72.2534 85.9097 72.3704C85.4815 72.5654 85.3158 72.4566 85.312 71.9781C85.3037 71.0009 86.0552 64.1498 85.7807 60.4464C85.7477 60.0024 85.5902 59.6229 85.2595 59.2997C75.3448 49.5957 73.1534 46.8875 71.2484 45.6605C70.6215 45.257 71.5867 44.7771 72.1334 45.1348C72.7867 45.5623 72.7349 45.4363 76.208 48.872C76.727 49.3849 76.8807 49.6999 77.6059 50.4019C80.7649 53.4611 79.5071 52.3826 82.3893 54.9963C82.4058 55.0113 85.819 58.3345 85.8355 58.351C86.5352 59.0492 86.6972 59.2704 86.7677 59.9844C86.7797 60.1022 86.8892 60.7029 86.8727 61.7221L86.8735 61.7214ZM82.2221 52.1126C81.0844 51.0394 76.3632 46.3603 75.5698 45.6905C75.1161 45.308 75.0021 45.236 75.2046 45.1813C90.9249 40.9259 91.5263 41.4096 93.2303 40.9387C93.513 40.8607 94.3118 40.9072 94.695 41.1509C101.039 45.1738 98.2049 43.6761 104.377 47.9577C111.771 53.0883 111.254 52.5934 111.798 53.0531C111.779 53.0583 98.7734 55.891 89.0604 58.624C88.8707 58.6772 88.7814 58.6337 88.6569 58.483C87.3797 56.9463 82.3143 52.1996 82.2221 52.1126ZM111.826 64.1333C112.058 64.3096 112.23 64.5548 111.859 64.6591C111.026 64.8953 110.166 65.0303 109.453 65.2223C104.479 66.5663 97.6522 67.9612 94.3133 68.9587C93.735 69.1312 93.1598 69.3284 92.5786 69.5032C92.0363 69.6652 91.4858 69.8002 90.9436 69.9584C88.1312 70.7796 88.4004 70.8974 88.4004 70.4272C88.5752 68.7697 88.5617 69.0344 88.5639 68.2792C88.5639 67.968 88.5264 68.1427 93.4875 66.8632C98.4689 65.5785 107.718 63.0728 109.593 62.7203C109.725 62.6949 109.825 62.7106 109.934 62.7676C109.983 62.7931 110.037 62.8096 110.079 62.8411C111.123 63.6068 111.594 63.9563 111.825 64.1326L111.826 64.1333ZM111.774 61.2556C110.108 61.7904 89.1107 67.1385 88.9539 67.1812C88.5144 67.3005 88.7364 67.4632 88.7364 65.4158C88.7364 65.2118 88.8114 65.1158 88.9914 65.061C92.0731 64.1318 92.5876 64.0846 94.3815 63.4823C95.1638 63.2191 100.116 62.3169 101.328 61.9816C102.264 61.7229 103.213 61.5346 104.163 61.3381C104.967 61.1716 105.759 60.9444 106.559 60.7614C107.954 60.4427 109.904 60.0429 110.384 59.9154C110.549 59.8712 110.689 59.8847 110.778 60.0317C111.147 60.6459 112.246 61.1041 111.774 61.2556ZM104.455 60.3819C102.551 60.8349 97.6597 61.8976 96.4522 62.1684C92.8103 62.9873 92.3986 63.3361 90.6819 63.7381C89.3867 64.0418 88.7949 64.5436 88.8122 64.1431C88.8249 63.8393 88.8984 62.5696 88.8984 62.5606C88.9067 62.2336 88.8849 62.5014 104.158 58.654C110.362 57.091 110.268 56.9357 110.478 57.2185C110.717 57.5387 111.091 57.6542 111.401 57.865C112.464 58.588 112.327 58.4222 112.451 58.6097C111.397 59.0244 107.483 59.6604 104.455 60.3819Z" fill="#AFAFAF"/>
<path d="M107.227 51.8771C107.034 51.4706 106.926 51.5666 105.064 50.2684C102.871 48.7377 96.9863 44.363 94.6328 42.9636C93.8573 42.5023 93.8138 42.4626 92.5224 42.6951C87.3093 43.6333 81.2749 44.8543 76.2095 46.4052C76.1615 46.4202 76.1405 46.478 76.1698 46.5192C76.601 47.1312 76.5905 47.1642 76.6663 47.1364C77.4673 46.835 77.9735 46.718 79.577 46.2627C85.7756 44.5018 88.5557 44.354 93.0459 43.421C93.8071 43.2635 94.0763 43.5103 95.9498 44.8378C97.9972 46.289 98.2687 46.286 101.146 48.5239C103.781 50.575 105.459 51.5028 105.946 51.9596C86.2983 56.5847 86.365 56.461 86.5248 56.6335C87.0513 57.2132 87.1233 57.2844 87.1698 57.2844C91.7446 56.2315 105.169 53.2113 107.026 52.4321C107.266 52.3316 107.352 52.1411 107.227 51.8771Z" fill="#AFAFAF"/>
<path d="M104.94 24.9956C105.273 22.2469 105.232 22.7404 105.296 22.1374C105.334 21.7879 105.391 21.8892 103.173 22.5409C102.632 22.6999 102.353 22.3789 102.469 22.0497C102.656 21.5172 103.169 21.3244 103.954 21.0372C104.674 20.7732 105.007 20.8114 104.847 20.6292C104.833 20.6127 104.171 19.9182 103.235 18.8487C102.982 18.5592 102.955 18.1423 103.335 18.086C103.521 18.0583 103.69 18.1085 103.831 18.2217C104.15 18.4745 104.467 18.728 104.769 18.9995C105.37 19.541 105.646 20.006 105.695 19.7165C105.946 18.227 105.955 17.897 106.541 15.3118C106.603 15.0373 106.763 14.9106 106.979 14.9016C107.739 14.8701 107.382 15.8931 106.888 18.5097C106.567 20.2002 106.357 20.4282 106.732 20.3682C109.335 19.9542 108.079 20.1949 109.556 20.1297C109.599 20.1282 109.668 20.1642 109.682 20.2002C109.749 20.3877 109.365 20.4717 107.265 21.2652C106.726 21.4692 107.502 21.4977 108.423 23.2676C108.497 23.4094 108.539 23.5639 108.408 23.6794C108.258 23.8121 108.096 23.7206 107.961 23.6269C106.708 22.7509 106.277 21.7092 106.15 22.2746C105.332 25.9211 105.461 26.0096 105.218 26.0118C105.016 26.0133 105.058 25.9466 104.941 24.9978L104.94 24.9956Z" fill="#AFAFAF"/>
<path d="M16.5925 43.3821C16.4456 41.8161 16.4036 41.5184 16.4096 40.9926C16.4148 40.5352 16.9585 40.4827 17.1573 40.7954C17.653 41.5739 17.4873 43.1016 17.701 43.7856C18.163 43.5666 19.0825 42.7979 20.7534 41.9534C20.7894 41.9354 20.8547 41.9534 20.8937 41.9744C21.1172 42.1116 19.8467 43.2448 18.3978 44.6166C19.3435 45.1588 19.6495 45.2953 19.897 45.6095C20.0627 45.8203 20.047 46.121 19.7387 46.0438C19.3645 45.9508 18.427 45.7498 17.9703 45.6418C17.722 45.5833 17.773 45.5503 17.869 46.6738C18.064 48.9507 18.13 49.0077 17.926 49.0879C17.8015 49.1367 17.6703 49.1209 17.599 49.0047C17.4933 48.8322 17.38 48.6537 17.3298 48.4625C16.8565 46.6715 16.9278 46.346 16.876 46.1218C16.801 45.8 16.8175 45.9478 15.2756 47.108C15.1323 47.216 14.5084 47.669 14.2759 47.7155C13.9654 47.7785 13.7201 47.5325 13.8236 47.234C14.0321 46.628 14.6771 46.1975 15.9078 45.1693C16.1448 44.9713 15.9551 45.023 14.7108 44.4621C13.4906 43.9123 14.0051 43.1128 14.5084 43.2613C15.1548 43.4526 15.7901 43.6783 16.4306 43.8898C16.6233 43.9536 16.5925 43.9716 16.5925 43.3806V43.3821Z" fill="#AFAFAF"/>
<path d="M49.3229 21.4399C49.4504 23.2084 46.9537 24.4886 45.294 22.9879C44.3513 22.1359 44.34 20.7815 45.15 19.8995C46.488 18.443 49.3356 19.235 49.3229 21.4399ZM48.3524 21.3484C48.3194 21.2195 48.2924 21.0905 48.2527 20.963C47.8522 19.6655 45.903 19.898 45.648 20.9907C45.5362 21.4677 45.654 21.9139 46.0582 22.2304C46.6012 22.6557 47.1427 22.6827 47.6834 22.3969C48.0787 22.1877 48.3554 21.8517 48.3524 21.3484Z" fill="#AFAFAF"/>
<path d="M129.09 44.5403C126.939 44.403 126.17 42.1381 127.476 41.0161C127.827 40.7139 128.127 40.7274 128.406 40.4626C128.748 40.1394 130.701 40.4296 131.14 41.9423C131.573 43.4333 130.215 44.613 129.089 44.541L129.09 44.5403ZM128.701 41.4241C128.497 41.4293 128.311 41.3963 128.133 41.5711C127.644 42.0496 127.625 42.7193 128.142 43.1745C129.037 43.962 130.102 43.3658 130.122 42.6353C130.136 42.1028 129.783 41.6333 129.258 41.5118C129.075 41.4698 128.887 41.4511 128.7 41.4233L128.701 41.4241Z" fill="#AFAFAF"/>
<path d="M77.2232 30.6788C77.2277 31.3223 76.6742 31.899 76.0067 31.8825C75.2673 31.8645 74.8023 31.3583 74.7865 30.6803C74.7723 30.0451 75.3828 29.4391 75.9902 29.4391C76.6779 29.4391 77.2179 30.0076 77.2232 30.6788Z" fill="#AFAFAF"/>
</svg>
