<svg width="24" height="25" viewBox="0 0 24 25" fill="none" xmlns="http://www.w3.org/2000/svg">
<path fill-rule="evenodd" clip-rule="evenodd" d="M12 14.3C12.4971 14.3 12.9 13.8971 12.9 13.4V8.90001C12.9 8.40295 12.4971 8.00001 12 8.00001C11.5029 8.00001 11.1 8.40295 11.1 8.90001V13.4C11.1 13.8971 11.5029 14.3 12 14.3Z" fill="#0F1110"/>
<path d="M12.9 16.1C12.9 16.5971 12.4971 17 12 17C11.5029 17 11.1 16.5971 11.1 16.1C11.1 15.6029 11.5029 15.2 12 15.2C12.4971 15.2 12.9 15.6029 12.9 16.1Z" fill="#0F1110"/>
<path fill-rule="evenodd" clip-rule="evenodd" d="M12 19.7C15.9764 19.7 19.2 16.4764 19.2 12.5C19.2 8.52355 15.9764 5.3 12 5.3C8.02355 5.3 4.8 8.52355 4.8 12.5C4.8 16.4764 8.02355 19.7 12 19.7ZM12 21.5C16.9706 21.5 21 17.4706 21 12.5C21 7.52944 16.9706 3.5 12 3.5C7.02944 3.5 3 7.52944 3 12.5C3 17.4706 7.02944 21.5 12 21.5Z" fill="#0F1110"/>
</svg>
