<svg width="69" height="34" viewBox="0 0 69 34" fill="none" xmlns="http://www.w3.org/2000/svg">
<path d="M33.4222 14.2677V22.4641C33.4222 22.965 33.0123 23.3749 32.5114 23.3749C32.0105 23.3749 31.6007 22.965 31.6007 22.4641V14.2677C31.6007 13.7668 32.0105 13.357 32.5114 13.357C33.0123 13.357 33.4222 13.7668 33.4222 14.2677ZM45.2614 10.6249V23.3749C45.2614 25.8884 43.2214 27.9284 40.7079 27.9284H27.9579C25.4443 27.9284 23.4043 25.8884 23.4043 23.3749V10.6249C23.4043 8.11129 25.4443 6.07129 27.9579 6.07129H40.7079C43.2214 6.07129 45.2614 8.11129 45.2614 10.6249ZM43.44 10.6249C43.44 9.12218 42.2105 7.89272 40.7079 7.89272H27.9579C26.4552 7.89272 25.2257 9.12218 25.2257 10.6249V23.3749C25.2257 24.8775 26.4552 26.107 27.9579 26.107H40.7079C42.2105 26.107 43.44 24.8775 43.44 23.3749V10.6249ZM28.8686 16.0891C28.3677 16.0891 27.9579 16.499 27.9579 16.9999V22.4641C27.9579 22.965 28.3677 23.3749 28.8686 23.3749C29.3695 23.3749 29.7793 22.965 29.7793 22.4641V16.9999C29.7793 16.499 29.3695 16.0891 28.8686 16.0891ZM36.1543 10.6249C35.6534 10.6249 35.2436 11.0347 35.2436 11.5356V22.4641C35.2436 22.965 35.6534 23.3749 36.1543 23.3749C36.6552 23.3749 37.065 22.965 37.065 22.4641V11.5356C37.065 11.0347 36.6552 10.6249 36.1543 10.6249ZM39.7972 18.8213C39.2963 18.8213 38.8864 19.2311 38.8864 19.732V22.4641C38.8864 22.965 39.2963 23.3749 39.7972 23.3749C40.298 23.3749 40.7079 22.965 40.7079 22.4641V19.732C40.7079 19.2311 40.298 18.8213 39.7972 18.8213Z" fill="#5E5F64"/>
</svg>
