<svg width="87" height="54" viewBox="0 0 87 54" fill="none" xmlns="http://www.w3.org/2000/svg">
<g clip-path="url(#clip0_2202_3612)">
<path d="M80.3475 34.3525H78.9968V35.8625H80.3475V34.3525Z" fill="#6D41A2"/>
<path d="M75.2543 41.3031L75.1331 43.9541L75.9273 43.9907L76.0486 41.3397L75.2543 41.3031Z" fill="#C3C5C8"/>
<path d="M71.7108 43.6403L71.4307 44.3877L73.9035 45.3227L74.1836 44.5753L71.7108 43.6403Z" fill="#C3C5C8"/>
<path d="M74.2071 46.4181L72.5576 48.4912L73.1787 48.9898L74.8283 46.9166L74.2071 46.4181Z" fill="#C3C5C8"/>
<path d="M76.6208 46.5285L75.9568 46.9678L77.4101 49.1841L78.0742 48.7448L76.6208 46.5285Z" fill="#C3C5C8"/>
<path d="M79.3568 43.9909L76.8091 44.6943L77.0198 45.4644L79.5676 44.761L79.3568 43.9909Z" fill="#C3C5C8"/>
<path d="M60.4107 47.0393H51.5395C50.2476 47.0381 48.9622 46.8562 47.7203 46.4988L44.5537 45.5921V42.5791H64.296V43.1545C64.296 43.6661 64.1954 44.1727 63.9999 44.6452C63.8044 45.1176 63.518 45.5467 63.157 45.9076C62.7959 46.2686 62.3675 46.5544 61.8962 46.7486C61.4249 46.9428 60.9201 47.0416 60.4107 47.0393Z" fill="#525357"/>
<path d="M64.4419 22.9143L60.0185 23.7129C59.8666 23.7404 59.71 23.7062 59.5831 23.618C59.4562 23.5297 59.3693 23.3946 59.3414 23.2421V23.1828C59.3248 23.1062 59.3237 23.0271 59.3383 22.95C59.3529 22.873 59.3828 22.7998 59.4262 22.7346C59.4697 22.6695 59.5258 22.6139 59.5912 22.571C59.6565 22.5282 59.7298 22.4991 59.8067 22.4854L64.2336 21.6729L64.4419 22.9143Z" fill="#525357"/>
<path d="M75.4969 38.084C74.0342 38.084 72.6043 38.5196 71.3881 39.3358C70.1719 40.152 69.224 41.312 68.6643 42.6693C68.1045 44.0266 67.9581 45.5201 68.2434 46.9609C68.5288 48.4018 69.2331 49.7253 70.2674 50.7641C71.3017 51.8029 72.6195 52.5103 74.0541 52.7969C75.4887 53.0835 76.9756 52.9364 78.327 52.3742C79.6784 51.812 80.8334 50.86 81.646 49.6385C82.4587 48.417 82.8924 46.9809 82.8924 45.5118C82.8924 44.5364 82.7011 43.5705 82.3294 42.6693C81.9578 41.7681 81.413 40.9493 80.7263 40.2595C80.0396 39.5698 79.2243 39.0227 78.327 38.6494C77.4297 38.2761 76.4681 38.084 75.4969 38.084ZM75.4969 49.278C74.7552 49.278 74.0302 49.0572 73.4136 48.6433C72.7969 48.2295 72.3163 47.6413 72.0324 46.9531C71.7486 46.2649 71.6744 45.5076 71.8191 44.7771C71.9637 44.0465 72.3209 43.3754 72.8453 42.8487C73.3697 42.322 74.0379 41.9633 74.7653 41.818C75.4927 41.6726 76.2467 41.7472 76.9319 42.0323C77.6171 42.3173 78.2027 42.8001 78.6147 43.4194C79.0268 44.0388 79.2467 44.7669 79.2467 45.5118C79.2458 46.5104 78.8504 47.4678 78.1474 48.1739C77.4444 48.88 76.4911 49.2771 75.4969 49.278Z" fill="#525357"/>
<path d="M75.4971 41.0137C74.6112 41.0137 73.7452 41.2775 73.0087 41.7718C72.2721 42.2661 71.698 42.9687 71.359 43.7907C71.02 44.6127 70.9313 45.5172 71.1041 46.3898C71.277 47.2625 71.7035 48.064 72.3299 48.6932C72.9563 49.3223 73.7544 49.7507 74.6232 49.9243C75.4921 50.0979 76.3927 50.0088 77.2111 49.6683C78.0295 49.3278 78.729 48.7513 79.2212 48.0115C79.7133 47.2717 79.976 46.4019 79.976 45.5122C79.976 44.3191 79.5041 43.1749 78.6642 42.3313C77.8242 41.4876 76.685 41.0137 75.4971 41.0137ZM75.4971 49.2784C74.7554 49.2784 74.0304 49.0576 73.4138 48.6437C72.7971 48.2299 72.3165 47.6417 72.0326 46.9535C71.7488 46.2653 71.6746 45.508 71.8193 44.7775C71.9639 44.0469 72.3211 43.3758 72.8455 42.8491C73.3699 42.3224 74.0381 41.9637 74.7655 41.8184C75.4929 41.673 76.2469 41.7476 76.9321 42.0327C77.6173 42.3177 78.2029 42.8005 78.6149 43.4198C79.027 44.0392 79.2469 44.7673 79.2469 45.5122C79.246 46.5108 78.8506 47.4682 78.1476 48.1743C77.4445 48.8804 76.4913 49.2775 75.4971 49.2784Z" fill="#98989C"/>
<path d="M77.7537 45.6412C77.7327 46.0972 77.5774 46.5367 77.3077 46.9042C77.0379 47.2716 76.6658 47.5505 76.2382 47.7055C75.8107 47.8605 75.347 47.8848 74.9058 47.7752C74.4645 47.6655 74.0655 47.427 73.7593 47.0896C73.453 46.7523 73.2532 46.3313 73.1851 45.8799C73.117 45.4286 73.1837 44.967 73.3768 44.5537C73.5698 44.1404 73.8805 43.7939 74.2696 43.5579C74.6588 43.3219 75.1088 43.2071 75.5629 43.228C75.8645 43.2419 76.1605 43.3153 76.4339 43.4441C76.7072 43.5729 76.9527 43.7546 77.1561 43.9787C77.3596 44.2028 77.5171 44.4649 77.6196 44.7502C77.7222 45.0355 77.7677 45.3382 77.7537 45.6412Z" fill="#C3C5C8"/>
<path d="M75.8441 45.7003L75.7191 45.777C75.6122 45.8394 75.485 45.8568 75.3653 45.8254C75.2457 45.7941 75.1432 45.7165 75.0802 45.6096L72.1567 40.6159L73.0664 40.0684L75.9934 45.0621C76.0569 45.1669 76.0768 45.2925 76.0488 45.4119C76.0209 45.5313 75.9474 45.6348 75.8441 45.7003Z" fill="#EDEEEF"/>
<path d="M64.304 24.5874L62.9243 25.4023L73.1366 42.8428L74.5163 42.0279L64.304 24.5874Z" fill="#6D41A2"/>
<path d="M72.2991 33.4082C66.8132 33.4082 65.6536 40.1735 65.6536 44.3442L65.7195 44.4105H67.775C68.1019 44.4164 68.4204 44.3064 68.6744 44.0997C68.9285 43.893 69.1018 43.603 69.1638 43.2806C69.6777 40.4594 72.0526 38.7472 74.9935 38.7472H82.5209V37.9312C81.6286 36.3933 78.5315 33.4082 72.2991 33.4082Z" fill="#6D41A2"/>
<path d="M68.5111 42.6803C68.3862 43.3777 67.7716 43.6253 67.0702 43.6253H65.6814V44.3437L65.7474 44.41H67.8028C68.1297 44.4159 68.4482 44.3059 68.7023 44.0992C68.9563 43.8925 69.1296 43.6025 69.1917 43.2801C69.7055 40.4589 72.0804 38.7467 75.0213 38.7467H82.5488V37.9307H74.6185C71.5388 37.9446 69.0493 39.7231 68.5111 42.6803Z" fill="white"/>
<path d="M73.1984 24.4072H69.9624V28.7628H73.1984V24.4072Z" fill="#6D41A2"/>
<path d="M73.4137 29.0003H73.6776C73.8452 29.0003 74.0059 28.9334 74.1244 28.8144C74.2429 28.6954 74.3095 28.534 74.3095 28.3656V24.8017C74.3095 24.6333 74.2429 24.4719 74.1244 24.3529C74.0059 24.2339 73.8452 24.167 73.6776 24.167H73.4137C73.353 24.167 73.2947 24.1912 73.2517 24.2344C73.2087 24.2776 73.1846 24.3361 73.1846 24.3971V28.7702C73.1846 28.8312 73.2087 28.8897 73.2517 28.9329C73.2947 28.9761 73.353 29.0003 73.4137 29.0003Z" fill="#525357"/>
<path d="M44.5364 10.1133H43.842C43.6169 10.1133 43.397 10.0451 43.2112 9.91756C43.0253 9.79 42.8822 9.60908 42.8004 9.39845L40.54 3.65147L41.172 3.40039L43.4323 9.14737C43.4646 9.23092 43.5214 9.30264 43.5952 9.35308C43.6689 9.40351 43.7562 9.43028 43.8455 9.42984H44.5399L44.5364 10.1133Z" fill="#EDEEEF"/>
<path d="M29.5371 31.3192H7.01367V27.9365H29.5371C29.8876 27.9374 30.2236 28.0777 30.4715 28.3267C30.7193 28.5757 30.859 28.9131 30.8599 29.2652V29.9905C30.859 30.3426 30.7193 30.68 30.4715 30.929C30.2236 31.178 29.8876 31.3182 29.5371 31.3192Z" fill="#525357"/>
<path d="M24.5198 45.536H61.9176C62.1063 45.536 62.2874 45.4607 62.4209 45.3266C62.5544 45.1925 62.6293 45.0107 62.6293 44.8211V44.5352H24.5198V45.536Z" fill="#525357"/>
<path d="M20.3915 46.9805C20.3552 46.9805 20.3192 46.9733 20.2857 46.9592C20.2522 46.9451 20.2218 46.9245 20.1963 46.8986C20.1708 46.8726 20.1507 46.8419 20.1371 46.808C20.1235 46.7742 20.1167 46.738 20.1172 46.7015C20.1172 46.6285 20.1461 46.5584 20.1975 46.5067C20.249 46.4551 20.3188 46.426 20.3915 46.426H25.1517C25.2108 46.426 32.273 46.0773 35.9916 44.9544C36.0267 44.9437 36.0635 44.9401 36.1001 44.9438C36.1366 44.9475 36.172 44.9584 36.2043 44.9759C36.2365 44.9934 36.265 45.0172 36.2881 45.0458C36.3112 45.0744 36.3284 45.1074 36.3388 45.1427C36.35 45.1777 36.3541 45.2147 36.3509 45.2513C36.3477 45.288 36.3372 45.3236 36.32 45.3561C36.3029 45.3886 36.2794 45.4173 36.251 45.4406C36.2226 45.4638 36.1899 45.4811 36.1548 45.4915C32.3702 46.6248 25.4607 46.9666 25.1691 46.9805H20.3915Z" fill="#A0A0A0"/>
<path d="M20.3915 47.618C20.3237 47.6103 20.261 47.5778 20.2155 47.5267C20.1699 47.4755 20.1448 47.4094 20.1448 47.3408C20.1448 47.2722 20.1699 47.206 20.2155 47.1548C20.261 47.1037 20.3237 47.0712 20.3915 47.0635H25.1518C27.9327 46.915 30.7039 46.6181 33.4535 46.1743C33.4891 46.1679 33.5255 46.1685 33.5608 46.1763C33.5961 46.184 33.6296 46.1987 33.6592 46.2194C33.6889 46.2401 33.7142 46.2665 33.7337 46.2971C33.7532 46.3276 33.7666 46.3617 33.7729 46.3975C33.7793 46.4332 33.7786 46.4698 33.7709 46.5053C33.7632 46.5407 33.7486 46.5743 33.728 46.6041C33.7074 46.6339 33.6811 46.6593 33.6507 46.6789C33.6203 46.6985 33.5863 46.7119 33.5507 46.7183C30.769 47.168 27.9654 47.4684 25.1518 47.618H20.3915Z" fill="#A0A0A0"/>
<path d="M32.4864 45.5833L32.0178 45.6416L32.1932 47.064L32.6618 47.0057L32.4864 45.5833Z" fill="#A0A0A0"/>
<path d="M26.3706 46.7288H21.6173C21.3117 46.7288 14.4023 46.3801 10.6177 45.2363C10.5831 45.2257 10.5508 45.2084 10.5228 45.1854C10.4948 45.1623 10.4716 45.134 10.4545 45.1019C10.4374 45.0699 10.4268 45.0347 10.4232 44.9986C10.4196 44.9624 10.4232 44.9258 10.4337 44.891C10.4442 44.8562 10.4614 44.8238 10.4843 44.7957C10.5073 44.7676 10.5355 44.7443 10.5675 44.7271C10.5994 44.71 10.6343 44.6993 10.6704 44.6957C10.7064 44.6921 10.7428 44.6957 10.7774 44.7062C14.496 45.8186 21.5582 46.1709 21.6312 46.1743H26.3706C26.4094 46.17 26.4487 46.1739 26.486 46.1858C26.5232 46.1977 26.5575 46.2174 26.5867 46.2436C26.6158 46.2698 26.6391 46.3018 26.6551 46.3376C26.6711 46.3735 26.6793 46.4123 26.6793 46.4516C26.6793 46.4908 26.6711 46.5297 26.6551 46.5655C26.6391 46.6013 26.6158 46.6334 26.5867 46.6596C26.5575 46.6857 26.5232 46.7054 26.486 46.7174C26.4487 46.7293 26.4094 46.7332 26.3706 46.7288Z" fill="#A0A0A0"/>
<path d="M11.7252 44.5527H10.8086V45.6582H11.7252V44.5527Z" fill="#A0A0A0"/>
<path d="M64.2787 36.6158H62.5982C61.5376 36.5997 60.4981 36.914 59.6226 37.5155L54.2756 41.4143V43.7786H64.2787V36.6158Z" fill="#6D41A2"/>
<path d="M54.3417 32.5811H45.106V42.8545H54.3417V32.5811Z" fill="#6D41A2"/>
<path d="M54.3417 34.918H45.106V35.6642H54.3417V34.918Z" fill="#525357"/>
<path d="M45.1059 40.3994H31.3704V42.8544H45.1059V40.3994Z" fill="#6D41A2"/>
<path d="M46.9148 30.4956L45.7377 21.8612C45.703 21.6072 45.5788 21.374 45.3878 21.2039C45.1967 21.0337 44.9514 20.9379 44.6961 20.9336H44.0711C43.907 20.9336 43.7448 20.9688 43.5953 21.0371C43.4459 21.1053 43.3127 21.2049 43.2048 21.3291C43.0969 21.4533 43.0168 21.5993 42.9698 21.7573C42.9228 21.9152 42.91 22.0815 42.9323 22.2448L44.526 33.9306H55.5325C55.6909 33.9306 55.8428 33.8674 55.9548 33.7549C56.0668 33.6424 56.1297 33.4898 56.1297 33.3308V31.8556C56.1279 31.7917 56.1135 31.7287 56.0874 31.6703C56.0612 31.612 56.0238 31.5594 55.9773 31.5156C55.9309 31.4719 55.8762 31.4378 55.8165 31.4153C55.7569 31.3929 55.6934 31.3825 55.6297 31.3849H47.9147C47.6689 31.3842 47.4317 31.2936 47.2476 31.1299C47.0635 30.9662 46.9452 30.7407 46.9148 30.4956Z" fill="#525357"/>
<path d="M45.6752 3.67871H44.5364V41.3479H45.6752V3.67871Z" fill="#EDEEEF"/>
<path d="M31.0543 22.9639C30.6722 22.6248 30.1749 22.4463 29.6654 22.4652H17.5791V23.2045H27.6238V24.4739H22.2456V25.0353H27.6238V26.0815H25.3913V26.8208H27.6238V29.0143H28.3564V26.8313H30.8563C31.0841 26.8304 31.3022 26.7388 31.463 26.5767C31.6237 26.4146 31.714 26.1952 31.7139 25.9664V24.7598C31.7354 24.4308 31.6877 24.1009 31.5741 23.7915C31.4604 23.4821 31.2833 23.2002 31.0543 22.9639ZM28.3564 23.2045H29.714C30.0219 23.1977 30.3213 23.3058 30.5543 23.5079C30.8059 23.7674 30.952 24.1119 30.964 24.4739H28.3564V23.2045ZM30.8563 26.092H28.3564V25.0458H30.9779V25.9769C30.9753 26.0078 30.9615 26.0366 30.9391 26.0578C30.9166 26.0791 30.8872 26.0912 30.8563 26.092Z" fill="#EDEEEF"/>
<path d="M45.1059 4.43891H27.7142C27.1111 4.43891 26.5326 4.67956 26.1061 5.10792C25.6796 5.53628 25.44 6.11726 25.44 6.72305V23.7338H7.01367V6.58705C7.01307 5.70105 7.19042 4.82403 7.53512 4.00847C7.87983 3.19291 8.38479 2.45557 9.01981 1.84057C9.65482 1.22558 10.4068 0.745556 11.2308 0.42924C12.0549 0.112923 12.9339 -0.0331905 13.8155 -0.000358052L45.4739 1.17484C45.6082 1.17906 45.7418 1.19539 45.8732 1.22367L63.928 4.83645C64.0261 4.85721 64.114 4.91114 64.1772 4.98921C64.2404 5.06728 64.275 5.16477 64.2752 5.26538V5.44323H59.9699L45.1059 4.43891Z" fill="#525357"/>
<path d="M72.0666 22.5138H67.7161C67.3915 22.5135 67.0758 22.4077 66.8161 22.2122C66.5564 22.0167 66.3666 21.7421 66.2752 21.4293L62.0878 6.99909C62.062 6.91099 62.0569 6.81807 62.073 6.72765C62.089 6.63724 62.1258 6.5518 62.1803 6.47809C62.2349 6.40438 62.3057 6.3444 62.3873 6.30288C62.4688 6.26137 62.5589 6.23945 62.6503 6.23887H62.7163L62.2649 5.44727H59.9629L62.8864 24.0622C63.0183 24.8857 63.0183 25.7251 62.8864 26.5486L61.1226 37.4358C60.9463 38.5245 60.3902 39.5148 59.5538 40.2297C58.7174 40.9446 57.6551 41.3374 56.5568 41.338H49.4321C48.7752 41.338 48.1452 41.0761 47.6804 40.61C47.2155 40.1438 46.9539 39.5113 46.953 38.8516V30.8693C46.9535 30.793 46.9389 30.7173 46.9102 30.6467C46.8814 30.576 46.839 30.5118 46.7854 30.4577C46.7319 30.4036 46.6682 30.3606 46.598 30.3313C46.5279 30.302 46.4526 30.2869 46.3767 30.2869H43.8351C43.6813 30.2869 43.5338 30.3483 43.4251 30.4575C43.3164 30.5667 43.2553 30.7148 43.2553 30.8693V38.8376C43.2553 39.1645 43.1911 39.4881 43.0665 39.79C42.9419 40.0918 42.7592 40.3661 42.5289 40.597C42.2987 40.828 42.0254 41.011 41.7246 41.1358C41.4239 41.2605 41.1016 41.3245 40.7762 41.324H35.7556C34.7092 41.326 33.6931 40.9715 32.8733 40.3184C32.0534 39.6654 31.4783 38.7525 31.2419 37.7287L29.5753 30.538C29.4739 30.0988 29.3225 29.6729 29.1239 29.2686L26.7976 24.5469C26.678 24.3035 26.493 24.0984 26.2636 23.9548C26.0341 23.8113 25.7693 23.7349 25.499 23.7344H7.01367V39.2735C7.01598 40.5954 7.47632 41.8752 8.3157 42.8933L9.01012 43.7302C9.2136 43.9781 9.46919 44.1776 9.75855 44.3145C10.0479 44.4513 10.3638 44.5222 10.6837 44.5219H63.0565C64.0683 44.5223 65.0561 44.2123 65.8876 43.6333C66.7191 43.0543 67.3547 42.234 67.7091 41.2822L72.4867 28.4561C72.8446 27.4932 72.9924 26.4643 72.9199 25.4391C72.8474 24.4139 72.5564 23.4163 72.0666 22.5138Z" fill="#A892C5"/>
<path d="M28.1452 47.3147C29.0664 43.3201 26.5889 39.3318 22.6117 38.4066C18.6344 37.4815 14.6635 39.9698 13.7423 43.9644C12.8212 47.959 15.2987 51.9473 19.2759 52.8724C23.2531 53.7976 27.2241 51.3093 28.1452 47.3147Z" fill="#525357"/>
<path d="M25.3049 46.6699C25.8731 44.2519 24.3821 41.829 21.9746 41.2583C19.567 40.6876 17.1547 42.1852 16.5865 44.6032C16.0183 47.0212 17.5093 49.4441 19.9168 50.0148C22.3244 50.5855 24.7367 49.088 25.3049 46.6699Z" fill="#98989C"/>
<path d="M24.4331 46.4633C24.8877 44.5288 23.6948 42.5906 21.7688 42.134C19.8428 41.6774 17.9129 42.8755 17.4583 44.8099C17.0038 46.7443 18.1966 48.6826 20.1226 49.1392C22.0486 49.5958 23.9785 48.3977 24.4331 46.4633Z" fill="#C3C5C8"/>
<path d="M23.4158 45.6376C23.4158 46.128 23.271 46.6074 22.9998 47.0151C22.7285 47.4229 22.343 47.7407 21.8919 47.9283C21.4408 48.116 20.9444 48.1651 20.4656 48.0694C19.9867 47.9738 19.5468 47.7376 19.2016 47.3909C18.8563 47.0441 18.6212 46.6023 18.526 46.1213C18.4307 45.6404 18.4796 45.1419 18.6664 44.6888C18.8533 44.2357 19.1697 43.8485 19.5757 43.5761C19.9816 43.3036 20.4589 43.1582 20.9472 43.1582C21.6019 43.1582 22.2298 43.4194 22.6928 43.8844C23.1557 44.3494 23.4158 44.98 23.4158 45.6376Z" fill="#EDEEEF"/>
<path d="M20.9435 34.8271C15.5271 34.8271 11.1314 38.7712 11.0967 44.4694L11.1626 44.5356H13.673C13.9993 44.5418 14.3174 44.4322 14.5714 44.2262C14.8254 44.0203 14.999 43.731 15.0618 43.4093C15.5722 40.5846 18.02 38.8758 20.9643 38.8758C23.9087 38.8758 26.3495 40.5741 26.8669 43.4093C26.9297 43.731 27.1033 44.0203 27.3573 44.2262C27.6112 44.4322 27.9293 44.5418 28.2557 44.5356H30.832C30.7938 38.8026 26.3843 34.8271 20.9435 34.8271Z" fill="#6D41A2"/>
<path d="M55.2444 44.5361H32.8252V44.3757C32.8252 44.0982 32.9349 43.8321 33.1303 43.6359C33.3256 43.4397 33.5906 43.3295 33.8668 43.3295H55.2305C58.6436 43.3295 60.3033 41.5057 60.9595 38.1161C61.2372 36.6723 62.9386 24.9447 62.9559 24.8331H63.067C63.1474 24.8314 63.2273 24.8466 63.3014 24.8779C63.3755 24.9092 63.4422 24.9558 63.4973 25.0146C63.5523 25.0735 63.5943 25.1434 63.6207 25.2196C63.6471 25.2959 63.6572 25.3769 63.6503 25.4574C63.4594 27.8984 62.4108 37.1536 62.1643 38.4369C61.3588 42.5937 59.4561 44.5361 55.2444 44.5361Z" fill="#EDEEEF"/>
<path d="M7.53446 41.1494H6.77755C6.6546 41.1499 6.53278 41.1259 6.41906 41.079C6.30534 41.0321 6.20197 40.963 6.11487 40.8759C6.02778 40.7887 5.95867 40.6852 5.91151 40.5711C5.86436 40.4571 5.84009 40.3348 5.84009 40.2113V38.0109C5.84009 37.7612 5.93886 37.5217 6.11466 37.3451C6.29047 37.1685 6.52892 37.0693 6.77755 37.0693H7.53446V41.1494Z" fill="#EDEEEF"/>
<path d="M67.3759 22.5133H72.0667L62.7233 6.23829H62.3032C62.2111 6.23779 62.1203 6.25891 62.0378 6.29996C61.9554 6.34101 61.8836 6.40086 61.8283 6.47472C61.773 6.54858 61.7356 6.63441 61.7192 6.72536C61.7028 6.8163 61.7078 6.90984 61.7337 6.99851L65.9211 21.4287C66.0132 21.7438 66.205 22.0201 66.4675 22.2158C66.7301 22.4115 67.0489 22.5159 67.3759 22.5133Z" fill="#8CC8DD"/>
<path d="M72.4345 23.3057H62.7717L62.8863 24.0484C62.8863 24.0868 62.8863 24.1252 62.8863 24.167H72.7192C72.6417 23.8744 72.5466 23.5868 72.4345 23.3057Z" fill="#525357"/>
<path d="M22.0686 26.3815H22.0061C21.9215 26.3815 21.8377 26.3647 21.7595 26.332C21.6813 26.2994 21.6104 26.2516 21.5507 26.1913C21.491 26.131 21.4437 26.0595 21.4117 25.9808C21.3796 25.9021 21.3633 25.8179 21.3638 25.7329V22.835H22.7214V25.7329C22.7214 25.8186 22.7044 25.9035 22.6715 25.9827C22.6387 26.0619 22.5905 26.1337 22.5298 26.194C22.4691 26.2543 22.397 26.3019 22.3179 26.3341C22.2387 26.3663 22.154 26.3824 22.0686 26.3815Z" fill="#525357"/>
<path d="M23.131 24.7559H20.9436V25.3138H23.131V24.7559Z" fill="#0085FF"/>
<path d="M10.5898 26.3815H10.5273C10.4419 26.3824 10.3571 26.3663 10.278 26.3341C10.1988 26.3019 10.1268 26.2543 10.0661 26.194C10.0054 26.1337 9.95721 26.0619 9.92433 25.9827C9.89144 25.9035 9.87451 25.8186 9.87451 25.7329V22.835H11.2286V25.7329C11.2286 25.9037 11.1615 26.0676 11.0419 26.1891C10.9223 26.3105 10.7598 26.3797 10.5898 26.3815Z" fill="#525357"/>
<path d="M11.6523 24.7559H9.46484V25.3138H11.6523V24.7559Z" fill="#0085FF"/>
<path d="M64.7716 31.5529L72.2123 31.7865C72.3061 31.7907 72.3998 31.7758 72.4877 31.7427C72.5756 31.7095 72.6558 31.6588 72.7237 31.5937C72.7915 31.5285 72.8455 31.4501 72.8823 31.3634C72.9191 31.2767 72.9381 31.1833 72.938 31.089V31.0019C72.9381 30.9076 72.9191 30.8142 72.8823 30.7275C72.8455 30.6408 72.7915 30.5624 72.7237 30.4973C72.6558 30.4321 72.5756 30.3814 72.4877 30.3482C72.3998 30.3151 72.3061 30.3002 72.2123 30.3044L64.7716 30.5381C64.6414 30.5416 64.5175 30.5954 64.4257 30.6883C64.3339 30.7811 64.2812 30.9059 64.2786 31.0367C64.2767 31.1706 64.3274 31.2998 64.4197 31.3964C64.512 31.493 64.6384 31.5492 64.7716 31.5529Z" fill="#EDEEEF"/>
<path d="M68.1744 27.6152H64.7926C64.5989 27.6152 64.4419 27.7729 64.4419 27.9674V29.2263C64.4419 29.4209 64.5989 29.5786 64.7926 29.5786H68.1744C68.3681 29.5786 68.5251 29.4209 68.5251 29.2263V27.9674C68.5251 27.7729 68.3681 27.6152 68.1744 27.6152Z" fill="#525357"/>
<path d="M68.091 27.9297H64.8758C64.7857 27.9297 64.7126 28.0031 64.7126 28.0936V29.1049C64.7126 29.1954 64.7857 29.2688 64.8758 29.2688H68.091C68.1811 29.2688 68.2542 29.1954 68.2542 29.1049V28.0936C68.2542 28.0031 68.1811 27.9297 68.091 27.9297Z" fill="#F7AF2C"/>
<path d="M80.8196 34.9454L79.1843 34.7571C78.8887 34.7238 78.6156 34.5823 78.4172 34.3598C78.2187 34.1373 78.1086 33.8493 78.1079 33.5506V33.2646C78.1078 32.9653 78.2174 32.6764 78.416 32.4531C78.6146 32.2299 78.8881 32.088 79.1843 32.0545L80.8196 31.8662V34.9454Z" fill="#A892C5"/>
<path d="M80.9517 35.0856H81.1323C81.19 35.0856 81.2472 35.0741 81.3005 35.0518C81.3538 35.0295 81.4022 34.9969 81.4428 34.9557C81.4835 34.9145 81.5157 34.8657 81.5374 34.812C81.5592 34.7582 81.5702 34.7007 81.5697 34.6427V32.1703C81.5688 32.0544 81.5223 31.9435 81.4404 31.8618C81.3584 31.7802 81.2477 31.7344 81.1323 31.7344H80.9517C80.9094 31.7344 80.8687 31.7513 80.8388 31.7814C80.8088 31.8114 80.792 31.8522 80.792 31.8948V34.9322C80.7938 34.9735 80.8114 35.0125 80.8412 35.0411C80.8709 35.0697 80.9105 35.0857 80.9517 35.0856Z" fill="#525357"/>
</g>
<defs>
<clipPath id="clip0_2202_3612">
<rect width="86" height="54" fill="white" transform="translate(0.5)"/>
</clipPath>
</defs>
</svg>
