<svg width="24" height="24" viewBox="0 0 24 24" fill="none" xmlns="http://www.w3.org/2000/svg">
<g clip-path="url(#clip0_3109_40235)">
<circle cx="12" cy="12" r="9" fill="#6D41A2"/>
</g>
<path d="M9.87954 16.0962C9.50354 16.0962 9.21554 16.0002 9.01554 15.8082C8.82354 15.6082 8.72754 15.3242 8.72754 14.9562V8.77623C8.72754 8.40823 8.82354 8.12823 9.01554 7.93623C9.21554 7.73623 9.50354 7.63623 9.87954 7.63623H12.8075C13.4155 7.63623 13.9315 7.72823 14.3555 7.91223C14.7875 8.08823 15.1155 8.34023 15.3395 8.66823C15.5635 8.99623 15.6755 9.38023 15.6755 9.82023C15.6755 10.3162 15.5315 10.7402 15.2435 11.0922C14.9635 11.4442 14.5795 11.6842 14.0915 11.8122V11.6202C14.6675 11.7242 15.1115 11.9562 15.4235 12.3162C15.7435 12.6762 15.9035 13.1362 15.9035 13.6962C15.9035 14.4402 15.6355 15.0282 15.0995 15.4602C14.5715 15.8842 13.8475 16.0962 12.9275 16.0962H9.87954ZM10.8395 14.4762H12.6275C13.0355 14.4762 13.3315 14.4002 13.5155 14.2482C13.7075 14.0882 13.8035 13.8522 13.8035 13.5402C13.8035 13.2282 13.7075 12.9962 13.5155 12.8442C13.3315 12.6922 13.0355 12.6162 12.6275 12.6162H10.8395V14.4762ZM10.8395 10.9962H12.4115C12.8115 10.9962 13.1035 10.9242 13.2875 10.7802C13.4795 10.6362 13.5755 10.4162 13.5755 10.1202C13.5755 9.82423 13.4795 9.60823 13.2875 9.47223C13.1035 9.32823 12.8115 9.25623 12.4115 9.25623H10.8395V10.9962Z" fill="#FAF8FC"/>
<defs>
<clipPath id="clip0_3109_40235">
<rect width="24" height="24" fill="white"/>
</clipPath>
</defs>
</svg>
