<svg width="23" height="22" viewBox="0 0 23 22" fill="none" xmlns="http://www.w3.org/2000/svg">
<path fill-rule="evenodd" clip-rule="evenodd" d="M11.5 13.4448C12.4113 13.4448 13.15 12.7152 13.15 11.8151C13.15 10.9151 12.4113 10.1855 11.5 10.1855C10.5887 10.1855 9.85 10.9151 9.85 11.8151C9.85 12.7152 10.5887 13.4448 11.5 13.4448ZM14.8 11.8151C14.8 13.6152 13.3225 15.0744 11.5 15.0744C9.67746 15.0744 8.2 13.6152 8.2 11.8151C8.2 10.0151 9.67746 8.55588 11.5 8.55588C13.3225 8.55588 14.8 10.0151 14.8 11.8151Z" fill="#0F1110"/>
<path fill-rule="evenodd" clip-rule="evenodd" d="M15.625 6.92625C15 6.92625 14.4287 6.57751 14.1492 6.02541L14.0083 5.74704C13.8685 5.47099 13.5829 5.29662 13.2704 5.29662H9.72963C9.41715 5.29662 9.13148 5.47099 8.99173 5.74704L8.8508 6.02541C8.57131 6.57751 7.99997 6.92625 7.375 6.92625H5.725C5.26937 6.92625 4.9 7.29106 4.9 7.74107V15.8892C4.9 16.3392 5.26937 16.704 5.725 16.704H17.275C17.7306 16.704 18.1 16.3392 18.1 15.8892V7.74107C18.1 7.29106 17.7306 6.92625 17.275 6.92625H15.625ZM15.625 5.29662L15.4841 5.01825C15.0648 4.19011 14.2078 3.66699 13.2704 3.66699H9.72963C8.79217 3.66699 7.93517 4.19011 7.51593 5.01825L7.375 5.29662H5.725C4.3581 5.29662 3.25 6.39104 3.25 7.74107V15.8892C3.25 17.2392 4.35809 18.3337 5.725 18.3337H17.275C18.6419 18.3337 19.75 17.2392 19.75 15.8892V7.74107C19.75 6.39104 18.6419 5.29662 17.275 5.29662H15.625Z" fill="#0F1110"/>
<path d="M16.8625 8.96329C16.8625 9.4133 16.4931 9.7781 16.0375 9.7781C15.5819 9.7781 15.2125 9.4133 15.2125 8.96329C15.2125 8.51328 15.5819 8.14847 16.0375 8.14847C16.4931 8.14847 16.8625 8.51328 16.8625 8.96329Z" fill="#0F1110"/>
</svg>
