<svg width="18" height="18" viewBox="0 0 18 18" fill="none" xmlns="http://www.w3.org/2000/svg">
<path d="M7.4523 6.49768C7.18869 6.23408 6.76131 6.23408 6.4977 6.49768C6.2341 6.76128 6.2341 7.18867 6.4977 7.45228L8.04542 9L6.49772 10.5477C6.23412 10.8113 6.23412 11.2387 6.49772 11.5023C6.76133 11.7659 7.18871 11.7659 7.45232 11.5023L9.00002 9.9546L10.5477 11.5023C10.8113 11.7659 11.2387 11.7659 11.5023 11.5023C11.7659 11.2387 11.7659 10.8113 11.5023 10.5477L9.95461 9L11.5023 7.4523C11.7659 7.18869 11.7659 6.76131 11.5023 6.4977C11.2387 6.2341 10.8113 6.2341 10.5477 6.4977L9.00002 8.04541L7.4523 6.49768Z" fill="#FF8383"/>
<path fill-rule="evenodd" clip-rule="evenodd" d="M9 14.4C11.9823 14.4 14.4 11.9823 14.4 9C14.4 6.01766 11.9823 3.6 9 3.6C6.01766 3.6 3.6 6.01766 3.6 9C3.6 11.9823 6.01766 14.4 9 14.4ZM9 15.75C12.7279 15.75 15.75 12.7279 15.75 9C15.75 5.27208 12.7279 2.25 9 2.25C5.27208 2.25 2.25 5.27208 2.25 9C2.25 12.7279 5.27208 15.75 9 15.75Z" fill="#FF8383"/>
</svg>
