<svg width="24" height="24" viewBox="0 0 24 24" fill="none" xmlns="http://www.w3.org/2000/svg">
<g clip-path="url(#clip0_2623_112259)">
<path d="M5.19485 3.37658C4.69275 2.87447 3.87868 2.87447 3.37658 3.37658C2.87447 3.87868 2.87447 4.69275 3.37658 5.19485L10.1817 12L3.37661 18.8051C2.87451 19.3072 2.87451 20.1213 3.37661 20.6234C3.87872 21.1255 4.69278 21.1255 5.19488 20.6234L12 13.8183L18.8051 20.6234C19.3072 21.1255 20.1213 21.1255 20.6234 20.6234C21.1255 20.1213 21.1255 19.3073 20.6234 18.8052L13.8183 12L20.6234 5.19485C21.1255 4.69275 21.1255 3.87868 20.6234 3.37658C20.1213 2.87448 19.3073 2.87448 18.8052 3.37658L12 10.1817L5.19485 3.37658Z" fill="#0F1110"/>
</g>
<defs>
<clipPath id="clip0_2623_112259">
<rect width="24" height="24" fill="white"/>
</clipPath>
</defs>
</svg>
