<svg width="88" height="36" viewBox="0 0 88 36" fill="none" xmlns="http://www.w3.org/2000/svg">
<path d="M64.0405 30.091L63.7322 28.2721C63.7322 24.727 65.8453 21.5666 69.0061 20.3846L69.4696 20.2113C71.4999 19.452 73.706 19.396 75.7682 20.0509C75.7682 20.0509 80.9246 21.395 81.0593 27.1885L81.0618 30.2314H64.0493C64.0508 30.1854 64.0485 30.1385 64.0405 30.091Z" fill="#525357"/>
<path d="M2.44043 30.2314C2.65349 29.9472 2.78104 29.5951 2.78104 29.2125V28.2721C2.78104 24.727 4.8942 21.5666 8.05492 20.3846L8.51851 20.2113C10.5487 19.452 12.7548 19.396 14.8171 20.0509C14.8171 20.0509 20.1113 21.4305 20.1113 27.4205L19.8093 29.0537C19.7295 29.4856 19.8339 29.902 20.0604 30.2314H2.44043Z" fill="#525357"/>
<path d="M1.0776 25.6187V19.5209C1.0776 18.6546 1.21659 17.7938 1.48885 16.9713L4.34099 8.36226C4.85205 6.81965 5.58561 5.35997 6.5185 4.02956L8.10086 1.77255C8.88103 0.659778 10.1554 -0.00199738 11.5144 4.52895e-06L43.6616 0.0460493C51.1287 0.0460493 67.5452 10.6313 67.5452 10.6313L80.4032 14.4678C83.8696 15.5022 86.2453 18.6901 86.2453 22.3075V27.854L86.4844 27.8846C87.2437 27.9821 87.8122 28.6284 87.8122 29.394C87.8122 30.2345 87.131 30.9158 86.2905 30.9158H86.245H81.0624L81.0592 27.1882C80.9245 21.3947 75.7682 20.0505 75.7682 20.0505C73.7059 19.3956 71.4998 19.4517 69.4696 20.211L69.006 20.3843C65.845 21.5663 63.7322 24.7267 63.7322 28.2718L64.0402 30.0907C64.1134 30.5222 63.7808 30.9158 63.3432 30.9158H21.3586C20.3737 30.9158 19.6301 30.022 19.8092 29.0534L20.1112 27.4201C20.1112 21.4301 14.817 20.0505 14.817 20.0505C12.7547 19.3956 10.5486 19.4517 8.5184 20.211L8.05482 20.3843C4.89409 21.5663 2.78093 24.7267 2.78093 28.2718V29.2121C2.78093 30.153 2.01821 30.9158 1.07731 30.9158H0V27.5231C0 26.8353 0.323165 26.1875 0.872259 25.7737L1.0776 25.6187Z" fill="#A892C5"/>
<path d="M36.6032 2.87876C36.4522 2.16008 37.0024 1.48486 37.7371 1.48829L42.6839 1.51032C50.6637 1.51032 66.0744 11.67 66.0744 11.67C66.8343 12.0672 66.7414 13.3527 66.1508 13.9811C65.8957 14.2525 65.5379 14.398 65.1693 14.3806L39.6475 13.168C39.123 13.1431 38.6815 12.767 38.5736 12.2531L36.6032 2.87876Z" fill="#525357"/>
<path d="M11.493 3.64425L12.1459 2.95474C13.0977 1.9495 14.4115 1.38439 15.7823 1.39068L34.0397 1.4719C34.5859 1.47419 35.0558 1.8597 35.1647 2.39506L37.0405 11.6058C37.1907 12.3425 36.6067 13.0238 35.8557 12.988L12.5706 11.8818C11.4356 11.8278 10.5038 10.9486 10.3643 9.80012L10.1243 7.82166C9.9387 6.2902 10.4415 4.75503 11.493 3.64425Z" fill="#525357"/>
<path d="M67.1025 28.4209C67.1025 25.3319 69.6066 22.8281 72.6953 22.8281C75.7842 22.8281 78.2881 25.3322 78.2881 28.4209C78.2881 31.5098 75.784 34.0136 72.6953 34.0136C69.6066 34.0136 67.1025 31.5098 67.1025 28.4209Z" fill="#525357"/>
<path d="M5.68311 28.4209C5.68311 25.3319 8.18721 22.8281 11.2759 22.8281C14.3648 22.8281 16.8686 25.3322 16.8686 28.4209C16.8686 31.5098 14.3645 34.0136 11.2759 34.0136C8.18692 34.0136 5.68311 31.5098 5.68311 28.4209Z" fill="#525357"/>
<path d="M71.2384 27.6087L68.1368 25.1807C68.4998 24.6708 68.9459 24.2246 69.4561 23.8614L71.8841 26.963C71.9954 26.9009 72.1146 26.8517 72.2396 26.8163L71.7631 22.9051C72.0666 22.8542 72.378 22.8262 72.696 22.8262C73.014 22.8262 73.3255 22.8542 73.6289 22.9051L73.1525 26.8163C73.2774 26.8517 73.3967 26.9009 73.508 26.963L75.936 23.8612C76.4459 24.2244 76.892 24.6705 77.2552 25.1804L74.1537 27.6084C74.2158 27.7197 74.2647 27.8389 74.3004 27.9639L78.2116 27.4875C78.2625 27.7909 78.2905 28.1023 78.2905 28.4204C78.2905 28.7384 78.2625 29.0498 78.2116 29.3532L74.3004 28.8768C74.265 29.0018 74.2158 29.121 74.1537 29.2323L77.2552 31.6603C76.892 32.1702 76.4462 32.6164 75.936 32.9796L73.508 29.878C73.3967 29.9401 73.2774 29.989 73.1525 30.0247L73.6289 33.9359C73.3255 33.9868 73.014 34.0148 72.696 34.0148C72.378 34.0148 72.0666 33.9868 71.7631 33.9359L72.2396 30.0247C72.1146 29.9893 71.9954 29.9401 71.8841 29.878L69.4561 32.9796C68.9462 32.6164 68.5 32.1702 68.1368 31.6603L71.2384 29.2323C71.1763 29.121 71.1274 29.0018 71.0916 28.8768L67.1805 29.3532C67.1296 29.0498 67.1016 28.7384 67.1016 28.4204C67.1016 28.1023 67.1296 27.7909 67.1805 27.4875L71.0916 27.9639C71.1271 27.8392 71.1763 27.7203 71.2384 27.6087Z" fill="#BCBEC0"/>
<path d="M72.3662 27.6166C72.3662 27.7905 72.5072 27.9315 72.6811 27.9315C72.855 27.9315 72.996 27.7905 72.996 27.6166C72.996 27.4427 72.855 27.3018 72.6811 27.3018C72.5072 27.3018 72.3662 27.4427 72.3662 27.6166Z" fill="#F1F2F2"/>
<path d="M72.3662 29.2241C72.3662 29.3979 72.5072 29.5389 72.6811 29.5389C72.855 29.5389 72.996 29.3979 72.996 29.2241C72.996 29.0502 72.855 28.9092 72.6811 28.9092C72.5072 28.9092 72.3662 29.0502 72.3662 29.2241Z" fill="#F1F2F2"/>
<path d="M71.8774 28.7352C72.0513 28.7352 72.1922 28.5942 72.1922 28.4203C72.1922 28.2464 72.0513 28.1055 71.8774 28.1055C71.7035 28.1055 71.5625 28.2464 71.5625 28.4203C71.5625 28.5942 71.7035 28.7352 71.8774 28.7352Z" fill="#F1F2F2"/>
<path d="M73.4845 28.7352C73.6584 28.7352 73.7994 28.5942 73.7994 28.4203C73.7994 28.2465 73.6584 28.1055 73.4845 28.1055C73.3107 28.1055 73.1697 28.2465 73.1697 28.4203C73.1697 28.5942 73.3107 28.7352 73.4845 28.7352Z" fill="#F1F2F2"/>
<path d="M65.1167 28.4207C65.1167 32.6064 68.5099 35.9997 72.6956 35.9997C76.8813 35.9997 80.2746 32.6064 80.2746 28.4207C80.2746 24.235 76.8813 20.8418 72.6956 20.8418C68.5099 20.8418 65.1167 24.235 65.1167 28.4207ZM66.8306 28.4207C66.8306 25.1816 69.4566 22.5557 72.6956 22.5557C75.9347 22.5557 78.5607 25.1816 78.5607 28.4207C78.5607 31.6598 75.9347 34.2858 72.6956 34.2858C69.4566 34.2858 66.8306 31.6598 66.8306 28.4207Z" fill="#525357"/>
<path d="M66.6519 28.4207C66.6519 31.7585 69.3576 34.4645 72.6956 34.4645C76.0334 34.4645 78.7394 31.7587 78.7394 28.4207C78.7394 25.083 76.0337 22.377 72.6956 22.377C69.3579 22.3772 66.6519 25.083 66.6519 28.4207ZM67.1026 28.4207C67.1026 25.3318 69.6067 22.828 72.6953 22.828C75.7843 22.828 78.2881 25.3321 78.2881 28.4207C78.2881 31.5097 75.784 34.0135 72.6953 34.0135C69.6067 34.0135 67.1026 31.5097 67.1026 28.4207Z" fill="#D1D3D4"/>
<path d="M9.79716 27.6087L6.69563 25.1807C7.05883 24.6708 7.50469 24.2246 8.01489 23.8614L10.4429 26.963C10.5542 26.9009 10.6734 26.8517 10.7984 26.8163L10.3219 22.9051C10.6254 22.8542 10.9368 22.8262 11.2548 22.8262C11.5729 22.8262 11.8843 22.8542 12.1877 22.9051L11.7113 26.8163C11.8362 26.8517 11.9555 26.9009 12.0667 26.963L14.4948 23.8612C15.0047 24.2244 15.4508 24.6705 15.814 25.1804L12.7125 27.6084C12.7746 27.7197 12.8238 27.8389 12.8592 27.9639L16.7704 27.4875C16.8213 27.7909 16.8493 28.1023 16.8493 28.4204C16.8493 28.7384 16.8213 29.0498 16.7704 29.3532L12.8592 28.8768C12.8238 29.0018 12.7746 29.121 12.7125 29.2323L15.8143 31.6603C15.4511 32.1702 15.005 32.6164 14.4951 32.9796L12.067 29.878C11.9558 29.9401 11.8365 29.989 11.7116 30.0247L12.188 33.9359C11.8846 33.9868 11.5731 34.0148 11.2551 34.0148C10.9371 34.0148 10.6257 33.9868 10.3222 33.9359L10.7987 30.0247C10.6737 29.9893 10.5545 29.9401 10.4432 29.878L8.01517 32.9796C7.50526 32.6164 7.05912 32.1702 6.69592 31.6603L9.79744 29.2323C9.73539 29.121 9.6862 29.0018 9.65073 28.8768L5.73958 29.3532C5.68867 29.0498 5.66064 28.7384 5.66064 28.4204C5.66064 28.1023 5.68867 27.7909 5.73958 27.4875L9.65073 27.9639C9.6862 27.8392 9.7351 27.7203 9.79716 27.6087Z" fill="#BCBEC0"/>
<path d="M10.925 27.6166C10.925 27.7905 11.066 27.9315 11.2399 27.9315C11.4138 27.9315 11.5548 27.7905 11.5548 27.6166C11.5548 27.4427 11.4138 27.3018 11.2399 27.3018C11.066 27.3018 10.925 27.4427 10.925 27.6166Z" fill="#F1F2F2"/>
<path d="M10.925 29.2241C10.925 29.3979 11.066 29.5389 11.2399 29.5389C11.4138 29.5389 11.5548 29.3979 11.5548 29.2241C11.5548 29.0502 11.4138 28.9092 11.2399 28.9092C11.066 28.9092 10.925 29.0502 10.925 29.2241Z" fill="#F1F2F2"/>
<path d="M10.4362 28.7352C10.6101 28.7352 10.7511 28.5942 10.7511 28.4203C10.7511 28.2464 10.6101 28.1055 10.4362 28.1055C10.2623 28.1055 10.1213 28.2464 10.1213 28.4203C10.1213 28.5942 10.2623 28.7352 10.4362 28.7352Z" fill="#F1F2F2"/>
<path d="M12.0436 28.7352C12.2175 28.7352 12.3585 28.5942 12.3585 28.4203C12.3585 28.2465 12.2175 28.1055 12.0436 28.1055C11.8698 28.1055 11.7288 28.2465 11.7288 28.4203C11.7285 28.5942 11.8695 28.7352 12.0436 28.7352Z" fill="#F1F2F2"/>
<path d="M3.67554 28.4207C3.67554 32.6064 7.06877 35.9997 11.2545 35.9997C15.4402 35.9997 18.8334 32.6064 18.8334 28.4207C18.8334 24.235 15.4402 20.8418 11.2545 20.8418C7.06877 20.8418 3.67554 24.235 3.67554 28.4207ZM5.38974 28.4207C5.38974 25.1816 8.01567 22.5557 11.2548 22.5557C14.4938 22.5557 17.1198 25.1816 17.1198 28.4207C17.1198 31.6598 14.4938 34.2858 11.2548 34.2858C8.01539 34.2858 5.38974 31.6598 5.38974 28.4207Z" fill="#525357"/>
<path d="M5.21094 28.4207C5.21094 31.7585 7.91666 34.4645 11.2544 34.4645C14.5922 34.4645 17.2982 31.7587 17.2982 28.4207C17.2982 25.083 14.5925 22.377 11.2544 22.377C7.91666 22.3772 5.21094 25.083 5.21094 28.4207ZM5.66165 28.4207C5.66165 25.3318 8.16575 22.828 11.2544 22.828C14.3434 22.828 16.8472 25.3321 16.8472 28.4207C16.8472 31.5097 14.3431 34.0135 11.2544 34.0135C8.16575 34.0135 5.66165 31.5097 5.66165 28.4207Z" fill="#D1D3D4"/>
<path d="M22.2929 28.1905C22.2929 24.8645 20.637 21.783 17.8635 19.9473C15.5996 18.4487 13.6761 16.5515 12.1466 14.3087L10.3563 11.6831C9.90477 11.1875 9.62308 10.5712 9.54186 9.89997L9.30163 7.92151C9.08514 6.13724 9.66454 4.3707 10.8911 3.07489L11.5441 2.38567C12.6411 1.22713 14.1777 0.5625 15.7606 0.5625L34.0432 0.643719C34.8686 0.647437 35.5995 1.16908 35.887 1.92208C35.961 1.73047 36.0646 1.55144 36.193 1.39301C36.571 0.927419 37.135 0.660308 37.7404 0.660308L42.6834 0.682328C50.7689 0.682328 65.8644 10.5414 66.4967 10.9573C66.9852 11.2281 67.3103 11.7114 67.4127 12.3177C67.4994 12.8305 67.423 13.3836 67.1977 13.8775V21.4701L67.1585 21.499C65.0753 23.0439 63.8307 25.5718 63.8284 28.2632L64.0078 29.3211H23.4239C22.8005 29.3216 22.2929 28.8143 22.2929 28.1905ZM63.6368 28.2878L63.6354 28.2718C63.6354 25.5332 64.894 22.9581 67.0046 21.3732V13.8349L67.0138 13.8154C67.2297 13.3515 67.3037 12.831 67.2225 12.3497C67.1302 11.8026 66.8393 11.3679 66.3972 11.1226C65.7606 10.7042 50.7122 0.875656 42.6837 0.875656L37.7407 0.853634C37.1942 0.853634 36.6852 1.09472 36.344 1.51484C36.1641 1.73676 36.0385 2.00416 35.9813 2.28872L35.8867 2.75859L35.7874 2.26841C35.6193 1.44305 34.8857 0.841051 34.0435 0.837047L15.7612 0.755828C14.2318 0.755828 12.7461 1.39815 11.6856 2.51865L11.0327 3.20788C9.84557 4.46164 9.28504 6.17127 9.49467 7.89806L9.73461 9.87652C9.81183 10.5117 10.0795 11.0945 10.5088 11.5618L10.584 11.6451L10.5714 11.6536L12.3073 14.1992C13.8228 16.4213 15.7283 18.3005 17.9713 19.7854C20.7989 21.6572 22.487 24.799 22.487 28.19C22.487 28.707 22.9074 29.1274 23.4245 29.1274H63.7795L63.6368 28.2878Z" fill="#6D41A2"/>
<path d="M39.1745 14.3705L38.9839 14.4043L41.614 29.2461L41.8047 29.2123L39.1745 14.3705Z" fill="#6D41A2"/>
<path d="M66.1355 15.0389L66.1392 14.8453L38.0067 14.2856L13.8122 13.2715L13.804 13.4648L38.0007 14.4789L66.1355 15.0389Z" fill="#6D41A2"/>
<path d="M86.2906 30.9158H86.2451H81.0625L81.0593 27.2783C83.0921 27.2798 84.8478 27.2818 86.2451 27.2843V27.854L86.4842 27.8846C87.2435 27.9821 87.8121 28.6285 87.8121 29.3941C87.8123 30.2343 87.1308 30.9158 86.2906 30.9158Z" fill="#6D41A2"/>
<path d="M2.78122 28.272V29.2123C2.78122 30.1532 2.01849 30.9159 1.0776 30.9159H0V27.5233C0 26.8355 0.323165 26.1877 0.872259 25.7739L0.927455 25.7324L3.09066 25.9569C2.88904 26.6971 2.78122 27.4747 2.78122 28.272Z" fill="#6D41A2"/>
<path d="M19.8092 29.0528L20.1112 27.4195C20.1112 27.3789 20.11 27.3392 20.1095 27.2988C28.3282 27.2926 47.5825 27.2788 63.7882 27.2754C63.7513 27.6031 63.7322 27.9354 63.7322 28.2712L64.0405 30.0901C64.1137 30.5216 63.7811 30.9151 63.3435 30.9151H21.3587C20.3737 30.9151 19.6302 30.0214 19.8092 29.0528Z" fill="#6D41A2"/>
<path d="M65.1794 15.7613H63.2984C63.0602 15.7613 62.8809 15.5445 62.9252 15.3106L63.3911 12.8577C63.4251 12.6784 63.5818 12.5488 63.7643 12.5488H65.1791C66.3588 12.5488 67.3151 13.2678 67.3151 14.1549C67.3154 15.0423 66.3591 15.7613 65.1794 15.7613Z" fill="#E8E4F2"/>
<path d="M65.1789 14.7996H63.298C63.1979 14.7996 63.1084 14.761 63.0412 14.6992L62.9248 15.3115C62.8802 15.5454 63.0598 15.7622 63.298 15.7622H65.1789C66.3586 15.7622 67.315 15.0433 67.315 14.1561C67.315 13.9885 67.2807 13.8269 67.2172 13.6748C66.9452 14.3266 66.1356 14.7996 65.1789 14.7996Z" fill="#D6CEE6"/>
<path d="M86.2449 22.3082C86.2449 20.908 85.8877 19.5731 85.2503 18.4014H82.9941C82.3535 18.4014 81.851 18.9593 81.928 19.5954C82.085 20.8923 82.6475 22.8419 84.5856 23.3052C85.2062 23.4536 85.7585 23.5394 86.2449 23.5832V22.3082Z" fill="#D1D3D4"/>
<path d="M85.8794 23.1739C85.4887 23.123 85.0841 23.0472 84.6711 22.9486C82.9958 22.5479 82.4524 20.8795 82.2914 19.5505C82.2671 19.3509 82.3277 19.1575 82.4624 19.006C82.5974 18.8538 82.7913 18.7666 82.9946 18.7666H85.03C85.5865 19.8611 85.8797 21.0805 85.8797 22.3074L85.8794 23.1739Z" fill="white"/>
<path d="M1.07764 24.2137L2.44036 23.7573V19.7998H1.07764V24.2137Z" fill="#C70203"/>
<path d="M43.7328 12.6139L47.9969 3.77723C47.1881 3.47179 46.3908 3.20211 45.6189 2.98047L41.0322 12.4855L43.7328 12.6139Z" fill="#B6A4D0"/>
<path d="M50.6057 4.85914C50.0465 4.60862 49.4852 4.3681 48.9263 4.1416L44.813 12.6657L46.7932 12.7598L50.6057 4.85914Z" fill="#B6A4D0"/>
<path d="M31.2389 2.28426L29.2178 2.27539L24.6658 11.7081L26.6462 11.8022L31.2389 2.28426Z" fill="#B6A4D0"/>
<path d="M23.5856 11.6562L28.1148 2.27011L25.3584 2.25781L20.885 11.5281L23.5856 11.6562Z" fill="#B6A4D0"/>
<path d="M17.8679 15.458L37.6768 15.8847L38.3526 18.9819L17.8679 15.458Z" fill="#525357"/>
<path d="M40.3928 15.7607L41.0323 19.0882L63.7322 16.3021L40.3928 15.7607Z" fill="#525357"/>
</svg>
