<svg width="18" height="18" viewBox="0 0 18 18" fill="none" xmlns="http://www.w3.org/2000/svg">
<g clip-path="url(#clip0_3109_40270)">
<path d="M15.75 9C15.75 12.7279 12.7279 15.75 9 15.75C5.27208 15.75 2.25 12.7279 2.25 9C2.25 5.27208 5.27208 2.25 9 2.25C12.7279 2.25 15.75 5.27208 15.75 9ZM3.3975 9C3.3975 12.0942 5.90582 14.6025 9 14.6025C12.0942 14.6025 14.6025 12.0942 14.6025 9C14.6025 5.90582 12.0942 3.3975 9 3.3975C5.90582 3.3975 3.3975 5.90582 3.3975 9Z" fill="#8DC060"/>
<path d="M7.61374 11.4265C7.39407 11.2068 7.39407 10.8506 7.61374 10.631L11.1935 7.05124C11.4131 6.83157 11.7693 6.83157 11.989 7.05124C12.2086 7.27091 12.2086 7.62706 11.989 7.84673L8.40923 11.4265C8.18956 11.6461 7.83341 11.6461 7.61374 11.4265Z" fill="#8DC060"/>
<path d="M8.40923 11.4265C8.18956 11.6461 7.83341 11.6461 7.61374 11.4265L6.02275 9.83547C5.80308 9.6158 5.80308 9.25965 6.02275 9.03998C6.24242 8.82031 6.59857 8.82031 6.81824 9.03998L8.40923 10.631C8.6289 10.8506 8.6289 11.2068 8.40923 11.4265Z" fill="#8DC060"/>
</g>
<defs>
<clipPath id="clip0_3109_40270">
<rect width="18" height="18" fill="white"/>
</clipPath>
</defs>
</svg>
