<svg width="86" height="59" viewBox="0 0 86 59" fill="none" xmlns="http://www.w3.org/2000/svg">
<g clip-path="url(#clip0_2456_6751)">
<g clip-path="url(#clip1_2456_6751)">
<g clip-path="url(#clip2_2456_6751)">
<path d="M84.4489 56.8777C84.4567 56.4951 84.4609 56.1115 84.4609 55.7267C84.4609 30.5637 67.5134 10.165 46.6075 10.165C25.7016 10.165 8.75409 30.5635 8.75409 55.7265C8.75409 56.1114 8.75824 56.495 8.76611 56.8776H84.4489V56.8777Z" fill="#E8E4F2"/>
<path d="M7.97974 16.5814C8.51554 16.5814 9.01078 16.75 9.41387 17.0349C10.2202 14.9052 12.3193 13.3867 14.7824 13.3867C16.7965 13.3867 18.5663 14.4029 19.5858 15.9376C19.9924 15.7685 20.4397 15.6745 20.9096 15.6745C22.0897 15.6745 23.1278 16.2655 23.7314 17.1603C24.16 16.7998 24.7176 16.5814 25.3279 16.5814C26.6793 16.5814 27.7749 17.6503 27.7749 18.9688H24.2864H22.881H20.504H17.5332H10.4268H9.06079H5.53253C5.53269 17.6501 6.62832 16.5814 7.97974 16.5814Z" fill="#B6A4D0"/>
<path d="M69.2306 12.1262C68.9015 12.1262 68.5975 12.2297 68.35 12.4046C67.8549 11.0973 66.5662 10.165 65.0542 10.165C63.8176 10.165 62.7311 10.7889 62.1051 11.731C61.8556 11.6272 61.5809 11.5695 61.2924 11.5695C60.5679 11.5695 59.9307 11.9323 59.56 12.4816C59.2968 12.2603 58.9545 12.1262 58.5799 12.1262C57.7502 12.1262 57.0775 12.7824 57.0775 13.5919H59.2194H60.0822H61.5414H63.3654H67.7281H68.5669H70.733C70.7328 12.7823 70.0601 12.1262 69.2306 12.1262Z" fill="#B6A4D0"/>
<path d="M51.0616 8.12407C50.6034 8.12407 50.1867 8.29685 49.8756 8.57909C49.3994 7.6115 48.3857 6.94336 47.212 6.94336C45.9686 6.94336 44.9055 7.69344 44.4702 8.75468C44.2854 8.65148 44.0716 8.59206 43.8435 8.59206C43.146 8.59206 42.5806 9.14372 42.5806 9.82421H44.2591H45.1065H49.3189H50.165H52.8042C52.8042 8.88525 52.024 8.12407 51.0616 8.12407Z" fill="#B6A4D0"/>
<path d="M6.04041 29.3182C6.59751 29.3182 7.10414 29.5284 7.48239 29.8715C8.06129 28.695 9.29364 27.8828 10.7205 27.8828C12.2322 27.8828 13.5247 28.7947 14.0541 30.085C14.2786 29.9595 14.5386 29.8874 14.816 29.8874C15.664 29.8874 16.3516 30.558 16.3516 31.3855H14.3108H13.2806H8.15922H7.13058H3.92175C3.92175 30.2438 4.87025 29.3182 6.04041 29.3182Z" fill="#B6A4D0"/>
<path d="M48.5012 34.8203C48.0475 34.6938 47.5745 34.9501 47.4449 35.3927L46.2901 35.0706C45.9329 34.971 45.7261 34.6078 45.8282 34.2592L46.5478 31.8029C46.7756 31.8664 47.0131 31.7377 47.0782 31.5155C47.1432 31.2933 47.0113 31.0616 46.7836 30.9981L49.4446 21.9155C49.5467 21.567 49.9192 21.3653 50.2764 21.4649L51.4312 21.787C51.3015 22.2297 51.5642 22.6911 52.018 22.8176C52.4717 22.9441 52.9447 22.6878 53.0743 22.2453L54.2291 22.5673C54.5863 22.6669 54.7931 23.0301 54.691 23.3786L52.03 32.4612C51.8022 32.3977 51.5647 32.5264 51.4996 32.7486C51.4346 32.9708 51.5665 33.2025 51.7942 33.266L51.0746 35.7223C50.9725 36.0709 50.6 36.2726 50.2428 36.173L49.088 35.8509C49.2175 35.4082 48.9548 34.9468 48.5012 34.8203Z" fill="#959595"/>
<path d="M49.7192 35.5714C50.0764 35.671 50.4487 35.4693 50.5508 35.1208L51.2705 32.6645C51.0427 32.601 50.9108 32.3692 50.9759 32.147C51.041 31.9249 51.2785 31.7962 51.5062 31.8596L54.1673 22.7771C54.1889 22.703 54.194 22.6285 54.1892 22.5557L54.2288 22.5668C54.586 22.6664 54.7928 23.0296 54.6907 23.3781L52.0297 32.4607C51.8019 32.3972 51.5644 32.5259 51.4993 32.7481C51.4343 32.9703 51.5662 33.202 51.7939 33.2655L51.0743 35.7218C50.9722 36.0704 50.5997 36.2721 50.2425 36.1725L49.0877 35.8504C49.1331 35.6956 49.1279 35.5391 49.0859 35.3949L49.7192 35.5714Z" fill="#959595"/>
<path d="M45.806 34.4805L46.9212 34.7915L47.6931 35.0068C47.5791 35.1076 47.4902 35.2377 47.4448 35.3927L46.2901 35.0706C46.0088 34.9921 45.8235 34.7499 45.806 34.4805Z" fill="#959595"/>
<path d="M52.0505 26.2925L51.9391 26.2217L51.8517 26.1662L51.6608 26.2695C51.6028 26.301 51.5297 26.2806 51.4974 26.224L51.4817 26.1965C51.4777 26.1895 51.4746 26.1823 51.4722 26.1749C51.4552 26.1229 51.4777 26.0647 51.5285 26.037L51.5934 26.0018L51.4046 25.8817L51.2138 25.9851C51.1558 26.0165 51.0827 25.9962 51.0504 25.9396L51.0348 25.9121C51.0308 25.905 51.0278 25.8979 51.0254 25.8905C51.0084 25.8384 51.0308 25.7803 51.0816 25.7526L51.1465 25.7174L50.8649 25.5384C50.8164 25.5686 50.7736 25.5951 50.7388 25.617C50.7183 25.6298 50.6976 25.6417 50.6768 25.6528C50.6699 25.6564 50.663 25.6597 50.6561 25.6632C50.642 25.6703 50.6279 25.6772 50.6136 25.6836C50.6053 25.6874 50.5971 25.6907 50.5888 25.6941C50.576 25.6994 50.563 25.7047 50.5501 25.7096C50.5413 25.7129 50.5325 25.7158 50.5237 25.7188C50.5114 25.723 50.499 25.7271 50.4867 25.7309C50.4775 25.7335 50.4686 25.7362 50.4596 25.7385C50.4477 25.7418 50.4359 25.7448 50.424 25.7474C50.4149 25.7496 50.4056 25.7517 50.3964 25.7535C50.3852 25.7559 50.374 25.7579 50.363 25.7598C50.3535 25.7613 50.3442 25.7631 50.3349 25.7645C50.3247 25.7659 50.3147 25.767 50.3048 25.7681C50.2948 25.7692 50.2849 25.7704 50.2751 25.7712C50.2671 25.7718 50.2594 25.7721 50.2517 25.7725C50.1871 25.776 50.1277 25.7726 50.0769 25.7632L50.0764 25.7631C50.0629 25.7606 50.0503 25.7576 50.0381 25.7543C50.0373 25.7542 50.0366 25.754 50.036 25.7537C50.024 25.7504 50.0128 25.7466 50.0022 25.7426C50.0015 25.7423 50.0009 25.7421 50.0003 25.7418C49.9897 25.7377 49.9799 25.7332 49.9708 25.7285C49.9704 25.7284 49.97 25.728 49.9696 25.7279C49.9605 25.723 49.9522 25.7177 49.9448 25.7122C49.9312 25.7019 49.9198 25.6908 49.9127 25.6786C49.8438 25.5576 50.0341 25.1975 50.4033 25.0271C50.4405 25.0099 50.4864 24.9884 50.5383 24.9642L50.5348 24.803L50.5312 24.6365L50.4663 24.6716C50.4083 24.7031 50.3351 24.6827 50.3029 24.6261L50.2871 24.5986C50.2831 24.5916 50.2799 24.5844 50.2777 24.577C50.2607 24.525 50.2831 24.4668 50.3339 24.4391L50.5247 24.3358L50.52 24.1159L50.4551 24.1511C50.3971 24.1825 50.324 24.1622 50.2916 24.1056L50.2761 24.0781C50.2721 24.0711 50.2689 24.0639 50.2665 24.0565C50.2495 24.0044 50.2719 23.9463 50.3227 23.9186L50.5136 23.8152L50.5086 23.5838C50.508 23.5549 50.5239 23.528 50.5498 23.5138L50.7771 23.3907C50.8242 23.3652 50.8834 23.3915 50.8944 23.4431L50.9298 23.6079L51.1254 24.5187L51.1589 24.6748C51.5014 24.5172 51.8641 24.3552 52.0808 24.277L52.0966 23.8146C52.0974 23.7907 52.1111 23.769 52.1325 23.7574L52.1923 23.725C52.2335 23.7028 52.285 23.7256 52.2946 23.7707L52.3862 24.198C52.4177 24.1913 52.4438 24.1864 52.4669 24.1827C52.4752 24.1813 52.4832 24.1802 52.4906 24.1793C52.4968 24.1785 52.5029 24.1778 52.5085 24.1774C52.5162 24.1768 52.5233 24.1768 52.53 24.1768C52.5337 24.1768 52.538 24.1766 52.5415 24.1768C52.5507 24.1775 52.5587 24.1793 52.5659 24.1816C52.5686 24.1825 52.571 24.1838 52.5736 24.185C52.5786 24.1874 52.5832 24.1902 52.5874 24.1935C52.5893 24.195 52.5914 24.1966 52.5933 24.1985C52.5989 24.204 52.6039 24.2102 52.6084 24.218V24.2182C52.6393 24.2724 52.6089 24.3122 52.5085 24.4129L52.832 24.7146C52.8489 24.7304 52.8557 24.7522 52.853 24.7725C52.8502 24.793 52.8382 24.8122 52.8175 24.8233L52.7578 24.8557C52.7417 24.8644 52.723 24.8665 52.7057 24.8619C52.6999 24.8604 52.6943 24.8582 52.689 24.8552L52.6412 24.8283L52.2782 24.624C52.0957 24.762 51.7629 24.9769 51.4448 25.1772L51.5629 25.2874L52.2521 25.9307L52.3769 26.0472C52.4159 26.0836 52.4076 26.1465 52.3604 26.172L52.1332 26.2952C52.107 26.3094 52.0753 26.3083 52.0505 26.2925Z" fill="#EDC45F"/>
<path d="M51.4974 26.2226L51.4817 26.1953C51.4777 26.1882 51.4746 26.1811 51.4722 26.1737C51.4553 26.1216 51.4777 26.0635 51.5285 26.0358L51.5934 26.0006L51.4046 25.8805L51.2139 25.9839C51.1559 26.0153 51.0828 25.995 51.0504 25.9384L51.0349 25.9109C51.0309 25.9038 51.0278 25.8966 51.0254 25.8893C51.0084 25.8372 51.0309 25.779 51.0817 25.7514L51.1466 25.7162L50.865 25.5371C50.8164 25.5673 50.7736 25.5939 50.7388 25.6158C50.7183 25.6286 50.6976 25.6405 50.6767 25.6516C50.6698 25.6552 50.6629 25.6585 50.656 25.6619C50.6419 25.6691 50.6278 25.6762 50.6135 25.6824C50.6052 25.6862 50.597 25.6894 50.5887 25.6929C50.5757 25.6982 50.5629 25.7035 50.55 25.7084C50.5412 25.7116 50.5324 25.7146 50.5236 25.7176C50.5113 25.7218 50.4989 25.7259 50.4866 25.7296C50.4774 25.7323 50.4685 25.7349 50.4595 25.7373C50.4476 25.7406 50.4358 25.7435 50.4239 25.7462C50.4148 25.7484 50.4055 25.7504 50.3963 25.7523C50.3851 25.7546 50.3739 25.7567 50.3628 25.7586C50.3534 25.7601 50.3441 25.7618 50.3348 25.7631C50.3245 25.7645 50.3146 25.7656 50.3047 25.7667C50.2947 25.7678 50.2848 25.769 50.275 25.7698C50.267 25.7704 50.2593 25.7708 50.2516 25.7711C50.187 25.7747 50.1276 25.7712 50.0768 25.7618L50.0763 25.7617C50.0628 25.7592 50.0501 25.7562 50.038 25.7529C50.0373 25.7528 50.0365 25.7526 50.0359 25.7523C50.0239 25.749 50.0128 25.7453 50.0021 25.7412C50.0014 25.7409 50.0008 25.7407 50.0001 25.7404C49.9896 25.7364 49.9798 25.7318 49.9707 25.7271C49.9703 25.727 49.9698 25.7267 49.9695 25.7265C49.9604 25.7217 49.9521 25.7163 49.9447 25.7109C49.9311 25.7005 49.9195 25.6894 49.9126 25.6772C49.8703 25.603 49.9266 25.4385 50.0612 25.2831C50.0639 25.2852 50.065 25.2881 50.0681 25.2902C50.0755 25.2959 50.0838 25.301 50.0929 25.3059C50.0933 25.306 50.0937 25.3064 50.0941 25.3065C50.103 25.3114 50.1128 25.3157 50.1235 25.3198C50.1242 25.3201 50.1248 25.3203 50.1255 25.3206C50.1361 25.3246 50.1473 25.3282 50.1593 25.3315C50.1599 25.3317 50.1607 25.3318 50.1614 25.3322C50.1736 25.3354 50.1862 25.3384 50.1997 25.3409L50.2002 25.3411C50.251 25.3504 50.3104 25.3537 50.375 25.3503C50.3829 25.3498 50.3906 25.3497 50.3984 25.349C50.4082 25.3483 50.4181 25.347 50.4281 25.3459C50.438 25.3448 50.4481 25.3437 50.4582 25.3423C50.4675 25.3409 50.477 25.3393 50.4862 25.3378C50.4973 25.3359 50.5085 25.3339 50.5197 25.3315C50.5289 25.3296 50.538 25.3276 50.5473 25.3254C50.5592 25.3226 50.5709 25.3196 50.5829 25.3164C50.5919 25.3139 50.6008 25.3114 50.61 25.3087C50.6223 25.3049 50.6347 25.3009 50.647 25.2967C50.6558 25.2937 50.6646 25.2907 50.6735 25.2874C50.6863 25.2826 50.6993 25.2774 50.7121 25.272C50.7204 25.2685 50.7287 25.2652 50.7369 25.2615C50.7512 25.2551 50.7651 25.248 50.7794 25.241C50.7863 25.2376 50.7932 25.2344 50.8001 25.2307C50.8209 25.2196 50.8417 25.2077 50.8623 25.1949C50.8969 25.1731 50.9397 25.1464 50.9884 25.1162L51.27 25.2952L51.2051 25.3304C51.1543 25.358 51.1318 25.4161 51.1488 25.4683C51.1512 25.4757 51.1544 25.4829 51.1584 25.4899L51.174 25.5174C51.2062 25.574 51.2794 25.5945 51.3375 25.5629L51.5282 25.4596L51.717 25.5797L51.6521 25.6149C51.6013 25.6424 51.5788 25.7005 51.5958 25.7528C51.5982 25.7601 51.6014 25.7673 51.6053 25.7743L51.621 25.8019C51.6532 25.8585 51.7264 25.879 51.7845 25.8475L51.9753 25.7442L52.0627 25.7998L52.1741 25.8707C52.1808 25.875 52.189 25.8755 52.1965 25.8775L52.2525 25.9298L52.3773 26.0463C52.4163 26.0827 52.4079 26.1456 52.3608 26.171L52.1335 26.2943C52.1076 26.3083 52.0757 26.3072 52.0508 26.2914L51.9394 26.2206L51.8521 26.1651L51.6612 26.2685C51.6029 26.2997 51.5296 26.2792 51.4974 26.2226Z" fill="#DDAC3E"/>
<path d="M47.5634 31.6504C47.5719 31.6214 47.5547 31.5911 47.5249 31.5828L47.3093 31.5226C47.2795 31.5143 47.2484 31.5312 47.2401 31.5601C47.2316 31.5891 47.2487 31.6194 47.2786 31.6277L47.4941 31.6877C47.5238 31.6963 47.5549 31.6795 47.5634 31.6504Z" fill="#EDC45F"/>
<path d="M50.6572 32.5704L50.2618 32.4602C50.232 32.4519 50.2148 32.4215 50.2233 32.3926C50.2318 32.3637 50.2629 32.3468 50.2926 32.3551L50.688 32.4653C50.7178 32.4736 50.7349 32.504 50.7264 32.5329C50.7179 32.562 50.687 32.5788 50.6572 32.5704ZM49.8664 32.3499L49.471 32.2397C49.4412 32.2314 49.4241 32.2011 49.4325 32.172C49.441 32.1431 49.4721 32.1262 49.5018 32.1345L49.8972 32.2447C49.927 32.253 49.9441 32.2833 49.9356 32.3122C49.9271 32.3413 49.8961 32.3582 49.8664 32.3499ZM49.0755 32.1295L48.6801 32.0192C48.6503 32.0109 48.6331 31.9806 48.6416 31.9517C48.6501 31.9227 48.6812 31.9059 48.7108 31.9141L49.1062 32.0244C49.136 32.0327 49.1532 32.063 49.1447 32.0919C49.1364 32.1209 49.1053 32.1377 49.0755 32.1295ZM48.2847 31.9088L47.8893 31.7986C47.8595 31.7903 47.8423 31.76 47.8508 31.731C47.8593 31.7021 47.8904 31.6852 47.92 31.6935L48.3154 31.8038C48.3452 31.812 48.3624 31.8424 48.3539 31.8713C48.3454 31.9002 48.3143 31.9171 48.2847 31.9088Z" fill="#EDC45F"/>
<path d="M51.3375 32.7031C51.346 32.6742 51.3289 32.6438 51.2991 32.6356L51.0835 32.5754C51.0537 32.5671 51.0226 32.584 51.0143 32.6129C51.0058 32.6418 51.0229 32.6721 51.0527 32.6804L51.2683 32.7406C51.2979 32.7489 51.329 32.732 51.3375 32.7031Z" fill="#EDC45F"/>
<path d="M48.2958 34.1631L48.6942 32.8032C48.7123 32.7414 48.7784 32.7056 48.8418 32.7233C48.9051 32.7409 48.9418 32.8054 48.9237 32.8673L48.5253 34.2272C48.5072 34.2889 48.4411 34.3247 48.3777 34.3071C48.3144 34.2894 48.2777 34.225 48.2958 34.1631Z" fill="#FBE8E5"/>
<path d="M48.2958 34.1616L48.3915 33.835C48.3733 33.8967 48.41 33.9613 48.4733 33.979C48.5368 33.9966 48.6028 33.9608 48.621 33.8991L48.5253 34.2257C48.5072 34.2875 48.4411 34.3233 48.3777 34.3056C48.3144 34.2879 48.2777 34.2235 48.2958 34.1616Z" fill="#EDDAD9"/>
<path d="M47.7351 34.0068L48.1335 32.6469C48.1516 32.5851 48.2177 32.5493 48.2812 32.567C48.3445 32.5847 48.3812 32.6491 48.363 32.711L47.9646 34.0709C47.9465 34.1328 47.8805 34.1685 47.817 34.1508C47.7537 34.1332 47.717 34.0686 47.7351 34.0068Z" fill="#FBE8E5"/>
<path d="M47.7354 34.0073L47.8311 33.6807C47.813 33.7424 47.8497 33.807 47.913 33.8247C47.9763 33.8423 48.0425 33.8065 48.0606 33.7448L47.9649 34.0714C47.9468 34.1333 47.8808 34.169 47.8173 34.1513C47.7538 34.1337 47.7171 34.0691 47.7354 34.0073Z" fill="#EDDAD9"/>
<path d="M50.3293 34.0776L50.5301 33.3924C50.5598 33.2913 50.4997 33.1857 50.396 33.1568C50.2923 33.1279 50.1841 33.1865 50.1544 33.2877L49.9536 33.9729C49.924 34.074 49.9841 34.1796 50.0878 34.2085C50.1916 34.2374 50.2996 34.1788 50.3293 34.0776Z" fill="#EDC45F"/>
<path d="M49.9537 33.9754C49.9732 33.9907 49.9961 34.0026 50.0218 34.0098C50.1255 34.0387 50.2337 33.9801 50.2633 33.8789L50.4641 33.1938C50.4643 33.193 50.4641 33.1922 50.4643 33.1914C50.5239 33.238 50.5526 33.3165 50.5303 33.3926L50.3295 34.0778C50.2998 34.179 50.1918 34.2376 50.088 34.2087C49.9851 34.1799 49.9258 34.076 49.9537 33.9754Z" fill="#DDAC3E"/>
<path d="M47.1743 33.8506L47.5727 32.4907C47.5908 32.4289 47.6569 32.3931 47.7204 32.4108C47.7837 32.4284 47.8204 32.4929 47.8022 32.5548L47.4038 33.9147C47.3857 33.9764 47.3197 34.0122 47.2562 33.9946C47.1929 33.9767 47.1562 33.9123 47.1743 33.8506Z" fill="#FBE8E5"/>
<path d="M47.1743 33.8501L47.27 33.5234C47.2519 33.5852 47.2886 33.6498 47.3519 33.6674C47.4152 33.6851 47.4814 33.6493 47.4995 33.5875L47.4038 33.9142C47.3857 33.976 47.3197 34.0118 47.2562 33.9941C47.1929 33.9763 47.1562 33.9118 47.1743 33.8501Z" fill="#EDDAD9"/>
<path d="M49.0129 31.002L50.1908 26.9815C50.2089 26.9198 50.1722 26.8552 50.1089 26.8375C50.0456 26.8198 49.9794 26.8557 49.9613 26.9174L48.7834 30.9379C48.7653 30.9998 48.802 31.0642 48.8653 31.0819C48.9288 31.0995 48.9948 31.0637 49.0129 31.002Z" fill="#FBE8E5"/>
<path d="M48.7834 30.9377L48.9684 30.3066C48.9503 30.3684 48.987 30.433 49.0503 30.4507C49.1136 30.4683 49.1798 30.4325 49.1979 30.3708L49.0129 31.0018C48.9948 31.0636 48.9288 31.0994 48.8653 31.0817C48.802 31.0639 48.7653 30.9995 48.7834 30.9377Z" fill="#EDDAD9"/>
<path d="M49.689 31.1895L50.867 27.169C50.8851 27.1073 50.8484 27.0427 50.7851 27.025C50.7218 27.0073 50.6556 27.0432 50.6375 27.1049L49.4595 31.1254C49.4413 31.1871 49.4781 31.2517 49.5414 31.2694C49.6047 31.287 49.6709 31.2512 49.689 31.1895Z" fill="#FBE8E5"/>
<path d="M49.4593 31.1262L49.6443 30.4951C49.6262 30.5569 49.6629 30.6215 49.7262 30.6391C49.7895 30.6568 49.8557 30.621 49.8738 30.5592L49.6889 31.1903C49.6707 31.2521 49.6047 31.2879 49.5413 31.2702C49.4778 31.2525 49.4412 31.1881 49.4593 31.1262Z" fill="#EDDAD9"/>
<path d="M50.3644 31.3789L51.5422 27.3585C51.5603 27.2967 51.5236 27.2321 51.4603 27.2145C51.397 27.1968 51.3308 27.2326 51.3127 27.2944L50.1349 31.3148C50.1168 31.3766 50.1535 31.4412 50.2168 31.4588C50.2802 31.4765 50.3463 31.4407 50.3644 31.3789Z" fill="#FBE8E5"/>
<path d="M50.1349 31.3147L50.3198 30.6836C50.3017 30.7454 50.3384 30.8099 50.4017 30.8276C50.465 30.8453 50.5312 30.8095 50.5493 30.7477L50.3644 31.3788C50.3463 31.4406 50.2802 31.4764 50.2168 31.4587C50.1535 31.441 50.1168 31.3766 50.1349 31.3147Z" fill="#EDDAD9"/>
<path d="M48.501 34.821C48.1598 34.5029 47.619 34.515 47.2931 34.8479L46.4247 34.0385C46.1561 33.7882 46.1463 33.3727 46.403 33.1105L48.2119 31.2634C48.3832 31.423 48.6547 31.4169 48.8184 31.2499C48.982 31.0828 48.9758 30.8179 48.8046 30.6582L55.493 23.8279C55.7496 23.5659 56.1754 23.5563 56.4442 23.8068L57.3125 24.6162C56.9865 24.9491 56.9989 25.4766 57.3401 25.7947C57.6813 26.1127 58.2222 26.1007 58.5481 25.7678L59.4164 26.5771C59.6851 26.8275 59.6948 27.2429 59.4382 27.5052L52.7497 34.3355C52.5784 34.1758 52.3069 34.1819 52.1432 34.3489C51.9796 34.5161 51.9858 34.7809 52.157 34.9406L50.3482 36.7879C50.0916 37.0499 49.6657 37.0595 49.397 36.809L48.5286 35.9996C48.8544 35.6666 48.8421 35.139 48.501 34.821Z" fill="#959595"/>
<path d="M49.2203 36.0395C49.4889 36.2899 49.9148 36.2805 50.1715 36.0183L51.9804 34.1712C51.809 34.0115 51.8029 33.7466 51.9666 33.5795C52.1302 33.4123 52.4017 33.4064 52.5731 33.566L59.2614 26.7357C59.3161 26.6799 59.356 26.6164 59.3866 26.5498L59.4164 26.5775C59.685 26.8278 59.6948 27.2433 59.4382 27.5055L52.7497 34.3358C52.5783 34.1762 52.3068 34.1823 52.1432 34.3493C51.9796 34.5164 51.9858 34.7813 52.157 34.9409L50.3481 36.7882C50.0915 37.0503 49.6657 37.0598 49.3969 36.8093L48.5286 36C48.6425 35.8835 48.7127 35.7428 48.7443 35.5959L49.2203 36.0395Z" fill="#959595"/>
<path d="M46.2778 33.2959L47.1163 34.0776L47.6968 34.6186C47.5479 34.6561 47.407 34.7309 47.2929 34.8473L46.4246 34.038C46.213 33.8408 46.1646 33.5423 46.2778 33.2959Z" fill="#959595"/>
<path d="M55.7111 28.8847L55.6463 28.7715L55.5955 28.6826L55.3772 28.6875C55.3109 28.6889 55.2559 28.6376 55.2543 28.573L55.2535 28.5416C55.2533 28.5336 55.254 28.5258 55.2554 28.5181C55.2654 28.4644 55.3128 28.4229 55.371 28.4217L55.4453 28.4199L55.3356 28.2279L55.1174 28.2328C55.0511 28.2343 54.9961 28.1831 54.9945 28.1183L54.9937 28.0869C54.9935 28.0789 54.9942 28.0711 54.9956 28.0634C55.0056 28.0097 55.053 27.9682 55.1112 27.967L55.1854 27.9652L55.0216 27.6789C54.9642 27.6836 54.9136 27.6877 54.8725 27.6913C54.8483 27.6933 54.8243 27.6944 54.8004 27.6949C54.7925 27.695 54.785 27.6946 54.7772 27.6946C54.7613 27.6944 54.7454 27.6943 54.7299 27.6935C54.7207 27.693 54.7119 27.6921 54.703 27.6914C54.689 27.6904 54.6751 27.6893 54.6613 27.6875C54.6518 27.6864 54.6427 27.685 54.6334 27.6838C54.6204 27.6819 54.6076 27.6799 54.5949 27.6775C54.5856 27.6758 54.5765 27.6739 54.5674 27.6721C54.5553 27.6696 54.5433 27.6667 54.5316 27.6639C54.5225 27.6616 54.5134 27.6594 54.5044 27.6569C54.4933 27.6538 54.4824 27.6506 54.4717 27.6472C54.4626 27.6444 54.4534 27.6416 54.4446 27.6384C54.4348 27.6352 54.4255 27.6316 54.4162 27.628C54.4069 27.6245 54.3975 27.6211 54.3885 27.6173C54.3811 27.6142 54.3742 27.6111 54.3672 27.6078C54.3082 27.5817 54.2572 27.5517 54.2167 27.5202L54.2162 27.5199C54.2055 27.5116 54.1957 27.5032 54.1864 27.4947C54.1859 27.4943 54.1853 27.4938 54.1848 27.4933C54.1758 27.485 54.1676 27.4766 54.1601 27.4682C54.1596 27.4677 54.1592 27.4672 54.1587 27.4666C54.1513 27.4582 54.1447 27.4499 54.139 27.4414C54.1386 27.4411 54.1385 27.4406 54.1382 27.4403C54.1324 27.4317 54.1276 27.4234 54.1236 27.4152C54.1164 27.3998 54.1115 27.3848 54.1112 27.3707C54.108 27.2324 54.4483 26.9999 54.8563 27.0167C54.8975 27.0185 54.9482 27.0203 55.0059 27.0224L55.0798 26.878L55.156 26.729L55.0818 26.7307C55.0155 26.7322 54.9605 26.6809 54.9589 26.6163L54.9581 26.5849C54.958 26.5769 54.9586 26.5691 54.96 26.5614C54.9698 26.5076 55.0174 26.4662 55.0756 26.4649L55.2937 26.4601L55.3944 26.2634L55.32 26.2651C55.2537 26.2665 55.1987 26.2152 55.1971 26.1505L55.1963 26.1191C55.1961 26.1111 55.1968 26.1033 55.1982 26.0956C55.208 26.0418 55.2556 26.0004 55.3138 25.9991L55.532 25.9943L55.638 25.7872C55.6513 25.7613 55.6781 25.7447 55.7079 25.7441L55.9678 25.7383C56.0218 25.7371 56.0616 25.7872 56.0467 25.8379L55.9994 25.9999L55.738 26.8948L55.6931 27.0482C56.0714 27.0641 56.4698 27.0855 56.6988 27.1146L56.9335 26.7126C56.9457 26.6918 56.9681 26.6788 56.9926 26.6782L57.0611 26.6766C57.108 26.6756 57.1426 26.7193 57.1298 26.7634L57.007 27.1834C57.038 27.1917 57.0635 27.1992 57.0857 27.2064C57.0938 27.2089 57.1014 27.2116 57.1083 27.2141C57.1141 27.2163 57.1199 27.2184 57.125 27.2206C57.1321 27.2236 57.1385 27.2267 57.1442 27.2299C57.1476 27.2316 57.1514 27.2333 57.1545 27.2352C57.1622 27.2399 57.1684 27.245 57.1737 27.2505C57.1756 27.2525 57.1773 27.2549 57.1789 27.2571C57.1822 27.2613 57.1849 27.266 57.187 27.2708C57.188 27.2732 57.1891 27.2755 57.1899 27.2779C57.1922 27.2852 57.1938 27.293 57.1939 27.3021V27.3023C57.1954 27.3643 57.1495 27.3856 57.0127 27.4292L57.155 27.8433C57.1625 27.865 57.158 27.8872 57.1458 27.9041C57.1337 27.921 57.1138 27.9326 57.0904 27.933L57.022 27.9346C57.0035 27.9351 56.986 27.9283 56.9729 27.9165C56.9686 27.9125 56.9646 27.908 56.9614 27.9029L56.9319 27.8574L56.7081 27.5116C56.4805 27.5509 56.0837 27.5901 55.7066 27.6228L55.7585 27.774L56.0616 28.6564L56.1164 28.8162C56.1336 28.8661 56.0962 28.918 56.0422 28.9191L55.7822 28.9249C55.7532 28.9253 55.7255 28.9098 55.7111 28.8847Z" fill="white"/>
<path d="M55.2543 28.5736L55.2535 28.5422C55.2534 28.5342 55.254 28.5264 55.2555 28.5187C55.2654 28.4649 55.3128 28.4235 55.371 28.4222L55.4454 28.4205L55.3356 28.2285L55.1175 28.2333C55.0511 28.2347 54.9961 28.1835 54.9945 28.1187L54.9937 28.0873C54.9936 28.0793 54.9942 28.0715 54.9957 28.0638C55.0056 28.01 55.053 27.9686 55.1112 27.9674L55.1854 27.9656L55.0216 27.6793C54.9642 27.684 54.9136 27.6881 54.8726 27.6917C54.8484 27.6937 54.8243 27.6948 54.8005 27.6953C54.7926 27.6954 54.7851 27.6951 54.7772 27.695C54.7613 27.6948 54.7455 27.6947 54.7299 27.6939C54.7208 27.6934 54.712 27.6925 54.703 27.6918C54.6891 27.6907 54.6751 27.6897 54.6613 27.6879C54.6519 27.6868 54.6427 27.6854 54.6334 27.6842C54.6205 27.6823 54.6076 27.6803 54.595 27.6779C54.5857 27.6762 54.5765 27.6743 54.5674 27.6725C54.5554 27.67 54.5434 27.6671 54.5317 27.6643C54.5225 27.662 54.5134 27.6598 54.5044 27.6573C54.4934 27.6542 54.4825 27.651 54.4717 27.6476C54.4626 27.6448 54.4535 27.642 54.4446 27.639C54.435 27.6357 54.4256 27.6321 54.4163 27.6285C54.407 27.6249 54.3975 27.6215 54.3886 27.6179C54.3812 27.6148 54.3743 27.6116 54.3672 27.6083C54.3083 27.5822 54.2573 27.5522 54.2167 27.5208L54.2163 27.5205C54.2055 27.5122 54.1957 27.5037 54.1866 27.4953C54.1861 27.4948 54.1855 27.4944 54.185 27.4939C54.176 27.4856 54.1679 27.4772 54.1603 27.4687C54.1598 27.4682 54.1594 27.4678 54.159 27.4671C54.1517 27.4587 54.1451 27.4503 54.1393 27.442C54.1392 27.4417 54.1388 27.4412 54.1385 27.4409C54.1328 27.4323 54.1279 27.424 54.1239 27.4157C54.1167 27.4004 54.1119 27.3854 54.1116 27.3713C54.1097 27.2862 54.2379 27.1663 54.4312 27.0898C54.4325 27.0931 54.4323 27.0961 54.4337 27.0992C54.4376 27.1075 54.4426 27.116 54.4483 27.1244C54.4487 27.1247 54.4488 27.1252 54.4491 27.1255C54.4549 27.1338 54.4613 27.1422 54.4688 27.1507C54.4693 27.1511 54.4698 27.1516 54.4703 27.1522C54.4778 27.1607 54.4858 27.169 54.495 27.1774C54.4955 27.1779 54.4961 27.1783 54.4966 27.1788C54.5057 27.1873 54.5156 27.1957 54.5262 27.204L54.5267 27.2043C54.5673 27.2357 54.6182 27.2656 54.6772 27.2919C54.6842 27.295 54.6913 27.2983 54.6985 27.3014C54.7075 27.3052 54.7169 27.3086 54.7262 27.312C54.7355 27.3156 54.745 27.3191 54.7546 27.3225C54.7634 27.3255 54.7726 27.3283 54.7817 27.3313C54.7924 27.3346 54.8033 27.3378 54.8144 27.341C54.8234 27.3435 54.8325 27.3458 54.8416 27.348C54.8533 27.351 54.8654 27.3536 54.8774 27.3561C54.8865 27.358 54.8956 27.3599 54.9051 27.3616C54.9178 27.3639 54.9306 27.366 54.9436 27.3679C54.9529 27.3693 54.962 27.3705 54.9715 27.3716C54.9851 27.3732 54.999 27.3744 55.013 27.3755C55.0219 27.3761 55.0309 27.3771 55.0399 27.3776C55.0554 27.3783 55.0713 27.3785 55.0872 27.3786C55.0949 27.3786 55.1026 27.3791 55.1104 27.379C55.1341 27.3786 55.1582 27.3776 55.1825 27.3755C55.2236 27.3719 55.2742 27.3679 55.3316 27.3632L55.4954 27.6495L55.4212 27.6512C55.363 27.6524 55.3156 27.6939 55.3056 27.7477C55.3042 27.7552 55.3035 27.7631 55.3037 27.7711L55.3045 27.8026C55.3059 27.8673 55.3611 27.9186 55.4274 27.9172L55.6456 27.9123L55.7554 28.1043L55.681 28.1061C55.6228 28.1073 55.5754 28.1487 55.5654 28.2025C55.564 28.2102 55.5634 28.218 55.5635 28.226L55.5643 28.2574C55.5659 28.3221 55.6209 28.3734 55.6872 28.372L55.9055 28.3672L55.9563 28.4562L56.0211 28.5694C56.0251 28.5764 56.032 28.5805 56.0376 28.5858L56.0621 28.6574L56.1169 28.8172C56.1341 28.8671 56.0967 28.919 56.0427 28.9202L55.7828 28.926C55.7531 28.9267 55.7254 28.9113 55.711 28.886L55.6462 28.7728L55.5954 28.684L55.3771 28.6888C55.3108 28.6896 55.2558 28.6383 55.2543 28.5736Z" fill="#DDAC3E"/>
<path d="M49.183 31.5903C49.2043 31.5686 49.2037 31.5338 49.1813 31.5129L49.0191 31.3618C48.9966 31.3409 48.9611 31.3418 48.9397 31.3636C48.9184 31.3853 48.9191 31.42 48.9415 31.441L49.1037 31.592C49.1261 31.613 49.1617 31.612 49.183 31.5903Z" fill="#EDC45F"/>
<path d="M51.4828 33.8098L51.1855 33.5326C51.1631 33.5118 51.1625 33.4771 51.1838 33.4554C51.2051 33.4336 51.2407 33.4327 51.2631 33.4536L51.5604 33.7309C51.5829 33.7518 51.5835 33.7864 51.5622 33.8083C51.5407 33.8299 51.5051 33.8308 51.4828 33.8098ZM50.8881 33.2555L50.5908 32.9783C50.5683 32.9573 50.5677 32.9228 50.589 32.9009C50.6103 32.8792 50.6459 32.8782 50.6683 32.8992L50.9656 33.1764C50.9881 33.1974 50.9887 33.2319 50.9674 33.2538C50.9461 33.2757 50.9104 33.2763 50.8881 33.2555ZM50.2933 32.7012L49.9958 32.424C49.9734 32.4032 49.9728 32.3685 49.9941 32.3467C50.0154 32.325 50.051 32.3241 50.0734 32.345L50.3707 32.6223C50.3931 32.6431 50.3938 32.6778 50.3725 32.6997C50.3512 32.7212 50.3157 32.722 50.2933 32.7012ZM49.6985 32.1469L49.4012 31.8697C49.3788 31.8487 49.3781 31.8142 49.3995 31.7923C49.4208 31.7705 49.4563 31.7696 49.4788 31.7906L49.7763 32.0678C49.7987 32.0887 49.7993 32.1233 49.778 32.1452C49.7564 32.1669 49.721 32.1677 49.6985 32.1469Z" fill="#EDC45F"/>
<path d="M52.0214 34.2367C52.0427 34.215 52.0419 34.1803 52.0196 34.1593L51.8575 34.0083C51.835 33.9875 51.7994 33.9883 51.7781 34.01C51.7568 34.0317 51.7574 34.0664 51.7799 34.0874L51.9421 34.2386C51.9645 34.2594 52.0001 34.2584 52.0214 34.2367Z" fill="#EDC45F"/>
<path d="M48.6326 34.1466L49.6342 33.1239C49.6797 33.0774 49.7552 33.0757 49.803 33.1201C49.8506 33.1645 49.8523 33.2382 49.8068 33.2848L48.8053 34.3075C48.7597 34.354 48.6842 34.3557 48.6365 34.3113C48.5889 34.2669 48.5871 34.1932 48.6326 34.1466Z" fill="#FBE8E5"/>
<path d="M48.6326 34.147L48.8732 33.9014C48.8277 33.9478 48.8295 34.0216 48.8771 34.066C48.9247 34.1104 49.0003 34.1087 49.0458 34.0623L48.8053 34.3079C48.7597 34.3544 48.6842 34.3561 48.6365 34.3117C48.5889 34.2673 48.5871 34.1936 48.6326 34.147Z" fill="#EDDAD9"/>
<path d="M48.2109 33.7541L49.2125 32.7313C49.258 32.6848 49.3335 32.6831 49.3813 32.7275C49.4289 32.7719 49.4306 32.8457 49.3851 32.8922L48.3836 33.915C48.338 33.9614 48.2625 33.9631 48.2148 33.9187C48.167 33.8743 48.1654 33.8007 48.2109 33.7541Z" fill="#FBE8E5"/>
<path d="M48.2109 33.7535L48.4515 33.5078C48.406 33.5543 48.4078 33.6281 48.4554 33.6725C48.503 33.7169 48.5786 33.7152 48.6241 33.6687L48.3836 33.9144C48.338 33.9608 48.2625 33.9625 48.2148 33.9181C48.167 33.8737 48.1654 33.8001 48.2109 33.7535Z" fill="#EDDAD9"/>
<path d="M50.4735 34.9948L50.978 34.4794C51.0525 34.4033 51.0496 34.2827 50.9717 34.21C50.8937 34.1373 50.7701 34.1401 50.6956 34.2161L50.191 34.7315C50.1165 34.8076 50.1194 34.9282 50.1973 35.0009C50.2754 35.0737 50.3991 35.0709 50.4735 34.9948Z" fill="#EDC45F"/>
<path d="M50.1897 34.7335C50.1998 34.7559 50.2143 34.7769 50.2337 34.7948C50.3117 34.8675 50.4353 34.8647 50.5098 34.7887L51.0144 34.2735C51.015 34.2729 51.0152 34.2721 51.0156 34.2715C51.0462 34.3398 51.0342 34.4222 50.9781 34.4796L50.4736 34.995C50.3991 35.0711 50.2755 35.0738 50.1974 35.0011C50.12 34.9287 50.117 34.8097 50.1897 34.7335Z" fill="#DDAC3E"/>
<path d="M47.7894 33.3605L48.791 32.3377C48.8365 32.2913 48.912 32.2896 48.9597 32.334C49.0073 32.3784 49.0091 32.452 48.9636 32.4986L47.9622 33.5214C47.9167 33.5679 47.8412 33.5696 47.7934 33.5252C47.7455 33.4808 47.7439 33.407 47.7894 33.3605Z" fill="#FBE8E5"/>
<path d="M47.7896 33.3609L48.0301 33.1152C47.9846 33.1617 47.9864 33.2355 48.034 33.2799C48.0816 33.3243 48.1572 33.3226 48.2027 33.2761L47.9622 33.5218C47.9167 33.5682 47.8412 33.5699 47.7934 33.5255C47.7456 33.4811 47.744 33.4073 47.7896 33.3609Z" fill="#EDDAD9"/>
<path d="M50.776 31.6744L53.7367 28.651C53.7822 28.6045 53.7804 28.5307 53.7328 28.4863C53.6852 28.4419 53.6096 28.4436 53.5641 28.4901L50.6033 31.5135C50.5578 31.56 50.5596 31.6338 50.6072 31.6782C50.6548 31.7226 50.7304 31.721 50.776 31.6744Z" fill="#FBE8E5"/>
<path d="M50.6036 31.5136L51.0682 31.0391C51.0227 31.0855 51.0245 31.1593 51.0721 31.2037C51.1197 31.2481 51.1953 31.2464 51.2408 31.2L50.7762 31.6745C50.7307 31.721 50.655 31.7227 50.6074 31.6783C50.5598 31.6339 50.5581 31.5602 50.6036 31.5136Z" fill="#EDDAD9"/>
<path d="M51.2843 32.1471L54.245 29.1236C54.2905 29.0772 54.2887 29.0034 54.2411 28.959C54.1935 28.9146 54.1179 28.9163 54.0724 28.9627L51.1116 31.9862C51.0661 32.0326 51.0679 32.1064 51.1155 32.1508C51.1632 32.1952 51.2387 32.1935 51.2843 32.1471Z" fill="#FBE8E5"/>
<path d="M51.1116 31.9873L51.5764 31.5127C51.5309 31.5591 51.5327 31.6329 51.5803 31.6773C51.6279 31.7218 51.7035 31.72 51.749 31.6736L51.2843 32.1482C51.2387 32.1946 51.1632 32.1963 51.1155 32.1519C51.0679 32.1075 51.0661 32.0337 51.1116 31.9873Z" fill="#EDDAD9"/>
<path d="M51.7922 32.6207L54.7529 29.5973C54.7984 29.5508 54.7967 29.477 54.7491 29.4326C54.7015 29.3882 54.6258 29.3899 54.5803 29.4364L51.6196 32.4598C51.5741 32.5063 51.5758 32.5801 51.6234 32.6245C51.6712 32.6689 51.7467 32.6673 51.7922 32.6207Z" fill="#FBE8E5"/>
<path d="M51.6196 32.4609L52.0844 31.9863C52.0389 32.0328 52.0407 32.1066 52.0883 32.151C52.1359 32.1954 52.2115 32.1937 52.257 32.1472L51.7923 32.6218C51.7467 32.6682 51.6712 32.67 51.6235 32.6255C51.5757 32.5811 51.5741 32.5073 51.6196 32.4609Z" fill="#EDDAD9"/>
<path d="M39.4656 49.4174C43.499 49.4174 46.8188 52.4594 47.2751 56.3769H51.9499L46.6987 46.9219H32.2323L26.9811 56.3769H31.6559C32.1124 52.4592 35.4321 49.4174 39.4656 49.4174Z" fill="#B6A4D0"/>
<path d="M46.6988 44.3984H32.2324V46.9223H46.6988V44.3984Z" fill="#E88BDF"/>
<path d="M43.4555 33.9824H35.4758V35.2444H43.4555V33.9824Z" fill="#E88BDF"/>
<path d="M40.9326 4.14551H37.9982V4.84461H40.9326V4.14551Z" fill="#E88BDF"/>
<path d="M45.5791 44.3979C44.1504 41.1295 42.7992 35.2441 42.7992 35.2441H36.1321C36.1321 35.2441 34.7807 41.1295 33.3522 44.3979H36.8293C37.7174 42.0624 38.4896 37.1652 38.4896 37.1652H40.4415C40.4415 37.1652 41.2137 42.0622 42.1018 44.3979H45.5791Z" fill="#B6A4D0"/>
<path d="M36.3639 33.9821C38.642 27.5343 38.642 4.84473 38.642 4.84473H40.2895C40.2895 4.84473 40.2895 27.5344 42.5676 33.9821H36.3639Z" fill="#B6A4D0"/>
<path d="M40.3409 4.14635H38.5906V3.23631C38.5906 2.9855 38.7989 2.78223 39.056 2.78223H39.8755C40.1326 2.78223 40.3409 2.9855 40.3409 3.23631V4.14635Z" fill="#B6A4D0"/>
<path d="M46.6987 46.9219H44.8368L50.088 56.3771H51.9499L46.6987 46.9219Z" fill="#6D41A2"/>
<path d="M44.837 46.9219H46.6989V44.398H44.837V46.9219Z" fill="#D36CCE"/>
<path d="M41.5933 35.2441H43.4552V33.9821H41.5933V35.2441Z" fill="#D36CCE"/>
<path d="M39.7783 4.84473H40.9329V4.14562H39.7783V4.84473Z" fill="#D36CCE"/>
<path d="M42.799 35.2441H40.9371C40.9371 35.2441 42.2886 41.1295 43.7171 44.3979H45.579C44.1505 41.1295 42.799 35.2441 42.799 35.2441Z" fill="#6D41A2"/>
<path d="M40.2891 4.84473H38.6418C38.6418 4.84473 38.6418 7.80267 38.5345 11.8855C38.7243 19.1116 39.2497 29.8622 40.7053 33.9821H42.5672C40.2891 27.5344 40.2891 4.84473 40.2891 4.84473Z" fill="#6D41A2"/>
<path d="M39.8751 2.78223H39.0558C39.0262 2.78223 39.0002 2.79348 38.9722 2.79864C39.1877 2.83836 39.3539 3.01443 39.3539 3.23631V4.14635H40.3407V3.23631C40.3406 2.9855 40.1322 2.78223 39.8751 2.78223Z" fill="#6D41A2"/>
<path d="M39.4656 2.89519C39.4015 2.89519 39.3492 2.84437 39.3492 2.78167V0.61352C39.3492 0.550818 39.4015 0.5 39.4656 0.5C39.5297 0.5 39.582 0.550818 39.582 0.61352V2.78167C39.582 2.84453 39.5297 2.89519 39.4656 2.89519Z" fill="#213F4F"/>
<path d="M30.6335 39.4978H30.6301C30.9705 38.858 31.1657 38.1329 31.1657 37.3623C31.1657 34.7961 29.0335 32.7158 26.4031 32.7158C23.7727 32.7158 21.6404 34.7961 21.6404 37.3623C21.6404 38.1329 21.8358 38.8581 22.176 39.4978H22.1726L22.2093 39.5655C22.2127 39.5718 22.2161 39.5782 22.2196 39.5843L25.8753 46.3175C26.0997 46.7307 26.7065 46.7307 26.9307 46.3175L30.5864 39.5843C30.5899 39.578 30.5931 39.5718 30.5966 39.5655L30.6335 39.4978Z" fill="#43A048"/>
<path d="M31.166 37.3617C31.166 35.5721 30.1276 34.0215 28.6079 33.2451C29.6526 34.0975 30.3179 35.3776 30.3179 36.8101C30.3179 37.5808 30.1225 38.3058 29.7822 38.9455H29.7856L29.7489 39.0132C29.7454 39.0195 29.7422 39.0259 29.7386 39.0322L26.083 45.7654C26.0027 45.9133 25.8727 46.0058 25.7296 46.0479L25.8756 46.317C26.0999 46.7301 26.7067 46.7301 26.931 46.317L30.5866 39.5838C30.5902 39.5776 30.5934 39.5711 30.5969 39.5649L30.6336 39.4972H30.6302C30.9707 38.8575 31.166 38.1324 31.166 37.3617Z" fill="#D1C237"/>
<path d="M29.8634 38.171C30.3187 36.3087 29.1403 34.4388 27.2314 33.9946C25.3225 33.5504 23.4059 34.7001 22.9506 36.5625C22.4953 38.4248 23.6737 40.2947 25.5826 40.7389C27.4916 41.1831 29.4081 40.0334 29.8634 38.171Z" fill="#FBE8E5"/>
<path d="M27.9262 34.2324C28.6505 34.8671 29.1088 35.785 29.1088 36.8096C29.1088 38.7243 27.518 40.2764 25.5554 40.2764C25.0097 40.2764 24.4947 40.1528 24.0327 39.9383C24.6619 40.4896 25.4911 40.828 26.4036 40.828C28.3661 40.828 29.957 39.2758 29.957 37.3613C29.9568 35.979 29.1257 34.7892 27.9262 34.2324Z" fill="#EDDAD9"/>
<path d="M26.1951 37.7174C26.6845 37.7174 27.0813 37.3303 27.0813 36.8528C27.0813 36.3753 26.6845 35.9883 26.1951 35.9883C25.7057 35.9883 25.309 36.3753 25.309 36.8528C25.309 37.3303 25.7057 37.7174 26.1951 37.7174Z" fill="#43A048"/>
<path d="M22.8499 37.3613C22.8499 39.276 24.4407 40.8281 26.4033 40.8281C28.3658 40.8281 29.9567 39.2759 29.9567 37.3613C29.9567 37.2996 29.9504 37.2395 29.9472 37.1787H22.8591C22.8559 37.2395 22.8499 37.2996 22.8499 37.3613Z" fill="#54C1D4"/>
<path d="M29.9473 37.1787H29.0881C28.8991 38.9198 27.39 40.2766 25.5552 40.2766C25.0094 40.2766 24.4945 40.1531 24.0324 39.9385L24.0326 39.9387C24.1097 40.0062 24.19 40.0705 24.273 40.1315C24.2763 40.134 24.2795 40.1363 24.2829 40.1387C24.3624 40.1967 24.4446 40.2513 24.5291 40.3029C24.5386 40.3087 24.5483 40.3141 24.5578 40.3199C24.6371 40.3673 24.7184 40.4117 24.8016 40.4531C24.8198 40.4622 24.8386 40.4705 24.8572 40.4792C24.9336 40.5157 25.0114 40.5499 25.0907 40.581C25.1202 40.5925 25.1503 40.6023 25.1803 40.6129C25.2514 40.6386 25.3229 40.6636 25.3963 40.6849C25.4398 40.6974 25.4843 40.7071 25.5286 40.718C25.5914 40.7337 25.6537 40.7501 25.7178 40.7624C25.7802 40.7743 25.844 40.782 25.9074 40.7906C25.9563 40.7973 26.0046 40.8064 26.0543 40.8111C26.1693 40.822 26.2857 40.8283 26.4037 40.8283C28.3662 40.8283 29.9571 39.276 29.9571 37.3615C29.9568 37.2997 29.9505 37.2397 29.9473 37.1787Z" fill="#37ABB7"/>
<path d="M28.7411 39.9672C28.6935 39.9483 28.6457 39.9292 28.6007 39.9044C28.3 39.7386 28.0462 39.4517 27.7017 39.4275C27.2001 39.3921 26.8371 39.9283 26.3408 40.0088C25.8719 40.085 25.4406 39.7386 24.9681 39.6867C24.6495 39.6517 24.3307 39.753 24.0102 39.7455C23.9419 39.7439 23.8744 39.7352 23.8073 39.7235C24.4559 40.4014 25.3773 40.8278 26.4029 40.8278C27.2994 40.8278 28.116 40.5015 28.7411 39.9672Z" fill="#FBE8E5"/>
<path d="M26.8856 40.7918C26.9521 40.7829 27.0188 40.7746 27.0842 40.7623C27.1422 40.7512 27.199 40.7366 27.256 40.7227C27.3054 40.7108 27.3551 40.6996 27.4036 40.6857C27.4692 40.6667 27.5335 40.6449 27.5972 40.6225C27.6339 40.6097 27.6708 40.5973 27.707 40.5832C27.7779 40.5557 27.8473 40.5257 27.9159 40.4941C27.942 40.4821 27.968 40.4702 27.9938 40.4575C28.0684 40.4208 28.1415 40.3818 28.2132 40.3401C28.2297 40.3306 28.246 40.3209 28.2622 40.311C28.3395 40.2644 28.4151 40.2155 28.4884 40.1634C28.4962 40.1578 28.5039 40.152 28.5118 40.1464C28.5906 40.0893 28.6674 40.0299 28.7411 39.9669C28.6935 39.9479 28.6458 39.9289 28.6007 39.904C28.3444 39.7628 28.1217 39.5347 27.8482 39.4551C27.2291 39.9664 26.4295 40.276 25.5549 40.276C25.0106 40.276 24.4968 40.1529 24.0356 39.9393C24.039 39.9423 24.0421 39.9458 24.0456 39.9487C24.0818 39.9802 24.1206 40.0089 24.1581 40.0389C24.207 40.078 24.2555 40.1174 24.3065 40.154C24.3499 40.1851 24.3951 40.2138 24.4399 40.243C24.4887 40.2749 24.5376 40.3066 24.5881 40.336C24.6352 40.3636 24.6835 40.3892 24.7319 40.4145C24.7838 40.4417 24.8364 40.4682 24.8899 40.4929C24.9388 40.5155 24.9883 40.5371 25.0383 40.5576C25.0951 40.5807 25.1528 40.6022 25.2111 40.6227C25.2603 40.6399 25.3095 40.6569 25.3597 40.6721C25.4231 40.6911 25.4877 40.7072 25.5525 40.723C25.5999 40.7346 25.647 40.747 25.6953 40.7565C25.7698 40.7712 25.8456 40.7818 25.9217 40.792C25.9625 40.7975 26.0024 40.8048 26.0436 40.8089C26.1618 40.8206 26.2816 40.8275 26.403 40.8275C26.5202 40.8275 26.6358 40.8212 26.75 40.8104C26.7957 40.8061 26.8404 40.7979 26.8856 40.7918Z" fill="#EDDAD9"/>
<path d="M29.9418 37.651C29.95 37.5551 29.9569 37.459 29.9569 37.3611C29.9569 37.0102 29.9024 36.6718 29.8031 36.3527L28.7432 35.4092L27.8052 36.431L27.4143 35.943L26.3044 37.651H29.9418Z" fill="#213F4F"/>
<path d="M29.942 37.6515C29.9501 37.5556 29.957 37.4594 29.957 37.3616C29.957 37.2738 29.9537 37.1871 29.9469 37.1011C29.9468 37.0996 29.9466 37.0982 29.9464 37.0968C29.9263 36.8401 29.8772 36.5913 29.8032 36.3532L28.837 35.4932C29.0095 35.8994 29.1089 36.3427 29.1089 36.8101C29.1089 37.1009 29.0681 37.3817 28.9991 37.6516L29.942 37.6515Z" fill="#1B343F"/>
<path d="M24.2096 36.6818L23.7627 36.8776L23.2519 36.0732L23.0162 36.3131C22.9086 36.6441 22.8498 36.9961 22.8498 37.3618C22.8498 37.3884 22.8533 37.4142 22.8538 37.4406H24.9032L24.2096 36.6818Z" fill="#213F4F"/>
<path d="M10.0478 49.659C10.0478 47.4364 10.0478 47.4364 8.20758 47.4364C10.0478 47.4364 10.0478 47.4364 10.0478 45.2139C10.0478 47.4364 10.0478 47.4364 11.8881 47.4364C10.0478 47.4364 10.0478 47.4364 10.0478 49.659Z" fill="#213F4F"/>
<path d="M61.5646 20.5047C61.5646 18.2821 61.5646 18.2821 59.7244 18.2821C61.5646 18.2821 61.5646 18.2821 61.5646 16.0596C61.5646 18.2821 61.5646 18.2821 63.4049 18.2821C61.5646 18.2821 61.5646 18.2821 61.5646 20.5047Z" fill="#213F4F"/>
<path d="M30.3547 13.0309C30.3547 10.8083 30.3547 10.8083 28.5144 10.8083C30.3547 10.8083 30.3547 10.8083 30.3547 8.58594C30.3547 10.8083 30.3547 10.8083 32.1949 10.8083C30.3547 10.8083 30.3547 10.8083 30.3547 13.0309Z" fill="#213F4F"/>
<path d="M12.1705 45.8859C12.1705 44.3204 12.1705 44.3204 10.8744 44.3204C12.1705 44.3204 12.1705 44.3204 12.1705 42.7549C12.1705 44.3204 12.1705 44.3204 13.4667 44.3204C12.1705 44.3204 12.1705 44.3204 12.1705 45.8859Z" fill="#54C1D4"/>
<path d="M59.2465 22.6389C59.2465 21.0733 59.2464 21.0733 57.9503 21.0733C59.2464 21.0733 59.2465 21.0733 59.2465 19.5078C59.2465 21.0733 59.2464 21.0733 60.5426 21.0733C59.2464 21.0733 59.2465 21.0733 59.2465 22.6389Z" fill="#54C1D4"/>
<path d="M32.5803 15.6525C32.5803 14.087 32.5803 14.087 31.2842 14.087C32.5803 14.087 32.5803 14.087 32.5803 12.5215C32.5803 14.087 32.5803 14.087 33.8764 14.087C32.5803 14.0872 32.5803 14.0872 32.5803 15.6525Z" fill="#54C1D4"/>
<path d="M83.0095 57.3186H1.39093C1.00943 57.3186 0.700195 57.1078 0.700195 56.8478C0.700195 56.5877 1.00943 56.377 1.39093 56.377H83.0095C83.391 56.377 83.7002 56.5877 83.7002 56.8478C83.7002 57.1076 83.391 57.3186 83.0095 57.3186Z" fill="#213F4F"/>
<path d="M75.4794 56.1188L75.3521 55.3858C75.3521 53.957 76.225 52.6832 77.5307 52.2068L77.7222 52.137C78.561 51.831 79.4723 51.8084 80.3242 52.0723C80.3242 52.0723 82.4544 52.614 82.51 54.949L82.5111 56.1754H75.4831C75.4837 56.1569 75.4827 56.138 75.4794 56.1188Z" fill="#525357"/>
<path d="M50.0319 56.1754C50.1199 56.0608 50.1726 55.919 50.1726 55.7647V55.3858C50.1726 53.957 51.0455 52.6832 52.3513 52.2068L52.5428 52.137C53.3815 51.831 54.2928 51.8084 55.1448 52.0723C55.1448 52.0723 57.3318 52.6283 57.3318 55.0425L57.2071 55.7008C57.1741 55.8748 57.2172 56.0426 57.3108 56.1754H50.0319Z" fill="#525357"/>
<path d="M49.4688 54.3164V51.8588C49.4688 51.5097 49.5263 51.1627 49.6387 50.8312L50.817 47.3615C51.0281 46.7398 51.3311 46.1515 51.7165 45.6153L52.3702 44.7056C52.6925 44.2571 53.219 43.9904 53.7804 43.9912L67.0607 44.0098C70.1454 44.0098 76.9272 48.276 76.9272 48.276L82.239 49.8222C83.671 50.2391 84.6524 51.5239 84.6524 52.9819V55.2173L84.7512 55.2296C85.0649 55.2689 85.2997 55.5294 85.2997 55.838C85.2997 56.1767 85.0183 56.4513 84.6711 56.4513H84.6523H82.5113L82.51 54.949C82.4544 52.614 80.3242 52.0722 80.3242 52.0722C79.4723 51.8083 78.5609 51.8309 77.7222 52.1369L77.5307 52.2068C76.2249 52.6831 75.352 53.9569 75.352 55.3857L75.4793 56.1188C75.5095 56.2927 75.3721 56.4513 75.1913 56.4513H57.8471C57.4402 56.4513 57.1331 56.0911 57.207 55.7007L57.3318 55.0424C57.3318 52.6283 55.1447 52.0722 55.1447 52.0722C54.2928 51.8083 53.3814 51.8309 52.5427 52.1369L52.3512 52.2068C51.0455 52.6831 50.1725 53.9569 50.1725 55.3857V55.7647C50.1725 56.1439 49.8574 56.4513 49.4687 56.4513H49.0237V55.0839C49.0237 54.8067 49.1572 54.5457 49.384 54.3789L49.4688 54.3164Z" fill="#A0A0A0"/>
<path d="M64.1448 45.1522C64.0824 44.8626 64.3097 44.5904 64.6132 44.5918L66.6567 44.6007C69.9533 44.6007 76.3196 48.6954 76.3196 48.6954C76.6335 48.8555 76.5951 49.3736 76.3511 49.6268C76.2458 49.7362 76.098 49.7949 75.9457 49.7878L65.4024 49.2991C65.1857 49.2891 65.0033 49.1375 64.9588 48.9304L64.1448 45.1522Z" fill="#525357"/>
<path d="M53.7715 45.461L54.0412 45.1831C54.4344 44.778 54.9772 44.5502 55.5434 44.5528L63.0857 44.5855C63.3114 44.5864 63.5055 44.7418 63.5505 44.9576L64.3254 48.6698C64.3874 48.9667 64.1462 49.2413 63.8359 49.2269L54.2167 48.781C53.7478 48.7593 53.3629 48.4049 53.3052 47.942L53.2061 47.1447C53.1294 46.5274 53.3371 45.9087 53.7715 45.461Z" fill="#525357"/>
<path d="M76.7441 55.4455C76.7441 54.2005 77.7786 53.1914 79.0546 53.1914C80.3306 53.1914 81.365 54.2006 81.365 55.4455C81.365 56.6904 80.3305 57.6995 79.0546 57.6995C77.7786 57.6995 76.7441 56.6904 76.7441 55.4455Z" fill="#525357"/>
<path d="M51.3715 55.4455C51.3715 54.2005 52.4059 53.1914 53.6819 53.1914C54.958 53.1914 55.9923 54.2006 55.9923 55.4455C55.9923 56.6904 54.9578 57.6995 53.6819 57.6995C52.4058 57.6995 51.3715 56.6904 51.3715 55.4455Z" fill="#525357"/>
<path d="M78.4525 55.118L77.1712 54.1394C77.3211 53.9339 77.5054 53.7541 77.7162 53.6077L78.7192 54.8577C78.7652 54.8327 78.8145 54.8129 78.8661 54.7986L78.6693 53.2222C78.7946 53.2017 78.9233 53.1904 79.0547 53.1904C79.186 53.1904 79.3147 53.2017 79.44 53.2222L79.2432 54.7986C79.2948 54.8129 79.3441 54.8327 79.3901 54.8577L80.3931 53.6076C80.6038 53.7539 80.7881 53.9338 80.9381 54.1393L79.6568 55.1178C79.6825 55.1627 79.7027 55.2107 79.7174 55.2611L81.3332 55.0691C81.3542 55.1914 81.3658 55.3169 81.3658 55.4451C81.3658 55.5732 81.3542 55.6988 81.3332 55.8211L79.7174 55.629C79.7028 55.6794 79.6825 55.7275 79.6568 55.7723L80.9381 56.7509C80.7881 56.9564 80.6039 57.1362 80.3931 57.2826L79.3901 56.0326C79.3441 56.0576 79.2948 56.0773 79.2432 56.0917L79.44 57.668C79.3147 57.6885 79.186 57.6998 79.0547 57.6998C78.9233 57.6998 78.7946 57.6885 78.6693 57.668L78.8661 56.0917C78.8145 56.0774 78.7652 56.0576 78.7192 56.0326L77.7162 57.2826C77.5056 57.1362 77.3213 56.9564 77.1712 56.7509L78.4525 55.7723C78.4268 55.7275 78.4066 55.6794 78.3919 55.629L76.7761 55.8211C76.7551 55.6988 76.7435 55.5732 76.7435 55.4451C76.7435 55.3169 76.7551 55.1914 76.7761 55.0691L78.3919 55.2611C78.4065 55.2109 78.4268 55.1629 78.4525 55.118Z" fill="#BCBEC0"/>
<path d="M78.9188 55.121C78.9188 55.1911 78.9771 55.2479 79.0489 55.2479C79.1207 55.2479 79.179 55.1911 79.179 55.121C79.179 55.051 79.1207 54.9941 79.0489 54.9941C78.9771 54.9941 78.9188 55.051 78.9188 55.121Z" fill="#F1F2F2"/>
<path d="M78.9188 55.7695C78.9188 55.8396 78.9771 55.8964 79.0489 55.8964C79.1207 55.8964 79.179 55.8396 79.179 55.7695C79.179 55.6994 79.1207 55.6426 79.0489 55.6426C78.9771 55.6426 78.9188 55.6994 78.9188 55.7695Z" fill="#F1F2F2"/>
<path d="M78.7166 55.5722C78.7885 55.5722 78.8467 55.5153 78.8467 55.4453C78.8467 55.3752 78.7885 55.3184 78.7166 55.3184C78.6448 55.3184 78.5865 55.3752 78.5865 55.4453C78.5865 55.5153 78.6448 55.5722 78.7166 55.5722Z" fill="#F1F2F2"/>
<path d="M79.3807 55.5722C79.4525 55.5722 79.5108 55.5153 79.5108 55.4453C79.5108 55.3752 79.4525 55.3184 79.3807 55.3184C79.3089 55.3184 79.2506 55.3752 79.2506 55.4453C79.2506 55.5153 79.3089 55.5722 79.3807 55.5722Z" fill="#F1F2F2"/>
<path d="M75.924 55.4452C75.924 57.1322 77.3257 58.4998 79.0549 58.4998C80.784 58.4998 82.1858 57.1322 82.1858 55.4452C82.1858 53.7582 80.784 52.3906 79.0549 52.3906C77.3257 52.3906 75.924 53.7582 75.924 55.4452ZM76.632 55.4452C76.632 54.1397 77.7168 53.0814 79.0549 53.0814C80.393 53.0814 81.4778 54.1397 81.4778 55.4452C81.4778 56.7506 80.393 57.809 79.0549 57.809C77.7168 57.809 76.632 56.7506 76.632 55.4452Z" fill="#525357"/>
<path d="M76.5581 55.4456C76.5581 56.7908 77.6759 57.8814 79.0548 57.8814C80.4337 57.8814 81.5516 56.7909 81.5516 55.4456C81.5516 54.1004 80.4338 53.0098 79.0548 53.0098C77.676 53.0099 76.5581 54.1004 76.5581 55.4456ZM76.7443 55.4456C76.7443 54.2007 77.7788 53.1915 79.0547 53.1915C80.3308 53.1915 81.3651 54.2008 81.3651 55.4456C81.3651 56.6905 80.3307 57.6997 79.0547 57.6997C77.7788 57.6997 76.7443 56.6905 76.7443 55.4456Z" fill="#D1D3D4"/>
<path d="M53.0711 55.118L51.7899 54.1394C51.9399 53.9339 52.1241 53.7541 52.3349 53.6077L53.3379 54.8577C53.3839 54.8327 53.4331 54.8129 53.4848 54.7986L53.2879 53.2222C53.4133 53.2017 53.5419 53.1904 53.6733 53.1904C53.8047 53.1904 53.9333 53.2017 54.0587 53.2222L53.8619 54.7986C53.9135 54.8129 53.9628 54.8327 54.0087 54.8577L55.0118 53.6076C55.2224 53.7539 55.4067 53.9338 55.5568 54.1393L54.2755 55.1178C54.3011 55.1627 54.3215 55.2107 54.3361 55.2611L55.9518 55.0691C55.9729 55.1914 55.9844 55.3169 55.9844 55.4451C55.9844 55.5732 55.9729 55.6988 55.9518 55.8211L54.3361 55.629C54.3215 55.6794 54.3011 55.7275 54.2755 55.7723L55.5569 56.7509C55.4068 56.9564 55.2225 57.1362 55.0119 57.2826L54.0088 56.0326C53.9629 56.0576 53.9136 56.0773 53.862 56.0917L54.0588 57.668C53.9335 57.6885 53.8048 57.6998 53.6734 57.6998C53.5421 57.6998 53.4134 57.6885 53.288 57.668L53.4849 56.0917C53.4332 56.0774 53.384 56.0576 53.338 56.0326L52.335 57.2826C52.1243 57.1362 51.94 56.9564 51.79 56.7509L53.0713 55.7723C53.0456 55.7275 53.0253 55.6794 53.0106 55.629L51.3949 55.8211C51.3739 55.6988 51.3623 55.5732 51.3623 55.4451C51.3623 55.3169 51.3739 55.1914 51.3949 55.0691L53.0106 55.2611C53.0253 55.2109 53.0455 55.1629 53.0711 55.118Z" fill="#BCBEC0"/>
<path d="M53.537 55.122C53.537 55.1921 53.5952 55.2489 53.6671 55.2489C53.7389 55.2489 53.7971 55.1921 53.7971 55.122C53.7971 55.0519 53.7389 54.9951 53.6671 54.9951C53.5952 54.9951 53.537 55.0519 53.537 55.122Z" fill="#F1F2F2"/>
<path d="M53.537 55.7705C53.537 55.8405 53.5952 55.8974 53.6671 55.8974C53.7389 55.8974 53.7971 55.8405 53.7971 55.7705C53.7971 55.7004 53.7389 55.6436 53.6671 55.6436C53.5952 55.6436 53.537 55.7004 53.537 55.7705Z" fill="#F1F2F2"/>
<path d="M53.3347 55.5731C53.4065 55.5731 53.4647 55.5163 53.4647 55.4462C53.4647 55.3762 53.4065 55.3193 53.3347 55.3193C53.2628 55.3193 53.2046 55.3762 53.2046 55.4462C53.2046 55.5163 53.2628 55.5731 53.3347 55.5731Z" fill="#F1F2F2"/>
<path d="M53.9991 55.5731C54.0709 55.5731 54.1292 55.5163 54.1292 55.4462C54.1292 55.3762 54.0709 55.3193 53.9991 55.3193C53.9273 55.3193 53.869 55.3762 53.869 55.4462C53.8689 55.5163 53.9271 55.5731 53.9991 55.5731Z" fill="#F1F2F2"/>
<path d="M50.5419 55.4452C50.5419 57.1322 51.9436 58.4998 53.6728 58.4998C55.402 58.4998 56.8037 57.1322 56.8037 55.4452C56.8037 53.7582 55.402 52.3906 53.6728 52.3906C51.9436 52.3906 50.5419 53.7582 50.5419 55.4452ZM51.25 55.4452C51.25 54.1397 52.3348 53.0814 53.6729 53.0814C55.011 53.0814 56.0958 54.1397 56.0958 55.4452C56.0958 56.7506 55.011 57.809 53.6729 57.809C52.3347 57.809 51.25 56.7506 51.25 55.4452Z" fill="#525357"/>
<path d="M51.1761 55.4456C51.1761 56.7908 52.2939 57.8814 53.6728 57.8814C55.0516 57.8814 56.1695 56.7909 56.1695 55.4456C56.1695 54.1004 55.0517 53.0098 53.6728 53.0098C52.2939 53.0099 51.1761 54.1004 51.1761 55.4456ZM51.3623 55.4456C51.3623 54.2007 52.3968 53.1915 53.6728 53.1915C54.9488 53.1915 55.9832 54.2008 55.9832 55.4456C55.9832 56.6905 54.9487 57.6997 53.6728 57.6997C52.3968 57.6997 51.3623 56.6905 51.3623 55.4456Z" fill="#D1D3D4"/>
<path d="M58.233 55.3528C58.233 54.0123 57.5489 52.7703 56.4032 52.0305C55.4679 51.4265 54.6733 50.6619 54.0415 49.758L53.3019 48.6997C53.1153 48.5 52.999 48.2516 52.9654 47.9811L52.8662 47.1837C52.7767 46.4646 53.0161 45.7526 53.5228 45.2304L53.7925 44.9526C54.2457 44.4856 54.8805 44.2178 55.5345 44.2178L63.0872 44.2505C63.4281 44.252 63.7301 44.4622 63.8488 44.7657C63.8794 44.6885 63.9222 44.6164 63.9752 44.5525C64.1314 44.3648 64.3644 44.2572 64.6145 44.2572L66.6565 44.2661C69.9967 44.2661 76.2328 48.2396 76.494 48.4072C76.6958 48.5164 76.8301 48.7112 76.8724 48.9555C76.9082 49.1622 76.8767 49.3851 76.7836 49.5842V52.6442L76.7674 52.6559C75.9068 53.2785 75.3927 54.2973 75.3917 55.3821L75.4658 55.8084H58.7002C58.4427 55.8087 58.233 55.6042 58.233 55.3528ZM75.3126 55.392L75.312 55.3855C75.312 54.2818 75.8319 53.244 76.7038 52.6052V49.567L76.7076 49.5591C76.7968 49.3722 76.8274 49.1624 76.7938 48.9684C76.7557 48.7479 76.6355 48.5727 76.4529 48.4738C76.1899 48.3052 69.9733 44.344 66.6566 44.344L64.6146 44.3351C64.3889 44.3351 64.1786 44.4323 64.0376 44.6016C63.9633 44.691 63.9114 44.7988 63.8878 44.9135L63.8487 45.1029L63.8077 44.9053C63.7382 44.5727 63.4352 44.33 63.0873 44.3284L55.5347 44.2957C54.9029 44.2957 54.2891 44.5546 53.851 45.0062L53.5813 45.2839C53.0909 45.7893 52.8593 46.4783 52.9459 47.1743L53.0451 47.9716C53.0769 48.2276 53.1875 48.4625 53.3649 48.6509L53.3959 48.6844L53.3907 48.6879L54.1079 49.7138C54.7339 50.6094 55.5211 51.3668 56.4477 51.9652C57.6158 52.7196 58.3132 53.9859 58.3132 55.3526C58.3132 55.561 58.4869 55.7304 58.7005 55.7304H75.3715L75.3126 55.392Z" fill="white"/>
<path d="M65.2071 49.7833L65.1283 49.7969L66.2148 55.7786L66.2936 55.765L65.2071 49.7833Z" fill="white"/>
<path d="M76.3448 50.0522L76.3464 49.9741L64.7246 49.7486L54.7296 49.3398L54.7262 49.4178L64.7221 49.8265L76.3448 50.0522Z" fill="white"/>
<path d="M84.6713 56.4514H84.6526H82.5116L82.5103 54.9854C83.35 54.9859 84.0753 54.9867 84.6526 54.9878V55.2174L84.7513 55.2297C85.065 55.269 85.2999 55.5295 85.2999 55.8381C85.3 56.1767 85.0184 56.4514 84.6713 56.4514Z" fill="white"/>
<path d="M50.1726 55.3858V55.7648C50.1726 56.144 49.8575 56.4514 49.4688 56.4514H49.0237V55.0841C49.0237 54.8069 49.1572 54.5458 49.384 54.379L49.4068 54.3623L50.3005 54.4528C50.2172 54.7511 50.1726 55.0645 50.1726 55.3858Z" fill="white"/>
<path d="M57.207 55.7007L57.3317 55.0425C57.3317 55.0261 57.3312 55.0101 57.331 54.9938C60.7262 54.9913 68.6804 54.9858 75.3751 54.9844C75.3599 55.1165 75.3519 55.2504 75.3519 55.3857L75.4793 56.1188C75.5096 56.2927 75.3722 56.4513 75.1914 56.4513H57.8471C57.4402 56.4513 57.133 56.0911 57.207 55.7007Z" fill="white"/>
<path d="M75.9502 50.3436H75.1732C75.0748 50.3436 75.0007 50.2562 75.019 50.1619L75.2115 49.1733C75.2255 49.101 75.2903 49.0488 75.3657 49.0488H75.9501C76.4375 49.0488 76.8325 49.3386 76.8325 49.6961C76.8327 50.0538 76.4376 50.3436 75.9502 50.3436Z" fill="#E8E4F2"/>
<path d="M75.9495 49.9563H75.1725C75.1312 49.9563 75.0942 49.9407 75.0664 49.9158L75.0183 50.1626C74.9999 50.2569 75.0741 50.3442 75.1725 50.3442H75.9495C76.4369 50.3442 76.8319 50.0545 76.8319 49.6969C76.8319 49.6294 76.8178 49.5642 76.7915 49.5029C76.6792 49.7656 76.3447 49.9563 75.9495 49.9563Z" fill="#D6CEE6"/>
<path d="M84.6521 52.9818C84.6521 52.4175 84.5045 51.8795 84.2412 51.4072H83.3091C83.0445 51.4072 82.8369 51.6321 82.8687 51.8884C82.9336 52.4112 83.1659 53.1969 83.9666 53.3836C84.223 53.4434 84.4511 53.478 84.6521 53.4957V52.9818Z" fill="#D1D3D4"/>
<path d="M84.5011 53.332C84.3397 53.3115 84.1726 53.2809 84.002 53.2411C83.3099 53.0797 83.0854 52.4072 83.0189 51.8716C83.0089 51.7911 83.0339 51.7132 83.0895 51.6521C83.1453 51.5908 83.2254 51.5557 83.3094 51.5557H84.1502C84.3801 51.9968 84.5012 52.4883 84.5012 52.9827L84.5011 53.332Z" fill="white"/>
<path d="M49.469 53.7497L50.0319 53.5657V51.9707H49.469V53.7497Z" fill="#C70203"/>
<path d="M67.0901 49.076L68.8516 45.5145C68.5175 45.3914 68.1881 45.2827 67.8693 45.1934L65.9745 49.0242L67.0901 49.076Z" fill="#A0A0A0"/>
<path d="M69.9294 45.9503C69.6984 45.8494 69.4665 45.7524 69.2356 45.6611L67.5364 49.0966L68.3544 49.1346L69.9294 45.9503Z" fill="#A0A0A0"/>
<path d="M61.9289 44.9128L61.094 44.9092L59.2135 48.7109L60.0316 48.7488L61.9289 44.9128Z" fill="#A0A0A0"/>
<path d="M58.7672 48.6902L60.6383 44.9073L59.4996 44.9023L57.6516 48.6386L58.7672 48.6902Z" fill="#A0A0A0"/>
<path d="M56.4053 50.2217L64.5885 50.3937L64.8677 51.6419L56.4053 50.2217Z" fill="#3D3533"/>
<path d="M65.7104 50.3438L65.9746 51.6848L75.3522 50.5619L65.7104 50.3438Z" fill="#3D3533"/>
<path d="M13.2115 57.5959H2.09269C1.83023 57.5959 1.61743 57.3883 1.61743 57.1322V43.0906C1.61743 42.8346 1.83023 42.627 2.09269 42.627H13.2115C13.4739 42.627 13.6867 42.8346 13.6867 43.0906V57.1321C13.6867 57.3883 13.4739 57.5959 13.2115 57.5959Z" fill="#43A048"/>
<path d="M13.2115 42.627H12.4985V55.9729C12.4985 56.2289 12.2857 56.4365 12.0232 56.4365H1.61743V57.1321C1.61743 57.3881 1.83023 57.5957 2.09269 57.5957H13.2115C13.4739 57.5957 13.6867 57.3881 13.6867 57.1321V43.0906C13.6867 42.8346 13.4739 42.627 13.2115 42.627Z" fill="#D1C237"/>
<path d="M12.9405 46.8163H2.36372C1.44493 46.8163 0.700134 46.0897 0.700134 45.1933V43.0906C0.700134 42.8346 0.912933 42.627 1.17539 42.627H14.1287C14.3911 42.627 14.6039 42.8346 14.6039 43.0906V45.1933C14.604 46.0897 13.8593 46.8163 12.9405 46.8163Z" fill="#213F4F"/>
<path d="M14.1287 42.627H13.6534V44.266C13.6534 45.1623 12.9087 45.889 11.9899 45.889H1.41312C1.20139 45.889 0.999674 45.8488 0.813416 45.7785C1.05429 46.3853 1.65671 46.8164 2.36376 46.8164H12.9405C13.8593 46.8164 14.6041 46.0898 14.6041 45.1934V43.0907C14.604 42.8346 14.3912 42.627 14.1287 42.627Z" fill="#1B343F"/>
<path d="M9.88127 42.6279H9.28711C9.28711 41.9233 8.69967 41.3502 7.97752 41.3502H7.32697C6.6047 41.3502 6.01738 41.9234 6.01738 42.6279H5.42322C5.42322 41.6037 6.27725 40.7705 7.32697 40.7705H7.97752C9.02724 40.7704 9.88127 41.6037 9.88127 42.6279Z" fill="#43A048"/>
<path d="M7.97752 40.7695H7.50226C8.55198 40.7695 9.40601 41.6027 9.40601 42.627H9.88127C9.88127 41.6028 9.02724 40.7695 7.97752 40.7695Z" fill="#D1C237"/>
<path d="M11.3067 55.6753H3.99758C3.86629 55.6753 3.75989 55.5715 3.75989 55.4434V52.5735C3.75989 52.1893 4.07909 51.8779 4.47284 51.8779H10.8313C11.2251 51.8779 11.5443 52.1893 11.5443 52.5735V55.4434C11.5444 55.5715 11.438 55.6753 11.3067 55.6753Z" fill="#FBE8E5"/>
<path d="M10.8315 51.8779H10.7878C10.8144 51.9508 10.8315 52.028 10.8315 52.1098V54.9798C10.8315 55.1078 10.7251 55.2116 10.5938 55.2116H3.75989V55.4435C3.75989 55.5716 3.86629 55.6754 3.99758 55.6754H11.3067C11.438 55.6754 11.5444 55.5716 11.5444 55.4435V52.5736C11.5444 52.1893 11.2252 51.8779 10.8315 51.8779Z" fill="#EDDAD9"/>
<path d="M11.5443 54.8477H3.75995V55.4436C3.75995 55.5716 3.86635 55.6754 3.99764 55.6754H11.3068C11.4381 55.6754 11.5445 55.5716 11.5445 55.4436V54.8477H11.5443Z" fill="#EDC45F"/>
<path d="M10.8313 54.9807C10.8313 55.1088 10.7249 55.2126 10.5936 55.2126H3.75977V55.4445C3.75977 55.5726 3.86617 55.6764 3.99746 55.6764H11.3066C11.4379 55.6764 11.5443 55.5726 11.5443 55.4445V54.8486H10.8313V54.9807Z" fill="#DDAC3E"/>
<path d="M10.5529 49.1338H11.6569V42.6271H10.5529V49.1338Z" fill="#EDC45F"/>
<path d="M11.6572 42.627H11.1819V49.1336H11.6572V42.627Z" fill="#DDAC3E"/>
<path d="M10.2545 49.496H11.9562C12.1613 49.496 12.3275 49.3338 12.3275 49.1338C12.3275 48.9336 12.1613 48.7715 11.9562 48.7715H10.2545C10.0494 48.7715 9.88318 48.9337 9.88318 49.1338C9.88318 49.3338 10.0494 49.496 10.2545 49.496Z" fill="#213F4F"/>
<path d="M11.9563 48.7715H11.8266C11.8427 48.8121 11.8524 48.8558 11.8524 48.902C11.8524 49.1021 11.6862 49.2643 11.481 49.2643H9.90912C9.96291 49.3997 10.0969 49.4962 10.2546 49.4962H11.9563C12.1614 49.4962 12.3276 49.334 12.3276 49.1339C12.3276 48.9337 12.1613 48.7715 11.9563 48.7715Z" fill="#1B343F"/>
<path d="M4.75102 42.627H3.64716V49.1336H4.75102V42.627Z" fill="#EDC45F"/>
<path d="M4.75077 42.627H4.27551V49.1336H4.75077V42.627Z" fill="#DDAC3E"/>
<path d="M5.04971 49.496H3.34802C3.14289 49.496 2.97668 49.3338 2.97668 49.1338C2.97668 48.9336 3.14301 48.7715 3.34802 48.7715H5.04971C5.25484 48.7715 5.42105 48.9337 5.42105 49.1338C5.42105 49.3338 5.25484 49.496 5.04971 49.496Z" fill="#213F4F"/>
<path d="M5.05006 48.7715H4.9203C4.93646 48.8121 4.94614 48.8558 4.94614 48.902C4.94614 49.1021 4.77981 49.2643 4.5748 49.2643H3.00287C3.05666 49.3997 3.19054 49.4962 3.34837 49.4962H5.05006C5.25519 49.4962 5.4214 49.334 5.4214 49.1339C5.4214 48.9337 5.25519 48.7715 5.05006 48.7715Z" fill="#1B343F"/>
<path d="M13.6868 56.3037V53.3643H14.1286C14.3911 53.3643 14.6039 53.5719 14.6039 53.8279V55.4088C14.604 55.903 14.1934 56.3037 13.6868 56.3037Z" fill="#EDC45F"/>
<path d="M14.1287 53.3643H14.0628C14.1036 53.4327 14.1287 53.5112 14.1287 53.5961V55.177C14.1287 55.5008 13.9508 55.7818 13.6868 55.939V56.3038C14.1933 56.3038 14.6041 55.9032 14.6041 55.4089V53.8279C14.604 53.5719 14.3912 53.3643 14.1287 53.3643Z" fill="#DDAC3E"/>
<path d="M14.604 53.957H13.6867V54.5212H14.604V53.957Z" fill="#213F4F"/>
<path d="M14.6042 53.957H14.129V54.5212H14.6042V53.957Z" fill="#1B343F"/>
<path d="M1.61751 56.3037V53.3643H1.17564C0.913177 53.3643 0.700378 53.5719 0.700378 53.8279V55.4088C0.70026 55.903 1.11088 56.3037 1.61751 56.3037Z" fill="#EDC45F"/>
<path d="M1.17565 53.3643C1.16421 53.3643 1.15348 53.3668 1.14227 53.3676V56.1708C1.28123 56.2535 1.44283 56.3037 1.61753 56.3037V53.3643H1.17565Z" fill="#DDAC3E"/>
<path d="M1.61757 53.957H0.700317V54.5212H1.61757V53.957Z" fill="#213F4F"/>
<path d="M1.61759 53.957H1.14233V54.5212H1.61759V53.957Z" fill="#1B343F"/>
<path d="M2.56883 50.5782H2.33049C2.29772 50.5782 2.27087 50.5523 2.27087 50.5201C2.27087 50.488 2.29761 50.4619 2.33049 50.4619H2.56883C2.60159 50.4619 2.62845 50.4879 2.62845 50.5201C2.62845 50.5523 2.60171 50.5782 2.56883 50.5782Z" fill="#FBE8E5"/>
<path d="M12.2519 50.5779H11.7678C11.7351 50.5779 11.7083 50.552 11.7083 50.5199C11.7083 50.4879 11.735 50.4619 11.7678 50.4619H12.2519C12.2845 50.4619 12.3113 50.4878 12.3113 50.5199C12.3112 50.552 12.2845 50.5779 12.2519 50.5779ZM11.2835 50.5779H10.7992C10.7665 50.5779 10.7397 50.552 10.7397 50.5199C10.7397 50.4879 10.7664 50.4619 10.7992 50.4619H11.2835C11.3162 50.4619 11.343 50.4878 11.343 50.5199C11.343 50.552 11.3163 50.5779 11.2835 50.5779ZM10.3151 50.5779H9.83098C9.7983 50.5779 9.77153 50.552 9.77153 50.5199C9.77153 50.4879 9.79818 50.4619 9.83098 50.4619H10.3151C10.3478 50.4619 10.3745 50.4878 10.3745 50.5199C10.3745 50.552 10.3479 50.5779 10.3151 50.5779ZM9.34663 50.5779H8.86253C8.82985 50.5779 8.80307 50.552 8.80307 50.5199C8.80307 50.4879 8.82973 50.4619 8.86253 50.4619H9.34663C9.37931 50.4619 9.40608 50.4878 9.40608 50.5199C9.40608 50.552 9.37931 50.5779 9.34663 50.5779ZM8.37842 50.5779H7.89408C7.8614 50.5779 7.83463 50.552 7.83463 50.5199C7.83463 50.4879 7.86128 50.4619 7.89408 50.4619H8.37842C8.4111 50.4619 8.43787 50.4878 8.43787 50.5199C8.43776 50.552 8.4111 50.5779 8.37842 50.5779ZM7.40985 50.5779H6.92575C6.89307 50.5779 6.8663 50.552 6.8663 50.5199C6.8663 50.4879 6.89296 50.4619 6.92575 50.4619H7.40985C7.44253 50.4619 7.46931 50.4878 7.46931 50.5199C7.46931 50.552 7.44265 50.5779 7.40985 50.5779ZM6.4414 50.5779H5.9573C5.92462 50.5779 5.89784 50.552 5.89784 50.5199C5.89784 50.4879 5.9245 50.4619 5.9573 50.4619H6.4414C6.47408 50.4619 6.50085 50.4878 6.50085 50.5199C6.50085 50.552 6.4742 50.5779 6.4414 50.5779ZM5.47319 50.5779H4.98885C4.95617 50.5779 4.9294 50.552 4.9294 50.5199C4.9294 50.4879 4.95605 50.4619 4.98885 50.4619H5.47319C5.50587 50.4619 5.53264 50.4878 5.53264 50.5199C5.53264 50.552 5.50587 50.5779 5.47319 50.5779ZM4.50474 50.5779H4.02063C3.98796 50.5779 3.96118 50.552 3.96118 50.5199C3.96118 50.4879 3.98784 50.4619 4.02063 50.4619H4.50474C4.53742 50.4619 4.56419 50.4878 4.56419 50.5199C4.56407 50.552 4.53742 50.5779 4.50474 50.5779ZM3.53617 50.5779H3.05207C3.01939 50.5779 2.99261 50.552 2.99261 50.5199C2.99261 50.4879 3.01927 50.4619 3.05207 50.4619H3.53617C3.56885 50.4619 3.59562 50.4878 3.59562 50.5199C3.59562 50.552 3.56897 50.5779 3.53617 50.5779Z" fill="#FBE8E5"/>
<path d="M12.9747 50.5782H12.7364C12.7036 50.5782 12.6768 50.5523 12.6768 50.5201C12.6768 50.488 12.7035 50.4619 12.7364 50.4619H12.9747C13.0075 50.4619 13.0343 50.4879 13.0343 50.5201C13.0343 50.5523 13.0076 50.5782 12.9747 50.5782Z" fill="#FBE8E5"/>
<path d="M2.56883 57.0919H2.33049C2.29772 57.0919 2.27087 57.0659 2.27087 57.0337C2.27087 57.0016 2.29761 56.9756 2.33049 56.9756H2.56883C2.60159 56.9756 2.62845 57.0016 2.62845 57.0337C2.62845 57.0659 2.60171 57.0919 2.56883 57.0919Z" fill="#FBE8E5"/>
<path d="M12.2519 57.0916H11.7678C11.7351 57.0916 11.7083 57.0657 11.7083 57.0336C11.7083 57.0015 11.735 56.9756 11.7678 56.9756H12.2519C12.2845 56.9756 12.3113 57.0015 12.3113 57.0336C12.3113 57.0657 12.2845 57.0916 12.2519 57.0916ZM11.2835 57.0916H10.7992C10.7665 57.0916 10.7397 57.0657 10.7397 57.0336C10.7397 57.0015 10.7664 56.9756 10.7992 56.9756H11.2835C11.3162 56.9756 11.343 57.0015 11.343 57.0336C11.343 57.0657 11.3163 57.0916 11.2835 57.0916ZM10.3151 57.0916H9.83098C9.7983 57.0916 9.77153 57.0657 9.77153 57.0336C9.77153 57.0015 9.79818 56.9756 9.83098 56.9756H10.3151C10.3478 56.9756 10.3745 57.0015 10.3745 57.0336C10.3745 57.0657 10.3479 57.0916 10.3151 57.0916ZM9.34663 57.0916H8.86253C8.82985 57.0916 8.80307 57.0657 8.80307 57.0336C8.80307 57.0015 8.82973 56.9756 8.86253 56.9756H9.34663C9.37931 56.9756 9.40608 57.0015 9.40608 57.0336C9.40608 57.0657 9.37931 57.0916 9.34663 57.0916ZM8.37842 57.0916H7.89408C7.8614 57.0916 7.83463 57.0657 7.83463 57.0336C7.83463 57.0015 7.86128 56.9756 7.89408 56.9756H8.37842C8.4111 56.9756 8.43787 57.0015 8.43787 57.0336C8.43787 57.0657 8.4111 57.0916 8.37842 57.0916ZM7.40985 57.0916H6.92575C6.89307 57.0916 6.8663 57.0657 6.8663 57.0336C6.8663 57.0015 6.89296 56.9756 6.92575 56.9756H7.40985C7.44253 56.9756 7.46931 57.0015 7.46931 57.0336C7.46931 57.0657 7.44265 57.0916 7.40985 57.0916ZM6.4414 57.0916H5.9573C5.92462 57.0916 5.89784 57.0657 5.89784 57.0336C5.89784 57.0015 5.9245 56.9756 5.9573 56.9756H6.4414C6.47408 56.9756 6.50085 57.0015 6.50085 57.0336C6.50085 57.0657 6.4742 57.0916 6.4414 57.0916ZM5.47319 57.0916H4.98885C4.95617 57.0916 4.9294 57.0657 4.9294 57.0336C4.9294 57.0015 4.95605 56.9756 4.98885 56.9756H5.47319C5.50587 56.9756 5.53264 57.0015 5.53264 57.0336C5.53264 57.0657 5.50587 57.0916 5.47319 57.0916ZM4.50474 57.0916H4.02063C3.98796 57.0916 3.96118 57.0657 3.96118 57.0336C3.96118 57.0015 3.98784 56.9756 4.02063 56.9756H4.50474C4.53742 56.9756 4.56419 57.0015 4.56419 57.0336C4.56419 57.0657 4.53742 57.0916 4.50474 57.0916ZM3.53617 57.0916H3.05207C3.01939 57.0916 2.99261 57.0657 2.99261 57.0336C2.99261 57.0015 3.01927 56.9756 3.05207 56.9756H3.53617C3.56885 56.9756 3.59562 57.0015 3.59562 57.0336C3.59562 57.0657 3.56897 57.0916 3.53617 57.0916Z" fill="#FBE8E5"/>
<path d="M12.9747 57.0919H12.7364C12.7036 57.0919 12.6768 57.0659 12.6768 57.0337C12.6768 57.0016 12.7035 56.9756 12.7364 56.9756H12.9747C13.0075 56.9756 13.0343 57.0016 13.0343 57.0337C13.0343 57.0659 13.0076 57.0919 12.9747 57.0919Z" fill="#FBE8E5"/>
</g>
</g>
</g>
<defs>
<clipPath id="clip0_2456_6751">
<rect width="85.0667" height="58" fill="white" transform="translate(0.466675 0.5)"/>
</clipPath>
<clipPath id="clip1_2456_6751">
<rect width="85.0667" height="58" fill="white" transform="translate(0.466675 0.5)"/>
</clipPath>
<clipPath id="clip2_2456_6751">
<rect width="85.0667" height="58" fill="white" transform="translate(0.466675 0.5)"/>
</clipPath>
</defs>
</svg>
