<svg width="28" height="28" viewBox="0 0 28 28" fill="none" xmlns="http://www.w3.org/2000/svg">
<g clip-path="url(#clip0_3179_43659)">
<path d="M13.9991 16.6247C13.5161 16.6247 13.1241 16.2335 13.1241 15.7496V7.87432C13.1241 7.39043 13.5161 6.99929 13.9991 6.99929C14.4821 6.99929 14.8741 7.39043 14.8741 7.87432V15.7496C14.8741 16.2335 14.4821 16.6247 13.9991 16.6247ZM13.9991 18.3748C13.2746 18.3748 12.6866 18.9628 12.6866 19.6873C12.6866 20.4118 13.2746 20.9999 13.9991 20.9999C14.7236 20.9999 15.3116 20.4118 15.3116 19.6873C15.3116 18.9628 14.7236 18.3748 13.9991 18.3748ZM24.4991 20.1248V14.2971C24.4991 8.62773 20.2081 3.89641 14.7306 3.52365C11.6926 3.32064 8.71415 4.43193 6.56953 6.58015C4.42403 8.72923 3.31453 11.7052 3.52541 14.7469C3.91041 20.3068 8.8209 24.5 14.9476 24.5H20.125C22.5374 24.5 24.4991 22.5373 24.4991 20.1248ZM14.6125 5.27022C19.1756 5.57998 22.7491 9.54477 22.7491 14.2962V20.1239C22.7491 21.5713 21.5714 22.7491 20.1241 22.7491H14.9468C9.66615 22.7491 5.59653 19.3329 5.27015 14.6252C5.09428 12.0885 6.01828 9.60689 7.80677 7.81657C9.45352 6.16713 11.6874 5.24922 14.0123 5.24922C14.2118 5.24922 14.4121 5.25622 14.6116 5.26934L14.6125 5.27022Z" fill="#0F1110"/>
</g>
<defs>
<clipPath id="clip0_3179_43659">
<rect width="28" height="28" fill="white"/>
</clipPath>
</defs>
</svg>
