<svg width="28" height="28" viewBox="0 0 28 28" fill="none" xmlns="http://www.w3.org/2000/svg">
<g clip-path="url(#clip0_3179_55830)">
<path fill-rule="evenodd" clip-rule="evenodd" d="M10.2145 8.16247L8.5368 5.87469C8.42271 5.71911 8.20711 5.67946 8.04513 5.78427C5.8502 7.20452 5.24684 9.37405 6.12744 10.9734C7.09049 12.7225 8.57583 14.8675 10.8542 17.1458C13.1325 19.4242 15.2775 20.9095 17.0266 21.8726C18.626 22.7532 20.7955 22.1498 22.2157 19.9549C22.3205 19.7929 22.2809 19.5773 22.1253 19.4632L19.8375 17.7855C19.5011 17.5388 19.0549 17.501 18.6818 17.6875L17.7699 18.1435C16.9943 18.5313 15.9311 18.6675 14.9246 18.1498C14.2517 17.8036 13.2147 17.1457 12.0345 15.9655C10.8543 14.7853 10.1964 13.7483 9.85025 13.0754C9.33247 12.0689 9.46871 11.0057 9.85651 10.2301L10.3125 9.31821C10.499 8.94506 10.4612 8.4989 10.2145 8.16247ZM6.83606 3.9157C4.00895 5.74501 2.55366 9.0971 4.17781 12.0469C5.23779 13.972 6.84784 16.287 9.2804 18.7196C11.713 21.1522 14.028 22.7622 15.9531 23.8222C18.9029 25.4463 22.255 23.991 24.0843 21.1639C24.8294 20.0124 24.5475 18.4796 23.4415 17.6684L21.1537 15.9907C20.1444 15.2506 18.8059 15.1372 17.6865 15.6969L16.7746 16.1528C16.5106 16.2848 16.2052 16.3057 15.9428 16.1707C15.4646 15.9247 14.6173 15.4009 13.6082 14.3918C12.5991 13.3827 12.0753 12.5354 11.8293 12.0572C11.6943 11.7948 11.7152 11.4894 11.8472 11.2254L12.3031 10.3135C12.8628 9.19409 12.7494 7.85561 12.0093 6.84632L10.3316 4.55854C9.52043 3.45246 7.98762 3.17057 6.83606 3.9157Z" fill="#0F1110"/>
</g>
<defs>
<clipPath id="clip0_3179_55830">
<rect width="28" height="28" fill="white"/>
</clipPath>
</defs>
</svg>
