<svg width="87" height="59" viewBox="0 0 87 59" fill="none" xmlns="http://www.w3.org/2000/svg">
<g clip-path="url(#clip0_2456_56050)">
<g clip-path="url(#clip1_2456_56050)">
<g clip-path="url(#clip2_2456_56050)">
<path d="M74.3487 13.9298L74.4333 39.4465L51.921 52.3727L51.8363 26.7721L74.3487 13.9298Z" fill="#B295D5"/>
<path d="M51.921 52.3727L28.7316 38.9429L28.6469 13.4262L51.8363 26.7721L51.921 52.3727Z" fill="#7653A4"/>
<path d="M51.921 52.3727L28.7316 38.9429L28.6469 13.4262L51.8363 26.7721L51.921 52.3727Z" fill="#D6CEE6"/>
<path d="M51.1593 50.8618L45.3196 47.5043L45.2349 44.6505L51.0746 47.7561L51.1593 50.8618Z" fill="white"/>
<path d="M51.8363 26.7721L28.6469 13.4262L51.1593 0.5L74.3487 13.9298L51.8363 26.7721Z" fill="#7653A4"/>
<path d="M38.7182 18.7142L37.7026 18.6303V25.0934L41.765 27.7793V20.8965L38.7182 18.7142Z" fill="#B295D5"/>
<path d="M41.765 20.8965L37.7026 18.6303L60.215 5.78797L63.7696 7.80244L41.765 20.8965Z" fill="#D6CEE6"/>
<path d="M29.1547 58.5L12.5667 48.9313L28.5623 39.7822L45.1503 49.3509L29.1547 58.5Z" fill="#7653A4"/>
<path d="M44.1347 32.3958V49.5188L29.1547 58.1642L29.0701 41.0412L44.1347 32.3958Z" fill="#B295D5"/>
<path d="M29.1547 58.1642L13.6669 49.1831L13.5823 32.0601L29.0701 41.0412L29.1547 58.1642Z" fill="#7653A4"/>
<path d="M29.1547 58.1642L13.6669 49.1831L13.5823 32.0601L29.0701 41.0412L29.1547 58.1642Z" fill="#D6CEE6"/>
<path d="M28.5623 57.157L24.6692 54.8907V52.9602L28.5623 55.0586V57.157Z" fill="white"/>
<path d="M29.0701 41.0412L13.5823 32.0601L28.5623 23.4985L44.1347 32.3958L29.0701 41.0412Z" fill="#7653A4"/>
<path d="M20.2683 35.6693L19.6758 35.5854V39.9501L22.3841 41.7127L22.2995 37.0962L20.2683 35.6693Z" fill="#B295D5"/>
<path d="M22.2995 37.0962L19.6758 35.5854L34.6559 26.9399L37.0256 28.3668L22.2995 37.0962Z" fill="#D6CEE6"/>
</g>
</g>
</g>
<defs>
<clipPath id="clip0_2456_56050">
<rect width="85.0667" height="58" fill="white" transform="translate(0.966675 0.5)"/>
</clipPath>
<clipPath id="clip1_2456_56050">
<rect width="85.0667" height="58" fill="white" transform="translate(0.966675 0.5)"/>
</clipPath>
<clipPath id="clip2_2456_56050">
<rect width="85.0667" height="58" fill="white" transform="translate(0.966675 0.5)"/>
</clipPath>
</defs>
</svg>
