<svg width="28" height="28" viewBox="0 0 28 28" fill="none" xmlns="http://www.w3.org/2000/svg">
<g clip-path="url(#clip0_2930_31308)">
<path fill-rule="evenodd" clip-rule="evenodd" d="M11.9 11.9C12.4799 11.9 12.95 12.3701 12.95 12.95V18.2C12.95 18.7799 12.4799 19.25 11.9 19.25C11.3201 19.25 10.85 18.7799 10.85 18.2V12.95C10.85 12.3701 11.3201 11.9 11.9 11.9Z" fill="#0F1110"/>
<path fill-rule="evenodd" clip-rule="evenodd" d="M16.1 11.9C16.6799 11.9 17.15 12.3701 17.15 12.95V18.2C17.15 18.7799 16.6799 19.25 16.1 19.25C15.5201 19.25 15.05 18.7799 15.05 18.2V12.95C15.05 12.3701 15.5201 11.9 16.1 11.9Z" fill="#0F1110"/>
<path fill-rule="evenodd" clip-rule="evenodd" d="M11.9 3.5C10.1603 3.5 8.75 4.9103 8.75 6.65H4.55C3.9701 6.65 3.5 7.1201 3.5 7.7C3.5 8.2799 3.9701 8.75 4.55 8.75H5.6V21.35C5.6 23.0897 7.0103 24.5 8.75 24.5H19.25C20.9897 24.5 22.4 23.0897 22.4 21.35V8.75H23.45C24.0299 8.75 24.5 8.2799 24.5 7.7C24.5 7.1201 24.0299 6.65 23.45 6.65H19.25C19.25 4.9103 17.8397 3.5 16.1 3.5H11.9ZM17.15 6.65C17.15 6.0701 16.6799 5.6 16.1 5.6H11.9C11.3201 5.6 10.85 6.0701 10.85 6.65H17.15ZM7.7 8.75V21.35C7.7 21.9299 8.1701 22.4 8.75 22.4H19.25C19.8299 22.4 20.3 21.9299 20.3 21.35V8.75H7.7Z" fill="#0F1110"/>
</g>
<defs>
<clipPath id="clip0_2930_31308">
<rect width="28" height="28" fill="white"/>
</clipPath>
</defs>
</svg>
