<svg width="22" height="22" viewBox="0 0 22 22" fill="none" xmlns="http://www.w3.org/2000/svg">
<g clip-path="url(#clip0_3096_6204)">
<path d="M15.2716 3.38937L8.28658 11.7714C8.0198 12.0898 7.8083 12.4685 7.66433 12.8857C7.52036 13.3029 7.44677 13.7502 7.44783 14.2017V15.125C7.44783 15.3073 7.50819 15.4822 7.61564 15.6111C7.72308 15.7401 7.8688 15.8125 8.02075 15.8125H8.79018C9.16645 15.8138 9.53919 15.7255 9.88683 15.5527C10.2345 15.3799 10.5501 15.1261 10.8154 14.806L17.8004 6.424C18.1352 6.02124 18.3233 5.47557 18.3233 4.90669C18.3233 4.3378 18.1352 3.79213 17.8004 3.38937C17.4599 2.9988 17.007 2.78083 16.536 2.78083C16.065 2.78083 15.6121 2.9988 15.2716 3.38937ZM16.9903 5.45187L10.0053 13.8339C9.68228 14.2192 9.24565 14.4361 8.79018 14.4375H8.59367V14.2017C8.59486 13.6551 8.7756 13.1312 9.09669 12.7435L16.0817 4.3615C16.2041 4.22122 16.3668 4.14294 16.536 4.14294C16.7052 4.14294 16.868 4.22122 16.9903 4.3615C17.1106 4.50623 17.1782 4.70229 17.1782 4.90669C17.1782 5.11108 17.1106 5.30714 16.9903 5.45187Z" fill="#6D41A2"/>
<path d="M17.7603 8.92306C17.6084 8.92306 17.4627 8.99549 17.3552 9.12442C17.2478 9.25335 17.1874 9.42822 17.1874 9.61056V13.0625H14.8957C14.4399 13.0625 14.0027 13.2798 13.6804 13.6666C13.3581 14.0534 13.177 14.578 13.177 15.125V17.875H7.44783C6.99199 17.875 6.55482 17.6577 6.23249 17.2709C5.91017 16.8841 5.72908 16.3595 5.72908 15.8125V6.1875C5.72908 5.64049 5.91017 5.11588 6.23249 4.72909C6.55482 4.3423 6.99199 4.125 7.44783 4.125H12.6281C12.7801 4.125 12.9258 4.05257 13.0333 3.92364C13.1407 3.7947 13.2011 3.61984 13.2011 3.4375C13.2011 3.25516 13.1407 3.0803 13.0333 2.95136C12.9258 2.82243 12.7801 2.75 12.6281 2.75H7.44783C6.68838 2.75109 5.96029 3.11361 5.42327 3.75803C4.88626 4.40244 4.58416 5.27615 4.58325 6.1875V15.8125C4.58416 16.7238 4.88626 17.5975 5.42327 18.242C5.96029 18.8864 6.68838 19.2489 7.44783 19.25H13.9464C14.3228 19.2513 14.6956 19.163 15.0433 18.9902C15.3911 18.8175 15.7068 18.5636 15.9723 18.2435L17.4939 16.4161C17.7608 16.0977 17.9723 15.719 18.1164 15.3018C18.2605 14.8847 18.3342 14.4374 18.3332 13.9858V9.61056C18.3332 9.42822 18.2729 9.25335 18.1654 9.12442C18.058 8.99549 17.9123 8.92306 17.7603 8.92306ZM15.1622 17.2714C14.9318 17.5471 14.6406 17.7379 14.3228 17.8214V15.125C14.3228 14.9427 14.3832 14.7678 14.4906 14.6389C14.5981 14.5099 14.7438 14.4375 14.8957 14.4375H17.1444C17.0736 14.818 16.9147 15.1669 16.6861 15.444L15.1622 17.2714Z" fill="#6D41A2"/>
</g>
<defs>
<clipPath id="clip0_3096_6204">
<rect width="22" height="22" fill="white"/>
</clipPath>
</defs>
</svg>
