<svg width="89" height="61" viewBox="0 0 89 61" fill="none" xmlns="http://www.w3.org/2000/svg">
<g clip-path="url(#clip0_2503_73052)">
<g clip-path="url(#clip1_2503_73052)">
<path d="M7.85815 44.8909V32.1748H36.7422V44.8909H7.85815Z" fill="#EEEEEE" stroke="#A892C5"/>
<path d="M2.67212 44.8902V11.75H55.8359V44.8902H29.1209C29.1209 44.8807 29.121 44.8712 29.121 44.8617C29.121 40.0095 25.1877 36.0762 20.3355 36.0762C15.4834 36.0762 11.5501 40.0095 11.5501 44.8617C11.5501 44.8712 11.5501 44.8807 11.5501 44.8902H2.67212Z" fill="#6D41A2" stroke="#A892C5"/>
<path d="M54.0635 44.8909V32.1748H82.9475V44.8909H54.0635Z" fill="#EEEEEE" stroke="#A892C5"/>
<path d="M77.7087 27.6039L77.8005 27.8717L78.0773 27.9308L84.5239 29.3066C84.5379 29.3122 84.5572 29.3201 84.5812 29.3305C84.642 29.3567 84.7324 29.3983 84.8427 29.4571C85.0641 29.5751 85.3604 29.7593 85.6573 30.0222C86.2454 30.5428 86.8306 31.3638 86.8616 32.6139V42.9465H82.0596C80.834 39.6634 77.6714 37.3237 73.9594 37.3237C69.5498 37.3237 65.9141 40.6254 65.383 44.891H52.6671V11.7764H72.2845L77.7087 27.6039Z" fill="#6D41A2" stroke="#A892C5"/>
<path d="M60.1521 15.127H69.8726L73.3091 25.1547H60.1521V15.127Z" fill="#A8E0FB" stroke="#A892C5"/>
<path d="M66.0864 30.1333C66.0423 30.0936 65.9721 30.0615 65.8839 30.0615H63.1142C63.026 30.0615 62.9558 30.0936 62.9116 30.1333C62.8683 30.1723 62.8547 30.2125 62.8547 30.245C62.8547 30.2776 62.8683 30.3178 62.9116 30.3567C62.9558 30.3965 63.026 30.4285 63.1142 30.4285L65.8836 30.4285L65.8839 30.4285M66.0864 30.1333L63.1142 30.9285C62.6947 30.9285 62.3547 30.6226 62.3547 30.245C62.3547 29.8675 62.6947 29.5615 63.1142 29.5615H65.8839C66.3034 29.5615 66.6433 29.8675 66.6433 30.245C66.6433 30.6224 66.3032 30.9284 65.8839 30.9285V30.4285M66.0864 30.1333C66.1297 30.1723 66.1433 30.2125 66.1433 30.245C66.1433 30.2774 66.1298 30.3175 66.0864 30.3566C66.0421 30.3964 65.9719 30.4285 65.8839 30.4285M66.0864 30.1333L65.8839 30.4285" fill="white" stroke="#A892C5"/>
<path d="M70.2572 9.67886C70.7527 9.92725 71.2915 10.2866 71.7318 10.7956H2.67212V9.23145H69.0448C69.057 9.23424 69.0717 9.23769 69.0888 9.24186C69.1504 9.25691 69.2425 9.28117 69.3575 9.3167C69.5881 9.38795 69.9074 9.50344 70.2572 9.67886Z" fill="#6D41A2" stroke="#A892C5"/>
<path d="M27.0152 45.9434C27.0152 49.6325 24.0246 52.6231 20.3355 52.6231C16.6464 52.6231 13.6558 49.6325 13.6558 45.9434C13.6558 42.2543 16.6464 39.2637 20.3355 39.2637C24.0246 39.2637 27.0152 42.2543 27.0152 45.9434Z" fill="#EEEEEE" stroke="#141414"/>
<path d="M10.8972 45.9431C10.8972 40.7305 15.1228 36.5049 20.3355 36.5049C25.5481 36.5049 29.7737 40.7307 29.7737 45.9431C29.7737 45.9526 29.7737 45.9621 29.7737 45.9715H29.1209C29.1209 45.9621 29.1209 45.9526 29.1209 45.9431C29.1209 41.091 25.1874 37.1577 20.3355 37.1577C15.4833 37.1577 11.55 41.091 11.55 45.9431C11.55 45.9526 11.55 45.9621 11.5501 45.9715H10.8973C10.8972 45.9621 10.8972 45.9526 10.8972 45.9431Z" fill="#6D41A2" stroke="#A892C5"/>
<path d="M24.6405 45.9436C24.6405 48.3211 22.7131 50.2485 20.3355 50.2485C17.958 50.2485 16.0306 48.3211 16.0306 45.9436C16.0306 43.566 17.958 41.6387 20.3355 41.6387C22.7131 41.6387 24.6405 43.566 24.6405 45.9436Z" fill="white" stroke="#A892C5"/>
<path d="M24.0579 45.944C24.0579 47.9998 22.3913 49.6664 20.3355 49.6664C18.2797 49.6664 16.6132 47.9998 16.6132 45.944C16.6132 43.8882 18.2797 42.2217 20.3355 42.2217C22.3913 42.2217 24.0579 43.8882 24.0579 45.944Z" fill="#E9E8ED" stroke="#A892C5"/>
<path d="M22.4448 45.9433C22.4448 47.1082 21.5005 48.0526 20.3355 48.0526C19.1706 48.0526 18.2262 47.1082 18.2262 45.9433C18.2262 44.7784 19.1706 43.834 20.3355 43.834C21.5005 43.834 22.4448 44.7784 22.4448 45.9433Z" fill="#141414" stroke="#A892C5"/>
<path d="M20.2051 42.6724C20.2051 42.6004 20.2635 42.542 20.3355 42.542C20.4075 42.542 20.4658 42.6004 20.4658 42.6724C20.4658 42.7444 20.4075 42.8027 20.3355 42.8027C20.2635 42.8027 20.2051 42.7444 20.2051 42.6724Z" fill="#141414" stroke="#A892C5"/>
<path d="M20.2051 49.2144C20.2051 49.1424 20.2635 49.084 20.3355 49.084C20.4075 49.084 20.4658 49.1424 20.4658 49.2144C20.4658 49.2864 20.4075 49.3447 20.3355 49.3447C20.2635 49.3447 20.2051 49.2864 20.2051 49.2144Z" fill="#141414" stroke="#A892C5"/>
<path d="M18.7654 43.2237L18.7003 43.111L18.8131 43.0459C18.849 43.1081 18.8277 43.1877 18.7654 43.2237ZM18.6999 43.1112L18.7651 43.2239C18.7027 43.2598 18.6233 43.2384 18.5873 43.1761L18.6999 43.1112ZM18.6999 43.111L18.5873 43.1761C18.5511 43.1133 18.5729 43.034 18.6346 42.9983L18.6999 43.111ZM18.7002 43.1108L18.6351 42.998C18.6973 42.9621 18.777 42.9833 18.813 43.0457L18.7002 43.1108Z" fill="#141414" stroke="#A892C5"/>
<path d="M22.0362 48.8888C22.0362 48.8888 22.0362 48.8888 22.0362 48.8888C21.9737 48.9249 21.8942 48.9035 21.8582 48.8412L21.9711 48.7761L21.9711 48.7761L21.9712 48.776L22.084 48.711C22.1198 48.7731 22.0986 48.8527 22.0363 48.8888C22.0362 48.8888 22.0362 48.8888 22.0362 48.8888ZM21.906 48.663C21.9685 48.6271 22.0479 48.6485 22.0838 48.7107L21.9711 48.7758L21.971 48.7758L21.9709 48.7758L21.8581 48.8409C21.8224 48.7791 21.8433 48.6993 21.9058 48.6631C21.9059 48.6631 21.9059 48.6631 21.9059 48.6631C21.9059 48.6631 21.9059 48.6631 21.9059 48.6631C21.906 48.663 21.906 48.663 21.906 48.663Z" fill="#141414" stroke="#A892C5"/>
<path d="M17.6158 44.3722C17.6158 44.3722 17.6158 44.3722 17.6158 44.3722C17.6157 44.3723 17.6157 44.3723 17.6157 44.3723C17.6157 44.3724 17.6157 44.3724 17.6156 44.3724C17.6156 44.3724 17.6156 44.3725 17.6156 44.3725C17.5794 44.435 17.4997 44.456 17.4376 44.4201C17.4376 44.4201 17.4376 44.4201 17.4376 44.4201C17.3752 44.384 17.354 44.3044 17.3898 44.2422C17.3899 44.2422 17.3899 44.2421 17.3899 44.2421C17.3899 44.2421 17.39 44.242 17.39 44.242C17.4262 44.1795 17.506 44.1586 17.5678 44.1943C17.5678 44.1943 17.5679 44.1943 17.5679 44.1944C17.6304 44.2305 17.6515 44.3101 17.6158 44.3722Z" fill="#141414" stroke="#A892C5"/>
<path d="M23.2811 47.6429C23.281 47.643 23.281 47.643 23.281 47.643C23.2448 47.7054 23.1652 47.7265 23.1031 47.6906C23.103 47.6906 23.103 47.6906 23.103 47.6906L23.1681 47.5778L23.1682 47.5778L23.1682 47.5777L23.1682 47.5776L23.2333 47.4649C23.2334 47.4649 23.2334 47.4649 23.2334 47.4649C23.2958 47.5011 23.3169 47.5806 23.2812 47.6428C23.2811 47.6428 23.2811 47.6428 23.2811 47.6428C23.2811 47.6429 23.2811 47.6429 23.2811 47.6429C23.2811 47.6429 23.2811 47.6429 23.2811 47.6429ZM23.2333 47.4648L23.1758 47.5643L23.1758 47.5643L23.1681 47.5776L23.1681 47.5776L23.1681 47.5777L23.168 47.5778L23.1029 47.6905C23.0409 47.6547 23.0193 47.5752 23.0552 47.5127C23.0553 47.5127 23.0553 47.5127 23.0553 47.5127C23.0553 47.5127 23.0553 47.5126 23.0553 47.5126C23.0553 47.5126 23.0553 47.5126 23.0554 47.5126C23.0554 47.5125 23.0554 47.5125 23.0554 47.5125C23.0915 47.4501 23.1711 47.4291 23.2332 47.4648C23.2332 47.4648 23.2332 47.4648 23.2332 47.4648C23.2332 47.4648 23.2333 47.4648 23.2333 47.4648Z" fill="#141414" stroke="#A892C5"/>
<path d="M16.9342 45.9429C16.9342 45.8709 16.9926 45.8125 17.0646 45.8125C17.1366 45.8125 17.1949 45.8709 17.1949 45.9429C17.1949 46.0149 17.1366 46.0732 17.0646 46.0732C16.9926 46.0732 16.9342 46.0149 16.9342 45.9429Z" fill="#141414" stroke="#A892C5"/>
<path d="M23.4762 45.9429C23.4762 45.8709 23.5346 45.8125 23.6066 45.8125C23.6786 45.8125 23.7369 45.8709 23.7369 45.9429C23.7369 46.0149 23.6786 46.0732 23.6066 46.0732C23.5346 46.0732 23.4762 46.0149 23.4762 45.9429Z" fill="#141414" stroke="#A892C5"/>
<path d="M17.6157 47.5125L17.5028 47.5776M17.6157 47.5125L17.5028 47.5776M17.6157 47.5125C17.5795 47.45 17.4999 47.429 17.4377 47.4648C17.4377 47.4648 17.4377 47.4649 17.4377 47.4649C17.3753 47.5009 17.3541 47.5805 17.3899 47.6427L17.5028 47.5776L17.5028 47.5776M17.6157 47.5125L17.5028 47.5776M17.6158 47.5127C17.6518 47.5752 17.6303 47.6546 17.5681 47.6906C17.5681 47.6906 17.568 47.6906 17.568 47.6906C17.5055 47.7266 17.426 47.7052 17.3901 47.6429C17.3901 47.6429 17.39 47.6429 17.39 47.6429L17.5029 47.5778L17.5029 47.5777L17.6158 47.5126C17.6158 47.5126 17.6158 47.5126 17.6158 47.5126C17.6158 47.5126 17.6158 47.5127 17.6158 47.5127Z" fill="#141414" stroke="#A892C5"/>
<path d="M23.2812 44.2421C23.2453 44.1798 23.1658 44.1584 23.1033 44.1944C23.1033 44.1944 23.1033 44.1944 23.1033 44.1944C23.1033 44.1945 23.1032 44.1945 23.1032 44.1945C23.0408 44.2305 23.0196 44.3101 23.0555 44.3723L23.1683 44.3072L23.0555 44.3723C23.0555 44.3724 23.0555 44.3724 23.0555 44.3725L23.1684 44.3073L23.1684 44.3073L23.1685 44.3072L23.2813 44.2421C23.2812 44.2421 23.2812 44.2421 23.2812 44.2421ZM23.2812 44.2421L23.1685 44.3071L23.2812 44.2421ZM23.2336 44.4202C23.1713 44.4561 23.0916 44.4347 23.0556 44.3725L23.1685 44.3074L23.1685 44.3074L23.1686 44.3074L23.2814 44.2423C23.3172 44.3045 23.296 44.384 23.2337 44.4201C23.2337 44.4201 23.2337 44.4201 23.2337 44.4201C23.2337 44.4201 23.2337 44.4201 23.2337 44.4201C23.2336 44.4201 23.2336 44.4202 23.2336 44.4202C23.2336 44.4202 23.2336 44.4202 23.2336 44.4202Z" fill="#141414" stroke="#A892C5"/>
<path d="M18.7001 48.7758L18.7652 48.663C18.7653 48.663 18.7653 48.6631 18.7654 48.6631C18.8279 48.6994 18.8488 48.7791 18.8131 48.8409L18.7004 48.7759L18.7001 48.7758ZM18.7001 48.7758L18.7652 48.663C18.7034 48.6273 18.6236 48.6482 18.5874 48.7107L18.7001 48.7758ZM18.7001 48.7759L18.7003 48.776L18.813 48.8411C18.813 48.8412 18.813 48.8412 18.813 48.8412C18.777 48.9035 18.6973 48.9248 18.6352 48.8889C18.6351 48.8889 18.635 48.8888 18.635 48.8888C18.5726 48.8526 18.5515 48.7731 18.5872 48.711C18.5872 48.711 18.5872 48.711 18.5872 48.711C18.5873 48.7109 18.5873 48.7109 18.5873 48.7109C18.5873 48.7108 18.5873 48.7108 18.5873 48.7108L18.7001 48.7759ZM18.7001 48.7759L18.7 48.776L18.7001 48.7759Z" fill="#141414" stroke="#A892C5"/>
<path d="M22.0361 42.9981C22.0361 42.9981 22.0361 42.9981 22.0361 42.9981C22.0361 42.9981 22.0361 42.9981 22.0362 42.9981C22.0362 42.9981 22.0362 42.9982 22.0363 42.9982C22.0363 42.9982 22.0363 42.9982 22.0363 42.9982C22.0987 43.0344 22.1198 43.114 22.0839 43.1762C22.0839 43.1762 22.0839 43.1762 22.0839 43.1762L21.9712 43.1111L21.9711 43.1111L21.9709 43.111L21.9708 43.1109L21.8582 43.0459C21.8582 43.0459 21.8582 43.0459 21.8582 43.0458C21.8944 42.9834 21.9739 42.9623 22.036 42.9981C22.036 42.9981 22.0361 42.9981 22.0361 42.9981ZM21.8581 43.046L21.9487 43.0983L21.9707 43.111L21.9709 43.1111L21.971 43.1112L21.9711 43.1112L22.0838 43.1764C22.0483 43.2379 21.969 43.26 21.9061 43.224C21.906 43.224 21.906 43.2239 21.9059 43.2239C21.9059 43.2239 21.9059 43.2239 21.9058 43.2239C21.9058 43.2238 21.9058 43.2238 21.9058 43.2238C21.9057 43.2238 21.9056 43.2237 21.9055 43.2237C21.8434 43.1874 21.8224 43.108 21.8581 43.046C21.8581 43.046 21.8581 43.046 21.8581 43.046C21.8581 43.046 21.8581 43.046 21.8581 43.046Z" fill="#141414" stroke="#A892C5"/>
<path d="M80.6534 45.9434C80.6534 49.6325 77.6628 52.6231 73.9737 52.6231C70.2846 52.6231 67.2939 49.6325 67.2939 45.9434C67.2939 42.2543 70.2846 39.2637 73.9737 39.2637C77.6628 39.2637 80.6534 42.2543 80.6534 45.9434Z" fill="#EEEEEE" stroke="#141414"/>
<path d="M64.478 45.9439C64.478 40.6996 68.7294 36.4482 73.9737 36.4482C78.1605 36.4482 81.7152 39.1587 82.9777 42.9211H82.0595C80.8339 39.6382 77.6713 37.2983 73.9593 37.2983C69.1845 37.2983 65.3139 41.169 65.3139 45.9437C65.3139 45.9533 65.3139 45.9628 65.3139 45.9723H64.4781C64.478 45.9628 64.478 45.9534 64.478 45.9439Z" fill="#6D41A2" stroke="#A892C5"/>
<path d="M78.2786 45.9436C78.2786 48.3211 76.3513 50.2485 73.9737 50.2485C71.5962 50.2485 69.6688 48.3211 69.6688 45.9436C69.6688 43.566 71.5962 41.6387 73.9737 41.6387C76.3513 41.6387 78.2786 43.566 78.2786 45.9436Z" fill="#141414" stroke="#A892C5"/>
<path d="M77.6961 45.944C77.6961 47.9998 76.0295 49.6664 73.9737 49.6664C71.9179 49.6664 70.2513 47.9998 70.2513 45.944C70.2513 43.8882 71.9179 42.2217 73.9737 42.2217C76.0295 42.2217 77.6961 43.8882 77.6961 45.944Z" fill="#E9E8ED" stroke="#A892C5"/>
<path d="M76.083 45.9433C76.083 47.1082 75.1386 48.0526 73.9737 48.0526C72.8088 48.0526 71.8644 47.1082 71.8644 45.9433C71.8644 44.7784 72.8088 43.834 73.9737 43.834C75.1387 43.834 76.083 44.7784 76.083 45.9433Z" fill="#141414" stroke="#A892C5"/>
<path d="M73.8433 42.6724C73.8433 42.6004 73.9017 42.542 73.9737 42.542C74.0456 42.542 74.104 42.6004 74.104 42.6724C74.104 42.7444 74.0456 42.8027 73.9737 42.8027C73.9017 42.8027 73.8433 42.7444 73.8433 42.6724Z" fill="#141414" stroke="#A892C5"/>
<path d="M73.8433 49.2144C73.8433 49.1424 73.9017 49.084 73.9737 49.084C74.0456 49.084 74.104 49.1424 74.104 49.2144C74.104 49.2864 74.0456 49.3447 73.9737 49.3447C73.9017 49.3447 73.8433 49.2864 73.8433 49.2144Z" fill="#141414" stroke="#A892C5"/>
<path d="M72.2726 42.9983L72.3378 43.111L72.2252 43.1761C72.189 43.1133 72.2108 43.034 72.2726 42.9983ZM72.4031 43.2239C72.3409 43.2597 72.2613 43.2385 72.2253 43.1761L72.3379 43.1112L72.4031 43.2239ZM72.4509 43.0457L72.3382 43.1108L72.2731 42.998C72.3353 42.9621 72.4149 42.9833 72.4509 43.0457ZM72.4033 43.2237L72.3383 43.111L72.451 43.0459C72.4869 43.1081 72.4657 43.1877 72.4033 43.2237Z" fill="#141414" stroke="#A892C5"/>
<path d="M75.6744 48.8888L75.6094 48.776L75.7222 48.711C75.758 48.7731 75.7368 48.8527 75.6744 48.8888ZM75.6092 48.7761L75.6743 48.8888C75.6119 48.9249 75.5324 48.9035 75.4964 48.8412L75.6092 48.7761ZM75.722 48.7107L75.6092 48.7758L75.5442 48.663C75.6064 48.6271 75.686 48.6484 75.722 48.7107ZM75.544 48.6631L75.6091 48.7758L75.4962 48.8409C75.4604 48.7788 75.4816 48.6991 75.544 48.6631Z" fill="#141414" stroke="#A892C5"/>
<path d="M71.2537 44.3724C71.2537 44.3724 71.2537 44.3725 71.2537 44.3725C71.2175 44.4349 71.1379 44.4559 71.0759 44.4202C71.0758 44.4202 71.0758 44.4202 71.0758 44.4202C71.0758 44.4201 71.0757 44.4201 71.0757 44.4201C71.0757 44.4201 71.0757 44.4201 71.0757 44.4201C71.0757 44.4201 71.0756 44.4201 71.0756 44.4201C71.0131 44.3838 70.9922 44.3041 71.0279 44.2422C71.0279 44.2422 71.028 44.2421 71.028 44.2421C71.028 44.2421 71.028 44.242 71.028 44.242C71.0642 44.1796 71.1438 44.1586 71.2059 44.1943C71.2059 44.1943 71.2059 44.1943 71.2059 44.1943C71.206 44.1943 71.206 44.1944 71.206 44.1944C71.206 44.1944 71.206 44.1944 71.2061 44.1944C71.2061 44.1944 71.2061 44.1944 71.2061 44.1944C71.2685 44.2306 71.2895 44.3101 71.2538 44.3722C71.2538 44.3723 71.2538 44.3723 71.2538 44.3723C71.2537 44.3724 71.2537 44.3724 71.2537 44.3724Z" fill="#141414" stroke="#A892C5"/>
<path d="M76.9195 47.6428C76.9195 47.6428 76.9195 47.6428 76.9195 47.6428C76.9194 47.6428 76.9194 47.6428 76.9194 47.6429C76.9194 47.6429 76.9194 47.6429 76.9194 47.6429C76.9194 47.6429 76.9194 47.6429 76.9194 47.6429C76.9193 47.643 76.9193 47.643 76.9193 47.643C76.8831 47.7055 76.8033 47.7264 76.7415 47.6907L76.8066 47.5779L76.8066 47.5778L76.8066 47.5778L76.8067 47.5777L76.8717 47.4649C76.9341 47.5011 76.9552 47.5806 76.9195 47.6428ZM76.8715 47.4648L76.8063 47.5775L76.8063 47.5776L76.8062 47.5776L76.8062 47.5777L76.741 47.6904C76.6793 47.6547 76.6575 47.5755 76.6936 47.5127C76.6936 47.5127 76.6936 47.5127 76.6936 47.5127C76.6936 47.5127 76.6936 47.5126 76.6936 47.5126C76.6936 47.5126 76.6937 47.5126 76.6937 47.5126C76.6937 47.5125 76.6937 47.5125 76.6937 47.5125C76.7298 47.4501 76.8094 47.4291 76.8715 47.4648Z" fill="#141414" stroke="#A892C5"/>
<path d="M70.5782 45.9884C70.5505 45.9219 70.5819 45.8456 70.6483 45.8179C70.7148 45.7902 70.7911 45.8216 70.8188 45.8881C70.8465 45.9545 70.8151 46.0309 70.7486 46.0586C70.6822 46.0863 70.6059 46.0549 70.5782 45.9884Z" fill="#141414" stroke="#A892C5"/>
<path d="M77.1144 45.9429C77.1144 45.8709 77.1728 45.8125 77.2448 45.8125C77.3168 45.8125 77.3751 45.8709 77.3751 45.9429C77.3751 46.0149 77.3168 46.0732 77.2448 46.0732C77.1728 46.0732 77.1144 46.0149 77.1144 45.9429Z" fill="#141414" stroke="#A892C5"/>
<path d="M71.2538 47.5127C71.2897 47.5752 71.2683 47.6546 71.2061 47.6905C71.206 47.6905 71.206 47.6905 71.206 47.6906C71.206 47.6906 71.206 47.6906 71.206 47.6906C71.1435 47.7266 71.064 47.7052 71.028 47.6429C71.028 47.6429 71.028 47.6429 71.028 47.6429L71.1408 47.5778L71.1409 47.5777L71.141 47.5777L71.2537 47.5126C71.2537 47.5126 71.2537 47.5126 71.2537 47.5126C71.2537 47.5126 71.2538 47.5127 71.2538 47.5127ZM71.2536 47.5125L71.1409 47.5775L71.1408 47.5776L71.1407 47.5776L71.0279 47.6427C70.9922 47.5809 71.0131 47.5011 71.0756 47.4649C71.0756 47.4649 71.0757 47.4648 71.0757 47.4648C71.0757 47.4648 71.0757 47.4648 71.0757 47.4648C71.0757 47.4648 71.0758 47.4648 71.0758 47.4648C71.1379 47.429 71.2175 47.4501 71.2536 47.5125Z" fill="#141414" stroke="#A892C5"/>
<path d="M76.8715 44.4202C76.8092 44.4561 76.7295 44.4347 76.6935 44.3725L76.8064 44.3074L76.8715 44.4202ZM76.8063 44.3073L76.6935 44.3725C76.6935 44.3724 76.6934 44.3724 76.6934 44.3723C76.6575 44.3101 76.6788 44.2305 76.7412 44.1945L76.8063 44.3072L76.8063 44.3073ZM76.8716 44.4201L76.8065 44.3074L76.8065 44.3074L76.9193 44.2423C76.9551 44.3045 76.934 44.384 76.8717 44.4201C76.8717 44.4201 76.8717 44.4201 76.8717 44.4201C76.8716 44.4201 76.8716 44.4201 76.8716 44.4201C76.8716 44.4201 76.8716 44.4201 76.8716 44.4201ZM76.8065 44.3072L76.8064 44.3071L76.8032 44.3016L76.8032 44.3016L76.7414 44.1944C76.8035 44.1585 76.8831 44.1797 76.9192 44.2421C76.9192 44.2421 76.9192 44.2421 76.9192 44.2421L76.8065 44.3072L76.8065 44.3072Z" fill="#141414" stroke="#A892C5"/>
<path d="M72.4034 48.6631C72.4033 48.6631 72.4032 48.663 72.4031 48.663L72.3381 48.7758M72.4034 48.6631L72.3383 48.7759M72.4034 48.6631C72.4659 48.6994 72.4867 48.7791 72.4511 48.8409L72.3383 48.7759M72.4034 48.6631L72.3383 48.7759M72.3381 48.7758L72.4031 48.663C72.3413 48.6273 72.2615 48.6482 72.2253 48.7107L72.3381 48.7758ZM72.3381 48.7758L72.3383 48.7759M72.3383 48.7759L72.3383 48.776L72.3383 48.7759ZM72.2729 48.8888C72.2105 48.8526 72.1895 48.7731 72.2252 48.711C72.2252 48.711 72.2252 48.711 72.2252 48.711C72.2252 48.7109 72.2252 48.7109 72.2252 48.7109C72.2252 48.7108 72.2252 48.7108 72.2253 48.7108L72.338 48.7759M72.2729 48.8888C72.273 48.8888 72.2731 48.8889 72.2731 48.8889C72.3353 48.9248 72.4149 48.9035 72.4509 48.8412C72.451 48.8412 72.451 48.8412 72.451 48.8411L72.3382 48.776L72.338 48.7759M72.2729 48.8888L72.3379 48.776M72.2729 48.8888L72.3379 48.776M72.338 48.7759L72.3379 48.776M72.338 48.7759L72.3379 48.776" fill="#141414" stroke="#A892C5"/>
<path d="M75.6744 42.9982C75.6744 42.9982 75.6745 42.9982 75.6745 42.9982C75.7369 43.0344 75.7579 43.1139 75.7222 43.176C75.7222 43.176 75.7222 43.176 75.7222 43.1761C75.7222 43.1761 75.7222 43.1761 75.7221 43.1761C75.7221 43.1762 75.7221 43.1762 75.7221 43.1762C75.7221 43.1762 75.7221 43.1762 75.7221 43.1762C75.7221 43.1762 75.7221 43.1763 75.7221 43.1763C75.6861 43.2383 75.6065 43.2597 75.5442 43.224C75.5442 43.224 75.5442 43.2239 75.5441 43.2239C75.5441 43.2239 75.544 43.2239 75.544 43.2239C75.544 43.2238 75.5439 43.2238 75.5439 43.2238C75.4816 43.1876 75.4606 43.1081 75.4963 43.046C75.4963 43.046 75.4963 43.046 75.4963 43.046C75.4963 43.046 75.4963 43.046 75.4963 43.0459C75.4964 43.0459 75.4964 43.0459 75.4964 43.0459C75.4964 43.0459 75.4964 43.0459 75.4964 43.0458C75.4964 43.0458 75.4964 43.0458 75.4964 43.0458C75.5326 42.9834 75.6121 42.9624 75.6742 42.9981C75.6743 42.9981 75.6743 42.9981 75.6743 42.9981C75.6743 42.9981 75.6743 42.9981 75.6743 42.9981C75.6744 42.9981 75.6744 42.9982 75.6744 42.9982Z" fill="#141414" stroke="#A892C5"/>
<path d="M55.0532 45.4097V10.5674" stroke="#A892C5" stroke-width="2.8347" stroke-miterlimit="10"/>
<path d="M2.17444 34.3896H55.1524" stroke="#A892C5" stroke-width="2.8347" stroke-miterlimit="10"/>
<path d="M73.3091 25.1545H60.8245L70.0227 15.5651L73.3091 25.1545Z" fill="#EEEEEE" stroke="#A892C5"/>
<path d="M69.0573 15.127L60.1521 24.411V15.127H69.0573Z" fill="#EEEEEE" stroke="#A892C5"/>
<path d="M11.0343 43.6553L11.0344 44.8775H1.5365V43.6553H11.0343Z" fill="#6D41A2" stroke="#A892C5"/>
<path d="M30.9752 43.6553H64.5136V44.8775H30.9752C30.5367 44.8775 30.1576 44.8289 29.9034 44.7602C29.8512 44.746 29.8087 44.7322 29.7749 44.7197V43.8131C29.8087 43.8005 29.8512 43.7867 29.9034 43.7726C30.1576 43.7039 30.5367 43.6553 30.9752 43.6553ZM29.6679 44.6683C29.6682 44.6683 29.6707 44.67 29.6749 44.6735C29.6698 44.6701 29.6677 44.6684 29.6679 44.6683ZM29.6679 43.8644C29.6677 43.8644 29.6698 43.8627 29.6749 43.8593C29.6707 43.8628 29.6682 43.8644 29.6679 43.8644Z" fill="#6D41A2" stroke="#A892C5"/>
<path d="M1 41.3907V38.2529H1.78148V41.3907H1Z" fill="#6D41A2" stroke="#A892C5"/>
<path d="M87.9319 41.5388C87.9319 41.5387 87.9323 41.539 87.9332 41.5397L87.9319 41.5388ZM87.941 41.5479C87.9427 41.5498 87.9445 41.552 87.9465 41.5547C87.9706 41.5865 88 41.6524 88 41.7459V43.2002C88 43.2938 87.9706 43.3597 87.9465 43.3914C87.9445 43.3941 87.9427 43.3964 87.941 43.3983H82.2554C82.2538 43.3964 82.2519 43.3941 82.2499 43.3914C82.2258 43.3597 82.1964 43.2938 82.1964 43.2002V41.7459C82.1964 41.6524 82.2258 41.5865 82.2499 41.5547C82.2519 41.552 82.2538 41.5498 82.2554 41.5479H87.941ZM82.2645 41.5388C82.2645 41.5388 82.2641 41.5392 82.2633 41.5397L82.2645 41.5388ZM82.2645 43.4074C82.2645 43.4075 82.2641 43.4072 82.2633 43.4065L82.2645 43.4074ZM87.9319 43.4074C87.9319 43.4074 87.9323 43.407 87.9332 43.4065L87.9319 43.4074Z" fill="#6D41A2" stroke="#A892C5"/>
</g>
</g>
<defs>
<clipPath id="clip0_2503_73052">
<rect width="88" height="60" fill="white" transform="translate(0.5 0.731445)"/>
</clipPath>
<clipPath id="clip1_2503_73052">
<rect width="88" height="60" fill="white" transform="translate(0.5 0.731445)"/>
</clipPath>
</defs>
</svg>
