<svg width="22" height="22" viewBox="0 0 22 22" fill="none" xmlns="http://www.w3.org/2000/svg">
<path fill-rule="evenodd" clip-rule="evenodd" d="M14.3 9.35C15.2113 9.35 15.95 8.61127 15.95 7.7C15.95 6.78873 15.2113 6.05 14.3 6.05C13.3887 6.05 12.65 6.78873 12.65 7.7C12.65 8.61127 13.3887 9.35 14.3 9.35Z" fill="#0F1110"/>
<path fill-rule="evenodd" clip-rule="evenodd" d="M2.75 5.225C2.75 3.85809 3.8581 2.75 5.225 2.75H16.775C18.1419 2.75 19.25 3.8581 19.25 5.225V16.775C19.25 18.1419 18.1419 19.25 16.775 19.25H5.225C3.85809 19.25 2.75 18.1419 2.75 16.775V5.225ZM5.225 4.4H16.775C17.2306 4.4 17.6 4.76936 17.6 5.225V16.775C17.6 16.963 17.5371 17.1363 17.4312 17.2751C17.4059 17.2414 17.3786 17.2085 17.3491 17.1763L9.81947 8.96214C8.80696 7.85759 7.05292 7.899 6.09366 9.0501L4.4 11.0825V5.225C4.4 4.76937 4.76936 4.4 5.225 4.4ZM4.4 13.6599V16.775C4.4 17.2306 4.76937 17.6 5.225 17.6H15.4992L8.60316 10.0771C8.26566 9.7089 7.68098 9.72271 7.36123 10.1064L4.4 13.6599Z" fill="#0F1110"/>
</svg>
