<svg width="28" height="28" viewBox="0 0 28 28" fill="none" xmlns="http://www.w3.org/2000/svg">
<path d="M10.9118 11.8125C10.9118 12.2946 11.0226 12.7513 11.22 13.1573C10.7958 13.7068 10.5317 14.3885 10.4963 15.1313C9.6816 14.2668 9.18034 13.0978 9.18034 11.8133C9.18034 8.82869 11.8832 6.46968 14.9452 7.10493C16.7477 7.47944 18.2082 8.94682 18.5926 10.7659C18.7086 11.3155 18.7302 11.8536 18.6714 12.3681C18.6211 12.8038 18.2428 13.1258 17.8082 13.1258H17.7693C17.2568 13.1258 16.8966 12.6647 16.9529 12.1502C16.991 11.8046 16.9711 11.4415 16.8836 11.0713C16.6256 9.97495 15.7409 9.08682 14.6544 8.83394C12.6753 8.37457 10.9109 9.89007 10.9109 11.8133L10.9118 11.8125ZM7.54411 10.6793C7.78132 9.28544 8.45572 8.01494 9.50153 7.02356C10.8252 5.76968 12.5584 5.15018 14.3756 5.26393C17.7978 5.48793 20.4738 8.51806 20.434 12.1458C20.4175 13.6648 19.1588 14.8741 17.6567 14.8741H15.5738C15.3625 14.1487 14.7063 13.615 13.9202 13.615C12.9636 13.615 12.1888 14.3981 12.1888 15.365C12.1888 16.3318 12.9636 17.115 13.9202 17.115C14.386 17.115 14.8076 16.9268 15.1184 16.6241H17.6567C20.0972 16.6241 22.1308 14.6597 22.1654 12.194C22.2295 7.62556 18.8341 3.8018 14.4873 3.5183C12.181 3.36692 9.99326 4.1588 8.31807 5.7478C7.02034 6.97718 6.15721 8.60469 5.84641 10.3556C5.75205 10.8876 6.16846 11.3758 6.70262 11.3758C7.11124 11.3758 7.47572 11.0879 7.54411 10.6802V10.6793ZM13.9419 18.375C10.743 18.375 7.97524 20.3805 7.05497 23.3642C6.91213 23.8254 7.16752 24.3163 7.62376 24.4606C8.07913 24.5998 8.56481 24.346 8.70765 23.8857C9.01152 22.8996 9.6184 22.0579 10.3976 21.4139L11.6105 23.2522C11.9178 23.7177 12.5939 23.7177 12.9013 23.2522L13.9869 21.6055L15.0725 23.2522C15.3798 23.7177 16.056 23.7177 16.3633 23.2522L17.5433 21.4637C18.2939 22.1016 18.8783 22.925 19.1743 23.8857C19.2904 24.2603 19.6315 24.5 20.0011 24.5C20.0868 24.5 20.1725 24.4869 20.2591 24.4606C20.7154 24.3163 20.9699 23.8254 20.8279 23.3642C19.9076 20.3805 17.1399 18.375 13.941 18.375H13.9419Z" fill="#0F1110"/>
</svg>
