<svg width="24" height="25" viewBox="0 0 24 25" fill="none" xmlns="http://www.w3.org/2000/svg">
<g clip-path="url(#clip0_2842_33243)">
<path d="M16.9 3.5H7.1C5.9422 3.5 5 4.5095 5 5.75V21.5H19V5.75C19 4.5095 18.0578 3.5 16.9 3.5ZM7.1 5H16.9C17.2857 5 17.6 5.336 17.6 5.75V7.25H6.4V5.75C6.4 5.336 6.7143 5 7.1 5ZM6.4 20V8.75H17.6V20H6.4ZM8.5 11H15.5V12.5H8.5V11ZM8.5 14H12.7V15.5H8.5V14Z" fill="#0F1110"/>
</g>
<defs>
<clipPath id="clip0_2842_33243">
<rect width="24" height="24" fill="white" transform="translate(0 0.5)"/>
</clipPath>
</defs>
</svg>
