<svg width="70" height="70" viewBox="0 0 70 70" fill="none" xmlns="http://www.w3.org/2000/svg">
<g clip-path="url(#clip0_2842_12805)">
<path d="M45.44 42.3329L45.4808 43.1311C45.7005 47.4429 44.9996 50.0261 48.3946 53.1616C49.7839 54.4439 51.2131 56.1142 50.901 57.978C50.6074 59.7241 48.8486 60.8684 47.119 61.2553C45.3914 61.6413 43.5811 61.4955 41.8408 61.825C39.8069 62.2091 37.8712 63.2377 35.8033 63.158C33.2804 63.0607 31.1337 61.3438 29.3399 59.5685C27.5452 57.7932 25.803 55.8109 23.4415 54.9193C23.0098 54.756 22.4576 54.4653 22.5616 54.0152C22.6054 53.8256 22.7629 53.6866 22.9087 53.5592C27.1097 49.9172 27.8009 47.6101 27.5316 42.2843L45.44 42.3329Z" fill="#CCA692"/>
<path d="M35.1182 17.3759C36.176 17.6608 37.6081 16.2997 38.2916 15.7436C39.5292 14.7363 40.936 13.9352 42.4352 13.3859C43.5318 12.9844 44.7384 12.717 45.8623 13.0359C47.5131 13.5045 48.603 15.1661 48.9102 16.8548C49.5344 20.2965 47.8048 23.8568 48.359 27.3033C48.4358 27.7855 48.5689 28.8783 49.337 28.3514C49.6559 28.1336 49.4527 27.5425 49.793 27.281C50.5455 26.7025 50.914 27.6251 50.9733 28.1822C51.1842 30.1665 50.9878 32.354 50.1332 34.2051C49.6384 35.2775 48.8898 35.6139 48.1626 36.4092C47.3576 37.29 47.5812 38.9253 47.3187 39.987C47.1398 40.7093 46.8481 41.3733 46.4359 41.9615C45.558 43.2177 43.9528 43.8642 42.9329 45.0173C41.9782 46.0984 41.0974 47.1717 39.747 47.9057C38.9332 48.3481 37.7695 48.4142 36.6952 48.4191C36.5552 48.4327 36.4142 48.4453 36.2723 48.456L34.6904 17.2826C34.8324 17.3127 34.9802 17.338 35.1182 17.3759Z" fill="#F9CFB3"/>
<path d="M20.4396 29.73C20.4425 29.17 20.7147 28.2153 21.5226 28.714C21.8882 28.9396 21.7452 29.5482 22.0846 29.7329C22.9022 30.1792 22.9236 29.0786 22.9518 28.5906C23.0587 26.7365 22.0807 25.0099 22.2246 23.186C22.3578 21.5128 22.1876 19.7929 22.7146 18.1518C23.1715 16.7304 24.0737 15.4208 25.3571 14.6576C26.5432 13.9518 28.021 13.7525 29.351 14.1209C30.5225 14.4447 31.3353 15.1525 32.1238 16.0353C32.9822 16.9958 33.3876 16.9861 34.6904 17.2807L36.2722 48.4541C35.3263 48.527 34.3501 48.526 33.6064 48.2149C32.1879 47.6219 31.2031 46.6428 30.1443 45.6648C29.0136 44.6216 27.3521 44.1403 26.3507 42.9795C25.8821 42.436 25.5233 41.8041 25.2735 41.105C24.904 40.0755 24.9614 38.4256 24.0718 37.6313C23.2687 36.9148 22.489 36.6552 21.8882 35.6382C20.8479 33.8814 20.4318 31.726 20.4396 29.73Z" fill="#E2BBA1"/>
<path d="M50.104 25.8547C49.8026 27.2625 49.4594 28.5905 49.1706 29.7407C49.0374 30.2705 48.9217 30.8636 48.7526 31.372C48.6787 31.5937 48.6699 31.7891 48.5047 31.9845C48.4658 32.0302 47.8679 32.4395 47.8776 32.3307C48.0779 30.3366 48.2966 28.4437 48.0817 26.4429C47.7133 22.9992 48.3559 17.372 43.4433 17.5645C41.9684 17.6219 40.5713 18.1916 39.1791 18.6787C37.7859 19.1667 36.3023 19.5819 34.8507 19.3203C32.565 18.9081 30.7839 16.8976 28.4797 16.6108C24.9301 16.1694 23.5914 19.2854 23.4047 22.2001C23.2774 24.1902 23.081 26.0034 23.2414 28.0354C23.3026 28.8054 23.57 29.4859 23.6721 30.2433C23.7149 30.5632 24.2399 32.8022 24.0727 32.9519C23.9463 33.0647 23.7664 32.8916 23.6877 32.7409C20.9936 27.5784 19.2183 20.5055 22.4393 14.9424C23.0839 13.8283 24.0289 12.9241 24.9593 12.0355C27.5901 9.52519 30.222 7.01393 32.8528 4.50267C32.9384 4.42198 33.0239 4.34031 33.126 4.28392C33.6199 4.01753 34.1877 4.43851 34.6174 4.7992C39.1684 8.60838 45.692 8.97782 49.3515 14.1958C51.4641 17.2009 50.9585 21.8481 50.104 25.8547Z" fill="#141414"/>
<path d="M29.8398 72.921C29.9312 73.3478 30.0343 73.7726 30.1286 74.1994H40.7715C42.0296 71.6075 43.1778 68.9893 44.5943 66.4207C46.1343 63.6119 48.281 61.1736 49.6382 58.253C50.2225 56.9969 50.7767 55.5434 50.5229 54.1357C50.1749 52.199 47.3292 51.4387 47.3292 51.4387C46.2772 52.4343 42.9619 55.3111 37.8684 55.7641C30.6419 56.4068 25.7604 51.6438 25.0623 50.9409C24.8367 53.2363 24.8611 55.7845 25.7711 57.938C27.8322 62.8118 28.7616 67.879 29.8398 72.921Z" fill="#CAD9E0"/>
<path d="M11.327 62.0359C11.431 66.0921 11.6458 70.1453 11.816 74.1994H32.1131L28.5596 63.1627C28.5596 63.1627 25.2716 50.8612 25.0606 50.939C23.2766 51.602 23.0957 52.022 21.5042 52.8513C19.6434 53.8206 17.627 54.4108 15.5571 54.8211C14.2776 55.0748 8.83029 56.8034 8.29362 58.2132C7.84834 59.3818 11.2939 60.7584 11.327 62.0359Z" fill="#6D41A2"/>
<path d="M57.5936 74.1995C58.0933 68.3272 59.0869 62.4385 59.6965 56.7276C57.7938 55.9372 55.862 54.3826 53.7387 53.7701C52.4524 53.3987 46.7999 51.1616 46.7999 51.1616C46.7999 51.1616 42.2946 64.7144 40.9987 67.8771C40.6205 68.7978 39.5355 71.2468 38.293 74.1995H57.5936Z" fill="#6D41A2"/>
<path d="M38.292 28.0294V30.4853C38.292 30.4853 42.5192 28.1364 46.481 28.0294C46.481 26.5342 38.292 28.0294 38.292 28.0294Z" fill="#141414"/>
<path d="M33.566 28.0294V30.4853C33.566 30.4853 29.3388 28.1364 25.377 28.0294C25.3779 26.5342 33.566 28.0294 33.566 28.0294Z" fill="#141414"/>
<path d="M46.9427 39.6593C46.9738 39.8334 46.8902 40.0045 46.8085 40.162C46.6111 40.545 46.4245 40.9116 46.162 41.2285C45.9121 41.5289 45.776 41.9402 45.5738 42.2834C45.1577 42.9921 44.6006 43.73 43.9346 44.2094C42.3091 45.4285 40.5581 46.5913 38.7507 47.4974C38.4756 47.6355 38.1829 47.7764 37.8777 47.7521C37.024 47.6841 36.4786 45.4937 35.695 46.9209C35.5288 47.2252 35.4248 47.5859 35.1448 47.7891C33.667 48.8624 30.5004 45.8816 29.429 45.096C28.9235 44.7256 28.4228 44.3455 27.9901 43.8924C27.5838 43.4675 27.2415 42.9853 26.9022 42.505C26.2479 41.5805 25.5732 40.6024 25.4517 39.4766C25.3768 40.2368 25.3078 41.0341 25.6024 41.7389C25.6831 41.9334 25.791 42.1152 25.8979 42.297C26.7058 43.6659 27.4554 45.0892 28.695 46.1324C29.8442 47.0988 31.1956 47.7774 32.4041 48.6621C33.3559 49.3592 34.609 49.8492 35.8972 50.0398C37.1699 49.8492 38.4328 49.3524 39.4157 48.6359C40.6893 47.7074 42.1486 46.9666 43.4242 45.9078C43.886 45.5238 44.2875 45.0776 44.6648 44.6128C45.0196 44.1753 45.4814 43.7135 45.7361 43.2099C45.9481 42.7899 46.1328 42.3796 46.3681 41.9645C46.7696 41.2538 47.0963 40.5139 46.9427 39.6593Z" fill="#141414"/>
<path d="M15.4671 74.1996C15.4788 73.7942 15.5089 73.3897 15.5089 72.9834C15.5089 69.7371 14.6961 66.5929 13.9777 63.4507C13.6734 62.1207 13.3972 60.7528 13.5217 59.3819C13.6316 58.1783 14.3947 56.963 14.247 55.7478C14.2334 55.6379 14.2052 55.5183 14.1148 55.4532C13.9962 55.3686 13.8318 55.4162 13.6957 55.4687C13.1989 55.6573 12.6836 55.8537 12.1557 56.0589C9.81751 56.9708 6.58293 57.6747 5.01765 59.8282C2.88556 62.7624 1.6168 67.6517 0.766108 71.1177C0.510412 72.154 0.255695 73.1729 0 74.1996H15.4671Z" fill="#BCA4DA"/>
<path d="M57.9902 62.1635C57.7734 66.1807 57.3456 70.1833 57.1035 74.1996H69.863C69.0658 71.0545 68.288 67.9249 67.5763 64.8585C66.7042 61.0989 63.9295 56.7939 59.6459 56.8376C56.6787 56.8677 58.0962 60.1791 57.9902 62.1635Z" fill="#BCA4DA"/>
</g>
<rect x="0.75" y="0.75" width="68.5" height="68.5" rx="34.25" stroke="#6D41A2" stroke-width="1.5"/>
<defs>
<clipPath id="clip0_2842_12805">
<rect width="70" height="70" rx="35" fill="white"/>
</clipPath>
</defs>
</svg>
