<svg width="24" height="24" viewBox="0 0 24 24" fill="none" xmlns="http://www.w3.org/2000/svg">
<path fill-rule="evenodd" clip-rule="evenodd" d="M12 10.2C12.4971 10.2 12.9 10.6029 12.9 11.1V15.6C12.9 16.097 12.4971 16.5 12 16.5C11.5029 16.5 11.1 16.097 11.1 15.6V11.1C11.1 10.6029 11.5029 10.2 12 10.2Z" fill="#06A3FE"/>
<path d="M12.9 8.4C12.9 7.90294 12.4971 7.5 12 7.5C11.5029 7.5 11.1 7.90294 11.1 8.4C11.1 8.89706 11.5029 9.3 12 9.3C12.4971 9.3 12.9 8.89706 12.9 8.4Z" fill="#06A3FE"/>
<path fill-rule="evenodd" clip-rule="evenodd" d="M12 4.8C15.9764 4.8 19.2 8.02355 19.2 12C19.2 15.9765 15.9764 19.2 12 19.2C8.02355 19.2 4.8 15.9765 4.8 12C4.8 8.02355 8.02355 4.8 12 4.8ZM12 3C16.9706 3 21 7.02944 21 12C21 16.9706 16.9706 21 12 21C7.02944 21 3 16.9706 3 12C3 7.02944 7.02944 3 12 3Z" fill="#06A3FE"/>
</svg>
