<svg width="28" height="28" viewBox="0 0 28 28" fill="none" xmlns="http://www.w3.org/2000/svg">
<g clip-path="url(#clip0_2930_38523)">
<path d="M14 3.5C11.9233 3.5 9.89323 4.11581 8.16652 5.26957C6.4398 6.42332 5.09399 8.0632 4.29927 9.98182C3.50455 11.9004 3.29661 14.0116 3.70176 16.0484C4.1069 18.0852 5.10693 19.9562 6.57538 21.4246C8.04383 22.8931 9.91476 23.8931 11.9516 24.2982C13.9884 24.7034 16.0996 24.4955 18.0182 23.7007C19.9368 22.906 21.5767 21.5602 22.7304 19.8335C23.8842 18.1068 24.5 16.0767 24.5 14C24.497 11.2162 23.3898 8.54718 21.4213 6.5787C19.4528 4.61022 16.7839 3.50301 14 3.5ZM21.5749 9.625H18.7521C18.1195 8.15806 17.2858 6.78632 16.275 5.54925C18.5097 6.1563 20.4144 7.62106 21.5749 9.625ZM17.9375 14C17.9312 14.8907 17.7917 15.7755 17.5236 16.625H10.4764C10.2083 15.7755 10.0688 14.8907 10.0625 14C10.0688 13.1093 10.2083 12.2245 10.4764 11.375H17.5236C17.7917 12.2245 17.9312 13.1093 17.9375 14ZM11.1773 18.375H16.8228C16.0795 19.8418 15.1289 21.1939 14 22.3895C12.8711 21.1939 11.9205 19.8418 11.1773 18.375ZM11.1773 9.625C11.9205 8.15819 12.8711 6.80613 14 5.6105C15.1289 6.80613 16.0795 8.15819 16.8228 9.625H11.1773ZM11.725 5.54925C10.7144 6.78648 9.88074 8.1582 9.24788 9.625H6.42513C7.5856 7.62106 9.49029 6.1563 11.725 5.54925ZM5.6525 11.375H8.6555C8.19819 13.0951 8.19819 14.9049 8.6555 16.625H5.6525C5.11586 14.9161 5.11586 13.0839 5.6525 11.375ZM6.42513 18.375H9.24788C9.88048 19.8419 10.7142 21.2137 11.725 22.4508C9.49029 21.8437 7.5856 20.3789 6.42513 18.375ZM16.275 22.4508C17.2856 21.2135 18.1193 19.8418 18.7521 18.375H21.5749C20.4144 20.3789 18.5097 21.8437 16.275 22.4508ZM22.3475 16.625H19.3445C19.8018 14.9049 19.8018 13.0951 19.3445 11.375H22.3475C22.8841 13.0839 22.8841 14.9161 22.3475 16.625Z" fill="#0F1110"/>
</g>
<defs>
<clipPath id="clip0_2930_38523">
<rect width="28" height="28" fill="white"/>
</clipPath>
</defs>
</svg>
