<svg width="89" height="60" viewBox="0 0 89 60" fill="none" xmlns="http://www.w3.org/2000/svg">
<path d="M5.06701 26.9894H38.2927C38.3791 26.9894 38.4656 26.9029 38.4656 26.8165C38.4656 26.73 38.3791 26.6436 38.2927 26.6436H5.06701C4.98056 26.6436 4.8941 26.73 4.8941 26.8165C4.8941 26.9029 4.98056 26.9894 5.06701 26.9894Z" fill="#141414"/>
<path d="M5.06701 14.1368H38.2927C38.3791 14.1368 38.4656 14.0504 38.4656 13.9639C38.4656 13.8775 38.3791 13.791 38.2927 13.791H5.06701C4.98056 13.791 4.8941 13.8775 4.8941 13.9639C4.8941 14.0504 4.98056 14.1368 5.06701 14.1368Z" fill="#141414"/>
<path d="M5.06701 18.4317H38.2927C38.3791 18.4317 38.4656 18.3453 38.4656 18.2588C38.4656 18.1724 38.3791 18.0859 38.2927 18.0859H5.06701C4.98056 18.0859 4.8941 18.1724 4.8941 18.2588C4.8941 18.3453 4.98056 18.4317 5.06701 18.4317Z" fill="#141414"/>
<path d="M5.06701 22.6954H38.2927C38.3791 22.6954 38.4656 22.609 38.4656 22.5225C38.4656 22.4361 38.3791 22.3496 38.2927 22.3496H5.06701C4.98056 22.3496 4.8941 22.4361 4.8941 22.5225C4.8941 22.609 4.98056 22.6954 5.06701 22.6954Z" fill="#141414"/>
<path d="M21.6914 29.7576C21.7778 29.7576 21.8643 29.6711 21.8643 29.5847V8.23149C21.8643 8.14504 21.7778 8.05859 21.6914 8.05859C21.6049 8.05859 21.5185 8.14504 21.5185 8.23149V29.5847C21.5185 29.6711 21.5761 29.7576 21.6914 29.7576Z" fill="#757679"/>
<path d="M33.0444 29.7576C33.1308 29.7576 33.2173 29.6711 33.2173 29.5847V8.23149C33.2173 8.14504 33.1308 8.05859 33.0444 8.05859C32.9579 8.05859 32.8715 8.14504 32.8715 8.23149V29.5847C32.8427 29.6711 32.9291 29.7576 33.0444 29.7576Z" fill="#757679"/>
<path d="M10.3361 29.7576C10.4226 29.7576 10.509 29.6711 10.509 29.5847V8.23149C10.509 8.14504 10.4226 8.05859 10.3361 8.05859C10.2497 8.05859 10.1632 8.14504 10.1632 8.23149V29.5847C10.1632 29.6711 10.2497 29.7576 10.3361 29.7576Z" fill="#757679"/>
<path d="M5.03549 30.1601C5.17957 30.1601 5.26602 30.0448 5.26602 29.9295V10.824C5.29484 10.6511 5.55419 8.46107 7.60018 8.46107H35.7253C37.7713 8.46107 38.0594 10.6223 38.0594 10.824V29.9295C38.0594 30.0736 38.1747 30.1601 38.29 30.1601C38.4341 30.1601 38.5205 30.0448 38.5205 29.9295V10.824C38.5205 10.824 38.5205 10.824 38.5205 10.7952C38.5205 10.7664 38.2323 8 35.6965 8H7.57136C5.03548 8 4.74732 10.7664 4.74732 10.7952C4.74732 10.7952 4.74732 10.7952 4.74732 10.824V29.9295C4.80495 30.0448 4.92022 30.1601 5.03549 30.1601Z" fill="#757679"/>
<path d="M38.2034 28.4609H40.7393V44.022H38.2034V28.4609Z" fill="#141414"/>
<path d="M4.80532 44.278H38.9243V28.2559H4.80532L4.57479 32.0597V37.0738L4.80532 44.278Z" fill="#A892C5"/>
<path d="M4.57479 32.0608L4.71888 29.4961H38.9243V32.0608H4.57479Z" fill="#6D41A2"/>
<path d="M4.69006 29.7252L4.7477 29.3506H38.9243V29.7252H4.69006Z" fill="#A892C5"/>
<path d="M38.9243 37.1045V44.2799H4.80532L4.57479 37.1045H38.9243Z" fill="#A892C5"/>
<path d="M38.9243 41.9756V44.2809H4.80533L4.71888 41.9756H38.9243Z" fill="#A892C5"/>
<path d="M9.01226 44.3643C8.92581 43.8456 8.86818 43.3269 8.86818 42.7794C8.86818 37.8517 12.7296 33.875 17.5132 33.875C22.2968 33.875 26.1582 37.8517 26.1582 42.7794C26.1582 43.3269 26.1006 43.8456 26.0141 44.3643H9.01226Z" fill="#D7C8E9"/>
<path d="M10.3947 44.3647C10.337 43.9901 10.3082 43.6443 10.3082 43.2409C10.3082 39.1489 13.5357 35.835 17.5124 35.835C21.4891 35.835 24.7166 39.1489 24.7166 43.2409C24.7166 43.6155 24.6877 43.9901 24.6301 44.3647H10.3947Z" fill="#A280CC"/>
<path d="M17.3676 52.2623C13.9459 52.2623 11.172 49.4884 11.172 46.0667C11.172 42.645 13.9459 39.8711 17.3676 39.8711C20.7894 39.8711 23.5632 42.645 23.5632 46.0667C23.5632 49.4884 20.7894 52.2623 17.3676 52.2623Z" fill="#141414"/>
<path d="M17.3676 52.2623C13.9459 52.2623 11.172 49.4884 11.172 46.0667C11.172 42.645 13.9459 39.8711 17.3676 39.8711C20.7894 39.8711 23.5632 42.645 23.5632 46.0667C23.5632 49.4884 20.7894 52.2623 17.3676 52.2623Z" fill="#141414"/>
<path d="M17.3667 50.2748C15.0431 50.2748 13.1595 48.3912 13.1595 46.0676C13.1595 43.744 15.0431 41.8604 17.3667 41.8604C19.6903 41.8604 21.574 43.744 21.574 46.0676C21.574 48.3912 19.6903 50.2748 17.3667 50.2748Z" fill="#141414"/>
<path d="M17.3681 49.8986C15.2514 49.8986 13.5354 48.1827 13.5354 46.066C13.5354 43.9493 15.2514 42.2334 17.3681 42.2334C19.4848 42.2334 21.2007 43.9493 21.2007 46.066C21.2007 48.1827 19.4848 49.8986 17.3681 49.8986Z" fill="#D5D3CB"/>
<path d="M20.0475 44.624C20.2492 45.0275 20.3933 45.4885 20.3933 45.9496H19.6729C19.6729 45.6038 19.5576 45.258 19.4135 44.9698L20.0475 44.624Z" fill="#141414"/>
<path d="M19.3267 47.3018L19.9319 47.6476C19.6725 48.051 19.3555 48.368 18.9521 48.6273L18.6063 48.0222C18.8945 47.8205 19.1538 47.5899 19.3267 47.3018Z" fill="#141414"/>
<path d="M18.6063 44.0759L18.9521 43.4707C19.3555 43.7301 19.6725 44.047 19.9319 44.4505L19.3267 44.7963C19.1538 44.5081 18.8945 44.2776 18.6063 44.0759Z" fill="#141414"/>
<path d="M20.3933 46.1514C20.3645 46.6413 20.2492 47.0735 20.0475 47.4769L19.4424 47.1311C19.5864 46.843 19.7017 46.4972 19.7017 46.1514H20.3933Z" fill="#141414"/>
<path d="M15.9259 43.3839C16.3293 43.1822 16.7904 43.0381 17.2515 43.0381V43.7585C16.9057 43.7873 16.5599 43.8738 16.2717 44.0179L15.9259 43.3839Z" fill="#141414"/>
<path d="M14.342 45.9496C14.3708 45.4597 14.4861 45.0275 14.6878 44.624L15.293 44.9698C15.1489 45.258 15.0336 45.6038 15.0336 45.9496H14.342Z" fill="#141414"/>
<path d="M15.4073 44.7963L14.8021 44.4505C15.0615 44.047 15.3784 43.7301 15.7819 43.4707L16.1277 44.0759C15.8395 44.2776 15.5802 44.5081 15.4073 44.7963Z" fill="#141414"/>
<path d="M17.4537 43.0098C17.9436 43.0386 18.3759 43.1538 18.7793 43.3556L18.4335 43.9607C18.1453 43.8166 17.7995 43.7014 17.4537 43.7014V43.0098Z" fill="#141414"/>
<path d="M18.8059 48.715C18.4025 48.9167 17.9414 49.0608 17.4803 49.0608V48.3404C17.8261 48.3116 18.1719 48.2251 18.4601 48.0811L18.8059 48.715Z" fill="#141414"/>
<path d="M15.3218 47.1311L14.7166 47.4769C14.5149 47.0735 14.3708 46.6124 14.3708 46.1514H15.0912C15.0624 46.4972 15.1489 46.843 15.3218 47.1311Z" fill="#141414"/>
<path d="M16.1277 48.0222L15.7819 48.6273C15.3784 48.368 15.0615 48.051 14.8021 47.6476L15.4073 47.3018C15.5802 47.5899 15.8395 47.8205 16.1277 48.0222Z" fill="#141414"/>
<path d="M17.2822 49.0916C16.7923 49.0628 16.3601 48.9475 15.9567 48.7458L16.3025 48.1406C16.5906 48.2847 16.9364 48.4 17.2822 48.4V49.0916Z" fill="#141414"/>
<path d="M17.3669 47.9982C16.3006 47.9982 15.4362 47.1337 15.4362 46.0674C15.4362 45.0011 16.3006 44.1367 17.3669 44.1367C18.4332 44.1367 19.2976 45.0011 19.2976 46.0674C19.2976 47.1337 18.4332 47.9982 17.3669 47.9982Z" fill="#A8A7A1"/>
<path d="M35.6671 29.8422C35.6671 29.9863 35.7823 30.1303 35.9552 30.1303C36.0993 30.1303 36.2434 30.0151 36.2434 29.8422V28.8048C36.2434 28.6607 36.1281 28.5166 35.9552 28.5166C35.8112 28.5166 35.6671 28.6319 35.6671 28.8048V29.8422Z" fill="#8759BD"/>
<path d="M6.39022 29.8422C6.39022 29.9863 6.50549 30.1303 6.67839 30.1303C6.82247 30.1303 6.96655 30.0151 6.96655 29.8422V28.8048C6.96655 28.6607 6.85129 28.5166 6.67839 28.5166C6.5343 28.5166 6.39022 28.6319 6.39022 28.8048V29.8422Z" fill="#8759BD"/>
<path d="M25.9259 29.8422C25.9259 29.9863 26.0411 30.1303 26.214 30.1303C26.3581 30.1303 26.5022 30.0151 26.5022 29.8422V28.8048C26.5022 28.6607 26.3869 28.5166 26.214 28.5166C26.0699 28.5166 25.9259 28.6319 25.9259 28.8048V29.8422Z" fill="#8759BD"/>
<path d="M16.16 29.8422C16.16 29.9863 16.2753 30.1303 16.4482 30.1303C16.5922 30.1303 16.7363 30.0151 16.7363 29.8422V28.8048C16.7363 28.6607 16.6211 28.5166 16.4482 28.5166C16.3041 28.5166 16.16 28.6319 16.16 28.8048V29.8422Z" fill="#8759BD"/>
<path d="M4.54598 29.4373L4.80533 28.2559H38.9243V29.4373H4.54598Z" fill="#A892C5"/>
<path d="M4.7477 28.4288L4.80533 28.2559H38.9243V28.4288H4.7477Z" fill="#6D41A2"/>
<path d="M2.70154 39.8115C2.75917 39.7827 2.81681 39.7539 2.87444 39.7539H5.52558C5.75611 39.7827 5.98665 39.7827 6.21718 39.8404C6.39008 39.898 6.5918 40.0421 6.5918 40.4743V44.6816C6.56298 44.7392 6.53417 44.7968 6.47653 44.8256C6.44772 44.8545 6.41889 44.8833 6.39008 44.8833H6.01546C6.01546 44.8833 5.43913 44.9985 4.60345 44.6239C3.76776 44.2493 2.52864 41.7999 2.52864 41.7999L2.49982 40.0709C2.55745 39.9844 2.61509 39.8692 2.70154 39.8115Z" fill="#141414"/>
<path d="M2.55746 41.5982L2.52864 40.0709C2.55746 39.9556 2.61509 39.8692 2.70154 39.8115C2.75917 39.7827 2.81681 39.7539 2.87444 39.7539H5.52558C5.75611 39.7827 5.98665 39.7827 6.21718 39.8404C6.39008 39.898 6.5918 40.0421 6.5918 40.4743V41.5982H2.55746Z" fill="#141414"/>
<path d="M7.33933 30.9648H4.63056C4.63056 30.9648 4.45766 31.0225 4.42884 31.2242C4.40002 31.4259 4.42884 33.5295 4.42884 33.5295C4.42884 33.5295 4.40002 33.6736 4.57292 33.7024C4.74582 33.7312 7.82921 31.9158 7.82921 31.9158C7.82921 31.9158 9.09715 31.0801 7.33933 30.9648Z" fill="#FDBA1C"/>
<path opacity="0.3" d="M6.96692 30.9648H4.71922C4.71922 30.9648 4.57513 31.0225 4.54632 31.1954C4.5175 31.3683 4.54632 33.1261 4.54632 33.1261C4.54632 33.1261 4.5175 33.2702 4.66158 33.2702C4.80567 33.299 7.39917 31.7717 7.39917 31.7717C7.39917 31.7717 8.43657 31.0513 6.96692 30.9648Z" fill="white"/>
<path d="M6.12902 33.1293L4.51528 33.9362C4.51528 33.9362 4.42883 33.965 4.42883 34.1379V35.2906C4.42883 35.2906 4.40001 35.4347 4.5441 35.4635C4.68818 35.4923 5.98493 34.3685 5.98493 34.3685C5.98493 34.3685 6.12902 34.2532 6.21547 34.0227C6.2731 33.7921 6.35955 33.3023 6.35955 33.3023C6.35955 33.3023 6.41718 32.9853 6.12902 33.1293Z" fill="#A892C5"/>
<path d="M5.72631 33.3877L4.48719 34.0217C4.48719 34.0217 4.42956 34.0505 4.42956 34.1658V35.0303C4.42956 35.0303 4.40074 35.1456 4.516 35.1456C4.63127 35.1744 5.61104 34.3099 5.61104 34.3099C5.61104 34.3099 5.72631 34.2234 5.78395 34.0505C5.84158 33.8776 5.89921 33.503 5.89921 33.503C5.89921 33.503 5.92803 33.2725 5.72631 33.3877Z" fill="#E86408"/>
<path opacity="0.3" d="M4.43015 31.3683C4.43015 31.2818 4.43015 31.253 4.43015 31.2242C4.45897 31.0225 4.63188 30.9648 4.63188 30.9648H7.34064C8.06106 31.0225 8.29159 31.1954 8.26277 31.3971H4.43015V31.3683Z" fill="white"/>
<path opacity="0.3" d="M5.1498 34.0786C4.91927 34.2515 4.65992 34.4244 4.42938 34.5973V34.1362C4.42938 33.9633 4.51583 33.9345 4.51583 33.9345L6.12957 33.1276C6.30247 33.0412 6.33129 33.1276 6.36011 33.2141C5.92786 33.4734 5.55324 33.7904 5.1498 34.0786Z" fill="white"/>
<path d="M85.2308 32.6123C85.4037 34.1684 85.6055 35.7534 85.6631 37.3095C85.6055 37.3383 85.5478 37.3383 85.4902 37.3383L85.0003 32.4971C85.0003 32.4971 85.1156 32.5259 85.2308 32.6123Z" fill="#6D41A2"/>
<path d="M42.0068 44.5968C42.0068 45.0579 42.2085 45.4325 42.4967 45.4325H61.6022C61.8615 45.4325 62.092 45.0579 62.092 44.5968V43.0984C62.092 42.6373 61.8903 42.2627 61.6022 42.2627H42.4967C42.2373 42.2627 42.0068 42.6373 42.0068 43.0984V44.5968Z" fill="#141414"/>
<path d="M41.4303 45.2014C41.4303 45.5472 41.632 45.8353 41.8914 45.8353H62.2071C62.4665 45.8353 62.6682 45.5472 62.6682 45.2014C62.6682 44.8556 62.4665 44.5674 62.2071 44.5674H41.8914C41.632 44.5674 41.4303 44.8267 41.4303 45.2014Z" fill="#141414"/>
<path opacity="0.4" d="M41.4879 44.942C41.5744 44.7115 41.7185 44.5674 41.9202 44.5674H62.2072C62.4089 44.5674 62.553 44.7115 62.6394 44.942H41.4879Z" fill="#C4C4C4"/>
<path d="M39.5868 28.1729L65.032 29.6137C65.032 29.6137 83.8781 30.507 84.9443 32.1496C85.6936 32.7259 85.7512 37.2789 85.78 37.4806C85.78 38.4604 85.7512 39.469 85.78 40.4488C85.8088 42.3795 85.002 42.3795 83.1001 44.339C83.0424 44.3967 82.9272 44.3967 82.8695 44.4255L39.5868 44.2526V28.1729Z" fill="#A892C5"/>
<path d="M85.4916 37.1929C85.578 37.2505 85.6645 37.337 85.7798 37.3658C85.7798 37.3946 85.7798 37.4234 85.8086 37.481C85.8086 38.4608 85.7798 39.4694 85.8086 40.4492C85.8374 42.3799 85.0305 42.3799 83.1286 44.3394C83.071 44.3971 82.9557 44.3971 82.8981 44.4259L39.6154 44.253V37.1641H85.4916V37.1929Z" fill="#A892C5"/>
<path d="M39.5864 41.9746H85.4915C85.1168 42.6662 84.3388 43.0985 83.1285 44.3952C83.0709 44.4528 82.9556 44.4528 82.898 44.4817L39.6153 44.3088V41.9746H39.5864Z" fill="#A892C5"/>
<path d="M40.0495 16.5008C40.1071 16.4432 40.1936 16.4143 40.28 16.3855C45.6111 16.2703 49.3285 16.5008 52.6424 16.6737C55.8411 16.8466 67.0796 32.4076 67.0796 32.4076L39.6173 32.0618V17.25C39.6461 17.1059 39.6749 16.9907 39.7325 16.8466C39.7902 16.7313 39.8766 16.6161 40.0495 16.5008Z" fill="#A892C5"/>
<path d="M39.588 29.4355L67.7996 31.9714C64.4856 31.6833 52.0945 31.9138 39.588 32.0579V29.4355Z" fill="#6D41A2"/>
<path d="M41.2023 32.6378V34.5109C41.2023 34.5109 41.2311 34.8855 41.6633 34.7126C42.1244 34.5397 42.182 34.5109 42.182 34.5109C42.182 34.5109 42.4126 34.4532 42.499 34.1074C42.5855 33.7328 42.7007 31.5716 42.7007 31.5716C42.7007 31.5716 42.7584 31.2546 42.4126 30.7935C42.0668 30.3325 41.4904 30.3613 41.3464 30.5342C41.3464 30.5342 41.2887 30.5342 41.2023 30.8512C41.1446 31.1681 41.2023 32.6378 41.2023 32.6378Z" fill="#6D41A2"/>
<path d="M41.3186 31.0531L41.2897 34.1941C41.2897 34.1941 41.2897 34.5399 41.5203 34.5976C41.7508 34.6552 41.9525 34.4535 41.9813 33.9636C42.0102 33.4737 42.1254 31.6583 42.1254 31.6583C42.1254 31.6583 42.1831 30.9667 41.8949 30.765C41.6067 30.5344 41.3474 30.6497 41.3186 31.0531Z" fill="#A892C5"/>
<path d="M78.3165 39.9571C78.4894 39.7842 78.8352 39.7266 78.8352 39.7266H86.2123C86.27 39.7266 86.3276 39.7554 86.3564 39.7842C86.4429 39.8418 86.4717 39.9571 86.5005 40.0435L86.4717 41.7725C86.4717 41.7725 85.4631 44.222 84.7715 44.5966C84.0799 44.9712 83.6188 44.8559 83.6188 44.8559H78.4894C78.3454 44.7695 78.2589 44.6254 78.2013 44.4237L78.2589 44.3661C78.6335 42.954 78.7776 41.859 78.3165 39.9571Z" fill="#141414"/>
<path d="M78.5759 41.5996C78.5471 41.1098 78.4606 40.5911 78.3165 39.9571C78.4894 39.7842 78.8352 39.7266 78.8352 39.7266H86.2123C86.27 39.7266 86.3276 39.7554 86.3564 39.7842C86.4429 39.8418 86.4717 39.9571 86.5005 40.0435L86.4717 41.5708H78.5759V41.5996Z" fill="#141414"/>
<path d="M65.0315 44.3672C64.9451 43.8485 64.8875 43.3298 64.8875 42.7823C64.8875 37.8546 68.7489 33.8779 73.5325 33.8779C78.316 33.8779 82.1775 37.8546 82.1775 42.7823C82.1775 43.3298 82.1199 43.8485 82.0334 44.3672H65.0315Z" fill="#D7C8E9"/>
<path d="M66.4447 44.3667C66.3871 43.992 66.3582 43.6462 66.3582 43.2428C66.3582 39.1508 69.5857 35.8369 73.5624 35.8369C77.5391 35.8369 80.7666 39.1508 80.7666 43.2428C80.7666 43.6174 80.7378 43.992 80.6802 44.3667H66.4447Z" fill="#A280CC"/>
<path d="M73.4162 52.2623C69.9945 52.2623 67.2206 49.4884 67.2206 46.0667C67.2206 42.645 69.9945 39.8711 73.4162 39.8711C76.838 39.8711 79.6118 42.645 79.6118 46.0667C79.6118 49.4884 76.838 52.2623 73.4162 52.2623Z" fill="#141414"/>
<path d="M73.4162 52.2623C69.9945 52.2623 67.2206 49.4884 67.2206 46.0667C67.2206 42.645 69.9945 39.8711 73.4162 39.8711C76.838 39.8711 79.6118 42.645 79.6118 46.0667C79.6118 49.4884 76.838 52.2623 73.4162 52.2623Z" fill="#141414"/>
<path d="M73.4153 50.2748C71.0917 50.2748 69.2081 48.3912 69.2081 46.0676C69.2081 43.744 71.0917 41.8604 73.4153 41.8604C75.7389 41.8604 77.6226 43.744 77.6226 46.0676C77.6226 48.3912 75.7389 50.2748 73.4153 50.2748Z" fill="#141414"/>
<path d="M73.4169 49.8986C71.3002 49.8986 69.5843 48.1827 69.5843 46.066C69.5843 43.9493 71.3002 42.2334 73.4169 42.2334C75.5336 42.2334 77.2495 43.9493 77.2495 46.066C77.2495 48.1827 75.5336 49.8986 73.4169 49.8986Z" fill="#D5D3CB"/>
<path d="M76.0951 44.624C76.2968 45.0275 76.4409 45.4885 76.4409 45.9496H75.7205C75.6917 45.6038 75.6052 45.258 75.4612 44.9698L76.0951 44.624Z" fill="#141414"/>
<path d="M75.3743 47.3018L75.9795 47.6476C75.7201 48.051 75.4032 48.368 74.9997 48.6273L74.6539 48.0222C74.9421 47.8205 75.2014 47.5899 75.3743 47.3018Z" fill="#141414"/>
<path d="M74.6539 44.0759L74.9997 43.4707C75.4032 43.7301 75.7201 44.047 75.9795 44.4505L75.3743 44.7963C75.2014 44.5081 74.9421 44.2776 74.6539 44.0759Z" fill="#141414"/>
<path d="M76.4409 46.1514C76.4121 46.6413 76.2968 47.0735 76.0951 47.4769L75.49 47.1311C75.6341 46.843 75.7493 46.4972 75.7493 46.1514H76.4409Z" fill="#141414"/>
<path d="M71.9735 43.3839C72.3769 43.1822 72.838 43.0381 73.2991 43.0381V43.7585C72.9533 43.7873 72.6075 43.8738 72.3193 44.0179L71.9735 43.3839Z" fill="#141414"/>
<path d="M70.3896 45.9496C70.4184 45.4597 70.5337 45.0275 70.7354 44.624L71.3406 44.9698C71.1965 45.258 71.0812 45.6038 71.0812 45.9496H70.3896Z" fill="#141414"/>
<path d="M71.4568 44.7963L70.8517 44.4505C71.111 44.047 71.428 43.7301 71.8314 43.4707L72.1772 44.0759C71.8891 44.2776 71.6297 44.5081 71.4568 44.7963Z" fill="#141414"/>
<path d="M73.5013 43.0098C73.9912 43.0386 74.4235 43.1538 74.8269 43.3556L74.4811 43.9607C74.1929 43.8166 73.8471 43.7014 73.5013 43.7014V43.0098Z" fill="#141414"/>
<path d="M74.8269 48.715C74.4235 48.9167 73.9624 49.0608 73.5013 49.0608V48.3404C73.8471 48.3116 74.1929 48.2251 74.4811 48.0811L74.8269 48.715Z" fill="#141414"/>
<path d="M71.3406 47.1311L70.7354 47.4769C70.5337 47.0735 70.3896 46.6124 70.3896 46.1514H71.11C71.11 46.4972 71.1965 46.843 71.3406 47.1311Z" fill="#141414"/>
<path d="M72.1772 48.0222L71.8314 48.6273C71.428 48.368 71.111 48.051 70.8517 47.6476L71.4568 47.3018C71.6297 47.5899 71.8891 47.8205 72.1772 48.0222Z" fill="#141414"/>
<path d="M73.2991 49.0916C72.8092 49.0628 72.3769 48.9475 71.9735 48.7458L72.3193 48.1406C72.6075 48.2847 72.9533 48.4 73.2991 48.4V49.0916Z" fill="#141414"/>
<path d="M73.4155 47.9982C72.3492 47.9982 71.4847 47.1337 71.4847 46.0674C71.4847 45.0011 72.3492 44.1367 73.4155 44.1367C74.4818 44.1367 75.3462 45.0011 75.3462 46.0674C75.3462 47.1337 74.4818 47.9982 73.4155 47.9982Z" fill="#A8A7A1"/>
<path d="M42.9585 30.0737C42.6127 29.8432 42.4975 29.4974 42.4686 29.1228C42.4686 27.1344 42.5263 23.3018 42.6416 20.3625V20.3337C42.6416 20.2184 42.6416 20.132 42.6416 20.0167C42.6704 19.5268 42.6992 19.0657 42.6992 18.6623C42.6992 18.6335 42.728 18.6047 42.728 18.5759C42.9009 18.1436 43.3043 18.0283 43.7078 17.9707C46.2436 18.0283 52.5545 17.8266 53.9089 18.7488C53.9089 18.7488 54.7446 18.7776 58.1161 22.7831L63.6489 29.555C63.6489 29.555 63.793 30.7653 61.43 30.7941L43.8807 30.506C43.5637 30.3619 43.2467 30.2466 42.9585 30.0737Z" fill="#141414"/>
<path d="M51.4883 18.7491C51.4883 18.7491 53.5055 18.7202 54.3412 19.4983C55.1768 20.2763 61.8335 28.2874 61.8335 28.2874C61.8335 28.2874 63.2167 29.8147 62.0929 30.1893L46.4742 29.757C46.4742 29.757 44.1112 30.0452 44.1112 28.8637C44.1112 27.6822 44.457 19.8441 44.457 19.8441C44.457 19.8441 44.3418 18.4609 45.6385 18.4897L51.4883 18.7491Z" fill="#141414"/>
<path opacity="0.4" d="M62.064 30.159H61.92C57.9721 27.5943 53.3902 25.9518 48.8084 24.972C47.3099 24.655 45.7826 24.3957 44.2553 24.2228C44.3418 22.0039 44.457 19.8138 44.457 19.8138C44.457 19.8138 44.3418 18.4306 45.6385 18.4594L51.5171 18.7188C51.5171 18.7188 53.5343 18.69 54.37 19.468C55.2057 20.2461 61.8623 28.2571 61.8623 28.2571C61.8623 28.2571 63.2167 29.7844 62.064 30.159Z" fill="#141414"/>
<path d="M81.4284 36.7002C82.0047 36.6714 85.0593 36.6137 85.0016 36.8154C84.8864 37.1612 84.7423 37.3053 84.7423 37.3053L81.6013 37.3341C81.4572 37.3053 81.2843 36.7002 81.4284 36.7002Z" fill="#6D41A2"/>
<path opacity="0.5" d="M82.4369 36.7858C82.8403 36.7858 85.0016 36.7282 84.9439 36.8722C84.8575 37.1028 84.771 37.218 84.771 37.218L82.5521 37.2469C82.4369 37.218 82.3216 36.7858 82.4369 36.7858Z" fill="#6D41A2"/>
<path d="M62.8711 28.7178L64.2831 29.6687C64.2831 29.6687 64.9171 30.1298 64.456 30.6197C64.456 30.6197 64.2255 30.879 63.6491 30.879C63.044 30.879 61.8337 30.6197 61.8337 30.6197L62.8711 28.7178Z" fill="#141414"/>
<path d="M59.4974 27.966C59.872 27.1591 60.9671 27.2167 60.9671 27.2167C61.7739 27.2744 62.869 27.7642 63.33 28.4558C63.8487 29.2339 63.7911 30.9917 62.7825 30.8476C61.6298 30.6747 62.0621 30.79 60.2178 30.3866C59.7568 30.2713 59.0363 28.9457 59.4974 27.966Z" fill="#6D41A2"/>
<path d="M59.4996 27.9669C59.8742 27.1601 60.9692 27.2177 60.9692 27.2177C61.7761 27.2753 62.8712 27.7652 63.3322 28.4568C63.8509 29.2349 63.7933 30.9927 62.7847 30.8486C61.632 30.6757 62.0643 30.791 60.22 30.3875C59.7589 30.2723 59.0385 28.9467 59.4996 27.9669ZM60.854 29.8977C62.2948 30.2146 61.949 30.1282 62.8423 30.2435C63.6204 30.3587 63.6492 29.0043 63.2458 28.3992C62.9 27.8805 62.0355 27.477 61.4303 27.4482C61.4303 27.4482 60.5946 27.3906 60.3065 28.0246C59.9318 28.8026 60.4794 29.8112 60.854 29.8977Z" fill="#A892C5"/>
<path d="M84.4827 32.0322C84.4827 32.0322 85.6642 32.7815 85.7795 33.3866C85.8947 33.9918 86.0388 35.6631 86.0676 36.3547C86.0965 37.0463 85.8371 37.3633 85.4913 37.3921L84.8862 36.1818L84.4827 32.0322Z" fill="#F2BC19"/>
<path d="M84.8285 32.5801C84.8285 32.5801 85.6642 33.1276 85.7506 33.531C85.8371 33.9633 85.9235 35.1448 85.9523 35.6346C85.9811 36.1245 85.7794 36.3551 85.5201 36.3839L85.0878 35.5194L84.8285 32.5801Z" fill="#F2BC19"/>
</svg>
