<svg width="24" height="25" viewBox="0 0 24 25" fill="none" xmlns="http://www.w3.org/2000/svg">
<g clip-path="url(#clip0_2842_33154)">
<path fill-rule="evenodd" clip-rule="evenodd" d="M16.1052 14.0868C16.827 13.16 17.2576 11.9868 17.2576 10.7053C17.2576 7.71646 14.9037 5.29352 12 5.29352C9.09632 5.29352 6.74242 7.71646 6.74242 10.7053C6.74242 11.9867 7.17294 13.1598 7.89463 14.0865L7.89982 14.0932C8.05261 14.2892 8.19407 14.4955 8.34104 14.696C8.59629 15.0443 8.95624 15.5335 9.37445 16.0961C10.1538 17.1445 11.1273 18.4369 12.0006 19.5465C12.8767 18.4346 13.8524 17.1402 14.6333 16.0904C15.0522 15.5271 15.4128 15.0375 15.6684 14.6889C15.8146 14.4894 15.9534 14.2817 16.1052 14.0868ZM17.4672 15.2107C17.4672 15.2107 17.4657 15.2127 17.4647 15.2142C17.4201 15.2756 17.0104 15.839 16.4167 16.6415C15.536 17.832 14.2504 19.5486 13.1513 20.9324C12.55 21.6894 11.4502 21.6891 10.8493 20.9318C8.97065 18.5642 6.54097 15.2159 6.54097 15.2159L6.5353 15.2086C5.57463 13.9751 5 12.4092 5 10.7053C5 6.72592 8.13401 3.5 12 3.5C15.866 3.5 19 6.72592 19 10.7053C19 11.7655 18.7775 12.7722 18.3781 13.6787C18.1364 14.227 17.8299 14.7387 17.4688 15.2034L17.4647 15.2086H17.4688L17.4672 15.2107Z" fill="#0F1110"/>
<path fill-rule="evenodd" clip-rule="evenodd" d="M12 11.5709C12.4812 11.5709 12.8712 11.1694 12.8712 10.6741C12.8712 10.1788 12.4812 9.77734 12 9.77734C11.5189 9.77734 11.1288 10.1788 11.1288 10.6741C11.1288 11.1694 11.5189 11.5709 12 11.5709ZM14.6137 10.6741C14.6137 12.1599 13.4435 13.3644 12 13.3644C10.5566 13.3644 9.38639 12.1599 9.38639 10.6741C9.38639 9.18829 10.5566 7.98381 12 7.98381C13.4435 7.98381 14.6137 9.18829 14.6137 10.6741Z" fill="#0F1110"/>
</g>
<defs>
<clipPath id="clip0_2842_33154">
<rect width="24" height="24" fill="white" transform="translate(0 0.5)"/>
</clipPath>
</defs>
</svg>
