<svg width="39" height="38" viewBox="0 0 39 38" fill="none" xmlns="http://www.w3.org/2000/svg">
<path fill-rule="evenodd" clip-rule="evenodd" d="M7.92188 0C3.82289 0 0.5 3.32289 0.5 7.42188V30.5781C0.5 34.6771 3.82289 38 7.92188 38H31.0781C35.1771 38 38.5 34.6771 38.5 30.5781V7.42188C38.5 3.32289 35.1771 0 31.0781 0H7.92188ZM26.3217 13.7714C26.3217 17.8725 23.0002 21.1971 18.9029 21.1971C14.8057 21.1971 11.4842 17.8725 11.4842 13.7714C11.4842 9.67034 14.8057 6.34575 18.9029 6.34575C23.0002 6.34575 26.3217 9.67034 26.3217 13.7714ZM14.8877 13.7714C14.8877 15.991 16.6854 17.7904 18.9029 17.7904C21.1205 17.7904 22.9181 15.991 22.9181 13.7714C22.9181 11.5518 21.1205 9.75246 18.9029 9.75246C16.6854 9.75246 14.8877 11.5518 14.8877 13.7714ZM12.2005 28.0507C12.2005 29.9816 13.7644 31.5474 15.6939 31.5474V23.7896C15.6939 21.8586 14.13 20.2929 12.2005 20.2929V28.0507ZM22.9947 29.591C23.7305 31.2326 24.2553 32.4034 27.5154 31.1008L24.3143 24.0356C23.5175 22.277 21.4472 21.4976 19.6899 22.2953L22.8911 29.3605C22.9261 29.4379 22.9605 29.5146 22.9944 29.5902L22.9947 29.591ZM16.9417 13.174C16.9417 14.0493 18.1668 15.6466 18.7213 16.3246C18.8592 16.4934 19.1172 16.4934 19.2551 16.3246C19.8096 15.6466 21.0348 14.0493 21.0348 13.174C21.0348 12.0426 20.1185 11.1255 18.9882 11.1255C17.8579 11.1255 16.9417 12.0426 16.9417 13.174ZM18.9882 14.3164C18.3578 14.3164 17.8468 13.8049 17.8468 13.174C17.8468 12.543 18.3578 12.0315 18.9882 12.0315C19.6185 12.0315 20.1296 12.543 20.1296 13.174C20.1296 13.8049 19.6185 14.3164 18.9882 14.3164Z" fill="#6D41A2"/>
</svg>
