<svg width="31" height="31" viewBox="0 0 31 31" fill="none" xmlns="http://www.w3.org/2000/svg">
<path d="M23.9375 6.75H10.8125C9.26562 6.75 8 8.01562 8 9.5625V19.875H26.75V9.5625C26.75 8.01562 25.4844 6.75 23.9375 6.75ZM24.875 18H9.875V9.5625C9.875 9.04688 10.2969 8.625 10.8125 8.625H23.9375C24.4531 8.625 24.875 9.04688 24.875 9.5625V18ZM6.125 21.75H23V23.625H4.25V13.3125C4.25 12.0938 5.0375 11.0625 6.125 10.6687V21.75ZM17.375 10.5C15.8281 10.5 14.5625 11.7656 14.5625 13.3125C14.5625 14.8594 15.8281 16.125 17.375 16.125C18.9219 16.125 20.1875 14.8594 20.1875 13.3125C20.1875 11.7656 18.9219 10.5 17.375 10.5ZM17.375 14.25C16.8594 14.25 16.4375 13.8281 16.4375 13.3125C16.4375 12.7969 16.8594 12.375 17.375 12.375C17.8906 12.375 18.3125 12.7969 18.3125 13.3125C18.3125 13.8281 17.8906 14.25 17.375 14.25ZM13.625 10.9688C13.625 11.7469 12.9969 12.375 12.2188 12.375C11.4406 12.375 10.8125 11.7469 10.8125 10.9688C10.8125 10.1906 11.4406 9.5625 12.2188 9.5625C12.9969 9.5625 13.625 10.1906 13.625 10.9688ZM13.625 15.6562C13.625 16.4344 12.9969 17.0625 12.2188 17.0625C11.4406 17.0625 10.8125 16.4344 10.8125 15.6562C10.8125 14.8781 11.4406 14.25 12.2188 14.25C12.9969 14.25 13.625 14.8781 13.625 15.6562ZM23.9375 10.9688C23.9375 11.7469 23.3094 12.375 22.5312 12.375C21.7531 12.375 21.125 11.7469 21.125 10.9688C21.125 10.1906 21.7531 9.5625 22.5312 9.5625C23.3094 9.5625 23.9375 10.1906 23.9375 10.9688ZM23.9375 15.6562C23.9375 16.4344 23.3094 17.0625 22.5312 17.0625C21.7531 17.0625 21.125 16.4344 21.125 15.6562C21.125 14.8781 21.7531 14.25 22.5312 14.25C23.3094 14.25 23.9375 14.8781 23.9375 15.6562Z" fill="#FAF8FC"/>
</svg>
