<svg width="28" height="28" viewBox="0 0 28 28" fill="none" xmlns="http://www.w3.org/2000/svg">
<g clip-path="url(#clip0_2930_32860)">
<path fill-rule="evenodd" clip-rule="evenodd" d="M5.81677 4.90373L9.94777 3.62648C10.5365 3.44443 11.1596 3.45918 11.741 3.66893L16.259 5.29863C16.8404 5.50838 17.4635 5.52314 18.0522 5.34109L21.1806 4.37382C22.8514 3.85725 24.5 5.27457 24.5 7.22745V19.6719C24.5 21.2713 23.5515 22.6732 22.1832 23.0963L18.0522 24.3735C17.4635 24.5556 16.8404 24.5408 16.259 24.3311L11.741 22.7014C11.1596 22.4916 10.5365 22.4769 9.94777 22.6589L6.81936 23.6262C5.14863 24.1427 3.5 22.7254 3.5 20.7726V8.32808C3.5 6.72875 4.44851 5.32678 5.81677 4.90373ZM6.37226 7.18663L9.8 6.12682V20.2694C9.66324 20.2988 9.52722 20.3343 9.39229 20.376L6.26387 21.3433C5.92973 21.4466 5.6 21.1631 5.6 20.7726V8.32808C5.6 7.79497 5.91617 7.32765 6.37226 7.18663ZM12.3811 20.4468C12.2224 20.3895 12.0618 20.341 11.9 20.3012V6.21174L15.6189 7.55323C15.7776 7.61047 15.9382 7.659 16.1 7.6988V21.7883L12.3811 20.4468ZM18.2 21.8732L21.6277 20.8134C22.0838 20.6723 22.4 20.205 22.4 19.6719V7.22745C22.4 6.83687 22.0703 6.55341 21.7361 6.65672L18.6077 7.62399C18.4728 7.66571 18.3368 7.70123 18.2 7.73056V21.8732Z" fill="#0F1110"/>
</g>
<defs>
<clipPath id="clip0_2930_32860">
<rect width="28" height="28" fill="white"/>
</clipPath>
</defs>
</svg>
