<svg width="28" height="28" viewBox="0 0 28 28" fill="none" xmlns="http://www.w3.org/2000/svg">
<path fill-rule="evenodd" clip-rule="evenodd" d="M4.66699 18.8257C4.66699 18.4258 4.81138 18.0431 5.06705 17.7653L6.02741 16.7218C6.39299 16.3245 6.59878 15.7768 6.59726 15.205L6.58842 11.8943C6.57606 7.26235 9.91035 3.5 14.0277 3.5C18.1363 3.5 21.467 7.24702 21.467 11.8692L21.467 15.2302C21.467 15.7871 21.6637 16.3212 22.0137 16.7151L22.9471 17.7651C23.1946 18.0436 23.3337 18.4213 23.3337 18.8151C23.3337 19.6352 22.7427 20.3 22.0137 20.3H17.7337C17.7337 22.6196 16.0622 24.5 14.0003 24.5C11.9385 24.5 10.267 22.6196 10.267 20.3H5.97747C5.25371 20.3 4.66699 19.6399 4.66699 18.8257ZM12.1337 20.3C12.1337 21.4598 12.9694 22.4 14.0003 22.4C15.0313 22.4 15.867 21.4598 15.867 20.3H12.1337ZM19.6003 15.2302C19.6003 16.3441 19.9937 17.4123 20.6938 18.2L7.3536 18.2C8.0664 17.4083 8.46692 16.3269 8.46391 15.1987L8.45508 11.888C8.44582 8.4183 10.9435 5.6 14.0277 5.6C17.1054 5.6 19.6003 8.40682 19.6003 11.8692L19.6003 15.2302Z" fill="#0F1110"/>
</svg>
