<svg width="30" height="30" viewBox="0 0 30 30" fill="none" xmlns="http://www.w3.org/2000/svg">
<path fill-rule="evenodd" clip-rule="evenodd" d="M5.28613 20.0225C5.28613 19.6063 5.43642 19.208 5.70252 18.9188L6.70208 17.8327C7.08258 17.4193 7.29677 16.8492 7.29518 16.254L7.28599 12.8082C7.27312 7.9872 10.7435 4.07129 15.0289 4.07129C19.3052 4.07129 22.7718 7.97125 22.7718 12.7821L22.7718 16.2802C22.7718 16.8599 22.9765 17.4159 23.3409 17.8258L24.3123 18.9186C24.57 19.2085 24.7147 19.6016 24.7147 20.0115C24.7147 20.865 24.0996 21.557 23.3409 21.557H18.8861C18.8861 23.9713 17.1464 25.9284 15.0004 25.9284C12.8544 25.9284 11.1147 23.9713 11.1147 21.557H6.6501C5.8968 21.557 5.28613 20.87 5.28613 20.0225ZM13.0576 21.557C13.0576 22.7641 13.9274 23.7427 15.0004 23.7427C16.0734 23.7427 16.9433 22.7641 16.9433 21.557H13.0576ZM20.829 16.2802C20.829 17.4396 21.2384 18.5515 21.9671 19.3713L8.0824 19.3713C8.82429 18.5472 9.24116 17.4217 9.23803 16.2475L9.22884 12.8017C9.2192 9.19034 11.8188 6.257 15.0289 6.257C18.2322 6.257 20.829 9.17839 20.829 12.7821L20.829 16.2802Z" fill="#5E5F64"/>
</svg>
