<svg width="24" height="24" viewBox="0 0 24 24" fill="none" xmlns="http://www.w3.org/2000/svg">
<g clip-path="url(#clip0_2997_6102)">
<circle cx="12" cy="12" r="9" fill="#06A3FE"/>
</g>
<path d="M8.58851 16.3122C8.34051 16.3122 8.13251 16.2562 7.96451 16.1442C7.79651 16.0242 7.69251 15.8642 7.65251 15.6642C7.61251 15.4562 7.64851 15.2242 7.76051 14.9682L10.7485 8.53623C10.8925 8.22423 11.0685 7.99623 11.2765 7.85223C11.4925 7.70823 11.7365 7.63623 12.0085 7.63623C12.2805 7.63623 12.5165 7.70823 12.7165 7.85223C12.9245 7.99623 13.1045 8.22423 13.2565 8.53623L16.2445 14.9682C16.3725 15.2242 16.4165 15.4562 16.3765 15.6642C16.3445 15.8722 16.2445 16.0322 16.0765 16.1442C15.9165 16.2562 15.7165 16.3122 15.4765 16.3122C15.1565 16.3122 14.9085 16.2402 14.7325 16.0962C14.5645 15.9522 14.4125 15.7202 14.2765 15.4002L13.6285 13.8762L14.4685 14.4882H9.52451L10.3765 13.8762L9.72851 15.4002C9.58451 15.7202 9.43651 15.9522 9.28451 16.0962C9.13251 16.2402 8.90051 16.3122 8.58851 16.3122ZM11.9845 10.0482L10.5925 13.3722L10.2565 12.7962H13.7485L13.4125 13.3722L12.0085 10.0482H11.9845Z" fill="#FAF8FC"/>
<defs>
<clipPath id="clip0_2997_6102">
<rect width="24" height="24" fill="white"/>
</clipPath>
</defs>
</svg>
