<svg width="24" height="24" viewBox="0 0 24 24" fill="none" xmlns="http://www.w3.org/2000/svg">
<g clip-path="url(#clip0_2997_37343)">
<circle cx="12" cy="12" r="9" fill="#6D41A2"/>
</g>
<path d="M9.87954 16.0967C9.50354 16.0967 9.21554 16.0007 9.01554 15.8087C8.82354 15.6087 8.72754 15.3247 8.72754 14.9567V8.77672C8.72754 8.40872 8.82354 8.12872 9.01554 7.93672C9.21554 7.73672 9.50354 7.63672 9.87954 7.63672H12.8075C13.4155 7.63672 13.9315 7.72872 14.3555 7.91272C14.7875 8.08872 15.1155 8.34072 15.3395 8.66872C15.5635 8.99672 15.6755 9.38072 15.6755 9.82072C15.6755 10.3167 15.5315 10.7407 15.2435 11.0927C14.9635 11.4447 14.5795 11.6847 14.0915 11.8127V11.6207C14.6675 11.7247 15.1115 11.9567 15.4235 12.3167C15.7435 12.6767 15.9035 13.1367 15.9035 13.6967C15.9035 14.4407 15.6355 15.0287 15.0995 15.4607C14.5715 15.8847 13.8475 16.0967 12.9275 16.0967H9.87954ZM10.8395 14.4767H12.6275C13.0355 14.4767 13.3315 14.4007 13.5155 14.2487C13.7075 14.0887 13.8035 13.8527 13.8035 13.5407C13.8035 13.2287 13.7075 12.9967 13.5155 12.8447C13.3315 12.6927 13.0355 12.6167 12.6275 12.6167H10.8395V14.4767ZM10.8395 10.9967H12.4115C12.8115 10.9967 13.1035 10.9247 13.2875 10.7807C13.4795 10.6367 13.5755 10.4167 13.5755 10.1207C13.5755 9.82472 13.4795 9.60872 13.2875 9.47272C13.1035 9.32872 12.8115 9.25672 12.4115 9.25672H10.8395V10.9967Z" fill="#FAF8FC"/>
<defs>
<clipPath id="clip0_2997_37343">
<rect width="24" height="24" fill="white"/>
</clipPath>
</defs>
</svg>
