<svg width="28" height="28" viewBox="0 0 28 28" fill="none" xmlns="http://www.w3.org/2000/svg">
<g clip-path="url(#clip0_2930_42366)">
<path fill-rule="evenodd" clip-rule="evenodd" d="M15.0423 8.61147L14 5.6658L12.9577 8.61147C12.3522 10.3228 10.7264 11.4831 8.88255 11.52L5.70863 11.5835L8.23836 13.4676C9.70802 14.5621 10.329 16.4395 9.79493 18.1737L8.87565 21.1586L11.4814 19.3773C12.9952 18.3425 15.0048 18.3425 16.5186 19.3773L19.1243 21.1586L18.2051 18.1736C17.671 16.4395 18.292 14.5621 19.7616 13.4676L22.2914 11.5835L19.1174 11.52C17.2736 11.4831 15.6478 10.3228 15.0423 8.61147ZM16.0825 4.9547C15.3962 3.0151 12.6038 3.0151 11.9175 4.95471L10.8752 7.90037C10.5724 8.75602 9.75957 9.33617 8.83763 9.35463L5.66371 9.41816C3.57381 9.46 2.71093 12.0688 4.37666 13.3094L6.9064 15.1934C7.64122 15.7407 7.95171 16.6794 7.68468 17.5465L6.7654 20.5314C6.16009 22.4969 8.41914 24.1092 10.1349 22.9363L12.7407 21.1551C13.4976 20.6377 14.5024 20.6377 15.2593 21.1551L17.8651 22.9363C19.5809 24.1092 21.8399 22.4969 21.2346 20.5314L20.3153 17.5465C20.0483 16.6794 20.3588 15.7407 21.0936 15.1934L23.6233 13.3094C25.2891 12.0688 24.4262 9.46 22.3363 9.41816L19.1624 9.35463C18.2404 9.33617 17.4276 8.75601 17.1248 7.90037L16.0825 4.9547Z" fill="#0F1110"/>
</g>
<defs>
<clipPath id="clip0_2930_42366">
<rect width="28" height="28" fill="white"/>
</clipPath>
</defs>
</svg>
