<svg width="68" height="34" viewBox="0 0 68 34" fill="none" xmlns="http://www.w3.org/2000/svg">
<path d="M38.8576 27.9284H29.1433C26.465 27.9284 24.2861 25.8857 24.2861 23.3749V10.6249C24.2861 8.11402 26.465 6.07129 29.1433 6.07129H38.8576C41.5358 6.07129 43.7147 8.11402 43.7147 10.6249V23.3749C43.7147 25.8857 41.5358 27.9284 38.8576 27.9284ZM29.1433 7.89272C27.5365 7.89272 26.229 9.11854 26.229 10.6249V23.3749C26.229 24.8812 27.5365 26.107 29.1433 26.107H38.8576C40.4643 26.107 41.7718 24.8812 41.7718 23.3749V10.6249C41.7718 9.11854 40.4643 7.89272 38.8576 7.89272H29.1433ZM39.829 11.5356C39.829 11.0329 39.3938 10.6249 38.8576 10.6249H34.9718C34.4356 10.6249 34.0004 11.0329 34.0004 11.5356C34.0004 12.0383 34.4356 12.4463 34.9718 12.4463H38.8576C39.3938 12.4463 39.829 12.0383 39.829 11.5356ZM39.829 16.9999C39.829 16.4971 39.3938 16.0891 38.8576 16.0891H34.9718C34.4356 16.0891 34.0004 16.4971 34.0004 16.9999C34.0004 17.5026 34.4356 17.9106 34.9718 17.9106H38.8576C39.3938 17.9106 39.829 17.5026 39.829 16.9999ZM39.829 22.4641C39.829 21.9614 39.3938 21.5534 38.8576 21.5534H34.9718C34.4356 21.5534 34.0004 21.9614 34.0004 22.4641C34.0004 22.9669 34.4356 23.3749 34.9718 23.3749H38.8576C39.3938 23.3749 39.829 22.9669 39.829 22.4641ZM32.0576 12.4463V10.6249C32.0576 10.1221 31.6224 9.71415 31.0861 9.71415H29.1433C28.607 9.71415 28.1718 10.1221 28.1718 10.6249V12.4463C28.1718 12.949 28.607 13.357 29.1433 13.357H31.0861C31.6224 13.357 32.0576 12.949 32.0576 12.4463ZM32.0576 17.9106V16.0891C32.0576 15.5864 31.6224 15.1784 31.0861 15.1784H29.1433C28.607 15.1784 28.1718 15.5864 28.1718 16.0891V17.9106C28.1718 18.4133 28.607 18.8213 29.1433 18.8213H31.0861C31.6224 18.8213 32.0576 18.4133 32.0576 17.9106ZM32.0576 23.3749V21.5534C32.0576 21.0507 31.6224 20.6427 31.0861 20.6427H29.1433C28.607 20.6427 28.1718 21.0507 28.1718 21.5534V23.3749C28.1718 23.8776 28.607 24.2856 29.1433 24.2856H31.0861C31.6224 24.2856 32.0576 23.8776 32.0576 23.3749Z" fill="#5E5F64"/>
</svg>
