<svg width="115" height="64" viewBox="0 0 115 64" fill="none" xmlns="http://www.w3.org/2000/svg">
<path d="M113.374 60.9775H46.3394C47.9613 60.7372 49.2283 59.4875 49.3956 57.9308C49.4083 57.8151 49.4144 57.698 49.4144 57.5791V57.5335H76.901C77.478 57.5335 77.9251 57.0901 77.9255 56.5633C77.9255 56.5198 77.9228 56.4759 77.9163 56.4313C77.8924 56.2602 77.8758 56.0873 77.8662 55.9122C81.3687 55.8542 87.4094 55.736 90.7597 55.6697C90.7528 55.7835 90.7435 55.8966 90.7312 56.009C90.7308 56.0119 90.7304 56.0148 90.7301 56.0173C90.7301 56.0177 90.7301 56.0177 90.7301 56.0177C90.7293 56.0257 90.7285 56.0336 90.7274 56.0416C90.7224 56.0869 90.7197 56.1315 90.7197 56.1758C90.7185 56.841 91.2863 57.3975 92.0109 57.3975H97.0028C97.9105 57.3975 98.6464 56.7054 98.6464 55.8516V55.5971V54.6368C98.6464 54.3801 98.4841 54.1582 98.2497 54.0582V51.6016C98.2497 51.0582 98.2127 50.5148 98.126 49.9771C97.6176 46.8242 95.9744 46.1618 91.1128 45.2475C85.7486 44.2382 78.9385 40.9478 78.9385 40.9478C78.9385 40.9478 67.3234 35.5953 64.4781 34.9808C62.7813 34.6147 59.608 34.5291 56.0769 34.5291C53.9049 34.5291 51.598 34.5618 49.4144 34.5806V15.8716H50.8938V23.9402H52.8707V26.7042H54.2345V32.3568H55.8703V14.2279H56.7568V11.3892H64.5282V14.2279H65.4147V27.6808L68.0053 27.6167V19.0093H75.3677L75.6984 35.1889L76.7993 35.1248V29.6635H79.1856V25.3675H80.6171V22.4817H86.2072V25.3675H87.6388V29.6635H90.0251V39.7449L92.0703 39.6808V29.682H98.9069V39.0891V40.6172H103.082V35.8716H108.128V46.5294H113.374V60.9775Z" fill="#6D41A2" fill-opacity="0.1"/>
<path d="M24.3339 60.6602C24.3339 60.6602 21.7776 46.7866 20.744 45.3539C19.9593 44.2663 19.0697 45.6095 18.4129 46.9523C17.8739 48.0544 17.4916 49.1562 17.4526 48.9158C16.6345 43.8726 16.8057 37.5119 12.9793 36.5479C10.8043 36.0001 13.1231 41.2982 12.853 42.6635C12.5829 44.0285 8.9646 39.1549 6.73611 36.5762C4.50765 33.9978 3.14309 35.4204 4.43487 38.5487C5.68399 41.5734 10.2091 45.1179 9.19614 45.4213C8.75122 45.5547 7.40582 44.8163 5.9644 44.0781C4.12413 43.1355 2.12725 42.193 1.64725 43.0638C0.597716 44.9682 9.34743 48.3292 8.46953 48.7084C8.12202 48.8585 7.25892 48.6697 6.34291 48.4811C4.94486 48.1933 3.4235 47.9054 3.4235 48.8216C3.4235 50.3384 9.18315 50.7176 9.03333 51.3734C8.91831 51.877 8.04423 51.5304 7.12679 51.1838C6.10948 50.7996 5.03879 50.4153 4.8902 51.19C4.60116 52.6971 9.80168 52.8113 9.62002 53.9902C9.51564 54.6674 8.20581 53.9583 7.96888 54.8897C7.42864 57.0134 15.6235 59.9887 15.6235 59.9887L24.3339 60.6602Z" fill="#8E71B3"/>
<path d="M28.412 61.0195C27.372 59.747 21.2287 52.629 17.5101 51.4928C13.4054 50.2388 17.274 55.2197 17.274 55.2197C17.274 55.2197 9.99241 47.7054 7.3203 48.3826C4.87087 49.0037 7.3203 53.6615 7.3203 53.6615C7.3203 53.6615 4.56151 51.0824 1.21595 51.0824C-2.04009 51.0824 3.58043 60.5297 3.8788 61.0195H28.412Z" fill="#6D41A2" fill-opacity="0.1"/>
<path d="M61.4142 21.544C61.4142 22.9967 60.1626 24.1738 58.6182 24.1738C57.0741 24.1738 55.8225 22.9967 55.8225 21.544C55.8225 20.0917 57.0741 18.9142 58.6182 18.9142C60.1626 18.9142 61.4142 20.0917 61.4142 21.544Z" fill="#EBEBEB"/>
<path d="M82.9636 18.3455C82.8754 19.0003 83.6008 19.5201 84.2456 19.4792C84.9587 19.4339 85.5635 18.8839 85.6675 18.2248C85.7805 17.5117 85.3249 16.9411 84.6199 16.8889C83.9338 16.8381 83.4948 17.4127 83.6929 17.9924C83.8347 18.4079 84.2383 18.5627 84.4414 18.4481C84.5999 18.3589 84.5902 18.1335 84.3986 18.0936C84.3216 18.0776 84.2425 18.1179 84.2017 18.1733C84.034 18.1106 83.8741 17.8235 83.9824 17.5128C84.1211 17.1165 84.6538 17.0941 84.9845 17.279C85.4058 17.5142 85.4721 18.0207 85.3175 18.4246C85.1553 18.8487 84.7128 19.1826 84.231 19.2145C83.6848 19.2511 83.2045 18.8574 83.1606 18.3459C83.1506 18.2252 82.9794 18.2281 82.9636 18.3455Z" fill="#6D41A2"/>
<path d="M95.1881 16.154L95.646 15.182L95.0543 14.2764C94.9869 14.1735 95.0748 14.0422 95.2027 14.0545L96.3271 14.164L97.0598 13.3545C97.1434 13.2624 97.303 13.3005 97.33 13.4187L97.567 14.458L98.6116 14.8637C98.7307 14.9101 98.7419 15.0646 98.6305 15.1251L97.6526 15.6584L97.5651 16.7185C97.5555 16.8392 97.4025 16.8968 97.3065 16.816L96.4654 16.1058L95.3665 16.3552C95.2417 16.3838 95.136 16.2649 95.1881 16.154Z" fill="#6D41A2"/>
<path d="M52.3137 9.27025L52.6571 8.54119L52.2131 7.8618C52.1626 7.78458 52.2285 7.68634 52.3245 7.6954L53.1679 7.77733L53.7175 7.17045C53.7803 7.1012 53.8998 7.12984 53.9203 7.21867L54.0979 7.99812L54.8816 8.30265C54.971 8.33709 54.9791 8.4531 54.8958 8.49878L54.1623 8.89865L54.0968 9.69369C54.0891 9.78433 53.9746 9.82747 53.9029 9.76656L53.2716 9.23436L52.4475 9.42143C52.3538 9.44246 52.2744 9.35327 52.3137 9.27025Z" fill="#6D41A2"/>
<path d="M102.878 24.5674L103.364 23.7365L104.872 24.3245L105.742 23.1923L106.947 23.4587L107.091 22.8852L105.479 22.5285L104.654 23.6016L103.086 22.9896L102.354 24.24L102.878 24.5674Z" fill="#7853A2"/>
<path d="M63.3236 6.63873L62.4672 6.1377L63.1725 4.75281L62.0166 3.87512L62.3639 2.75742L61.7626 2.5921L61.2977 4.08648L62.3932 4.9185L61.6597 6.35921L62.9482 7.11328L63.3236 6.63873Z" fill="#6D41A2"/>
<path d="M76.8798 11.5396L77.4464 10.6703L76.5452 10.3266L75.9786 11.196L76.8798 11.5396ZM74.5833 12.3155L75.2169 11.3471L74.7082 11.1532C74.5968 11.1108 74.5428 10.9911 74.5883 10.8864C74.6334 10.7816 74.7602 10.7312 74.8716 10.7736L75.4586 10.9977L76.0252 10.1283L75.4814 9.92093C75.37 9.87815 75.3164 9.75887 75.3615 9.6541C75.407 9.54933 75.5338 9.49893 75.6452 9.54135L76.2665 9.77845L76.9249 8.78293C76.9808 8.69809 77.0933 8.66365 77.1912 8.70136L77.286 8.73761C77.4109 8.7851 77.4602 8.92613 77.3901 9.03416L76.778 9.97349L77.6792 10.3172L78.3371 9.32166C78.393 9.23719 78.5056 9.20274 78.6039 9.24009L78.7076 9.2796C78.8321 9.32709 78.8814 9.46848 78.8112 9.57615L78.1991 10.5155L78.7079 10.7098C78.8193 10.7522 78.8733 10.8715 78.8278 10.9763C78.7827 11.081 78.6559 11.1314 78.5445 11.089L77.9575 10.8653L77.3997 11.738L77.9432 11.9453C78.0546 11.9877 78.1082 12.107 78.0631 12.2118C78.018 12.3166 77.8912 12.3673 77.7798 12.3245L77.1581 12.0874L76.4858 13.1145C76.4303 13.1997 76.3174 13.2345 76.2187 13.1968L76.1077 13.1544C75.9832 13.1069 75.9339 12.9651 76.0044 12.8575L76.6381 11.8891L75.7369 11.5454L75.0647 12.5725C75.0092 12.6573 74.8963 12.6921 74.7976 12.6548L74.6866 12.6124C74.5621 12.5649 74.5127 12.4231 74.5833 12.3155Z" fill="#7853A2"/>
<path d="M47.01 2.20539L47.0019 2.20321C46.9291 2.1782 46.8547 2.15608 46.7792 2.13578C46.7537 2.12889 46.7283 2.12164 46.7021 2.11511C46.6751 2.10823 46.6473 2.10206 46.62 2.0959C46.5922 2.08973 46.5641 2.08357 46.5359 2.07777C46.5094 2.07233 46.4828 2.06762 46.4562 2.06291C46.4261 2.05747 46.396 2.05204 46.366 2.04732C46.3401 2.04333 46.3143 2.0397 46.2885 2.03608C46.2561 2.03173 46.2234 2.02811 46.1902 2.02448C46.1663 2.02194 46.1424 2.01904 46.1185 2.01687C46.0807 2.0136 46.043 2.01106 46.0052 2.00889C45.9851 2.00744 45.9651 2.00599 45.9451 2.0049C45.8869 2.00237 45.8283 2.00092 45.7693 2.00092H18.7377C18.6748 2.00092 18.6123 2.00236 18.5501 2.00526C18.4259 2.01143 18.3033 2.02303 18.1826 2.04043C18.1223 2.04913 18.0624 2.05928 18.0031 2.07089C16.4608 2.36853 15.2733 3.58592 15.1115 5.08936C15.099 5.20501 15.0927 5.32211 15.0927 5.44102V47.8939V57.5794C15.0927 59.0684 16.0949 60.3358 17.4973 60.8151C17.5035 60.8169 17.5098 60.8187 17.516 60.8209C17.5855 60.8444 17.6562 60.8655 17.7276 60.8847C17.7534 60.8916 17.779 60.8988 17.805 60.9053C17.8322 60.9122 17.8597 60.9184 17.8872 60.9245C17.9151 60.9307 17.943 60.9369 17.9711 60.9427C17.9976 60.9481 18.0244 60.9528 18.0511 60.9579C18.0811 60.963 18.1112 60.9684 18.1414 60.9728C18.167 60.9771 18.1927 60.9807 18.2185 60.9844C18.2512 60.9887 18.284 60.9923 18.317 60.996C18.3408 60.9985 18.3647 61.0014 18.3888 61.0036C18.4264 61.0068 18.4643 61.0094 18.5022 61.0116C18.5221 61.0126 18.5419 61.0145 18.562 61.0155C18.6203 61.0181 18.6788 61.0195 18.7377 61.0195H45.7693C45.8953 61.0195 46.0194 61.0134 46.142 61.0018C47.8576 60.8375 49.2213 59.5502 49.3956 57.9311C49.4083 57.8154 49.4145 57.6983 49.4145 57.5794V15.1265V5.44102C49.4145 3.95208 48.4123 2.68466 47.01 2.20539Z" fill="#B6A4D0"/>
<path d="M16.8596 56.3311H47.7523V6.68979H16.8596V56.3311Z" fill="#6D41A2" fill-opacity="0.1"/>
<path d="M43.4284 37.7141C41.7417 39.6504 39.9575 41.6882 38.3979 43.4636L29.3666 38.7448L38.7132 34.8798L43.4284 37.7141ZM40.975 45.799L38.9777 51.6322L22.5208 45.9741L22.8166 41.453L28.3102 39.1817L40.975 45.799ZM22.3933 35.101V29.7068L31.1698 29.5437L36.5069 33.9039L27.349 37.6906L22.3933 35.101ZM18.6122 28.9125L23.4493 23.1373L30.878 23.4273V28.6845L18.6122 28.9125ZM24.5035 13.7668L35.472 18.192V21.876L24.5035 21.4482V13.7668ZM36.8276 23.6594L37.3333 33.4344L31.797 28.9114V23.4629L36.8276 23.6594ZM47.7523 27.6008L38.8362 26.9127L38.5818 21.9975L36.3909 21.9119V18.5628L47.7523 23.1464V22.2056L43.9834 20.6851L43.27 6.68979H42.3499L43.0441 20.3063L36.3909 17.6224V17.5267H36.1539L34.6402 16.9158L34.6333 6.68979H33.7142L33.721 16.545L24.5035 12.8264V6.68979H22.6655V12.085L16.8596 9.7427V10.6831L22.6655 13.0255V18.4936L16.8596 15.9446V16.8984L22.6655 19.4474V22.6762L17.4238 28.9346L16.8596 28.9451V29.8098L21.4743 29.7238V35.6096L26.2926 38.1274L21.2376 40.2174L16.8596 37.2791V38.341L20.994 41.1158L20.9975 41.1114L20.0017 56.3311H21.8432L22.4619 46.8743L30.229 49.5448L29.34 56.3311H30.2659L31.115 49.8493L38.6959 52.4555L37.3688 56.3311H38.3343L39.5597 52.7525L47.7523 55.5694V54.6489L39.8414 51.9291L42.0809 45.3883L39.2147 43.8903C40.2107 42.7559 42.3615 40.3034 44.5077 37.8378C45.8748 36.2676 46.9325 35.0462 47.7523 34.0931V32.7169C46.7359 33.9042 45.4242 35.4204 44.0147 37.0409L39.2105 34.1529L38.8809 27.7836L47.7523 28.468V27.6008Z" fill="#EBEBEB"/>
<path d="M39.1697 52.4697L21.1432 46.4107L21.4589 40.8878L37.271 34.3136L31.0167 29.2714V22.8984L23.2564 22.6787V16.8713H23.9128V22.0798L31.6731 22.2992V28.9876L38.489 34.4825L22.0927 41.2993L21.8249 45.984L39.3906 51.8886L39.1697 52.4697Z" fill="#B6A4D0"/>
<path d="M22.7472 14.16C22.7533 13.7069 23.1487 13.3443 23.6304 13.3501C24.1121 13.3559 24.4976 13.7275 24.4916 14.1807C24.4855 14.6339 24.0901 14.9964 23.6084 14.9906C23.1267 14.9852 22.7411 14.6132 22.7472 14.16ZM21.8866 14.8119L23.5687 17.9521L25.3344 14.8525C25.8571 13.7156 25.018 12.4188 23.7022 12.3673C23.6827 12.3666 23.6632 12.3658 23.6435 12.3658C23.624 12.3655 23.6044 12.3655 23.5849 12.3658C22.2681 12.3861 21.3945 13.6626 21.8866 14.8119Z" fill="#8E71B3"/>
<path d="M38.8324 5.12891H25.7249C25.7064 5.12891 25.6914 5.11477 25.6914 5.09737V4.53833C25.6914 4.52093 25.7064 4.5068 25.7249 4.5068H38.8324C38.8509 4.5068 38.866 4.52093 38.866 4.53833V5.09737C38.866 5.11477 38.8509 5.12891 38.8324 5.12891Z" fill="#EBEBEB"/>
<path d="M30.7238 58.7223C30.7238 59.5105 31.3627 60.1494 32.1509 60.1494H32.3208C33.109 60.1494 33.7479 59.5105 33.7479 58.7223C33.7479 57.9341 33.109 57.2952 32.3208 57.2952H32.1509C31.3627 57.2952 30.7238 57.9341 30.7238 58.7223Z" fill="#141414"/>
<path d="M44.4525 56.3311H38.3343L38.7094 55.2351C41.0313 55.586 43.2638 55.9163 44.4784 56.0769C44.4718 56.1621 44.4629 56.2469 44.4525 56.3311ZM37.3688 56.3311H30.2659L30.4385 55.0136L30.724 55.0843C30.7553 55.0894 30.7865 55.0919 30.8171 55.0919C31.0899 55.0919 31.3261 54.8976 31.3569 54.6329C31.3573 54.6289 31.3578 54.6246 31.3583 54.6206C31.3586 54.6181 31.3589 54.6159 31.3592 54.6134C31.3593 54.6119 31.3595 54.6108 31.3596 54.6097C31.3742 54.4883 31.3922 54.3676 31.4134 54.2483H32.2725C33.6384 54.46 35.7021 54.7787 37.7916 55.0959L37.3688 56.3311ZM29.34 56.3311H21.8432L21.9795 54.2483H27.3593L29.5418 54.7906L29.34 56.3311ZM20.0017 56.3311H16.8596V54.2483H20.138L20.0017 56.3311Z" fill="#6D41A2" fill-opacity="0.1"/>
<path d="M47.7523 9.32324H43.4041L43.27 6.68906H47.7523V9.32324ZM42.4841 9.32324H34.6348L34.6333 6.68906H42.3499L42.4841 9.32324ZM33.716 9.32324H24.5035V6.68906H33.7142L33.716 9.32324ZM22.6655 9.32324H16.8596V6.68906H22.6655V9.32324Z" fill="#6D41A2" fill-opacity="0.1"/>
<path d="M90.02 29.2111H78.6089C78.2146 29.2111 77.895 29.5127 77.895 29.8846V34.329C77.895 34.7009 78.2146 35.0026 78.6089 35.0026H87.5929C87.9563 35.4815 88.6154 36.3389 88.6736 36.3389C88.728 36.3389 88.6231 35.529 88.5495 35.0026H90.02C90.4139 35.0026 90.7335 34.7009 90.7335 34.329V29.8846C90.7335 29.5127 90.4139 29.2111 90.02 29.2111Z" fill="#6D41A2"/>
<path d="M82.747 31.0859H79.4607C79.4048 31.0859 79.3597 31.0435 79.3597 30.991V30.8876C79.3597 30.8351 79.4048 30.7926 79.4607 30.7926H82.747C82.8029 30.7926 82.8484 30.8351 82.8484 30.8876V30.991C82.8484 31.0435 82.8029 31.0859 82.747 31.0859Z" fill="#EBEBEB"/>
<path d="M81.615 32.3672H79.4607C79.4048 32.3672 79.3597 32.3248 79.3597 32.2722V32.1689C79.3597 32.1163 79.4048 32.0739 79.4607 32.0739H81.615C81.6709 32.0739 81.716 32.1163 81.716 32.1689V32.2722C81.716 32.3248 81.6709 32.3672 81.615 32.3672Z" fill="#EBEBEB"/>
<path d="M84.7995 32.3672H82.4479C82.392 32.3672 82.3469 32.3248 82.3469 32.2722V32.1689C82.3469 32.1163 82.392 32.0739 82.4479 32.0739H84.7995C84.8554 32.0739 84.9005 32.1163 84.9005 32.1689V32.2722C84.9005 32.3248 84.8554 32.3672 84.7995 32.3672Z" fill="#EBEBEB"/>
<path d="M89.2199 32.3672H85.7336C85.6777 32.3672 85.6326 32.3248 85.6326 32.2722V32.1689C85.6326 32.1163 85.6777 32.0739 85.7336 32.0739H89.2199C89.2754 32.0739 89.3209 32.1163 89.3209 32.1689V32.2722C89.3209 32.3248 89.2754 32.3672 89.2199 32.3672Z" fill="#EBEBEB"/>
<path d="M89.2198 31.0859H83.6999C83.644 31.0859 83.5989 31.0435 83.5989 30.991V30.8876C83.5989 30.8351 83.644 30.7926 83.6999 30.7926H89.2198C89.2753 30.7926 89.3208 30.8351 89.3208 30.8876V30.991C89.3208 31.0435 89.2753 31.0859 89.2198 31.0859Z" fill="#EBEBEB"/>
<path d="M83.9319 33.6729H79.4607C79.4048 33.6729 79.3597 33.6301 79.3597 33.5775V33.4742C79.3597 33.422 79.4048 33.3792 79.4607 33.3792H83.9319C83.9878 33.3792 84.0329 33.422 84.0329 33.4742V33.5775C84.0329 33.6301 83.9878 33.6729 83.9319 33.6729Z" fill="#EBEBEB"/>
<path d="M89.2198 33.6729H84.7471C84.6912 33.6729 84.6458 33.6301 84.6458 33.5775V33.4742C84.6458 33.422 84.6912 33.3792 84.7471 33.3792H89.2198C89.2753 33.3792 89.3208 33.422 89.3208 33.4742V33.5775C89.3208 33.6301 89.2753 33.6729 89.2198 33.6729Z" fill="#EBEBEB"/>
<path d="M30.6566 53.9965C30.6566 53.9965 45.2451 56.2732 45.4201 56.1746C45.5951 56.076 47.4841 48.4091 47.4841 48.4091C47.4841 48.4091 35.4204 46.3691 35.225 46.3691C35.0296 46.3691 32.4058 48.3431 32.3708 48.4751C32.3359 48.6067 30.6566 53.9965 30.6566 53.9965Z" fill="#C6B8DB"/>
<path d="M75.1568 55.9452C75.5064 55.9778 93.1737 55.6218 93.1737 55.6218L91.8443 51.7992C91.8443 51.7992 89.3952 48.316 88.1009 48.3794C87.6125 48.4033 86.2114 48.2511 84.5848 48.0984C81.9025 47.8472 78.6069 47.596 77.7798 48.1354C76.4511 49.0022 75.2617 48.3112 74.6318 50.3842C74.0024 52.4572 73.511 52.6892 74.0016 53.9389C74.4919 55.1882 75.1568 55.9452 75.1568 55.9452Z" fill="#C6B8DB"/>
<path d="M32.0099 55.3618C32.0099 58.4865 34.702 61.0195 38.023 61.0195C41.344 61.0195 44.0363 58.4865 44.0363 55.3618C44.0363 52.2371 41.344 49.7041 38.023 49.7041C34.702 49.7041 32.0099 52.2371 32.0099 55.3618Z" fill="#141414"/>
<path d="M33.8394 55.3614C33.8394 57.5356 35.7126 59.2979 38.023 59.2979C40.3337 59.2979 42.207 57.5356 42.207 55.3614C42.207 53.1873 40.3337 51.425 38.023 51.425C35.7126 51.425 33.8394 53.1873 33.8394 55.3614Z" fill="#A0A0A0"/>
<path d="M35.225 55.3614C35.225 56.8155 36.4777 57.9941 38.0229 57.9941C39.5686 57.9941 40.8213 56.8155 40.8213 55.3614C40.8213 53.9076 39.5686 52.729 38.0229 52.729C36.4777 52.729 35.225 53.9076 35.225 55.3614Z" fill="#D8D9DD"/>
<path d="M78.3075 55.3618C78.3075 58.4865 80.9995 61.0195 84.3205 61.0195C87.6415 61.0195 90.3338 58.4865 90.3338 55.3618C90.3338 52.2371 87.6415 49.7041 84.3205 49.7041C80.9995 49.7041 78.3075 52.2371 78.3075 55.3618Z" fill="#141414"/>
<path d="M80.1368 55.3614C80.1368 57.5356 82.0101 59.2979 84.3205 59.2979C86.6312 59.2979 88.5045 57.5356 88.5045 55.3614C88.5045 53.1873 86.6312 51.425 84.3205 51.425C82.0101 51.425 80.1368 53.1873 80.1368 55.3614Z" fill="#A0A0A0"/>
<path d="M81.5225 55.3614C81.5225 56.8155 82.7752 57.9941 84.3204 57.9941C85.8661 57.9941 87.1188 56.8155 87.1188 55.3614C87.1188 53.9076 85.8661 52.729 84.3204 52.729C82.7752 52.729 81.5225 53.9076 81.5225 55.3614Z" fill="#D8D9DD"/>
<path d="M98.126 49.9769C97.6176 46.824 95.9744 46.1616 91.1128 45.2473C85.7485 44.238 78.9384 40.9476 78.9384 40.9476C78.9384 40.9476 67.3234 35.5951 64.478 34.9806C61.6327 34.3665 54.6357 34.542 48.7584 34.5858C42.8811 34.6297 39.429 36.1654 36.4437 38.3591C33.4585 40.5528 28.2808 42.2198 28.2808 42.2198L27.3402 42.3778C26.373 42.5402 25.6687 43.3316 25.6687 44.2558V52.08C25.6687 52.966 26.3031 53.7408 27.2138 53.967L30.6131 54.8113C30.89 54.8563 31.1474 54.6714 31.1779 54.4086C31.5502 51.2077 34.4922 48.7751 38.0006 48.7791C41.7309 48.7831 44.7898 51.666 44.7875 55.175C44.7875 55.5734 44.7482 55.9635 44.6734 56.342C44.5963 56.7328 44.9155 57.0928 45.3379 57.0928H76.6227C77.2309 57.0928 77.7031 56.5903 77.6225 56.0237C77.5836 55.751 77.5632 55.473 77.5624 55.1902C77.5512 51.7247 80.5307 48.8516 84.2144 48.7802C88.0334 48.7062 91.1536 51.5956 91.1536 55.1706C91.1536 55.4073 91.1397 55.6412 91.1132 55.871C91.0376 56.5225 91.5734 57.0928 92.2699 57.0928H96.7688C97.5867 57.0928 98.2497 56.4692 98.2497 55.6999V51.6014C98.2497 51.058 98.2127 50.5146 98.126 49.9769Z" fill="#6D41A2"/>
<path d="M25.8669 45.1817H29.5721C29.8895 45.1817 30.1045 45.4859 29.9818 45.7611L29.5656 46.6953C29.1688 47.5857 28.2425 48.165 27.216 48.165H25.8669C25.6029 48.165 25.3888 47.9638 25.3888 47.7155V45.6313C25.3888 45.3829 25.6029 45.1817 25.8669 45.1817Z" fill="#8362AA"/>
<path d="M92.2326 46.63C94.2727 46.9236 96.6228 48.741 96.6228 48.741C97.1844 49.3087 96.7207 50.2307 95.8978 50.1817L91.9192 49.9453C91.0928 49.896 90.3882 49.3646 90.1577 48.6163C89.7707 47.3597 90.0999 46.3225 92.2326 46.63Z" fill="#F3FCFF"/>
<path d="M25.6903 52.3717C25.4352 52.3659 25.2544 52.607 25.3485 52.83C25.6146 53.4608 26.1854 53.9568 26.9151 54.138L30.724 55.0842C31.0342 55.1346 31.3227 54.9273 31.3569 54.6329C31.4274 54.026 31.5814 53.4449 31.8062 52.8967C31.8823 52.7111 31.7387 52.5106 31.5271 52.5059L25.6903 52.3717Z" fill="#9A81BB"/>
<path d="M91.1857 53.8461C90.8962 53.8392 90.6726 54.0781 90.71 54.3482C90.7509 54.648 90.7725 54.954 90.7725 55.2643C90.7725 55.5271 90.757 55.7864 90.7274 56.0416C90.6433 56.7641 91.2381 57.3975 92.0109 57.3975H97.0028C97.9106 57.3975 98.6464 56.7054 98.6464 55.8516V54.6368C98.6464 54.292 98.3538 54.0107 97.9876 54.002L91.1857 53.8461Z" fill="#9A81BB"/>
<path d="M77.037 53.9307L76.7221 53.9234C76.9044 48.8744 78.4273 43.7866 78.6837 42.9614C77.7956 42.5046 71.8123 39.4405 67.7497 37.6706C64.2876 36.1624 60.4948 36.0065 59.0745 36.0065C58.8883 36.0065 58.7426 36.0091 58.6439 36.0116V53.5083L58.3294 53.5011V36.0142C57.9293 36.0069 56.7872 35.9891 55.2786 35.9891C51.4411 35.9891 45.235 36.1041 42.8607 36.8001C39.5543 37.7696 35.1298 42.1664 34.5882 42.7138L35.7561 47.8676C36.0429 47.8542 36.3212 47.848 36.591 47.848C40.7207 47.848 42.8876 49.3399 43.9923 50.645C44.811 51.6126 45.1726 52.5958 45.3287 53.2027L44.9987 53.1951C44.8372 52.6096 44.4853 51.6985 43.736 50.8176C42.2409 49.0607 39.7802 48.1442 36.5833 48.1442C36.2753 48.1442 35.9604 48.1529 35.6389 48.17L35.5044 48.1772L34.2467 42.6261L34.3011 42.5699C34.4984 42.3661 39.1758 37.5702 42.767 36.5174C45.1807 35.8097 51.2769 35.6897 55.1344 35.6897C56.9742 35.6897 58.3047 35.7172 58.4847 35.7209C58.5244 35.7191 58.731 35.7104 59.0702 35.7104C60.5164 35.7104 64.3651 35.8699 67.8819 37.4019C72.2675 39.3125 78.8806 42.7247 78.9469 42.7591L79.0591 42.8171L79.0213 42.9321C79.0032 42.989 77.234 48.485 77.037 53.9307Z" fill="#7853A2"/>
<path d="M31.4379 54.1182H31.4376C31.4493 54.0591 31.4619 54 31.4752 53.9416H31.4755C31.4622 54 31.4496 54.0591 31.4379 54.1182Z" fill="#7853A2"/>
<path d="M30.8171 55.0918C30.7865 55.0918 30.7553 55.0893 30.724 55.0842L30.4385 55.0135L29.5418 54.7905L26.9151 54.138C26.1854 53.9567 25.6146 53.4607 25.3485 52.8299L31.4751 53.9422C31.4618 54.0006 31.4493 54.0597 31.4376 54.1188C31.429 54.1619 31.4209 54.205 31.4132 54.2482C31.3921 54.3675 31.3742 54.4882 31.3596 54.6096C31.3595 54.6107 31.3593 54.6118 31.3592 54.6132C31.3589 54.6158 31.3586 54.618 31.3583 54.6205C31.3578 54.6245 31.3574 54.6288 31.3569 54.6328C31.3261 54.8975 31.0899 55.0918 30.8171 55.0918Z" fill="#8362AA"/>
<path d="M90.7598 55.6699C90.7612 55.6456 90.7623 55.6217 90.7634 55.5974H90.7641C90.7627 55.6217 90.7616 55.6456 90.7601 55.6699C90.7598 55.6699 90.7601 55.6699 90.7598 55.6699Z" fill="#7853A2"/>
<path d="M97.0028 57.3975H92.0109C91.2862 57.3975 90.7184 56.841 90.7196 56.1757C90.7196 56.1315 90.7223 56.0869 90.7273 56.0416C90.7285 56.0336 90.7292 56.0256 90.73 56.0177C90.73 56.0177 90.73 56.0177 90.73 56.0173C90.7304 56.0148 90.7308 56.0119 90.7312 56.0089C90.7435 55.8966 90.7531 55.7835 90.7601 55.6696C90.7616 55.6453 90.7628 55.6214 90.7643 55.5971H98.6463V55.8516C98.6463 56.7054 97.9105 57.3975 97.0028 57.3975Z" fill="#8362AA"/>
<path d="M77.8573 55.5969C77.8562 55.2764 77.8805 54.961 77.9282 54.6525C77.9857 54.2816 77.6916 53.9456 77.2934 53.9365L44.754 53.1893C44.399 53.1813 44.1431 53.5 44.2399 53.8212C44.4087 54.3817 44.4993 54.9723 44.4989 55.5809C44.4985 55.9848 44.4592 56.3796 44.3836 56.7628C44.3054 57.1631 44.6261 57.5332 45.0589 57.5332H76.901C77.5258 57.5332 77.998 57.0137 77.9163 56.4311C77.8781 56.1581 77.8581 55.8797 77.8573 55.5969Z" fill="#9A81BB"/>
<path d="M76.901 57.5332H45.0589C44.67 57.5332 44.3717 57.2345 44.3721 56.8835C44.3721 56.8437 44.3759 56.8034 44.3836 56.7628C44.4592 56.3796 44.4985 55.9848 44.4989 55.5809H77.8573C77.8573 55.5864 77.8573 55.5915 77.8573 55.5969C77.8581 55.8797 77.8782 56.1581 77.9163 56.4311C77.9229 56.4757 77.9256 56.5196 77.9256 56.5631C77.9252 57.0898 77.4781 57.5332 76.901 57.5332Z" fill="#8362AA"/>
<path d="M41.6075 44.9854H37.5476C37.4517 44.9854 37.3734 44.9121 37.3734 44.8215V44.48C37.3734 44.3897 37.4517 44.3161 37.5476 44.3161H41.6075C41.7035 44.3161 41.7818 44.3897 41.7818 44.48V44.8215C41.7818 44.9121 41.7035 44.9854 41.6075 44.9854Z" fill="#9A81BB"/>
<path d="M63.9889 45.3203H59.9293C59.833 45.3203 59.7551 45.2467 59.7551 45.1564V44.8149C59.7551 44.7247 59.833 44.6511 59.9293 44.6511H63.9889C64.0852 44.6511 64.1631 44.7247 64.1631 44.8149V45.1564C64.1631 45.2467 64.0852 45.3203 63.9889 45.3203Z" fill="#9A81BB"/>
<path d="M38.1497 43.2845L56.1327 43.4443C56.1327 43.4443 57.2336 43.4164 57.3831 42.4423C57.5331 41.4682 57.5204 37.2961 57.5204 37.2961C57.5204 37.2961 57.3897 36.4583 56.5367 36.4474C56.0183 36.4409 51.6735 36.149 47.4479 36.633C44.0008 37.0282 40.812 38.5088 38.3945 40.7837L37.1179 41.9844C37.1179 41.9844 36.2568 43.2678 38.1497 43.2845Z" fill="#141414"/>
<path d="M59.522 37.825V42.1993C59.522 42.7678 59.9857 43.2344 60.5719 43.2569L74.7024 43.7912C75.0266 43.8036 75.3445 43.6654 75.5303 43.4077C75.784 43.0564 75.8133 42.4778 74.5471 41.7023C72.3454 40.3537 66.7433 37.4367 64.6708 37.1547C63.3518 36.9748 61.6257 36.8969 60.5453 36.8639C59.9853 36.8469 59.522 37.2819 59.522 37.825Z" fill="#141414"/>
<path d="M89.3972 38.4765L89.3047 38.5548C89.2569 38.595 89.1852 38.5936 89.1443 38.5511L87.4985 36.8436C87.4576 36.8012 87.463 36.7341 87.5108 36.6939L87.6037 36.6156C87.6511 36.5753 87.7232 36.5768 87.7641 36.6192L89.4099 38.3267C89.4504 38.3692 89.445 38.4362 89.3972 38.4765Z" fill="#A892C5"/>
<path d="M94.9768 37.0895C94.7571 36.9205 93.0558 37.6249 93.0774 37.8704C93.099 38.1154 91.8906 40.4929 91.8906 40.4929L89.8018 38.9214L89.8011 38.9217C89.7826 38.8648 89.5844 38.2536 89.5748 38.1444C89.5648 38.0295 89.2117 37.8287 89.0479 37.8584C88.8841 37.8881 89.1882 38.0821 89.2079 38.1176C89.2622 38.2148 89.0521 38.251 89.0521 38.251C89.0521 38.251 88.4485 37.9385 88.4358 37.7547C88.4231 37.5709 88.2986 37.1855 88.1683 37.266C88.1009 37.3077 88.1016 37.5811 88.1225 37.7108C88.0839 37.5637 88.0288 37.3973 87.9756 37.3806C87.8777 37.3505 87.8291 37.4679 87.8469 37.5252C87.8646 37.5829 88.0222 38.2079 88.07 38.2786C88.1171 38.3471 89.0915 39.0881 89.2322 39.2491C89.2322 39.2491 91.9337 42.1639 92.1261 42.24C92.2945 42.3067 92.8966 41.3025 93.4651 40.6354C94.0337 39.9687 95.6645 37.6169 94.9768 37.0895Z" fill="#F7A491"/>
<path d="M100.428 58.5205C100.428 58.5205 100.799 58.8624 100.808 58.9878C100.816 59.1132 100.841 60.4575 100.689 60.5829C100.538 60.7084 100.093 60.7972 100.236 60.9382C100.344 61.0452 101.176 61.0223 101.727 60.9937C101.888 60.9854 102.09 59.773 102.154 59.5947C102.247 59.3362 102.472 58.7532 102.388 58.5727C102.347 58.485 102.15 58.3044 101.874 58.1358C101.583 57.9586 101.305 57.5638 101.305 57.5638L100.428 58.5205Z" fill="#F48C7F"/>
<path d="M96.5827 59.317L96.9153 60.2049C96.94 60.3452 97.0371 60.6921 97.0371 60.8198C97.0371 61.299 94.7472 60.413 95.2602 60.2005C95.3069 60.1813 95.4526 60.0276 95.4676 59.8645C95.4915 59.6132 95.2749 59.2982 95.2749 59.2982L96.5827 59.317Z" fill="#F7A491"/>
<path d="M92.9899 42.8238C92.9899 42.8238 92.8231 44.4114 92.8231 44.4353C92.8231 47.0039 92.2834 52.021 92.3863 52.5039C92.6365 53.6818 95.3304 59.6904 95.3304 59.6904L96.7862 59.5262L94.889 52.332L95.5871 49.4365L96.5754 43.7128L92.9899 42.8238Z" fill="#8362AA"/>
<path d="M97.8767 44.2281L98.1526 45.733L98.9004 51.9265L101.747 57.9802C101.747 57.9802 101.346 58.8608 100.756 58.9844L96.225 52.7694L93.4109 44.8168L93.5096 43.0502L97.8767 44.2281Z" fill="#9A81BB"/>
<path d="M92.4094 39.0426L94.4284 39.2373C94.4284 39.2373 94.5209 37.6751 94.5209 36.9301C94.5209 36.026 94.4392 34.8619 94.3236 34.8869C93.999 34.9572 93.5619 35.1262 93.3014 35.464C92.4006 36.6318 92.4094 39.0426 92.4094 39.0426Z" fill="#141414"/>
<path d="M93.4012 36.7705C93.3588 37.0461 92.5829 44.5393 92.5829 44.5393C96.2589 46.2149 98.2871 44.8377 98.2871 44.8377C98.2871 44.8377 98.1668 39.5762 98.311 38.8598C98.4066 38.386 98.5253 35.2374 98.2 35.1493C97.7826 35.0362 97.3038 34.9158 96.7819 34.8647C96.3367 34.8212 94.6065 34.7958 94.297 34.894C94.297 34.894 93.5789 35.6115 93.4012 36.7705Z" fill="#141414"/>
<path d="M101.856 58.127C101.856 58.127 101 60.4005 100.665 60.5103C100.576 60.5397 100.15 60.6137 100.069 60.7917C100.045 60.8453 100.069 61.0244 100.069 61.0244H101.852C101.852 61.0244 102.078 60.0227 102.167 59.5826C102.167 59.5826 102.639 58.5073 102.587 58.4094C102.534 58.3116 101.856 58.127 101.856 58.127Z" fill="#7853A2"/>
<path d="M97.1674 60.9775L96.9053 60.1955C96.9053 60.1955 96.3545 60.4156 96.0789 60.379C95.8037 60.3424 95.266 60.1955 95.266 60.1955C94.1667 60.5371 93.2663 60.7027 93.4301 60.9775H97.1674Z" fill="#7853A2"/>
<path d="M92.1261 42.2395C92.1176 42.2363 92.0875 42.2142 92.0706 42.2007C92.1357 41.4666 92.1241 40.7553 91.8798 40.5146C91.8859 40.5034 91.9391 40.396 91.995 40.2851C92.2779 40.4918 92.4121 41.0403 92.3596 41.931C92.3558 41.9923 92.3373 42.0391 92.3223 42.1152C92.2402 42.2004 92.1658 42.2551 92.1261 42.2395Z" fill="#F7A491"/>
<path d="M101.928 44.6193C101.93 44.6034 101.931 44.5871 101.929 44.5711C101.875 44.0523 101.419 39.6946 101.341 39.5094C101.272 39.3423 99.2245 36.5786 99.2245 36.5786L98.2181 37.8725L100.187 40.3512C100.231 40.5089 100.942 43.4505 100.942 43.4505C100.942 43.4505 101.087 43.9863 101.153 44.3075C101.123 44.3851 101.094 44.458 101.068 44.5182C101.003 44.6461 100.926 44.7513 100.856 44.8397C100.768 44.9514 100.622 45.1943 100.604 45.2596C100.584 45.3353 100.546 45.4927 100.525 45.5873C100.503 45.6823 100.474 45.7928 100.469 45.8443C100.466 45.8759 100.432 45.9382 100.406 45.9825C100.366 46.0481 100.433 46.126 100.509 46.1021C100.581 46.0796 100.636 45.9922 100.671 45.9379C100.768 45.7841 100.82 45.5035 100.843 45.5184C100.868 45.5329 100.952 46.0093 100.966 46.0629C100.979 46.117 101.081 46.6698 101.139 46.771C101.196 46.8721 101.272 46.8551 101.292 46.7916C101.31 46.7373 101.229 45.9636 101.229 45.9636C101.229 45.9636 101.219 45.865 101.265 45.8958C101.311 45.9266 101.385 46.6289 101.417 46.7318C101.449 46.8344 101.522 46.8892 101.583 46.8065C101.658 46.7061 101.53 45.9611 101.53 45.9611C101.53 45.9611 101.515 45.8672 101.557 45.8759C101.6 45.8846 101.653 46.4835 101.686 46.535C101.719 46.5868 101.802 46.6053 101.842 46.519C101.888 46.4175 101.767 45.7533 101.767 45.7533C101.767 45.7533 101.774 45.7004 101.8 45.7182C101.826 45.7356 101.91 46.2428 101.965 46.2899C102.011 46.3294 102.049 46.291 102.049 46.291C102.149 46.2264 101.996 45.7439 101.997 45.5039C101.999 45.2643 101.881 44.9945 101.916 44.7089C101.918 44.6911 101.924 44.6469 101.928 44.6193Z" fill="#F8A492"/>
<path d="M100.824 38.3283L99.0753 39.4365C99.0753 39.4365 98.0893 38.052 97.5601 37.5593C96.8975 36.9419 97.8018 35.0506 98.2288 35.1575C99.184 35.3968 100.824 38.3283 100.824 38.3283Z" fill="#141414"/>
<path d="M96.6536 33.2451L96.9154 34.8725C96.9154 34.8725 95.9598 36.8099 95.3894 36.642C94.911 36.501 95.2055 34.7866 95.2055 34.7866C95.2055 34.7866 95.4661 33.8657 95.3878 33.405C95.3096 32.9445 96.6536 33.2451 96.6536 33.2451Z" fill="#F7A491"/>
<path d="M95.3878 33.4047C95.3095 32.9443 96.6536 33.2448 96.6536 33.2448L96.6752 33.3797C96.6358 33.47 96.5877 33.5472 96.5295 33.6066C96.2292 33.9115 95.7601 34.0946 95.3546 34.1084C95.3951 33.8601 95.4201 33.594 95.3878 33.4047Z" fill="#8362AA"/>
<path d="M96.874 30.9429C96.9118 30.9299 97.1785 32.7962 96.6728 33.3099C96.1671 33.8233 95.1819 33.9915 94.8284 33.5869C94.4376 33.1395 94.4573 31.1336 95.2436 30.6054C96.0295 30.0772 96.874 30.9429 96.874 30.9429Z" fill="#F7A491"/>
<path d="M95.5427 29.6067C96.1505 29.7238 96.5441 30.074 96.6886 30.2234C96.9646 30.2542 97.3396 30.3981 97.727 31.0032C98.203 31.7475 97.8515 32.5719 97.2972 32.9761C96.7426 33.3807 96.7503 33.8477 96.7503 33.8477L96.6628 33.6062C96.598 33.4231 96.5718 33.2292 96.5934 33.037C96.6065 32.9217 96.6327 32.797 96.6832 32.6948C96.8162 32.4247 96.3968 32.2452 96.2789 32.0205C96.1883 31.8475 96.1841 31.4517 96.0411 31.1656L95.8707 30.9474C95.8707 30.9474 95.4775 30.6584 95.0925 30.7396C94.7078 30.8212 94.7629 29.4566 95.5427 29.6067Z" fill="#8E71B3"/>
<path d="M96.3048 32.353C96.3009 32.5806 96.4108 32.767 96.5499 32.7695C96.6891 32.7717 96.8055 32.589 96.8093 32.3613C96.8136 32.1336 96.7037 31.9469 96.5646 31.9447C96.425 31.9426 96.309 32.1253 96.3048 32.353Z" fill="#F7A491"/>
<path d="M95.4837 32.8788L94.7217 32.8418C94.7217 32.8418 94.724 33.1159 95.0589 33.1412C95.4667 33.1724 95.4837 32.8788 95.4837 32.8788Z" fill="#EBEBEB"/>
<path d="M56.3876 21.8978C56.403 20.7387 57.4144 19.8114 58.6463 19.8259C59.8785 19.8404 60.8645 20.7917 60.8491 21.9503C60.8337 23.1094 59.8223 24.0367 58.5904 24.0222C57.3581 24.0077 56.3721 23.0564 56.3876 21.8978ZM54.1867 23.5643L58.4886 31.5967L63.0049 23.6691C64.3416 20.7612 62.1955 17.4437 58.8301 17.3121C58.7804 17.3099 58.7303 17.3088 58.6802 17.3081C58.6301 17.3073 58.58 17.3077 58.5303 17.3084C55.1622 17.3603 52.9278 20.626 54.1867 23.5643Z" fill="#8362AA"/>
<path d="M114.181 62.001H2.34128C2.07413 62.001 1.85754 61.7972 1.85754 61.546V61.4329C1.85754 61.1816 2.07413 60.9779 2.34128 60.9779H114.181C114.448 60.9779 114.664 61.1816 114.664 61.4329V61.546C114.664 61.7972 114.448 62.001 114.181 62.001Z" fill="#A892C5"/>
</svg>
