<svg width="24" height="25" viewBox="0 0 24 25" fill="none" xmlns="http://www.w3.org/2000/svg">
<g clip-path="url(#clip0_2842_37986)">
<path d="M19.2801 12.99V12.0036L20.5514 10.9205C20.7857 10.7194 20.9395 10.4441 20.9855 10.1433C21.0316 9.84247 20.9669 9.53549 20.803 9.27659L19.2403 6.69786C19.1242 6.50205 18.9573 6.3394 18.7562 6.22625C18.5551 6.1131 18.3271 6.05341 18.0948 6.05318C17.9509 6.0521 17.8078 6.07388 17.6711 6.11765L16.0621 6.64629C15.7843 6.46655 15.4945 6.30503 15.1947 6.16277L14.857 4.53818C14.7964 4.24137 14.6306 3.97475 14.3885 3.78499C14.1464 3.59524 13.8435 3.49444 13.5327 3.50024H10.4339C10.1232 3.49444 9.82024 3.59524 9.57814 3.78499C9.33603 3.97475 9.17019 4.24137 9.10964 4.53818L8.77195 6.16277C8.46998 6.30499 8.178 6.46652 7.89793 6.64629L6.32205 6.09186C6.18386 6.0568 6.04076 6.04374 5.89828 6.05318C5.66605 6.05341 5.43797 6.1131 5.23692 6.22625C5.03586 6.3394 4.8689 6.50205 4.75279 6.69786L3.19014 9.27659C3.03559 9.5351 2.97816 9.83789 3.02769 10.1331C3.07721 10.4283 3.23062 10.6976 3.46162 10.8947L4.71306 12.01V12.9964L3.46162 14.0795C3.22409 14.278 3.06649 14.5521 3.0168 14.8531C2.9671 15.154 3.02851 15.4624 3.19014 15.7234L4.75279 18.3021C4.8689 18.498 5.03586 18.6606 5.23692 18.7738C5.43797 18.8869 5.66605 18.9466 5.89828 18.9468C6.0422 18.9479 6.18533 18.9261 6.32205 18.8824L7.93104 18.3537C8.20883 18.5334 8.49861 18.695 8.79844 18.8372L9.13613 20.4618C9.19668 20.7586 9.36252 21.0253 9.60462 21.215C9.84672 21.4048 10.1497 21.5056 10.4604 21.4998H13.5857C13.8964 21.5056 14.1994 21.4048 14.4415 21.215C14.6836 21.0253 14.8494 20.7586 14.91 20.4618L15.2476 18.8372C15.5496 18.695 15.8416 18.5335 16.1217 18.3537L17.724 18.8824C17.8608 18.9261 18.0039 18.9479 18.1478 18.9468C18.38 18.9466 18.6081 18.8869 18.8092 18.7738C19.0102 18.6606 19.1772 18.498 19.2933 18.3021L20.803 15.7234C20.9575 15.4649 21.015 15.1621 20.9654 14.8669C20.9159 14.5717 20.7625 14.3025 20.5315 14.1053L19.2801 12.99ZM18.0948 17.6575L15.8237 16.9096C15.2921 17.3481 14.6844 17.6908 14.0293 17.9218L13.5592 20.2362H10.4339L9.9638 17.9476C9.31386 17.71 8.70953 17.3679 8.17603 16.9354L5.89828 17.6575L4.33564 15.0787L6.13665 13.5315C6.01422 12.8642 6.01422 12.181 6.13665 11.5136L4.33564 9.92127L5.89828 7.34254L8.16941 8.09037C8.70106 7.65192 9.30868 7.30918 9.9638 7.07822L10.4339 4.76381H13.5592L14.0293 7.05244C14.6793 7.28995 15.2836 7.6321 15.8171 8.06459L18.0948 7.34254L19.6575 9.92127L17.8565 11.4685C17.9789 12.1358 17.9789 12.819 17.8565 13.4864L19.6575 15.0787L18.0948 17.6575Z" fill="#0F1110"/>
<path d="M11.9966 16.3681C11.2108 16.3681 10.4427 16.1412 9.78938 15.7162C9.13605 15.2912 8.62685 14.6871 8.32615 13.9803C8.02546 13.2735 7.94678 12.4957 8.10008 11.7454C8.25337 10.995 8.63174 10.3058 9.18735 9.76485C9.74296 9.22388 10.4508 8.85548 11.2215 8.70623C11.9922 8.55698 12.791 8.63358 13.5169 8.92635C14.2428 9.21912 14.8633 9.7149 15.2998 10.351C15.7364 10.9871 15.9694 11.735 15.9694 12.5C15.9747 13.0094 15.8756 13.5147 15.6778 13.9864C15.48 14.458 15.1876 14.8865 14.8176 15.2467C14.4476 15.6069 14.0076 15.8916 13.5232 16.0842C13.0387 16.2767 12.5198 16.3733 11.9966 16.3681ZM11.9966 9.92127C11.6465 9.91333 11.2985 9.97461 10.9734 10.1014C10.6484 10.2282 10.3532 10.4178 10.1056 10.6589C9.85801 10.8999 9.66322 11.1874 9.53301 11.5038C9.40279 11.8203 9.33986 12.1592 9.34801 12.5C9.33986 12.8408 9.40279 13.1797 9.53301 13.4962C9.66322 13.8126 9.85801 14.1001 10.1056 14.3411C10.3532 14.5822 10.6484 14.7718 10.9734 14.8986C11.2985 15.0254 11.6465 15.0867 11.9966 15.0787C12.3466 15.0867 12.6947 15.0254 13.0197 14.8986C13.3447 14.7718 13.6399 14.5822 13.8875 14.3411C14.1351 14.1001 14.3299 13.8126 14.4601 13.4962C14.5903 13.1797 14.6533 12.8408 14.6451 12.5C14.6533 12.1592 14.5903 11.8203 14.4601 11.5038C14.3299 11.1874 14.1351 10.8999 13.8875 10.6589C13.6399 10.4178 13.3447 10.2282 13.0197 10.1014C12.6947 9.97461 12.3466 9.91333 11.9966 9.92127Z" fill="#0F1110"/>
</g>
<defs>
<clipPath id="clip0_2842_37986">
<rect width="24" height="24" fill="white" transform="translate(0 0.5)"/>
</clipPath>
</defs>
</svg>
