<svg width="28" height="28" viewBox="0 0 28 28" fill="none" xmlns="http://www.w3.org/2000/svg">
<g clip-path="url(#clip0_3179_12943)">
<path d="M13.4304 24.5H3.5V6.125C3.5 4.67775 4.67775 3.5 6.125 3.5H16.625C18.0723 3.5 19.25 4.67775 19.25 6.125V10.5516C18.9621 10.5201 18.6708 10.5 18.375 10.5C18.0793 10.5 17.7879 10.5193 17.5 10.5516V6.125C17.5 5.642 17.108 5.25 16.625 5.25H6.125C5.642 5.25 5.25 5.642 5.25 6.125V22.75H11.8282C12.271 23.4115 12.8126 24.0004 13.4304 24.5ZM13.4304 12.25H7V14H11.8282C12.271 13.3385 12.8126 12.7496 13.4304 12.25ZM7 18.375H10.5C10.5 17.773 10.5735 17.1885 10.7021 16.625H7V18.375ZM24.5 18.375C24.5 21.7516 21.7516 24.5 18.375 24.5C14.9984 24.5 12.25 21.7516 12.25 18.375C12.25 14.9984 14.9984 12.25 18.375 12.25C21.7516 12.25 24.5 14.9984 24.5 18.375ZM22.75 18.375C22.75 15.9626 20.7874 14 18.375 14C15.9626 14 14 15.9626 14 18.375C14 20.7874 15.9626 22.75 18.375 22.75C20.7874 22.75 22.75 20.7874 22.75 18.375ZM15.75 7.875H7V9.625H15.75V7.875ZM20.6404 16.3555L17.8159 19.1336L16.3896 17.7511L15.1708 19.0076L16.7851 20.5721C17.0599 20.8478 17.4265 21 17.8168 21C18.207 21 18.5736 20.8478 18.8431 20.5783L21.8671 17.6041L20.6404 16.3555Z" fill="#0F1110"/>
</g>
<defs>
<clipPath id="clip0_3179_12943">
<rect width="28" height="28" fill="white"/>
</clipPath>
</defs>
</svg>
