<svg width="28" height="28" viewBox="0 0 28 28" fill="none" xmlns="http://www.w3.org/2000/svg">
<g clip-path="url(#clip0_2930_8485)">
<path d="M6.02563 9.48138C6.16849 9.48184 6.30929 9.44731 6.43574 9.38081C6.56218 9.31431 6.67041 9.21786 6.75099 9.09989C7.40146 8.13702 8.23695 7.31314 9.20881 6.67619C9.30487 6.61299 9.38754 6.53149 9.45211 6.43634C9.51667 6.34119 9.56186 6.23426 9.5851 6.12165C9.60834 6.00904 9.60917 5.89295 9.58754 5.78002C9.56591 5.66709 9.52225 5.55952 9.45906 5.46346C9.39586 5.3674 9.31436 5.28473 9.21921 5.22017C9.12407 5.1556 9.01713 5.11041 8.90452 5.08717C8.79191 5.06394 8.67582 5.06311 8.56289 5.08473C8.44996 5.10636 8.34239 5.15002 8.24633 5.21322C7.08256 5.97605 6.08203 6.96261 5.30289 8.11553C5.21381 8.24699 5.16217 8.40021 5.15353 8.55878C5.14489 8.71734 5.17956 8.87527 5.25383 9.01563C5.3281 9.15599 5.43917 9.2735 5.57514 9.35554C5.7111 9.43759 5.86683 9.48109 6.02563 9.48138Z" fill="#0F1110"/>
<path d="M5.25039 13.9998C5.25023 13.4214 5.3068 12.8443 5.41927 12.2769C5.44362 12.1636 5.44519 12.0465 5.42389 11.9325C5.4026 11.8185 5.35886 11.7099 5.29522 11.613C5.23158 11.5161 5.14931 11.4327 5.05319 11.3679C4.95707 11.303 4.84901 11.2579 4.73531 11.2352C4.6216 11.2125 4.50451 11.2126 4.39084 11.2355C4.27718 11.2584 4.1692 11.3037 4.07319 11.3687C3.97717 11.4337 3.89504 11.5172 3.83156 11.6142C3.76809 11.7112 3.72453 11.8199 3.70343 11.934C3.43219 13.2996 3.43219 14.7052 3.70343 16.0709C3.74377 16.2685 3.85115 16.4461 4.00741 16.5737C4.16367 16.7012 4.3592 16.7709 4.56091 16.7709C4.61964 16.7711 4.67826 16.7655 4.7359 16.7542C4.96344 16.7086 5.16354 16.5745 5.29219 16.3814C5.42083 16.1882 5.46749 15.9519 5.42189 15.7244C5.30836 15.1565 5.25092 14.5789 5.25039 13.9998Z" fill="#0F1110"/>
<path d="M9.21231 21.3251C8.24025 20.6896 7.40444 19.8669 6.75361 18.9049C6.68909 18.8098 6.60647 18.7283 6.51045 18.6651C6.41443 18.6019 6.30691 18.5582 6.19401 18.5365C5.96601 18.4928 5.72997 18.5415 5.53783 18.6718C5.34568 18.8021 5.21317 19.0033 5.16944 19.2314C5.12571 19.4594 5.17434 19.6954 5.30464 19.8875C6.08537 21.0405 7.08773 22.0265 8.25333 22.7881C8.44733 22.9157 8.68409 22.9611 8.91152 22.9141C9.13895 22.8672 9.33842 22.7319 9.46606 22.5379C9.59369 22.3439 9.63903 22.1071 9.5921 21.8797C9.54517 21.6522 9.40981 21.4528 9.21581 21.3251H9.21231Z" fill="#0F1110"/>
<path d="M14.0002 3.5C13.363 3.50109 12.7273 3.55965 12.1006 3.675C11.8856 3.71394 11.6928 3.83197 11.5604 4.00586C11.428 4.17975 11.3654 4.39691 11.3851 4.6146C11.4047 4.83229 11.5051 5.03475 11.6665 5.18213C11.8279 5.32951 12.0387 5.41114 12.2573 5.41096C12.3103 5.41057 12.3633 5.40589 12.4156 5.39696C12.9383 5.30009 13.4687 5.25089 14.0002 5.24996V22.7496C13.4688 22.7498 12.9384 22.7018 12.4156 22.6061C12.1873 22.5643 11.9517 22.615 11.7607 22.7469C11.5697 22.8788 11.4389 23.0813 11.3971 23.3096C11.3554 23.5379 11.406 23.7735 11.538 23.9645C11.6699 24.1555 11.8723 24.2863 12.1006 24.3281C13.6149 24.6051 15.1716 24.546 16.6605 24.155C18.1495 23.764 19.5343 23.0506 20.7171 22.0654C21.9 21.0801 22.8519 19.847 23.5056 18.4533C24.1592 17.0595 24.4987 15.5392 24.5 13.9998C24.497 11.216 23.3898 8.54708 21.4214 6.57864C19.4529 4.6102 16.784 3.50301 14.0002 3.5Z" fill="#0F1110"/>
</g>
<defs>
<clipPath id="clip0_2930_8485">
<rect width="28" height="28" fill="white"/>
</clipPath>
</defs>
</svg>
