<svg width="30" height="30" viewBox="0 0 30 30" fill="none" xmlns="http://www.w3.org/2000/svg">
<path fill-rule="evenodd" clip-rule="evenodd" d="M23.4097 8.62927V7.34986C23.4097 5.53916 21.9418 4.07129 20.1311 4.07129H7.01685C5.20615 4.07129 3.73828 5.53916 3.73828 7.34986V22.6499C3.73828 24.4606 5.20615 25.9284 7.01685 25.9284H22.3169C24.1276 25.9284 25.5954 24.4606 25.5954 22.6499V11.7213C25.5954 10.2938 24.6831 9.07935 23.4097 8.62927ZM5.924 7.34986C5.924 6.74629 6.41328 6.257 7.01685 6.257H20.1311C20.7347 6.257 21.224 6.74629 21.224 7.34986V8.44272H7.01685C6.41328 8.44272 5.924 7.95343 5.924 7.34986ZM5.924 10.4419C6.26582 10.5627 6.63366 10.6284 7.01685 10.6284H22.3169C22.9204 10.6284 23.4097 11.1177 23.4097 11.7213V13.907H20.1311C18.3204 13.907 16.8526 15.3749 16.8526 17.1856C16.8526 18.9963 18.3204 20.4641 20.1311 20.4641H23.4097V22.6499C23.4097 23.2534 22.9204 23.7427 22.3169 23.7427H7.01685C6.41328 23.7427 5.924 23.2534 5.924 22.6499V10.4419ZM20.1311 16.0927H23.4097V18.2784H20.1311C19.5276 18.2784 19.0383 17.7891 19.0383 17.1856C19.0383 16.582 19.5276 16.0927 20.1311 16.0927Z" fill="#5E5F64"/>
</svg>
