<svg width="24" height="25" viewBox="0 0 24 25" fill="none" xmlns="http://www.w3.org/2000/svg">
<g clip-path="url(#clip0_2842_28065)">
<path fill-rule="evenodd" clip-rule="evenodd" d="M19.2 7.25364V6.2C19.2 4.70883 17.9912 3.5 16.5 3.5H5.7C4.20883 3.5 3 4.70883 3 6.2V18.8C3 20.2912 4.20883 21.5 5.7 21.5H18.3C19.7912 21.5 21 20.2912 21 18.8V9.8C21 8.6244 20.2487 7.62429 19.2 7.25364ZM4.8 6.2C4.8 5.70294 5.20294 5.3 5.7 5.3H16.5C16.9971 5.3 17.4 5.70294 17.4 6.2V7.1H5.7C5.20294 7.1 4.8 6.69706 4.8 6.2ZM4.8 8.74636C5.0815 8.84586 5.38443 8.9 5.7 8.9H18.3C18.7971 8.9 19.2 9.30294 19.2 9.8V11.6H16.5C15.0088 11.6 13.8 12.8088 13.8 14.3C13.8 15.7912 15.0088 17 16.5 17H19.2V18.8C19.2 19.2971 18.7971 19.7 18.3 19.7H5.7C5.20294 19.7 4.8 19.2971 4.8 18.8V8.74636ZM16.5 13.4H19.2V15.2H16.5C16.0029 15.2 15.6 14.7971 15.6 14.3C15.6 13.8029 16.0029 13.4 16.5 13.4Z" fill="#0F1110"/>
</g>
<defs>
<clipPath id="clip0_2842_28065">
<rect width="24" height="24" fill="white" transform="translate(0 0.5)"/>
</clipPath>
</defs>
</svg>
